<?xml version="1.0" encoding="utf-8"?>
<!-- Generator: Adobe Illustrator 18.1.1, SVG Export Plug-In . SVG Version: 6.00 Build 0)  -->
<svg version="1.1" baseProfile="tiny" id="Layer_1" xmlns="http://www.w3.org/2000/svg" xmlns:xlink="http://www.w3.org/1999/xlink"
	 x="0px" y="0px" viewBox="0 0 250 250" xml:space="preserve">
<path fill="#37474F" d="M20.8,203.1V36.5c0-11.5,9.4-20.8,20.8-20.8h114.6c11.5,0,20.8,9.4,20.8,20.8v166.7
	c0,11.5-9.4,20.8-20.8,20.8H41.7C30.2,224,20.8,214.6,20.8,203.1z"/>
<path fill="#BBDEFB" d="M156.2,31.2H41.7c-3.1,0-5.2,2.1-5.2,5.2v151c0,3.1,2.1,5.2,5.2,5.2h114.6c3.1,0,5.2-2.1,5.2-5.2v-151
	C161.5,33.3,159.4,31.2,156.2,31.2z"/>
<rect x="78.1" y="203.1" fill="#78909C" width="31.2" height="10.4"/>
<path fill="#1A758A" d="M125,213.5v-125c0-11.5,9.4-20.8,20.8-20.8h62.5c11.5,0,20.8,9.4,20.8,20.8v125c0,11.5-9.4,20.8-20.8,20.8
	h-62.5C134.4,234.4,125,225,125,213.5z"/>
<path fill="#FFF3E0" d="M208.3,83.3h-62.5c-3.1,0-5.2,2.1-5.2,5.2v114.6c0,3.1,2.1,5.2,5.2,5.2h62.5c3.1,0,5.2-2.1,5.2-5.2V88.5
	C213.5,85.4,211.5,83.3,208.3,83.3z"/>
<circle fill="#0D383F" cx="177.1" cy="221.4" r="7.8"/>
</svg>
