<svg width="162" height="48" viewBox="0 0 162 48" xmlns="http://www.w3.org/2000/svg" xmlns:sketch="http://www.bohemiancoding.com/sketch/ns"><title>Kent-State-Logo-White</title><desc>Created with Sketch.</desc><g sketch:type="MSLayerGroup" fill="none"><path d="M13.438 42.684c0-1.424 0-1.679-.021-1.971-.018-.31-.089-.459-.389-.521l-.312-.027-.072-.056c0-.054.045-.071.146-.071.41 0 .966.027 1.047.027.082 0 .629-.027.903-.027.101 0 .146.018.146.071l-.072.056-.228.027c-.247.035-.318.202-.339.521-.018.292-.018.548-.018 1.971v1.281c0 1.313.291 1.879.683 2.255.449.419.859.503 1.376.503.556 0 1.103-.265 1.433-.657.419-.521.529-1.299.529-2.237v-1.144c0-1.424 0-1.679-.018-1.971-.021-.31-.092-.459-.393-.521l-.312-.027-.072-.056c0-.054.045-.071.146-.071.41 0 .912.027.965.027.066 0 .494-.027.767-.027.098 0 .145.018.145.071l-.075.056-.225.027c-.247.044-.321.202-.339.521-.018.292-.018.548-.018 1.971v.977c0 .988-.11 2.084-.838 2.731-.657.587-1.341.676-1.879.676-.309 0-1.23-.036-1.878-.649-.446-.429-.791-1.066-.791-2.4v-1.335zM29.897 45.698c.018.75.11.986.353 1.06.175.045.375.054.458.054l.072.057c0 .053-.053.071-.164.071-.52 0-.882-.027-.966-.027-.083 0-.463.027-.874.027l-.145-.071.071-.057c.075 0 .238-.009.374-.054.229-.062.274-.327.274-1.161l.009-5.232c0-.355.027-.456.101-.456l.318.292c.137.155 1.495 1.626 2.898 3.133.904.968 1.896 2.082 2.187 2.382l-.098-4.639c-.012-.593-.075-.793-.357-.867-.164-.036-.375-.044-.446-.044l-.075-.065c0-.054.075-.063.181-.063.411 0 .851.027.949.027.101 0 .401-.027.775-.027.101 0 .164.009.164.063l-.098.065-.22.027c-.3.062-.338.265-.338.813l-.019 5.351c0 .602-.018.649-.08.649-.074 0-.184-.101-.666-.586-.101-.089-1.414-1.433-2.38-2.472-1.055-1.144-2.086-2.293-2.378-2.624l.12 4.374zM47.168 44.293c0 .875 0 1.599.047 1.98.027.265.08.468.354.503l.411.036.075.057c0 .044-.048.071-.146.071-.502 0-1.076-.027-1.123-.027-.045 0-.618.027-.892.027-.101 0-.146-.018-.146-.071l.072-.057.273-.036c.184-.036.229-.238.265-.503.047-.381.047-1.105.047-1.98v-1.608c0-1.424 0-1.679-.021-1.971-.018-.31-.107-.468-.309-.512l-.282-.036-.071-.056c0-.054.045-.071.146-.071.3 0 .873.027.918.027.047 0 .621-.027.894-.027.102 0 .146.018.146.071l-.075.056-.225.027c-.247.044-.321.202-.339.521-.018.292-.018.548-.018 1.971v1.608zM60.512 45.827c.529-1.224 1.75-4.411 1.949-5.069.045-.137.084-.265.084-.345l-.119-.211c-.11-.036-.246-.036-.348-.036l-.098-.056c0-.054.054-.071.2-.071.366 0 .784.027.894.027.054 0 .446-.027.71-.027.098 0 .155.018.155.063l-.11.065c-.063 0-.265 0-.437.11-.119.08-.256.235-.503.857-.101.256-.556 1.352-1.019 2.475-.556 1.334-.965 2.32-1.177 2.767-.256.548-.291.694-.383.694-.11 0-.155-.129-.327-.566l-2.232-5.599c-.202-.509-.339-.61-.657-.703-.137-.036-.292-.036-.348-.036l-.071-.065c0-.054.089-.063.235-.063.439 0 .957.027 1.066.027.092 0 .503-.027.848-.027.166 0 .246.018.246.063l-.089.065c-.101 0-.264.009-.347.044-.101.044-.119.119-.119.185 0 .116.11.399.247.756l1.75 4.676zM73.417 42.684c0-1.424 0-1.679-.019-1.971-.018-.31-.091-.459-.392-.521l-.309-.027-.074-.056c0-.054.047-.071.146-.071.41 0 .986.027 1.031.027.063 0 1.879 0 2.087-.009.172-.009.32-.026.392-.044l.129-.048.035.084-.071.429c-.009.093-.027.494-.048.602l-.062.101-.074-.119c0-.063-.009-.217-.054-.327-.062-.146-.154-.256-.648-.31-.154-.018-1.147-.026-1.248-.026l-.054.089v2.522l.054.09c.119 0 1.239 0 1.45-.018.217-.018.344-.036.428-.128l.137-.119.044.074c0 .053-.044.209-.07.512-.019.182-.039.519-.039.584l-.063.172-.065-.083c0-.09 0-.182-.036-.301-.035-.128-.119-.283-.472-.319-.247-.028-1.151-.045-1.305-.045l-.063.063v.804c0 .31-.009 1.37 0 1.56.026.631.164.751 1.055.751.237 0 .639 0 .876-.102.238-.101.345-.283.41-.658.018-.099.035-.137.08-.137l.056.137c0 .074-.074.694-.119.887-.063.236-.136.236-.493.236-1.377 0-1.986-.054-2.25-.054l-.365.009-.529.018c-.098 0-.145-.018-.145-.071l.074-.057.273-.036c.181-.036.229-.238.265-.503.045-.381.045-1.105.045-1.98v-1.609zM101.509 46.821c-.128-.063-.137-.099-.137-.345 0-.456.036-.822.045-.968.009-.101.026-.146.071-.146l.066.099c0 .083 0 .212.026.34.137.676.738.932 1.349.932.874 0 1.302-.631 1.302-1.215 0-.631-.261-.994-1.046-1.644l-.41-.34c-.965-.792-1.185-1.361-1.185-1.98 0-.977.728-1.644 1.887-1.644.357 0 .622.035.848.092l.318.044.092.063c0 .047-.035.348-.035.968 0 .148-.019.211-.066.211l-.071-.119c-.009-.11-.066-.354-.119-.456-.054-.102-.3-.486-1.139-.486-.631 0-1.123.394-1.123 1.06 0 .521.256.831 1.115 1.534l.256.202c1.073.849 1.329 1.414 1.329 2.144 0 .375-.146 1.069-.776 1.516-.389.274-.883.384-1.376.384-.429 0-.847-.063-1.219-.247zM116.172 44.293c0 .875 0 1.599.045 1.98.026.265.083.468.356.503l.41.036.071.057c0 .044-.044.071-.145.071-.502 0-1.076-.027-1.121-.027-.044 0-.621.027-.894.027-.098 0-.145-.018-.145-.071l.074-.057.273-.036c.181-.036.229-.238.264-.503.045-.381.045-1.105.045-1.98v-1.608c0-1.424 0-1.679-.018-1.971-.018-.31-.11-.468-.31-.512l-.282-.036-.074-.056c0-.054.047-.071.145-.071.3 0 .877.027.921.027.045 0 .619-.027.895-.027.098 0 .146.018.146.071l-.074.056-.23.027c-.243.044-.317.202-.335.521-.019.292-.019.548-.019 1.971v1.608zM129.479 44.293c0 .875 0 1.599.045 1.98.029.265.083.468.356.503l.41.036.074.057c0 .044-.047.071-.149.071-.499 0-1.072-.027-1.12-.027-.044 0-.618.027-.892.027-.101 0-.145-.018-.145-.071l.071-.057.274-.036c.184-.036.228-.238.264-.503.045-.381.045-1.105.045-1.98v-3.863l-1.346.018c-.568.009-.784.071-.93.292l-.155.283-.092.093-.044-.084.199-.95.093-.172c.061 0 .155.092.401.11.265.027.609.045.719.045h3.419c.291 0 .502-.027.647-.045l.256-.047.044.11-.027 1.007-.066.116c-.045 0-.063-.027-.071-.155l-.009-.099c-.038-.274-.246-.485-1.123-.503l-1.147-.018v3.862h.001zM142.969 44.575c0-.494-.093-.694-.211-.959-.063-.145-1.284-2.156-1.602-2.63-.229-.339-.458-.566-.622-.676-.136-.093-.308-.146-.392-.146l-.092-.065.119-.063.903.027c.063 0 .411-.027.765-.027.101 0 .119.027.119.063l-.138.083-.118.164c0 .11.048.22.118.357.146.265 1.513 2.621 1.68 2.886.172-.384 1.329-2.386 1.513-2.686.116-.191.154-.345.154-.465 0-.128-.038-.229-.145-.256l-.137-.092.146-.054.599.027.886-.027.118.054-.118.074c-.101 0-.273.036-.418.129-.184.11-.283.217-.485.464-.3.367-1.575 2.513-1.742 2.904-.136.33-.136.613-.136.914v.786c0 .146 0 .53.03.912.018.265.098.468.371.503l.41.036.074.057c0 .044-.044.071-.145.071-.502 0-1.076-.027-1.121-.027-.047 0-.621.027-.894.027-.102 0-.146-.018-.146-.071l.071-.057.276-.036c.181-.036.262-.238.282-.503.027-.381.027-.766.027-.912v-.786zM83.998 10.393s.282-.274.986-.34c.808-.075 1.248-.42 1.548-.798.301-.375.289-.777.622-1.099.339-.327.633-.533 1.04-.578.413-.044.728.015 1.055-.176l.339-.194s-.238.08-.541.104c-.3.026-.763-.098-1.04-.098-.276 0-.865.125-1.204.438-.338.315-.666.819-1.005.956-.338.138-.808.271-1.051.197-.434-.134-.604-.232-.981-.185-.375.051-.481.116-.481.116l3.893-5.009-5.211 3.744s.006-.232.157-.56c.149-.325.684-.668.764-1.212.069-.465.108-.754-.151-1.287-.224-.473-.199-.869-.144-1.164.063-.333.27-.679.458-.861.321-.309.396-.491.458-.724l.057-.226s-.012.095-.25.396c-.256.322-.404.238-.717.53-.314.289-.538.646-.639 1.066-.119.491.105.682.039 1.182-.066.471-.11.566-.366.917-.22.301-.381.366-.713.542-.265.137-.487.325-.63.664l-.978-6.126-.927 6.176s-.338-.527-.351-.703c-.018-.226-.032-.968-.452-1.403-.351-.363-.547-.465-1.129-.684-.342-.129-.734-.533-.904-.891-.169-.36-.137-1.018-.187-1.17-.05-.152-.277-.509-.277-.509s.124.309.113.61c-.012.301-.163.828-.124 1.043.038.214.063.655.526 1.081.464.429.654.378.942.944.288.566.238.854.136 1.168-.101.315-.214.616-.113.881.101.262.098.319.098.319l-5.207-3.743 3.855 5.006s-.497-.044-.764-.283c-.371-.325-.621-.488-1.055-.607 0 0-.407-.146-.996.03-.592.176-.479.22-.88.283-.402.063-1.046-.035-1.361-.301-.312-.265-.57-.497-.797-.572-.225-.075-.407-.095-.407-.095s.362.128.639.441c.282.322.351.619.752.843.422.232.779.324 1.156.3.374-.026.386-.116.888-.056.271.03.797.238.931.396l.74.991c.214.203.475.289.475.289l-6.411 1.069s6.054-.402 6.844-.441c.791-.036 2.954-.206 4.271-.187 1.317.021 2.107.077 2.989.131l8.224.524-6.554-1.097zM87.829 40.492l.071-.11c.092-.027.336-.054.609-.054.978 0 1.578.685 1.578 1.825 0 .694-.237 1.188-.556 1.409-.211.145-.464.172-.683.172-.402 0-.82-.065-.957-.145l-.062-.11v-2.987zm-.731 3.801c0 .875 0 1.599-.045 1.98-.038.265-.083.468-.265.503l-.273.036-.074.057c0 .053.047.071.145.071.273 0 .85-.027.859-.027.045 0 .618.027 1.121.027.101 0 .145-.027.145-.071l-.074-.057-.41-.036c-.273-.036-.327-.238-.354-.503-.044-.381-.044-1.105-.044-1.98v-.22l.062-.071 1.12.018.119.053c.181.238.612.852.993 1.352.52.685.838 1.132 1.23 1.343.238.128.467.172.975.172h.648c.163 0 .22-.018.22-.071l-.084-.057-.354-.027c-.229-.036-.621-.137-1.115-.657-.526-.566-1.147-1.38-1.892-2.338.82-.757 1.102-1.433 1.102-2.109 0-.631-.402-1.078-.63-1.242-.482-.348-1.094-.402-1.667-.402l-1.076.027c-.045 0-.622-.027-1.031-.027-.098 0-.146.018-.146.071l.074.056.309.027c.3.062.374.211.392.521.019.292.019.548.019 1.971v1.608z" id="Shape" stroke="#EEB211" stroke-width=".525" fill="#EEB211" sketch:type="MSShapeGroup"/><path d="M159.663 35.862c.789 0 1.426-.643 1.426-1.436 0-.787-.638-1.43-1.426-1.43-.792 0-1.434.643-1.434 1.43 0 .794.642 1.436 1.434 1.436zm0-.189c-.698 0-1.207-.545-1.207-1.248 0-.696.509-1.241 1.207-1.241.694 0 1.2.545 1.2 1.241 0 .703-.506 1.248-1.2 1.248zm.23-1.184c.283-.008.502-.124.502-.439 0-.264-.144-.424-.566-.424h-.698v1.6h.196v-.737h.358l.456.737h.235l-.483-.737zm-.566-.155v-.567h.457c.195 0 .399.031.399.28 0 .325-.332.287-.558.287h-.299z" id="Shape" stroke="#fff" stroke-width=".125" fill="#fff" sketch:type="MSShapeGroup"/><g stroke="#fff" stroke-width=".525" fill="#fff" sketch:type="MSShapeGroup"><path d="M3.481 22.267c0-4.461 0-5.262-.057-6.177-.056-.971-.285-1.429-1.227-1.629-.229-.056-.713-.086-.969-.086-.116 0-.229-.056-.229-.17 0-.173.142-.229.458-.229 1.284 0 2.966.086 3.138.086.256 0 1.911-.086 2.767-.086.312 0 .456.056.456.229 0 .114-.114.169-.226.169-.202 0-.371.03-.713.086-.772.143-.999.628-1.058 1.629-.057.914-.057 1.715-.057 6.177v1.715h.116c.485-.545 5.647-5.804 6.675-6.918.8-.831 1.54-1.573 1.54-2.061 0-.342-.142-.512-.368-.598-.142-.057-.259-.117-.259-.23 0-.143.143-.199.342-.199.57 0 1.456.086 2.14.086.142 0 2.027-.086 2.74-.086.315 0 .427.056.427.199 0 .143-.056.199-.285.199-.427 0-1.028.143-1.598.402-1.168.512-1.795 1.227-3.079 2.457-.713.688-5.679 5.548-6.277 6.263.74.828 6.675 6.975 7.846 8.061 2.395 2.231 2.797 2.805 4.25 3.258.769.241 1.569.372 1.768.372.199 0 .372.057.372.173 0 .143-.142.226-.627.226h-1.456c-.799 0-1.34 0-1.967-.056-1.513-.144-2.227-.772-3.454-1.742-1.284-1.06-7.332-7.606-8.703-9.292h-.142v2.8c0 2.746 0 5.003.142 6.206.087.828.259 1.456 1.115 1.573.398.056.856.113 1.111.113.173 0 .229.087.229.173 0 .143-.143.226-.458.226-1.397 0-3.052-.083-3.281-.083-.228 0-1.881.083-2.737.083-.315 0-.458-.056-.458-.226 0-.086.057-.173.229-.173.256 0 .597-.056.856-.113.571-.117.713-.745.826-1.573.143-1.203.143-3.46.143-6.206v-5.03h-.001zM38.563 31.701c.057 2.344.342 3.088 1.112 3.315.541.143 1.171.172 1.426.172.143 0 .229.057.229.173 0 .17-.173.226-.515.226-1.625 0-2.767-.083-3.025-.083-.256 0-1.453.083-2.737.083-.285 0-.458-.027-.458-.226 0-.116.086-.173.229-.173.228 0 .743-.029 1.17-.172.713-.199.856-1.028.856-3.63l.026-16.383c0-1.114.086-1.429.316-1.429.228 0 .712.631.998.917.428.486 4.679 5.086 9.074 9.804 2.823 3.032 5.932 6.519 6.847 7.463l-.315-14.524c-.03-1.858-.229-2.486-1.112-2.716-.514-.113-1.171-.143-1.399-.143-.199 0-.229-.086-.229-.199 0-.173.229-.199.57-.199 1.284 0 2.654.086 2.969.086.312 0 1.254-.086 2.426-.086.312 0 .514.026.514.199 0 .113-.116.199-.315.199-.142 0-.342 0-.683.086-.943.2-1.058.828-1.058 2.544l-.057 16.755c0 1.888-.056 2.031-.255 2.031-.229 0-.571-.316-2.084-1.832-.315-.286-4.423-4.488-7.448-7.746-3.308-3.574-6.533-7.178-7.445-8.208l.371 13.696zM67.606 27.297c0 2.746 0 5.003.142 6.206.087.828.259 1.456 1.115 1.573.398.056 1.025.113 1.284.113.169 0 .228.087.228.173 0 .143-.142.226-.458.226-1.569 0-3.367-.083-3.509-.083-.143 0-1.941.083-2.797.083-.312 0-.455-.056-.455-.226 0-.086.057-.173.229-.173.256 0 .597-.056.856-.113.57-.117.713-.745.826-1.573.143-1.203.143-3.46.143-6.206v-12.091l-4.224.056c-1.768.026-2.454.229-2.91.914-.315.485-.401.685-.484.888-.086.226-.172.286-.285.286-.086 0-.143-.086-.143-.259 0-.286.571-2.743.627-2.972.057-.173.169-.545.285-.545.2 0 .485.286 1.254.345.829.083 1.914.143 2.256.143h10.699c1.825 0 2.595-.286 2.824-.286.143 0 .143.169.143.342 0 .858-.086 2.829-.086 3.145 0 .256-.083.372-.199.372-.143 0-.199-.086-.23-.488l-.026-.313c-.116-.857-.77-1.516-3.51-1.572l-3.596-.056v12.092zM104.584 27.297c0 2.746 0 5.003.143 6.206.084.828.256 1.456 1.112 1.573.398.056 1.028.113 1.284.113.173 0 .23.087.23.173 0 .143-.144.226-.458.226-1.57 0-3.368-.083-3.511-.083-.142 0-1.938.083-2.794.083-.314 0-.456-.056-.456-.226 0-.086.056-.173.228-.173.256 0 .598-.056.856-.113.571-.117.713-.745.826-1.573.143-1.203.143-3.46.143-6.206v-12.091l-3.822.056c-1.768.026-2.455.229-2.909.914-.315.485-.401.685-.488.888-.083.226-.169.286-.285.286-.083 0-.143-.086-.143-.259 0-.286.57-2.743.63-2.972.057-.173.17-.545.286-.545.199 0 .485.286 1.254.345.827.083 1.911.143 2.253.143h10.301c.913 0 1.569-.086 2.027-.143.428-.086.683-.143.797-.143.142 0 .142.169.142.342 0 .858-.083 2.829-.083 3.145 0 .256-.086.372-.199.372-.145 0-.202-.086-.229-.488l-.03-.313c-.112-.857-.769-1.516-3.509-1.572l-3.594-.056v12.092h-.001zM134.799 27.297c0 2.746 0 5.003.142 6.206.086.828.256 1.456 1.111 1.573.402.056 1.029.113 1.284.113.173 0 .23.087.23.173 0 .143-.143.226-.458.226-1.569 0-3.364-.083-3.507-.083-.142 0-1.941.083-2.796.083-.316 0-.458-.056-.458-.226 0-.086.056-.173.228-.173.256 0 .601-.056.856-.113.571-.117.713-.745.827-1.573.142-1.203.142-3.46.142-6.206v-12.091l-4.22.056c-1.771.026-2.455.229-2.913.914-.311.485-.398.685-.484.888-.086.226-.17.286-.285.286-.087 0-.143-.086-.143-.259 0-.286.57-2.743.627-2.972.06-.173.173-.545.285-.545.202 0 .487.286 1.257.345.826.083 1.911.143 2.253.143h10.699c.912 0 1.569-.086 2.027-.143.428-.086.684-.143.8-.143.143 0 .143.169.143.342 0 .858-.087 2.829-.087 3.145 0 .256-.085.372-.198.372-.142 0-.202-.086-.229-.488l-.029-.313c-.114-.857-.77-1.516-3.511-1.572l-3.592-.056v12.092h-.001zM22.455 22.267c0-4.461 0-5.262-.06-6.177-.056-.971-.285-1.429-1.224-1.629-.229-.056-.713-.086-.972-.086-.113 0-.228-.056-.228-.169 0-.173.142-.229.458-.229 1.284 0 3.082.086 3.224.086.199 0 8.096 0 8.75-.03.544-.03 1.002-.086 1.227-.143.143-.03.259-.143.402-.143.083 0 .113.113.113.256 0 .203-.143.545-.228 1.346-.027.283-.083 1.543-.143 1.885-.027.143-.086.316-.199.316-.169 0-.229-.143-.229-.372 0-.199-.027-.688-.169-1.03-.203-.456-2.705-.798-4.245-.971-.484-.056-3.596-.086-3.908-.086-.116 0-.173.086-.173.286v7.892c0 .2.03.286.173.286.368 0 6.096 0 6.752-.057.687-.059 1.085-.116 1.341-.402.202-.23.315-.372.428-.372.085 0 .142.059.142.229 0 .173-.142.658-.225 1.603-.057.572-.116 1.629-.116 1.828 0 .229 0 .545-.199.545-.142 0-.199-.116-.199-.259 0-.286 0-.572-.116-.944-.114-.399-2.589-.884-3.701-1.001-.769-.083-3.596-.143-4.081-.143-.142 0-.199.086-.199.202v2.514c0 .973-.029 4.288 0 4.89.086 1.972.514 2.344 3.311 2.344.741 0 4.215 0 4.955-.313.743-.316 1.085-.887 1.284-2.061.06-.313.116-.429.259-.429.169 0 .169.23.169.429 0 .229-.226 2.174-.368 2.775-.2.742-.428.742-1.542.742-4.306 0-8.438-.169-9.264-.169-.057 0-.544.027-1.141.027-.571.029-1.228.056-1.656.056-.315 0-.458-.056-.458-.226 0-.086.06-.173.229-.173.259 0 .6-.056.856-.113.571-.117.713-.745.829-1.573.143-1.203.143-3.46.143-6.206v-5.03zM145.26 22.421c0-4.458 0-5.259-.056-6.173-.057-.974-.286-1.43-1.228-1.629-.229-.06-.714-.086-.969-.086-.117 0-.229-.056-.229-.173 0-.17.143-.229.458-.229 1.284 0 3.079.086 3.222.086.199 0 8.096 0 8.752-.027.541-.029.998-.086 1.228-.142.142-.03.256-.146.398-.146.086 0 .116.117.116.259 0 .199-.142.542-.229 1.343-.029.286-.086 1.543-.143 1.888-.029.143-.085.313-.199.313-.173 0-.228-.144-.228-.369 0-.203-.031-.688-.173-1.031-.199-.459-2.702-.801-4.244-.971-.485-.06-3.593-.086-3.909-.086-.112 0-.169.086-.169.286v7.889c0 .203.027.286.169.286.372 0 6.099 0 6.755-.056.684-.057 1.085-.113 1.341-.399.199-.229.316-.372.429-.372.086 0 .143.056.143.229 0 .17-.143.658-.23 1.599-.057.572-.112 1.632-.112 1.831 0 .229 0 .542-.199.542-.143 0-.203-.113-.203-.256 0-.286 0-.572-.113-.944-.113-.399-2.589-.887-3.7-1.001-.773-.086-3.597-.143-4.081-.143-.143 0-.2.086-.2.199v2.516c0 .971-.03 4.288 0 4.89.084 1.972.511 2.343 3.308 2.343.743 0 4.214 0 4.957-.316.743-.312 1.085-.884 1.284-2.058.057-.316.113-.429.256-.429.173 0 .173.229.173.429 0 .229-.228 2.174-.372 2.773-.199.745-.428.745-1.54.745-4.309 0-8.438-.173-9.266-.173-.057 0-.541.03-1.142.03-.571.027-1.224.057-1.653.057-.316 0-.458-.057-.458-.229 0-.086.056-.169.229-.169.255 0 .598-.06.856-.117.57-.113.713-.742.826-1.573.142-1.2.142-3.457.142-6.203v-5.034zM82.79 35.269c-.475-.199-.507-.316-.507-1.088 0-1.429.133-2.573.169-3.028.033-.316.101-.459.27-.459.205 0 .238.086.238.315 0 .256 0 .658.101 1.057.509 2.114 2.746 2.916 5.021 2.916 3.253 0 4.847-1.972 4.847-3.803 0-1.971-1.115-3.776-4.03-5.808l-1.527-1.057c-3.594-2.486-4.408-4.259-4.408-6.203 0-3.061 2.714-5.146 7.02-5.146 1.323 0 1.941.098 2.788.271.644.113.882.107 1.153.107.273 0 .341.057.341.199 0 .143.437 1.379.704 3.279.066.453-.066.658-.235.658-.205 0-.238-.143-.273-.372-.033-.342-.683-1.313-.885-1.629-.206-.313-1.118-1.513-4.239-1.513-2.339 0-4.169 1.227-4.169 3.314 0 1.632.948 2.603 4.134 4.804l.951.628c4.001 2.659 5.082 5.092 5.082 7.379 0 1.173-.544 3.347-2.883 4.747-1.456.857-3.287 1.2-5.118 1.2-1.596 0-3.153-.199-4.545-.77zM114.488 26.126c-.098 0-.166-.057-.098-.199l2.895-7.72c.166-.429.33-.429.496 0l3.127 7.72c.033.113.033.199-.131.199h-6.289zm-4.613 6.316c-.591 1.43-1.247 2.516-2.764 2.689-.265.027-.725.056-.956.056-.164 0-.295.057-.295.173 0 .17.196.226.624.226 1.549 0 3.359-.083 3.721-.083.363 0 1.781.083 2.567.083.297 0 .497-.056.497-.226 0-.116-.102-.173-.33-.173h-.33c-.558 0-1.251-.256-1.251-.828 0-.515.163-1.203.461-1.918l1.976-5.059c.066-.143.166-.23.33-.23h7.079c.164 0 .23.057.298.173l3.061 7.034c.2.456 0 .715-.196.771-.133.027-.232.086-.232.199 0 .173.363.173.99.2 2.27.056 4.675.056 5.168.056.363 0 .66-.056.66-.226 0-.143-.131-.173-.33-.173-.33 0-.823-.029-1.317-.172-.692-.17-1.646-.629-2.832-3.172-2.009-4.345-7.18-16.153-7.674-17.24-.394-.888-.526-1.03-.725-1.03-.196 0-.33.173-.722 1.117l-7.477 17.752z"/></g></g></svg>