<?xml version="1.0" encoding="utf-8"?>
<!-- Generator: Adobe Illustrator 18.0.0, SVG Export Plug-In . SVG Version: 6.00 Build 0)  -->
<!DOCTYPE svg PUBLIC "-//W3C//DTD SVG 1.1//EN" "http://www.w3.org/Graphics/SVG/1.1/DTD/svg11.dtd">
<svg version="1.1" id="Layer_1" xmlns="http://www.w3.org/2000/svg" xmlns:xlink="http://www.w3.org/1999/xlink" x="0px" y="0px"
	 viewBox="0 0 1030.2 347" style="enable-background:new 0 0 1030.2 347;" xml:space="preserve">
<style type="text/css">
	.st0{fill:#655B4F;}
	.st1{fill:#9A7745;}
	.st2{fill:#373D42;stroke:#373D42;stroke-width:1.5;stroke-linecap:round;stroke-linejoin:round;stroke-miterlimit:10;}
	.st3{fill:#373D42;}
	.st4{fill:#006C87;}
</style>
<g>
	<path class="st1" d="M350.2,5.1h26.6v6.2h-10v32.3h-6.7V11.3h-10V5.1z"/>
	<path class="st1" d="M414.1,27.5h-14.5v16.1h-6.7V5.1h6.7v16.1h14.5V5.1h6.7v38.5h-6.7V27.5z"/>
	<path class="st1" d="M440.7,5.1h24.5v6.7h-17.9V21h16.7v6.7h-16.7V37h17.9v6.7h-24.5V5.1z"/>
	<path class="st1" d="M527.1,4.7c10.8,0,19.6,8.8,19.6,19.6S537.9,44,527.1,44s-19.6-8.8-19.6-19.6S516.2,4.7,527.1,4.7z
		 M527.1,37.2c7,0,12.8-5.8,12.8-12.8c0-7-5.8-12.8-12.8-12.8c-7,0-12.8,5.8-12.8,12.8C514.3,31.4,520,37.2,527.1,37.2z"/>
	<path class="st1" d="M585.4,27.5H571v16.1h-6.7V5.1h6.7v16.1h14.5V5.1h6.7v38.5h-6.7V27.5z"/>
	<path class="st1" d="M612,5.1h6.7v38.5H612V5.1z"/>
	<path class="st1" d="M655.7,4.7c10.8,0,19.6,8.8,19.6,19.6S666.5,44,655.7,44S636,35.2,636,24.4S644.8,4.7,655.7,4.7z M655.7,37.2
		c7,0,12.8-5.8,12.8-12.8c0-7-5.8-12.8-12.8-12.8c-7,0-12.8,5.8-12.8,12.8C642.9,31.4,648.6,37.2,655.7,37.2z"/>
</g>
<g>
	<path class="st2" d="M106.9,191c-10.8,19-29.5,29.1-50.7,29.1c-29.4,0-53.7-24.7-53.7-54c0-29.2,24.3-54,53.7-54
		c4.4,0,8.4,0.5,13.5,1.2c2.8,0.5,6.6,0.9,10.3,0.9c6.6,0,13.3-0.8,19.6-2.8c0,12,1.7,24.4,6.1,35.2l-1.8,0.6
		c-9.6-16.9-28.3-33-49.3-33c-20.7,0-33.6,11.7-33.6,51.1c0,41.5,25.8,52,38.7,52c18.1,0,36-11.2,45-27.3L106.9,191z M33.6,119.6
		l-0.1-0.1c-16.9,8.4-28.8,27.3-28.8,46.6c0,29.2,25.8,49.2,42.3,50.8v-0.3c-20.2-8.7-33-28.8-33-50.8
		C13.9,149.6,20.4,130.3,33.6,119.6z M74.7,116.3v0.3c8.5,3.9,16,9,22.2,16.3l0.3-0.3l-5.7-16.3H74.7z"/>
	<path class="st2" d="M216.9,154.9v-30.6c0-2.4-4.3-7.4-7.2-8.2c-1.9-0.6-6-0.6-8.1-0.6v-2.1h46.9v2.1c-1.8,0-3.6,0-5.1,0.4
		c-2.6,0.8-7.9,5.7-7.9,8.7v82.9c0,6.6,7.9,9.3,13.3,9.3v2.1h-46.2v-2.1c8.2,0,14.2-4.5,14.2-9v-46h-56.4V206c0,4.9,2.4,8.4,5.4,9.4
		c2.8,1,8.1,1.3,10.5,1.3v2.1h-46.6v-2.1c6.1-0.3,12.1-5.1,12.1-9.1v-81.3c0-6.6-6.1-10.9-12.9-10.9v-2.1h47.1v2.1h-4.6
		c-6.3,0-10.9,5.7-10.9,9.3v30.1H216.9z M153.3,121.9l7.5-6.1v-0.3h-22.9v0.3l8.5,6.6v1.1l-2.4,2.1v84.3c0,2.8-4.5,6-6.7,6.7v0.3
		h23.5v-0.3c-3-2.1-7.5-4.8-7.5-9.1V121.9z M160.5,160h56.4v-3.3h-56.4V160z M235,216.8v-0.3c-2.2-0.8-6.7-3.9-6.7-6.7V122
		c2.2-2.1,5.2-4.6,7.6-6.3v-0.3h-23.4v0.3c3,1.6,5.4,4,7.8,6v1.4l-1.4,0.6v84.1c0,5.4-3.6,7.3-5.5,8.7v0.3H235z"/>
	<path class="st2" d="M325.6,220.1c-29.8,0-54.9-23.8-54.9-54c0-30.1,25-54,54.9-54c29.8,0,54.9,23.8,54.9,54
		C380.5,196.3,355.5,220.1,325.6,220.1z M300.7,120.4h-0.3c-16.2,7.9-27.6,26.8-27.6,45.7c0,18.9,11.4,37.8,27.6,45.7h0.3
		c-12.7-11.8-18.6-27.6-18.6-45.7C282.1,148,288,132.2,300.7,120.4z M290.2,166.1c0,27.9,8.2,51.9,35.5,51.9s35.5-24,35.5-51.9
		c0-24.9-5.5-51.9-35.5-51.9C295.8,114.2,290.2,141.2,290.2,166.1z M347.1,118.6l-0.3,0.3c13.6,9.7,16.6,29.1,16.6,47.2
		c0,20.5-3.7,35.5-15.6,46.3l0.3,0.3c13.2-7.5,25.2-23.1,25.2-46.6C373.3,142.7,361.6,124.6,347.1,118.6z"/>
	<path class="st2" d="M401.8,218.9v-2.1c1.8,0,3.8-0.1,5.5-0.9c4-1.7,7.9-6.8,7.9-9v-84c0-0.8-5.2-7.3-8.1-7.3
		c-1.8,0-3.6-0.1-5.4-0.1v-2.1h36.4c3.5,0,7.2-0.3,11.2-0.6c3.9-0.3,8.1-0.6,12.3-0.6c19.6,0,34.8,12.1,34.8,32.2
		c0,21.7-17.8,32.1-38.1,32.1c-10.3,0-16.2-2.1-24.4-5.2v35.2c0,5.9,5.1,10.3,10.6,10.3h2.9v2.1H401.8z M434.4,216.8v-0.3l-5-3.6
		c-1.6-1.2-2.5-3.3-2.5-5.8v-85.8l8.4-5.5v-0.3h-22.5v0.3c2.4,1.4,5.4,3.8,7.5,5.8v2.2l-2.9,1.6v82c0,4-3.6,7-5.7,9v0.3H434.4z
		 M434.1,168.8c7,2.9,14.2,5.5,21.7,5.5c14.1,0,22.5-14.1,22.5-30.7c0-14.4-8.7-29.4-22.3-29.4c-4.2,0-11.5,0.6-14.5,1.5
		c-2.5,0.8-7.3,5.4-7.3,9.4V168.8z M465.3,114.5l-0.3,0.3c8.2,3.3,15.4,14.7,15.4,29.1c0,12.3-3.9,23.1-14.1,29.5l0.3,0.3
		c14.7-3,24-14.7,24-30.1C490.6,129.5,479.5,116,465.3,114.5z"/>
	<path class="st2" d="M562.5,181.6l2.7-0.3c4,14.2,17.1,36.7,33.9,36.7c15,0,25-9.9,25-25.9c0-26.8-56.5-17.1-56.5-51.7
		c0-18.1,16.8-28.2,33.3-28.2c3,0,5.8,0.3,8.7,0.5c3,0.3,5.8,0.6,8.7,0.6c3.6,0,7-0.3,10.8-1.1c0.4,8.7,1.9,21,3.1,29.5l-2.1,0.8
		c-5.8-11.8-14.2-28.2-29.5-28.2c-11.5,0-19.9,6.9-19.9,17.2c0,28.2,56.1,14.5,56.1,53.1c0,24.3-20.1,35.5-42.1,35.5
		c-11.7,0-21.4-2-28.8-4.2L562.5,181.6z M570,214.6c4.8,1.6,11.8,2.8,17.7,3v-0.3c-7.5-2.8-15-9.1-20.2-16.9h-0.3
		c0,3.8,0,7.5,0.3,11.2C567.6,213.7,568.6,214.1,570,214.6z M619.2,211.9l0.3,0.3c7.5-5,12.4-14.7,12.4-24.4
		c0-36-56.1-23.5-56.1-51.1c0-8.4,4.6-14.8,8.7-18.4v-0.5c-8.4,3.6-14.8,13.3-14.8,21.9c0,16.6,13.6,22.5,28.3,27.9
		c13.2,4.8,28.2,8.8,28.2,26.1C626.2,200.6,623.4,207.1,619.2,211.9z M622.8,115.3h-3.4c-2.9,0-5.5-0.6-8.2-0.9l-0.3,0.3
		c6.4,2.7,10.9,8.5,14.7,14.4l0.3-0.3L622.8,115.3z"/>
	<path class="st2" d="M747.4,154.9v-30.6c0-2.4-4.3-7.4-7.2-8.2c-1.9-0.6-6-0.6-8.1-0.6v-2.1h46.9v2.1c-1.8,0-3.6,0-5.1,0.4
		c-2.5,0.8-7.9,5.7-7.9,8.7v82.9c0,6.6,7.9,9.3,13.3,9.3v2.1h-46.2v-2.1c8.2,0,14.2-4.5,14.2-9v-46H691V206c0,4.9,2.4,8.4,5.4,9.4
		c2.8,1,8.1,1.3,10.5,1.3v2.1h-46.6v-2.1c6.1-0.3,12.1-5.1,12.1-9.1v-81.3c0-6.6-6.1-10.9-12.9-10.9v-2.1h47.1v2.1H702
		c-6.3,0-10.9,5.7-10.9,9.3v30.1H747.4z M683.8,121.9l7.5-6.1v-0.3h-22.9v0.3l8.5,6.6v1.1l-2.4,2.1v84.3c0,2.8-4.5,6-6.7,6.7v0.3
		h23.5v-0.3c-3-2.1-7.5-4.8-7.5-9.1V121.9z M691,160h56.4v-3.3H691V160z M765.6,216.8v-0.3c-2.2-0.8-6.7-3.9-6.7-6.7V122
		c2.2-2.1,5.2-4.6,7.6-6.3v-0.3h-23.4v0.3c3,1.6,5.4,4,7.8,6v1.4l-1.4,0.6v84.1c0,5.4-3.6,7.3-5.5,8.7v0.3H765.6z"/>
	<path class="st2" d="M856.2,220.1c-29.8,0-54.9-23.8-54.9-54c0-30.1,25-54,54.9-54c29.8,0,54.9,23.8,54.9,54
		C911.1,196.3,886,220.1,856.2,220.1z M831.3,120.4H831c-16.2,7.9-27.6,26.8-27.6,45.7c0,18.9,11.4,37.8,27.6,45.7h0.3
		c-12.7-11.8-18.6-27.6-18.6-45.7C812.7,148,818.5,132.2,831.3,120.4z M820.8,166.1c0,27.9,8.2,51.9,35.5,51.9
		c27.3,0,35.5-24,35.5-51.9c0-24.9-5.5-51.9-35.5-51.9C826.3,114.2,820.8,141.2,820.8,166.1z M877.6,118.6l-0.3,0.3
		C891,128.6,894,148,894,166.1c0,20.5-3.7,35.5-15.6,46.3l0.3,0.3c13.2-7.5,25.2-23.1,25.2-46.6
		C903.9,142.7,892.2,124.6,877.6,118.6z"/>
	<path class="st2" d="M932.4,218.9v-2.1c1.8,0,3.8-0.1,5.5-0.9c4-1.7,7.9-6.8,7.9-9v-84c0-0.8-5.2-7.3-8.1-7.3
		c-1.8,0-3.6-0.1-5.4-0.1v-2.1h36.4c3.5,0,7.2-0.3,11.2-0.6c3.9-0.3,8.1-0.6,12.3-0.6c19.6,0,34.8,12.1,34.8,32.2
		c0,21.7-17.8,32.1-38.1,32.1c-10.3,0-16.2-2.1-24.4-5.2v35.2c0,5.9,5.1,10.3,10.6,10.3h2.8v2.1H932.4z M964.9,216.8v-0.3l-5-3.6
		c-1.6-1.2-2.5-3.3-2.5-5.8v-85.8l8.4-5.5v-0.3h-22.5v0.3c2.4,1.4,5.4,3.8,7.5,5.8v2.2l-2.9,1.6v82c0,4-3.6,7-5.7,9v0.3H964.9z
		 M964.6,168.8c7,2.9,14.2,5.5,21.7,5.5c14.1,0,22.5-14.1,22.5-30.7c0-14.4-8.7-29.4-22.3-29.4c-4.2,0-11.5,0.6-14.5,1.5
		c-2.5,0.8-7.3,5.4-7.3,9.4V168.8z M995.8,114.5l-0.3,0.3c8.2,3.3,15.4,14.7,15.4,29.1c0,12.3-3.9,23.1-14.1,29.5l0.3,0.3
		c14.7-3,24-14.7,24-30.1C1021.2,129.5,1010.1,116,995.8,114.5z"/>
</g>
<g>
	<path class="st1" d="M240.5,321.2h-23.8v23.9h-8.2v-56h8.2V313h23.8v-23.9h8.2v56h-8.2V321.2z"/>
	<path class="st1" d="M311.5,331.3h-21.6l-5.3,13.8h-9l21.6-56h7l21.7,56h-9.1L311.5,331.3z M293,323.3h15.4l-7.7-20.3L293,323.3z"
		/>
	<path class="st1" d="M352.8,289.1h8.2v56h-8.2V289.1z"/>
	<path class="st1" d="M401.2,325.1v20h-8.1v-56h20.6c9.9,0,18.1,8.1,18.1,18.1c0,7.4-4.6,13.7-11,16.6c0.5,0.9,1,1.8,1.5,2.6
		c3.2,5.5,7.9,13.8,10.8,18.8h-9.4l-11.4-20H401.2z M401.2,317h12.6c5.6,0,9.9-4.4,9.9-9.8c0-5.6-4.3-10-9.9-10h-12.6V317z"/>
	<path class="st1" d="M521,314.1c11.4,3.2,13.5,10.4,13.5,15.5c0,9-7,16.2-17.5,16.2c-10.8,0-17.6-6.1-17.6-17.4h8.2
		c0,5.1,2.5,9.7,9.4,9.7c4.4,0,9.4-2.2,9.4-8.6c0-4.2-3.7-6.6-7.4-7.7l-6.1-1.9c-11.4-3.2-13.5-10.4-13.5-15.5c0-9,7-16.2,17.5-16.2
		c10.8,0,17.6,6.1,17.6,17.4h-8.2c0-5.1-2.5-9.7-9.4-9.7c-4.4,0-9.4,2.2-9.4,8.6c0,4.2,3.7,6.6,7.4,7.7L521,314.1z"/>
	<path class="st1" d="M594.3,331.3h-21.6l-5.3,13.8h-9l21.6-56h7l21.7,56h-9.1L594.3,331.3z M575.8,323.3h15.4l-7.7-20.3
		L575.8,323.3z"/>
	<path class="st1" d="M635.6,289.1h8.1V337h25.4v8.1h-33.4V289.1z"/>
	<path class="st1" d="M720.6,288.5c15.8,0,28.6,12.8,28.6,28.6c0,15.8-12.8,28.6-28.6,28.6c-15.8,0-28.6-12.8-28.6-28.6
		C692,301.3,704.8,288.5,720.6,288.5z M720.6,337.3c11.1,0,20.2-9.1,20.2-20.2c0-11.1-9.1-20.2-20.2-20.2
		c-11.1,0-20.2,9.1-20.2,20.2C700.3,328.2,709.5,337.3,720.6,337.3z"/>
	<path class="st1" d="M786.5,305.5v39.6h-8.2v-56h7.4l24.6,39.8v-39.8h8.2v56h-7.4L786.5,305.5z"/>
</g>
<g>
	<path class="st3" d="M280.7,34.9l-10.2-10.2l10.2-10.2l10.2,10.2L280.7,34.9z M276.2,24.7l4.5,4.5l4.5-4.5l-4.5-4.5L276.2,24.7z"/>
</g>
<g>
	<path class="st3" d="M746.3,34.9l-10.2-10.2l10.2-10.2l10.2,10.2L746.3,34.9z M741.8,24.7l4.5,4.5l4.5-4.5l-4.5-4.5L741.8,24.7z"/>
</g>
</svg>
