<?xml version="1.0" encoding="utf-8"?>
<!-- Generator: Adobe Illustrator 19.1.0, SVG Export Plug-In . SVG Version: 6.00 Build 0)  -->
<svg version="1.1" id="Layer_1" xmlns="http://www.w3.org/2000/svg" xmlns:xlink="http://www.w3.org/1999/xlink" x="0px" y="0px"
	 viewBox="0 0 1200 1200" style="enable-background:new 0 0 1200 1200;" xml:space="preserve">
<style type="text/css">
	.st0{fill:#F06374;}
	.st1{fill:#1A758A;}
	.st2{fill:#4F4C4D;}
	.st3{fill:#FFFFFF;}
</style>
<g>
	<path d="M469.7,457.7c-11.6-13.5-32-15.1-45.5-3.5L282.7,575.5c-7.2,6.1-11.3,15.1-11.3,24.5c0,9.4,4.1,18.4,11.3,24.5l141.4,121.3
		c6.1,5.2,13.6,7.8,21,7.8c9.1,0,18.1-3.8,24.5-11.3c11.6-13.5,10-33.9-3.5-45.5L353.3,600l112.9-96.8
		C479.7,491.6,481.3,471.3,469.7,457.7z"/>
	<path d="M679.9,354.5c-16.9-5.5-35.2,3.8-40.7,20.7L499.4,804.8c-5.5,17,3.8,35.2,20.7,40.7c3.3,1.1,6.7,1.6,10,1.6
		c13.6,0,26.3-8.7,30.7-22.3l139.7-429.6C706.1,378.2,696.8,360,679.9,354.5z"/>
	<path d="M917.3,575.5L775.8,454.2c-13.5-11.6-33.9-10-45.5,3.5c-11.6,13.5-10,33.9,3.5,45.5L846.7,600l-112.9,96.8
		c-13.5,11.6-15.1,32-3.5,45.5c6.4,7.4,15.4,11.3,24.5,11.3c7.4,0,14.9-2.6,21-7.8l141.4-121.3c7.2-6.1,11.3-15.1,11.3-24.5
		C928.5,590.6,924.4,581.6,917.3,575.5z"/>
	<path d="M1014,313.7L640.9,98.3c-12.4-7.2-26.5-11-40.9-11c-14.3,0-28.5,3.8-40.9,11L186,313.7c-25.2,14.6-40.9,41.7-40.9,70.8
		v430.9c0,29.1,15.7,56.3,40.9,70.8l373.2,215.4c12.4,7.2,26.6,11,40.9,11c14.3,0,28.5-3.8,40.9-11L1014,886.3
		c25.2-14.6,40.9-41.7,40.9-70.8V384.6C1054.9,355.4,1039.3,328.3,1014,313.7z M990.4,815.4c0,6.1-3.3,11.8-8.6,14.9l-373.2,215.4
		c-5.2,3-12,3-17.2,0L218.2,830.4c-5.3-3.1-8.6-8.8-8.6-14.9V384.6c0-6.1,3.3-11.8,8.6-14.9l373.2-215.4c2.6-1.5,5.6-2.3,8.6-2.3
		c3,0,6,0.8,8.6,2.3l373.2,215.4c5.3,3.1,8.6,8.8,8.6,14.9V815.4z"/>
</g>
</svg>
