<?xml version="1.0" encoding="utf-8"?>
<!-- Generator: Adobe Illustrator 18.1.1, SVG Export Plug-In . SVG Version: 6.00 Build 0)  -->
<svg version="1.1" id="Layer_1" xmlns="http://www.w3.org/2000/svg" xmlns:xlink="http://www.w3.org/1999/xlink" x="0px" y="0px"
	 viewBox="27.4 92.6 199.6 66.3" enable-background="new 27.4 92.6 199.6 66.3" xml:space="preserve">
<g>
	<path fill="#67281F" d="M56.3,158.9l-0.7-0.4c-14.4-7.8-21-12.6-24.5-17.4c-3.7-5.2-3.7-10.3-3.7-18v-22.7l28.9-7.8l28.9,7.8v22.7
		c0,7.7,0,12.8-3.7,18c-3.5,4.9-10.1,9.6-24.5,17.4L56.3,158.9z M30.4,102.7v20.4c0,7.4,0,11.9,3.1,16.2c3.1,4.3,9.5,8.9,22.8,16.2
		c13.3-7.3,19.7-11.8,22.8-16.2c3.1-4.4,3.1-8.8,3.1-16.2v-20.4l-25.9-7L30.4,102.7z"/>
</g>
<g>
	<path fill="#67281F" d="M109.2,100.4l3.4,12.5h0.2l3.7-12.5h-2.3v-2h6.7v2.1h-2l-5.3,16.3h-3.5l-3.1-11.1l-3.9,11.1h-3.5l-5-16.3
		h-2.4v-2.1h9v2.1h-2.6l3.6,12.5h0.2l3.6-10.5l-0.6-2H103v-2.1h9v2.1L109.2,100.4L109.2,100.4z"/>
	<path fill="#67281F" d="M122.7,114.5h2.9v-14.1h-2.9v-2.1h9.3v2.1h-2.9v14.1h2.9v2.1h-9.3V114.5z"/>
	<path fill="#67281F" d="M143.5,98.4v2.1h-2.9v14.1h3.6c2.2,0,2.6-0.5,4-5h1.7v7.1h-15.6v-2.1h2.8v-14.1h-2.8v-2.1H143.5z"/>
	<path fill="#67281F" d="M161.2,98.4v2.1h-2.9v14.1h3.6c2.2,0,2.6-0.5,4-5h1.7v7.1h-15.6v-2.1h2.8v-14.1h-2.8v-2.1H161.2z"/>
	<path fill="#67281F" d="M169.7,114.5h2.9v-14.1h-2.9v-2.1h9.3v2.1h-2.9v14.1h2.9v2.1h-9.3V114.5z"/>
	<path fill="#67281F" d="M192.9,110.5h-6.4l-1.5,4.1h2.3v2.1h-6.7v-2.1h2l6.1-16.3h3.6l5.9,16.3h2.4v2.1h-9v-2.1h2.7L192.9,110.5z
		 M187.2,108.6h5.1l-2.4-7.2h-0.1L187.2,108.6z"/>
	<path fill="#67281F" d="M202.3,114.5h2.6v-14.1h-2.6v-2.1h8.1l4.3,12.5h0.1l4.3-12.5h7.9v2.1h-2.8v14.1h2.8v2.1h-8.7v-2.1h2.4
		v-13.7h-0.3l-5.6,15.8h-1.6l-5.8-15.8h-0.3v13.7h2.5v2.1h-7.3L202.3,114.5L202.3,114.5z"/>
	<path fill="#67281F" d="M102,138.7h3.1v-14.4h-1c-2.4,0-2.9,0.8-4.1,5.1h-1.7v-6.8h17.1v6.8h-1.7c-1.2-4.3-1.7-5.1-4.1-5.1h-1v14.4
		h3.1v2.1H102L102,138.7L102,138.7z"/>
	<path fill="#67281F" d="M117.5,138.7h2.8v-14.1h-2.8v-2.1h9v2.1h-2.6v5.7h7.8v-5.7h-2.6v-2.1h9v2.1h-2.8v14.1h2.8v2.1h-9v-2.1h2.6
		v-6.4h-7.8v6.4h2.6v2.1h-9L117.5,138.7L117.5,138.7z"/>
	<path fill="#67281F" d="M139.6,131.7c0-5.6,4.1-9.6,9.1-9.6c5.2,0,9.1,3.9,9.1,9.5c0,5.6-4.1,9.6-9.1,9.6
		C143.6,141.3,139.6,137.4,139.6,131.7z M153.8,131.7c0-4.9-1.8-7.5-5.1-7.5s-5.1,2.6-5.1,7.5c0,4.9,1.8,7.5,5.1,7.5
		S153.8,136.6,153.8,131.7z"/>
	<path fill="#67281F" d="M159.4,138.7h2.6v-14.1h-2.6v-2.1h8.1l4.3,12.5h0.1l4.3-12.5h7.9v2.1h-2.8v14.1h2.8v2.1h-8.7v-2.1h2.4V125
		h-0.3l-5.6,15.8h-1.6l-5.8-15.8h-0.3v13.7h2.5v2.1h-7.3V138.7L159.4,138.7z"/>
	<path fill="#67281F" d="M198.1,134.7h-6.4l-1.5,4.1h2.3v2.1h-6.7v-2.1h2l6.1-16.3h3.6l5.9,16.3h2.4v2.1h-9v-2.1h2.7L198.1,134.7z
		 M192.3,132.8h5.1l-2.4-7.2h-0.1L192.3,132.8z"/>
	<path fill="#67281F" d="M207.6,134.5h2c1.7,3.4,3.1,4.8,5.8,4.8c2.1,0,3.3-1.1,3.3-2.8c0-2-2.1-2.5-4.7-3.2
		c-2.9-0.8-6.1-1.8-6.1-5.7c0-3,2.5-5.5,6-5.5c1.7,0,3.6,0.7,4.6,2l0.6-1.9h2.1v6.4h-2c-1.5-3.4-3-4.5-5.2-4.5
		c-1.8,0-2.9,1.1-2.9,2.6c0,2.2,2.3,2.7,4.9,3.4c2.9,0.7,6,1.6,6,5.4c0,3.3-2.7,5.8-6.4,5.8c-2.1,0-4.1-0.8-5.2-2.1l-0.6,2h-2.1
		L207.6,134.5L207.6,134.5z"/>
</g>
<g>
	<path fill="#67281F" d="M58.7,108l3.1,11.3h0.2l3.3-11.3h-2.1v-1.8h6v1.9h-1.8l-4.7,14.7h-3.2l-2.8-10l-3.5,10H50L45.5,108h-2.2
		v-1.9h8.1v1.8h-2.4l3.2,11.3h0.2l3.3-9.5l-0.5-1.8h-2.1v-1.8h8.1v1.8C61.3,108,58.7,108,58.7,108z"/>
	<path fill="#67281F" d="M51.9,141.1h2.8v-13h-0.9c-2.1,0-2.6,0.7-3.7,4.6h-1.5v-6.2H64v6.2h-1.5c-1.1-3.9-1.6-4.6-3.7-4.6h-0.9v13
		h2.8v1.9h-8.8V141.1z"/>
</g>
<g>
	<path fill="#937450" d="M44.5,135.5c-0.8,0.8-1.1,1.9-1,2.7c0.8,0.1,1.8-0.3,2.6-1.2c0.8-0.8,1.1-1.9,1-2.7
		C46.3,134.2,45.3,134.6,44.5,135.5z"/>
</g>
<g>
	<path fill="#937450" d="M39.8,135.9c-1.1-0.2-2.2,0.1-2.8,0.6c0.4,0.7,1.3,1.3,2.4,1.5c1.1,0.2,2.2-0.1,2.8-0.6
		C41.8,136.7,40.9,136.1,39.8,135.9z"/>
</g>
<g>
	<path fill="#937450" d="M42.7,132.3c-0.7,0.9-1,1.9-0.8,2.7c0.8,0,1.8-0.5,2.5-1.3c0.7-0.9,1-1.9,0.8-2.7
		C44.4,131,43.5,131.5,42.7,132.3z"/>
</g>
<g>
	<path fill="#937450" d="M38.6,131.9c-1.1-0.2-2.2,0-2.8,0.5c0.3,0.7,1.2,1.4,2.3,1.6c1.1,0.2,2.2,0,2.8-0.5
		C40.6,132.8,39.7,132.1,38.6,131.9z"/>
</g>
<g>
	<path fill="#937450" d="M41.3,128.6c-0.8,0.8-1.3,1.8-1.2,2.6c0.8,0.1,1.8-0.2,2.6-1c0.8-0.8,1.3-1.8,1.2-2.6
		C43.1,127.5,42.1,127.8,41.3,128.6z"/>
</g>
<g>
	<path fill="#937450" d="M37.9,127.3c-1.1-0.4-2.2-0.4-2.8,0.1c0.2,0.8,1,1.5,2.1,2c1.1,0.4,2.2,0.4,2.8-0.1
		C39.7,128.5,38.9,127.7,37.9,127.3z"/>
</g>
<g>
	<path fill="#937450" d="M40.8,124.2c-0.8,0.8-1.3,1.8-1.2,2.6c0.8,0.1,1.8-0.2,2.6-1c0.8-0.8,1.3-1.8,1.2-2.6
		C42.7,123,41.6,123.4,40.8,124.2z"/>
</g>
<g>
	<path fill="#937450" d="M36.3,124.1c0.7,0.9,1.7,1.4,2.5,1.3c0.2-0.8-0.1-1.8-0.8-2.7s-1.7-1.4-2.5-1.3
		C35.3,122.2,35.5,123.2,36.3,124.1z"/>
</g>
<g>
	<path fill="#937450" d="M39.7,120c-0.5,1.1-0.5,2.1-0.1,2.8c0.8-0.2,1.6-0.9,2.1-2c0.5-1.1,0.5-2.1,0.1-2.8
		C41,118.2,40.2,119,39.7,120z"/>
</g>
<g>
	<path fill="#937450" d="M41.2,139.3c-1.1,0.2-2.1,0.7-2.4,1.4c0.6,0.6,1.6,0.9,2.8,0.7c1.1-0.2,2.1-0.7,2.4-1.4
		C43.4,139.5,42.3,139.2,41.2,139.3z"/>
</g>
<g>
	<path fill="#937450" d="M67.8,135.5c0.8,0.8,1.1,1.9,1,2.7c-0.8,0.1-1.8-0.3-2.6-1.2c-0.8-0.8-1.1-1.9-1-2.7
		C66,134.2,67,134.6,67.8,135.5z"/>
</g>
<g>
	<path fill="#937450" d="M72.5,135.9c1.1-0.2,2.2,0.1,2.8,0.6c-0.4,0.7-1.3,1.3-2.4,1.5c-1.1,0.2-2.2-0.1-2.8-0.6
		C70.4,136.7,71.3,136.1,72.5,135.9z"/>
</g>
<g>
	<path fill="#937450" d="M69.6,132.3c0.7,0.9,1,1.9,0.8,2.7c-0.8,0-1.8-0.5-2.5-1.3c-0.7-0.9-1-1.9-0.8-2.7
		C67.8,131,68.8,131.5,69.6,132.3z"/>
</g>
<g>
	<path fill="#937450" d="M73.7,131.9c1.1-0.2,2.2,0,2.8,0.5c-0.3,0.7-1.2,1.4-2.3,1.6c-1.1,0.2-2.2,0-2.8-0.5
		C71.7,132.8,72.6,132.1,73.7,131.9z"/>
</g>
<g>
	<path fill="#937450" d="M71,128.6c0.8,0.8,1.3,1.8,1.2,2.6c-0.8,0.1-1.8-0.2-2.6-1c-0.8-0.8-1.3-1.8-1.2-2.6
		C69.2,127.5,70.2,127.8,71,128.6z"/>
</g>
<g>
	<path fill="#937450" d="M74.4,127.3c1.1-0.4,2.2-0.4,2.8,0.1c-0.2,0.8-1,1.5-2.1,2c-1.1,0.4-2.2,0.4-2.8-0.1
		C72.6,128.5,73.4,127.7,74.4,127.3z"/>
</g>
<g>
	<path fill="#937450" d="M71.5,124.2c0.8,0.8,1.3,1.8,1.2,2.6c-0.8,0.1-1.8-0.2-2.6-1c-0.8-0.8-1.3-1.8-1.2-2.6
		C69.6,123,70.7,123.4,71.5,124.2z"/>
</g>
<g>
	<path fill="#937450" d="M76,124.1c-0.7,0.9-1.7,1.4-2.5,1.3c-0.2-0.8,0.1-1.8,0.8-2.7c0.7-0.9,1.7-1.4,2.5-1.3
		C77,122.2,76.7,123.2,76,124.1z"/>
</g>
<g>
	<path fill="#937450" d="M72.6,120c0.5,1.1,0.5,2.1,0.1,2.8c-0.8-0.2-1.6-0.9-2.1-2c-0.5-1.1-0.5-2.1-0.1-2.8
		C71.3,118.2,72.1,119,72.6,120z"/>
</g>
<g>
	<path fill="#937450" d="M71.1,139.3c1.1,0.2,2.1,0.7,2.4,1.4c-0.6,0.6-1.6,0.9-2.8,0.7c-1.1-0.2-2.1-0.7-2.4-1.4
		C68.9,139.5,70,139.2,71.1,139.3z"/>
</g>
<g>
	<path fill="#937450" d="M118.6,155.5c-0.5,0.2-1,0.2-1.5,0.2c-0.4,0-0.7-0.1-1-0.2c-0.3-0.1-0.5-0.3-0.8-0.5
		c-0.2-0.2-0.3-0.4-0.5-0.7c-0.1-0.2-0.2-0.5-0.2-0.7c0-0.3,0.1-0.6,0.2-0.9c0.1-0.3,0.3-0.5,0.5-0.7c0.2-0.2,0.4-0.4,0.7-0.6
		c0.3-0.2,0.6-0.3,0.9-0.5c-0.3-0.4-0.5-0.7-0.7-1c-0.2-0.3-0.3-0.6-0.3-1s0.1-0.7,0.2-0.9c0.1-0.3,0.3-0.5,0.5-0.6
		c0.2-0.2,0.5-0.3,0.7-0.3c0.3-0.1,0.6-0.1,0.8-0.1c0.3,0,0.6,0,0.8,0.1c0.2,0.1,0.5,0.2,0.7,0.3c0.2,0.1,0.3,0.3,0.4,0.5
		c0.1,0.2,0.2,0.4,0.2,0.7c0,0.4-0.1,0.8-0.4,1.1s-0.7,0.7-1.2,1c0.3,0.4,0.7,0.8,1,1.2c0.3,0.4,0.7,0.8,1,1.2
		c0.2-0.3,0.5-0.6,0.7-1s0.5-0.9,0.8-1.4c0.1,0.1,0.2,0.3,0.3,0.4c0.1,0.1,0.2,0.2,0.3,0.3c-0.3,0.4-0.6,0.8-0.8,1.1
		c-0.3,0.3-0.6,0.7-0.9,1c0.1,0.2,0.3,0.3,0.4,0.5c0.2,0.2,0.3,0.3,0.5,0.5c0.2,0.2,0.3,0.3,0.5,0.5c0.2,0.2,0.3,0.3,0.5,0.4
		c-0.3,0-0.6,0-0.8,0s-0.5,0-0.7,0c-0.2,0-0.3,0-0.5,0c-0.2,0-0.3,0-0.5,0l-0.6-0.8C119.6,155.2,119.1,155.4,118.6,155.5z
		 M116.5,153.8c0.1,0.2,0.2,0.4,0.4,0.6c0.2,0.2,0.3,0.3,0.6,0.4c0.2,0.1,0.5,0.2,0.8,0.2c0.3,0,0.5,0,0.7-0.1
		c0.2-0.1,0.4-0.2,0.6-0.4c-0.4-0.5-0.8-0.9-1.1-1.4c-0.4-0.5-0.7-0.9-1.1-1.4c-0.3,0.2-0.5,0.5-0.7,0.7c-0.2,0.2-0.3,0.5-0.3,0.8
		C116.4,153.4,116.4,153.6,116.5,153.8z M117.9,149.4c0.2,0.3,0.3,0.6,0.5,0.9c0.1-0.1,0.2-0.2,0.3-0.3c0.1-0.1,0.2-0.3,0.3-0.4
		c0.1-0.2,0.2-0.3,0.3-0.5c0.1-0.2,0.1-0.4,0.1-0.6c0-0.3-0.1-0.5-0.3-0.7c-0.2-0.2-0.4-0.3-0.6-0.3c-0.2,0-0.5,0.1-0.6,0.2
		c-0.2,0.2-0.3,0.4-0.3,0.7C117.7,148.8,117.8,149.1,117.9,149.4z"/>
	<path fill="#937450" d="M136.9,155.6c-0.2,0-0.4,0-0.6,0c-0.2,0-0.4,0-0.5,0s-0.3,0-0.5,0c-0.2,0-0.4,0-0.5,0
		c-0.1-0.4-0.3-0.8-0.4-1.3c-0.2-0.4-0.3-0.8-0.5-1.3c-0.3,0-0.5,0-0.8,0c-0.3,0-0.5,0-0.8,0c-0.2,0-0.4,0-0.6,0c-0.2,0-0.4,0-0.6,0
		c-0.2,0.4-0.3,0.8-0.5,1.3c-0.2,0.4-0.3,0.8-0.4,1.3c-0.1,0-0.2,0-0.3,0c-0.1,0-0.2,0-0.3,0s-0.2,0-0.3,0c-0.1,0-0.2,0-0.3,0
		c0.1-0.2,0.2-0.5,0.4-0.9c0.2-0.4,0.3-0.8,0.6-1.3c0.2-0.5,0.4-1,0.6-1.6c0.2-0.6,0.5-1.1,0.7-1.7c0.2-0.6,0.5-1.1,0.7-1.7
		c0.2-0.6,0.4-1.1,0.6-1.5c0.1,0,0.2,0,0.2,0c0.1,0,0.2,0,0.2,0c0.1,0,0.2,0,0.2,0c0.1,0,0.2,0,0.2,0c0.3,0.7,0.6,1.5,0.9,2.3
		c0.3,0.8,0.6,1.6,0.9,2.4c0.3,0.8,0.6,1.5,0.9,2.2C136.4,154.5,136.7,155.2,136.9,155.6z M132.4,149.4c-0.2,0.5-0.4,1-0.6,1.5
		c-0.2,0.5-0.4,1-0.6,1.5h2.3c-0.2-0.5-0.4-1-0.5-1.5C132.8,150.4,132.6,149.9,132.4,149.4z"/>
	<path fill="#937450" d="M141.2,147.6c-0.4,0-0.7,0.1-0.9,0.3c-0.2,0.2-0.4,0.5-0.4,0.8c0,0.3,0.1,0.6,0.3,0.8
		c0.2,0.2,0.4,0.4,0.7,0.5c0.3,0.2,0.6,0.3,0.9,0.5c0.3,0.2,0.6,0.3,0.9,0.5c0.3,0.2,0.5,0.5,0.7,0.8c0.2,0.3,0.3,0.7,0.3,1.2
		c0,0.4-0.1,0.8-0.2,1.1c-0.2,0.3-0.4,0.6-0.7,0.9c-0.3,0.2-0.6,0.4-1,0.6c-0.4,0.1-0.9,0.2-1.4,0.2c-0.5,0-0.9,0-1.2-0.2
		c-0.3-0.1-0.6-0.2-0.8-0.4c0.1-0.3,0.2-0.6,0.2-0.8c0.1-0.2,0.1-0.5,0.2-0.8h0.2c0,0.2,0.1,0.4,0.2,0.5c0.1,0.2,0.2,0.3,0.3,0.4
		c0.2,0.1,0.3,0.2,0.5,0.3c0.2,0.1,0.4,0.1,0.7,0.1c0.5,0,0.9-0.1,1.1-0.4c0.2-0.3,0.4-0.6,0.4-0.9c0-0.3-0.1-0.6-0.3-0.8
		c-0.2-0.2-0.4-0.4-0.7-0.5c-0.3-0.2-0.6-0.3-0.9-0.5c-0.3-0.2-0.6-0.3-0.9-0.5c-0.3-0.2-0.5-0.5-0.7-0.8c-0.2-0.3-0.3-0.7-0.3-1.2
		c0-0.4,0.1-0.8,0.2-1.1c0.2-0.3,0.4-0.6,0.6-0.8c0.3-0.2,0.6-0.4,0.9-0.5c0.3-0.1,0.7-0.2,1.1-0.2c0.5,0,0.8,0.1,1.2,0.2
		c0.3,0.1,0.6,0.3,0.9,0.5c-0.1,0.2-0.1,0.4-0.2,0.6c-0.1,0.2-0.1,0.4-0.2,0.7h-0.2C142.5,148,142,147.6,141.2,147.6z"/>
	<path fill="#937450" d="M148.2,147.6c-0.4,0-0.7,0.1-0.9,0.3c-0.2,0.2-0.4,0.5-0.4,0.8c0,0.3,0.1,0.6,0.3,0.8
		c0.2,0.2,0.4,0.4,0.7,0.5c0.3,0.2,0.6,0.3,0.9,0.5c0.3,0.2,0.6,0.3,0.9,0.5c0.3,0.2,0.5,0.5,0.7,0.8c0.2,0.3,0.3,0.7,0.3,1.2
		c0,0.4-0.1,0.8-0.2,1.1c-0.2,0.3-0.4,0.6-0.7,0.9c-0.3,0.2-0.7,0.4-1,0.6c-0.4,0.1-0.9,0.2-1.4,0.2c-0.5,0-0.9,0-1.2-0.2
		c-0.3-0.1-0.6-0.2-0.8-0.4c0.1-0.3,0.2-0.6,0.2-0.8c0.1-0.2,0.1-0.5,0.2-0.8h0.2c0,0.2,0.1,0.4,0.2,0.5c0.1,0.2,0.2,0.3,0.3,0.4
		c0.2,0.1,0.3,0.2,0.5,0.3c0.2,0.1,0.4,0.1,0.7,0.1c0.5,0,0.9-0.1,1.1-0.4c0.2-0.3,0.4-0.6,0.4-0.9c0-0.3-0.1-0.6-0.3-0.8
		c-0.2-0.2-0.4-0.4-0.7-0.5c-0.3-0.2-0.6-0.3-0.9-0.5c-0.3-0.2-0.6-0.3-0.9-0.5c-0.3-0.2-0.5-0.5-0.7-0.8c-0.2-0.3-0.3-0.7-0.3-1.2
		c0-0.4,0.1-0.8,0.2-1.1c0.2-0.3,0.4-0.6,0.6-0.8c0.3-0.2,0.6-0.4,0.9-0.5c0.3-0.1,0.7-0.2,1.1-0.2c0.5,0,0.8,0.1,1.2,0.2
		s0.6,0.3,0.9,0.5c-0.1,0.2-0.1,0.4-0.2,0.6c-0.1,0.2-0.1,0.4-0.2,0.7h-0.2C149.5,148,148.9,147.6,148.2,147.6z"/>
	<path fill="#937450" d="M152.7,149.6c0.2-0.5,0.6-1,1-1.4c0.4-0.4,0.9-0.7,1.5-1c0.6-0.2,1.3-0.3,2-0.3c0.7,0,1.3,0.1,1.9,0.3
		c0.6,0.2,1.1,0.5,1.5,0.8c0.4,0.4,0.8,0.8,1,1.4c0.2,0.6,0.4,1.2,0.4,2c0,0.6-0.1,1.2-0.4,1.8c-0.2,0.5-0.6,1-1,1.4s-0.9,0.7-1.5,1
		c-0.6,0.2-1.2,0.3-1.9,0.3c-0.7,0-1.3-0.1-1.9-0.2s-1.1-0.4-1.5-0.8s-0.8-0.8-1-1.4c-0.3-0.6-0.4-1.2-0.4-2
		C152.3,150.7,152.4,150.1,152.7,149.6z M159.6,149.6c-0.1-0.4-0.3-0.8-0.6-1.1s-0.5-0.5-0.9-0.7c-0.3-0.2-0.7-0.2-1.1-0.2
		c-0.4,0-0.8,0.1-1.1,0.3c-0.3,0.2-0.6,0.5-0.9,0.8c-0.2,0.3-0.4,0.8-0.5,1.2c-0.1,0.5-0.2,1-0.2,1.5c0,0.7,0.1,1.2,0.2,1.7
		c0.2,0.5,0.3,0.8,0.6,1.1c0.2,0.3,0.5,0.5,0.8,0.6c0.3,0.1,0.7,0.2,1,0.2c0.4,0,0.7-0.1,1.1-0.2c0.3-0.2,0.6-0.4,0.9-0.7
		c0.3-0.3,0.5-0.7,0.6-1.2c0.2-0.5,0.2-1.1,0.2-1.8C159.9,150.5,159.8,150,159.6,149.6z"/>
	<path fill="#937450" d="M170.9,154.7c0,0.2-0.1,0.4-0.1,0.5c-0.7,0.3-1.5,0.5-2.6,0.5c-0.7,0-1.4-0.1-1.9-0.3
		c-0.6-0.2-1.1-0.5-1.5-0.9c-0.4-0.4-0.7-0.8-0.9-1.3c-0.2-0.5-0.3-1.1-0.3-1.7c0-0.9,0.1-1.6,0.4-2.2c0.3-0.6,0.6-1.1,1.1-1.5
		c0.5-0.4,1-0.6,1.6-0.8c0.6-0.2,1.2-0.3,1.9-0.3c0.2,0,0.5,0,0.7,0c0.2,0,0.5,0.1,0.7,0.1c0.2,0.1,0.4,0.1,0.6,0.2
		c0.2,0.1,0.4,0.2,0.5,0.2c-0.1,0.2-0.2,0.4-0.2,0.6c0,0.2-0.1,0.4-0.1,0.6h-0.2c-0.3-0.4-0.7-0.7-1-0.9c-0.3-0.2-0.7-0.3-1.2-0.3
		c-0.3,0-0.7,0.1-1,0.2c-0.3,0.2-0.6,0.4-0.9,0.7c-0.3,0.3-0.5,0.7-0.7,1.2c-0.2,0.5-0.3,1.1-0.3,1.7c0,0.7,0.1,1.2,0.3,1.6
		c0.2,0.5,0.4,0.8,0.7,1.1c0.3,0.3,0.6,0.5,1,0.6s0.7,0.2,1.1,0.2c0.2,0,0.4,0,0.6-0.1c0.2,0,0.4-0.1,0.6-0.2
		c0.2-0.1,0.4-0.2,0.6-0.3c0.2-0.1,0.3-0.2,0.5-0.4l0.2,0.1C171,154.4,170.9,154.6,170.9,154.7z"/>
	<path fill="#937450" d="M173.2,148.6c0-0.5,0-1.1-0.1-1.6c0.2,0,0.3,0,0.5,0c0.2,0,0.3,0,0.6,0c0.2,0,0.4,0,0.6,0
		c0.2,0,0.3,0,0.5,0c0,0.5-0.1,1.1-0.1,1.6c0,0.5,0,1.1,0,1.9v1.7c0,0.7,0,1.3,0,1.9c0,0.5,0,1.1,0.1,1.6c-0.2,0-0.3,0-0.5,0
		c-0.2,0-0.3,0-0.6,0c-0.2,0-0.4,0-0.6,0c-0.2,0-0.3,0-0.5,0c0-0.5,0.1-1,0.1-1.6c0-0.5,0-1.1,0-1.9v-1.7
		C173.3,149.8,173.2,149.2,173.2,148.6z"/>
	<path fill="#937450" d="M185.1,155.6c-0.2,0-0.4,0-0.6,0c-0.2,0-0.4,0-0.5,0c-0.2,0-0.3,0-0.5,0c-0.2,0-0.4,0-0.5,0
		c-0.1-0.4-0.3-0.8-0.4-1.3c-0.2-0.4-0.3-0.8-0.5-1.3c-0.3,0-0.5,0-0.8,0c-0.3,0-0.5,0-0.8,0c-0.2,0-0.4,0-0.6,0c-0.2,0-0.4,0-0.7,0
		c-0.2,0.4-0.3,0.8-0.5,1.3c-0.2,0.4-0.3,0.8-0.4,1.3c-0.1,0-0.2,0-0.3,0c-0.1,0-0.2,0-0.3,0s-0.2,0-0.3,0s-0.2,0-0.3,0
		c0.1-0.2,0.2-0.5,0.4-0.9s0.3-0.8,0.6-1.3c0.2-0.5,0.4-1,0.6-1.6c0.2-0.6,0.5-1.1,0.7-1.7c0.2-0.6,0.5-1.1,0.7-1.7
		c0.2-0.6,0.4-1.1,0.6-1.5c0.1,0,0.2,0,0.2,0c0.1,0,0.2,0,0.2,0c0.1,0,0.2,0,0.2,0c0.1,0,0.2,0,0.2,0c0.3,0.7,0.6,1.5,0.9,2.3
		c0.3,0.8,0.6,1.6,0.9,2.4c0.3,0.8,0.6,1.5,0.9,2.2C184.6,154.5,184.8,155.2,185.1,155.6z M180.6,149.4c-0.2,0.5-0.4,1-0.6,1.5
		c-0.2,0.5-0.4,1-0.6,1.5h2.3c-0.2-0.5-0.4-1-0.5-1.5C181,150.4,180.8,149.9,180.6,149.4z"/>
	<path fill="#937450" d="M187.7,148.4c0-0.2,0-0.3,0-0.4c-0.1,0-0.3,0-0.5,0c-0.2,0-0.4,0-0.6,0c-0.2,0-0.4,0-0.6,0
		c-0.2,0-0.4,0-0.6,0.1c0-0.1,0-0.2,0-0.3c0-0.1,0-0.2,0-0.3c0-0.1,0-0.2,0-0.3c0-0.1,0-0.2,0-0.3c0.3,0,0.5,0,0.8,0s0.5,0,0.7,0
		c0.2,0,0.5,0,0.8,0c0.3,0,0.6,0,1,0s0.7,0,1,0c0.3,0,0.5,0,0.8,0c0.2,0,0.5,0,0.7,0c0.2,0,0.5,0,0.7,0c0,0.1,0,0.2,0,0.3
		c0,0.1,0,0.2,0,0.3c0,0.1,0,0.2,0,0.3c0,0.1,0,0.2,0,0.3c-0.2,0-0.3,0-0.6-0.1c-0.2,0-0.4,0-0.6,0c-0.2,0-0.4,0-0.6,0s-0.3,0-0.5,0
		c0,0,0,0.1,0,0.2c0,0.1,0,0.2,0,0.3v0.7v3.1c0,0.7,0,1.3,0,1.9c0,0.5,0,1.1,0.1,1.6c-0.2,0-0.3,0-0.5,0c-0.2,0-0.3,0-0.6,0
		c-0.2,0-0.4,0-0.6,0s-0.3,0-0.5,0c0-0.5,0.1-1,0.1-1.6c0-0.5,0-1.1,0-1.9V149C187.7,148.8,187.7,148.6,187.7,148.4z"/>
	<path fill="#937450" d="M193.6,148.6c0-0.5,0-1.1-0.1-1.6c0.4,0,0.8,0,1.1,0c0.4,0,0.7,0,1.1,0c0.6,0,1.2,0,1.6,0c0.5,0,0.8,0,1,0
		c0,0.1,0,0.3,0,0.5c0,0.1,0,0.2,0,0.3c0,0.1,0,0.2,0,0.3c-0.2,0-0.5,0-0.8,0c-0.3,0-0.6,0-0.8,0c-0.3,0-0.5,0-0.7,0
		c-0.2,0-0.4,0-0.5,0c0,0.5,0,0.9-0.1,1.4c0,0.5,0,0.9,0,1.4c0.5,0,1,0,1.5,0c0.4,0,0.9,0,1.4-0.1c0,0.2,0,0.3,0,0.3
		c0,0.1,0,0.2,0,0.2c0,0.1,0,0.1,0,0.2c0,0.1,0,0.2,0,0.3c-1-0.1-1.9-0.1-2.9-0.1c0,0.3,0,0.5,0,0.8c0,0.3,0,0.5,0,0.8
		c0,0.5,0,1.1,0,1.6c0.5,0,1,0,1.4,0s1-0.1,1.5-0.1c0,0.1,0,0.2,0,0.3c0,0.1,0,0.2,0,0.3c0,0.1,0,0.2,0,0.3c0,0.1,0,0.1,0,0.2
		c-0.2,0-0.5,0-0.8,0c-0.3,0-0.8,0-1.4,0c-0.5,0-0.9,0-1.2,0c-0.3,0-0.6,0-0.8,0s-0.3,0-0.4,0c-0.1,0-0.2,0-0.2,0c0-0.5,0-1,0.1-1.6
		c0-0.5,0-1.1,0-1.9v-1.7C193.7,149.8,193.7,149.2,193.6,148.6z"/>
	<path fill="#937450" d="M203,147.6c-0.4,0-0.7,0.1-0.9,0.3c-0.2,0.2-0.4,0.5-0.4,0.8c0,0.3,0.1,0.6,0.3,0.8
		c0.2,0.2,0.4,0.4,0.7,0.5c0.3,0.2,0.6,0.3,0.9,0.5c0.3,0.2,0.6,0.3,0.9,0.5c0.3,0.2,0.5,0.5,0.7,0.8c0.2,0.3,0.3,0.7,0.3,1.2
		c0,0.4-0.1,0.8-0.2,1.1c-0.2,0.3-0.4,0.6-0.7,0.9c-0.3,0.2-0.7,0.4-1,0.6c-0.4,0.1-0.9,0.2-1.4,0.2c-0.5,0-0.9,0-1.2-0.2
		c-0.3-0.1-0.6-0.2-0.8-0.4c0.1-0.3,0.2-0.6,0.2-0.8c0.1-0.2,0.1-0.5,0.2-0.8h0.2c0,0.2,0.1,0.4,0.2,0.5c0.1,0.2,0.2,0.3,0.3,0.4
		c0.2,0.1,0.3,0.2,0.5,0.3c0.2,0.1,0.4,0.1,0.7,0.1c0.5,0,0.9-0.1,1.1-0.4c0.2-0.3,0.4-0.6,0.4-0.9c0-0.3-0.1-0.6-0.3-0.8
		c-0.2-0.2-0.4-0.4-0.7-0.5c-0.3-0.2-0.6-0.3-0.9-0.5c-0.3-0.2-0.6-0.3-0.9-0.5c-0.3-0.2-0.5-0.5-0.7-0.8c-0.2-0.3-0.3-0.7-0.3-1.2
		c0-0.4,0.1-0.8,0.2-1.1c0.2-0.3,0.4-0.6,0.6-0.8c0.3-0.2,0.6-0.4,0.9-0.5c0.3-0.1,0.7-0.2,1.1-0.2c0.5,0,0.8,0.1,1.2,0.2
		s0.6,0.3,0.9,0.5c-0.1,0.2-0.1,0.4-0.2,0.6c-0.1,0.2-0.1,0.4-0.2,0.7h-0.2C204.2,148,203.7,147.6,203,147.6z"/>
</g>
</svg>
