<?xml version="1.0" encoding="utf-8"?>
<!-- Generator: Adobe Illustrator 18.0.0, SVG Export Plug-In . SVG Version: 6.00 Build 0)  -->
<!DOCTYPE svg PUBLIC "-//W3C//DTD SVG 1.1//EN" "http://www.w3.org/Graphics/SVG/1.1/DTD/svg11.dtd">
<svg version="1.1" id="Layer_1" xmlns="http://www.w3.org/2000/svg" xmlns:xlink="http://www.w3.org/1999/xlink" x="0px" y="0px"
	 viewBox="0 0 1009.8 239" style="enable-background:new 0 0 1009.8 239;" xml:space="preserve">
<style type="text/css">
	.st0{fill:#655B4F;}
	.st1{fill:#9A7745;}
	.st2{fill:#373D42;stroke:#373D42;stroke-width:1.5;stroke-linecap:round;stroke-linejoin:round;stroke-miterlimit:10;}
	.st3{fill:#373D42;}
	.st4{fill:#006C87;}
</style>
<g>
	<path class="st4" d="M224.4,55.4c0-0.9,0.7-1.6,1.6-1.6h35.2c0.9,0,1.6,0.8,1.6,1.6v9.3c0,0.9-0.7,1.6-1.6,1.6h-23.5v12.2h19.4
		c0.8,0,1.6,0.8,1.6,1.6v9.3c0,0.9-0.8,1.6-1.6,1.6h-19.4v20.7c0,0.9-0.8,1.6-1.6,1.6h-10c-0.9,0-1.6-0.8-1.6-1.6V55.4z"/>
	<path class="st4" d="M272.3,55.4c0-0.9,0.7-1.6,1.6-1.6h25.4c10.2,0,18.5,8.2,18.5,18.4c0,7.8-5.2,14.1-12.6,17.1l11.6,21.6
		c0.6,1.1,0,2.5-1.4,2.5h-11.3c-0.7,0-1.2-0.4-1.4-0.8L291.5,90h-5.9v21.7c0,0.9-0.8,1.6-1.6,1.6h-10.1c-0.9,0-1.6-0.8-1.6-1.6V55.4
		z M298.2,79.2c3.5,0,6.5-3.2,6.5-6.8c0-3.6-3-6.5-6.5-6.5h-12.6v13.3H298.2z"/>
	<path class="st4" d="M321.6,111.1l26.6-57.2c0.3-0.5,0.9-0.9,1.4-0.9h0.9c0.6,0,1.2,0.4,1.4,0.9l26.6,57.2c0.5,1.1-0.2,2.2-1.4,2.2
		h-9.4c-1.5,0-2.2-0.5-3-2.1l-3.1-6.7h-23.1l-3.1,6.8c-0.4,1-1.4,2-3.1,2H323C321.7,113.3,321.1,112.2,321.6,111.1z M356.5,92.9
		l-6.5-14H350l-6.4,14H356.5z"/>
	<path class="st4" d="M385.4,54.5c0-0.9,0.8-1.5,1.6-1.5h2.1l33.9,32.6h0.1V55.4c0-0.9,0.7-1.6,1.6-1.6H435c0.9,0,1.6,0.8,1.6,1.6
		v57.2c0,0.9-0.8,1.5-1.6,1.5h-1.4c-0.3,0-0.9-0.3-1.1-0.4L398.9,80h-0.1v31.7c0,0.9-0.7,1.6-1.6,1.6h-10.1c-0.9,0-1.6-0.8-1.6-1.6
		L385.4,54.5z"/>
	<path class="st4" d="M451.2,55.8c0-1.1,0.9-2,2-2h9.9c1.1,0,2,0.9,2,2v22.4l18.9-23.5c0.3-0.4,1.1-0.9,1.6-0.9h10.7
		c1.6,0,2.5,1.9,1.5,3.1l-19.9,24.9l21.7,28.2c0.9,1.3,0,3.1-1.6,3.1h-11.7c-0.6,0-1.4-0.3-1.5-0.6l-19.6-26.7v25.3c0,1.1-0.9,2-2,2
		h-9.9c-1.2,0-2-0.9-2-2V55.8z"/>
	<path class="st4" d="M508.4,55.4c0-0.9,0.7-1.6,1.6-1.6h10.1c0.9,0,1.6,0.8,1.6,1.6v45.4H542c0.9,0,1.6,0.8,1.6,1.6v9.3
		c0,0.9-0.7,1.6-1.6,1.6h-32c-0.9,0-1.6-0.8-1.6-1.6V55.4z"/>
	<path class="st4" d="M551.8,55.4c0-0.9,0.8-1.6,1.6-1.6h10.2c0.8,0,1.6,0.8,1.6,1.6v56.3c0,0.9-0.8,1.6-1.6,1.6h-10.2
		c-0.9,0-1.6-0.8-1.6-1.6V55.4z"/>
	<path class="st4" d="M579.8,54.5c0-0.9,0.8-1.5,1.6-1.5h2.1l33.9,32.6h0.1V55.4c0-0.9,0.7-1.6,1.6-1.6h10.2c0.9,0,1.6,0.8,1.6,1.6
		v57.2c0,0.9-0.8,1.5-1.6,1.5H628c-0.3,0-0.9-0.3-1.1-0.4L593.3,80h-0.1v31.7c0,0.9-0.7,1.6-1.6,1.6h-10.1c-0.9,0-1.6-0.8-1.6-1.6
		L579.8,54.5z"/>
	<path class="st4" d="M690.7,52.9c8.5,0,14.8,2.6,20.6,7.9c0.8,0.7,0.8,1.7,0.1,2.4l-6.6,6.9c-0.6,0.6-1.5,0.6-2.1,0
		c-3.1-2.8-7.3-4.3-11.5-4.3c-9.6,0-16.7,8-16.7,17.5c0,9.4,7.1,17.3,16.7,17.3c4,0,8.3-1.4,11.4-4.1c0.6-0.5,1.7-0.5,2.2,0.1
		l6.6,7.1c0.6,0.6,0.5,1.7-0.1,2.3c-5.8,5.6-13.1,8.2-20.7,8.2c-17,0-30.7-13.5-30.7-30.5C660,66.6,673.7,52.9,690.7,52.9z"/>
	<path class="st4" d="M747.5,52.9c17,0,30.6,13.7,30.6,30.7c0,17-13.6,30.5-30.6,30.5c-17,0-30.5-13.5-30.5-30.5
		C717,66.6,730.5,52.9,747.5,52.9z M747.5,100.5c9.4,0,17-7.7,17-16.9c0-9.4-7.7-17.1-17-17.1c-9.3,0-16.9,7.7-16.9,17.1
		C730.6,92.9,738.2,100.5,747.5,100.5z"/>
	<path class="st4" d="M787.5,55.4c0-0.9,0.8-1.6,1.6-1.6h10.5c0.9,0,1.6,0.8,1.6,1.6v34.4c0,6,4.4,10.7,10.5,10.7
		c6.1,0,10.6-4.8,10.6-10.7V55.4c0-0.9,0.7-1.6,1.6-1.6h10.5c0.9,0,1.6,0.8,1.6,1.6v35.1c0,12.9-10.9,23.6-24.3,23.6
		c-13.3,0-24.1-10.7-24.1-23.6V55.4z"/>
	<path class="st4" d="M849.6,54.5c0-0.9,0.8-1.5,1.6-1.5h2.1l33.9,32.6h0.1V55.4c0-0.9,0.7-1.6,1.6-1.6h10.2c0.9,0,1.6,0.8,1.6,1.6
		v57.2c0,0.9-0.8,1.5-1.6,1.5h-1.4c-0.3,0-0.9-0.3-1.1-0.4L863.1,80H863v31.7c0,0.9-0.7,1.6-1.6,1.6h-10.1c-0.9,0-1.6-0.8-1.6-1.6
		L849.6,54.5z"/>
	<path class="st4" d="M923,66.3h-12.2c-0.9,0-1.6-0.8-1.6-1.6v-9.3c0-0.9,0.7-1.6,1.6-1.6h37.7c0.9,0,1.6,0.8,1.6,1.6v9.3
		c0,0.9-0.7,1.6-1.6,1.6h-12.2v45.4c0,0.9-0.8,1.6-1.6,1.6h-10.2c-0.8,0-1.6-0.8-1.6-1.6V66.3z"/>
	<path class="st4" d="M972.6,84.6l-18.8-28.4c-0.7-1.1,0-2.5,1.4-2.5h11.1c0.7,0,1.1,0.4,1.4,0.8L979.4,72l11.8-17.4
		c0.3-0.3,0.6-0.8,1.4-0.8h11.1c1.4,0,2,1.4,1.4,2.5l-19,28.3v27.1c0,0.9-0.8,1.6-1.6,1.6h-10.1c-0.9,0-1.6-0.8-1.6-1.6V84.6z"/>
	<path class="st4" d="M228.6,185c0,2.1-1.7,3.8-3.8,3.8s-3.8-1.7-3.8-3.8v-36.7c0-2.1,1.7-3.8,3.8-3.8h20.3c1.9,0,3.4,1.5,3.4,3.4
		c0,1.9-1.5,3.4-3.4,3.4h-16.5v12h12.3c1.8,0,3.3,1.5,3.3,3.3c0,1.8-1.5,3.3-3.3,3.3h-12.3V185z"/>
	<path class="st4" d="M255.6,166.6c-0.7,0.5-1.2,0.6-2,0.6c-1.7,0-3.1-1.4-3.1-3.1c0-0.7,0.3-1.5,0.8-2.1c1.8-2,5.1-4.2,10.7-4.2
		c8.1,0,12.9,4,12.9,10.9v16.6c0,1.9-1.6,3.4-3.4,3.4c-1.9,0-3.4-1.6-3.4-3.4c-1.8,2.8-4.6,3.8-8.5,3.8c-6.4,0-10.6-4-10.6-9.8
		c0-6,4.9-9.2,10.5-9.2h8.5V169c0-2.9-2.1-4.9-5.9-4.9C259.2,164.1,257.2,165.4,255.6,166.6z M268,177.4v-1.8h-7.6
		c-2.9,0-4.4,1.4-4.4,3.7c0,2.5,1.8,4,5.4,4C264.8,183.3,268,181.1,268,177.4z"/>
	<path class="st4" d="M326.6,169.2v16.3c0,2-1.6,3.4-3.5,3.4c-2.1,0-3.5-1.4-3.5-3.4v-15c0-3.7-1.5-6.2-5.7-6.2
		c-4.7,0-6.5,2.5-6.5,6.2v15c0,2-1.6,3.4-3.5,3.4c-2.1,0-3.5-1.4-3.5-3.4v-15c0-3.7-1.5-6.2-5.7-6.2c-4.9,0-6.5,2.9-6.5,6.7v14.5
		c0,2-1.5,3.4-3.5,3.4c-2,0-3.5-1.4-3.5-3.4v-23.7c0-2,1.6-3.5,3.5-3.5c1.9,0,3.5,1.6,3.5,3.5c1.2-1.9,4-3.9,8.3-3.9
		c5.3,0,8,1.7,9.6,4.2c2.1-2.8,4.9-4.2,9.3-4.2C324.2,157.9,326.6,163.5,326.6,169.2z"/>
	<path class="st4" d="M332.5,150.6c0-3,1.5-4.3,4.2-4.3c2.7,0,4.2,1.3,4.2,4.3c0,2.5-1.5,4.1-4.2,4.1
		C334,154.7,332.5,153.2,332.5,150.6z M340.2,185.3c0,2-1.6,3.5-3.5,3.5s-3.5-1.6-3.5-3.5v-23.5c0-2,1.6-3.5,3.5-3.5
		s3.5,1.6,3.5,3.5V185.3z"/>
	<path class="st4" d="M354,145.5v35.6c0,0.8,0.8,1.2,1.2,1.2c1.8,0,3.3,1.4,3.3,3.2c0,1.8-1.4,3.2-3.3,3.2c-5.1,0-8.3-2.9-8.3-8.3
		v-35c0-2,1.6-3.5,3.5-3.5S354,143.6,354,145.5z"/>
	<path class="st4" d="M369.9,186.2l-10-23.1c-0.1-0.3-0.3-0.8-0.3-1.4c0-2,1.6-3.5,3.5-3.5s2.9,1.4,3.2,2.2l7.2,18.1l7.2-18.1
		c0.3-0.8,1.3-2.2,3.2-2.2c2,0,3.5,1.6,3.5,3.5c0,0.6-0.1,1-0.3,1.4l-12.1,27.3c-2.9,6.4-7,10.9-13.5,10.9c-1.9,0-3.4-1.4-3.4-3.2
		c0-1.9,1.5-3.2,3.4-3.2C365.8,194.8,367.8,191.5,369.9,186.2z"/>
	<path class="st4" d="M431.2,185.1c-2.7,2.3-6.3,4.1-12,4.1c-8.1,0-14.1-4.5-14.1-12.6c0-4.3,2.5-8.3,6.5-11.4
		c-1.2-2.4-2.7-6-2.7-10.3c0-5.9,3.7-11.2,10.5-11.2c7,0,9.9,5,9.9,10.1c0,5.2-3.8,9.5-8.8,13.3c2.5,3.2,6.1,6.6,9.6,9
		c0.5-0.7,1.1-2.2,1.6-3.6c0.6-1.6,1.8-2.6,3.4-2.6c1.9,0,3.4,1.6,3.4,3.4c0,0.5-0.1,1.1-0.3,1.8c-0.6,2-1.4,3.4-2.5,4.9
		c1,0.7,2.5,1.4,4.7,2.5c1.4,0.7,2,1.8,2,3.1c0,1.8-1.5,3.3-3.3,3.3C437.5,188.8,433.8,186.8,431.2,185.1z M425.5,180.9
		c-4.2-2.9-7.7-6.4-10.3-10.1c-1.9,1.6-2.9,3.5-2.9,5.8c0,3.8,3,6.2,7,6.2C422.1,182.8,423.6,182.2,425.5,180.9z M417.2,161.4
		c3.3-2.3,5.1-5,5.1-7.6c0-2-0.8-3.8-3-3.8c-2.5,0-3.4,2.1-3.4,4.9C415.9,157.3,416.5,159.7,417.2,161.4z"/>
	<path class="st4" d="M461.1,166.4c0-15.4,7.4-22.8,20.3-22.8c7.9,0,13,3.1,15.7,7c0.5,0.8,0.7,1.4,0.7,2.1c0,1.9-1.6,3.4-3.5,3.4
		c-0.9,0-1.8-0.4-2.7-1.3c-2.7-2.9-5.5-4.5-10.2-4.5c-8.6,0-12.5,5.3-12.5,16.1c0,11.4,3.9,16,12.5,16c4.8,0,7.4-1.1,10.5-4.3
		c1-1,1.9-1.4,2.8-1.4c1.9,0,3.5,1.6,3.5,3.5c0,0.8-0.3,1.4-0.7,2c-3.1,4.2-9.2,7-16.2,7C468.5,189.2,461.1,182.4,461.1,166.4z"/>
	<path class="st4" d="M516.6,189.1c-8.8,0-14.2-5-14.2-15.6c0-10.7,5.5-15.7,14.2-15.7c8.8,0,14.2,5,14.2,15.7
		C530.8,184.1,525.3,189.1,516.6,189.1z M516.6,163.8c-4.7,0-7.1,3.2-7.1,9.7c0,6.4,2.5,9.6,7.1,9.6c4.7,0,7.2-3.2,7.2-9.6
		C523.7,167.1,521.2,163.8,516.6,163.8z"/>
	<path class="st4" d="M581.4,169.2v16.3c0,2-1.6,3.4-3.5,3.4c-2.1,0-3.5-1.4-3.5-3.4v-15c0-3.7-1.5-6.2-5.7-6.2
		c-4.7,0-6.5,2.5-6.5,6.2v15c0,2-1.6,3.4-3.5,3.4c-2.1,0-3.5-1.4-3.5-3.4v-15c0-3.7-1.5-6.2-5.7-6.2c-4.9,0-6.5,2.9-6.5,6.7v14.5
		c0,2-1.5,3.4-3.5,3.4c-2,0-3.5-1.4-3.5-3.4v-23.7c0-2,1.6-3.5,3.5-3.5c2,0,3.5,1.6,3.5,3.5c1.2-1.9,4-3.9,8.3-3.9
		c5.3,0,8,1.7,9.6,4.2c2.1-2.8,4.9-4.2,9.3-4.2C579,157.9,581.4,163.5,581.4,169.2z"/>
	<path class="st4" d="M633.1,169.2v16.3c0,2-1.6,3.4-3.5,3.4c-2.1,0-3.5-1.4-3.5-3.4v-15c0-3.7-1.5-6.2-5.7-6.2
		c-4.7,0-6.5,2.5-6.5,6.2v15c0,2-1.6,3.4-3.5,3.4c-2.1,0-3.5-1.4-3.5-3.4v-15c0-3.7-1.5-6.2-5.7-6.2c-4.9,0-6.5,2.9-6.5,6.7v14.5
		c0,2-1.5,3.4-3.5,3.4c-2,0-3.5-1.4-3.5-3.4v-23.7c0-2,1.6-3.5,3.5-3.5c1.9,0,3.5,1.6,3.5,3.5c1.2-1.9,4-3.9,8.3-3.9
		c5.3,0,8,1.7,9.6,4.2c2.1-2.8,4.9-4.2,9.3-4.2C630.7,157.9,633.1,163.5,633.1,169.2z"/>
	<path class="st4" d="M645.7,161.8v15.1c0,3,1,5.9,5.9,5.9c4.7,0,5.8-2.9,5.8-5.9v-15.1c0-2,1.6-3.5,3.5-3.5s3.5,1.6,3.5,3.5v15.1
		c0,6.4-2.4,12.2-12.8,12.2c-10.5,0-12.9-5.9-12.9-12.2v-15.1c0-2,1.6-3.5,3.5-3.5S645.7,159.8,645.7,161.8z"/>
	<path class="st4" d="M696.7,169.2v16.3c0,2-1.6,3.4-3.5,3.4c-2.1,0-3.5-1.4-3.5-3.4v-15c0-3.7-1.5-6.2-5.7-6.2
		c-4.9,0-6.5,2.9-6.5,6.7v14.5c0,2-1.5,3.4-3.5,3.4c-2,0-3.5-1.4-3.5-3.4v-23.7c0-2,1.6-3.5,3.5-3.5c1.9,0,3.5,1.6,3.5,3.5
		c1.2-1.9,4-3.9,8.3-3.9C694.7,157.9,696.7,163.5,696.7,169.2z"/>
	<path class="st4" d="M702.6,150.6c0-3,1.5-4.3,4.2-4.3c2.7,0,4.2,1.3,4.2,4.3c0,2.5-1.5,4.1-4.2,4.1
		C704.1,154.7,702.6,153.2,702.6,150.6z M710.3,185.3c0,2-1.6,3.5-3.5,3.5s-3.5-1.6-3.5-3.5v-23.5c0-2,1.6-3.5,3.5-3.5
		s3.5,1.6,3.5,3.5V185.3z"/>
	<path class="st4" d="M719,153.3c0-1.9,1.6-3.4,3.4-3.4c1.9,0,3.4,1.6,3.4,3.4v5.5h2.9c1.6,0,2.9,1.3,2.9,2.9s-1.3,2.9-2.9,2.9h-2.9
		v15.7c0,1.5,1.3,2.3,2.5,2.3c1.7,0,3.1,1.4,3.1,3.1c0,1.7-1.4,3.1-3.1,3.1c-5.8,0-9.4-3.7-9.4-8.8v-15.3h-1.5
		c-1.6,0-2.9-1.3-2.9-2.9s1.3-2.9,2.9-2.9h1.5V153.3z"/>
	<path class="st4" d="M744.5,186.2l-10-23.1c-0.1-0.3-0.3-0.8-0.3-1.4c0-2,1.6-3.5,3.5-3.5s2.9,1.4,3.2,2.2l7.2,18.1l7.2-18.1
		c0.3-0.8,1.3-2.2,3.2-2.2s3.5,1.6,3.5,3.5c0,0.6-0.1,1-0.3,1.4l-12.1,27.3c-2.9,6.4-7,10.9-13.5,10.9c-1.9,0-3.4-1.4-3.4-3.2
		c0-1.9,1.5-3.2,3.4-3.2C740.4,194.8,742.3,191.5,744.5,186.2z"/>
	<path class="st4" d="M796.3,150.4c-5.4,0-7.4,2.5-7.4,5.1c0,8.5,23.7,4.6,23.7,20.8c0,7.9-5.6,12.9-16.3,12.9
		c-7.7,0-13.9-3.8-16.4-7.9c-0.3-0.5-0.5-1.2-0.5-1.8c0-2,1.6-3.5,3.4-3.5c1.4,0,2.2,0.8,2.9,1.4c2.7,2.7,6.2,4.9,10.7,4.9
		c5.9,0,8.8-2,8.8-6c0-9.5-23.7-5.1-23.7-20.8c0-6.4,4.6-11.9,15-11.9c6.5,0,12.2,2.4,14.8,6.1c0.4,0.6,0.6,1.3,0.6,2.1
		c0,1.9-1.6,3.4-3.5,3.4c-0.9,0-1.8-0.5-2.8-1.4C803.4,151.9,800,150.4,796.3,150.4z"/>
	<path class="st4" d="M830.7,157.9c11,0,13,8.5,13,12.9c0,2.4,0,5.2-4,5.2h-16.1c0,4.7,3.3,6.8,7.6,6.8c2.9,0,4.9-1,6.4-2
		c0.7-0.5,1.2-0.7,2.1-0.7c1.7,0,3.1,1.4,3.1,3.1c0,1-0.5,1.9-1.1,2.4c-1.1,1-4.5,3.6-10.5,3.6c-9,0-14.6-4.9-14.6-15.7
		C816.7,163.4,821.9,157.9,830.7,157.9z M823.9,170.1h12.9c0-3.2-1.8-6.3-6-6.3C826.9,163.8,824.2,166,823.9,170.1z"/>
	<path class="st4" d="M855.6,162.1c1.2-2.5,4.3-4.2,7-4.2c1.8,0,3.3,1.5,3.3,3.3c0,1.8-1.5,3.3-3.3,3.3c-4.5,0-7,2.9-7,7.2v13.5
		c0,2-1.6,3.5-3.5,3.5c-2,0-3.5-1.6-3.5-3.5v-23.5c0-2,1.6-3.5,3.5-3.5c1.9,0,3.5,1.6,3.5,3.5V162.1z"/>
	<path class="st4" d="M880.1,186.7l-10.4-23.5c-0.1-0.3-0.3-0.8-0.3-1.4c0-2,1.6-3.5,3.5-3.5s2.9,1.4,3.2,2.2l7.2,18.1l7.2-18.1
		c0.3-0.8,1.3-2.2,3.2-2.2c2,0,3.5,1.6,3.5,3.5c0,0.6-0.1,1-0.3,1.4l-10.4,23.5c-0.6,1.3-1.8,2.1-3.2,2.1
		C881.9,188.8,880.7,188,880.1,186.7z"/>
	<path class="st4" d="M901,150.6c0-3,1.5-4.3,4.2-4.3c2.7,0,4.2,1.3,4.2,4.3c0,2.5-1.5,4.1-4.2,4.1C902.5,154.7,901,153.2,901,150.6
		z M908.6,185.3c0,2-1.6,3.5-3.5,3.5s-3.5-1.6-3.5-3.5v-23.5c0-2,1.6-3.5,3.5-3.5s3.5,1.6,3.5,3.5V185.3z"/>
	<path class="st4" d="M927.9,157.9c6,0,9.4,3,10.6,4.5c0.5,0.7,0.7,1.2,0.7,2c0,1.8-1.4,3.1-3.1,3.1c-1,0-1.8-0.5-2.4-1.1
		c-0.8-0.9-2.5-2.5-5.8-2.5c-4.5,0-7,3.5-7,9.6c0,6.2,2.5,9.7,7,9.7c3,0,4.9-1.5,6.4-2.6c0.7-0.5,1.3-0.7,2-0.7
		c1.8,0,3.1,1.4,3.1,3.1c0,0.9-0.3,1.7-1.1,2.4c-1.5,1.4-5.1,3.7-10.4,3.7c-8.8,0-14.1-5.1-14.1-15.7
		C913.8,162.9,919,157.9,927.9,157.9z"/>
	<path class="st4" d="M957.2,157.9c11,0,13,8.5,13,12.9c0,2.4,0,5.2-4,5.2h-16.1c0,4.7,3.3,6.8,7.6,6.8c2.9,0,4.9-1,6.4-2
		c0.7-0.5,1.2-0.7,2.1-0.7c1.7,0,3.1,1.4,3.1,3.1c0,1-0.5,1.9-1.1,2.4c-1.1,1-4.5,3.6-10.5,3.6c-9,0-14.6-4.9-14.6-15.7
		C943.2,163.4,948.4,157.9,957.2,157.9z M950.4,170.1h12.9c0-3.2-1.8-6.3-6-6.3C953.4,163.8,950.7,166,950.4,170.1z"/>
	<path class="st4" d="M981.7,166.4c0,4.8,16,2.6,16,13.3c0,6.1-5.2,9.2-11.9,9.2c-5.6,0-9.9-2.5-11.5-4.5c-0.5-0.7-0.8-1.2-0.8-2
		c0-1.7,1.4-3.1,3.1-3.1c0.6,0,1.3,0.2,2,0.8c1.8,1.4,3.9,2.7,7.2,2.7c2.9,0,4.8-0.8,4.8-2.6c0-5.3-15.9-2.5-15.9-13.6
		c0-5.9,4.9-8.7,10.9-8.7c4.6,0,8.7,1.8,10.5,4c0.4,0.5,0.6,1,0.6,2c0,1.7-1.4,3.1-3.1,3.1c-0.9,0-1.5-0.4-2.2-0.9
		c-1.4-1-3.2-2.1-5.8-2.1C983.1,164,981.7,164.8,981.7,166.4z"/>
</g>
<g>
	<path class="st4" d="M150.7,85.3v-0.7V42c0-13.3-10.8-24.2-24.2-24.2c-3.5,0-6.8,0.7-9.8,2.1C114.2,9.2,104.6,1.2,93.1,1.2
		s-21.1,8-23.6,18.7c-3-1.3-6.3-2.1-9.8-2.1c-11.5,0-21.1,8-23.6,18.7c-3-1.3-6.3-2.1-9.8-2.1c-13.3,0-24.2,10.8-24.2,24.2v50
		l0.1,7.5V142c0,50.1,40.7,90.8,90.8,90.8S184,192.1,184,142v-16.7C184,105.4,169.6,88.8,150.7,85.3z M169,142
		c0,41.8-34,75.8-75.8,75.8s-75.8-34-75.8-75.8v-33.3l-0.1-7.5V58.7c0-5.1,4.1-9.2,9.2-9.2c5.1,0,9.2,4.1,9.2,9.2v60.9h15V58.7V42
		c0-5.1,4.1-9.2,9.2-9.2c5.1,0,9.2,4.1,9.2,9.2v64.4h15V42V25.4c0-5.1,4.1-9.2,9.2-9.2s9.2,4.1,9.2,9.2V42v55.5h15V42
		c0-5.1,4.1-9.2,9.2-9.2c5.1,0,9.2,4.1,9.2,9.2v42.5v15v29.5c-19.2,6.3-33.1,24.4-33.1,45.6h15c0-18.2,14.8-33,33-33h0v-41
		c10.6,3.2,18.3,13.1,18.3,24.7V142z"/>
</g>
</svg>
