<?xml version="1.0" encoding="utf-8"?>
<!-- Generator: Adobe Illustrator 18.1.1, SVG Export Plug-In . SVG Version: 6.00 Build 0)  -->
<svg version="1.1" id="Layer_1" xmlns="http://www.w3.org/2000/svg" xmlns:xlink="http://www.w3.org/1999/xlink" x="0px" y="0px"
	 viewBox="56.4 105.3 147.7 53.3" enable-background="new 56.4 105.3 147.7 53.3" xml:space="preserve">
<g>
	<g>
		<path fill="#942B20" d="M89.4,109.7L89.4,109.7 M89.4,109.7l-6,27.9h-9.3l-0.1-18h-0.1l-4.7,18h-9.6l1-25.4h7.6l-2.1,21.2h0.1
			l5.5-21.2h6l0.3,21.2h0.1l3.3-23.7L89.4,109.7 M93.4,106.4h-4h-7.8h-2.8l-0.3,2.5h-0.5H72h-3.6h-7.6h-3.1l-0.1,3.1l-1,25.4
			l-0.1,3.4h3.4h9.6h2.5h2.3h9.3h2.6l0.5-2.6l6-27.9L93.4,106.4L93.4,106.4z"/>
	</g>
	<g>
		<path fill="#942B20" d="M105.4,108.7c4.4,2.3,6.8,5,6.8,8.1c0,2.8-1.6,5.7-4.4,8.6l-2.8,3.1l4.9,9h-8.2l-3.4-8.3l3.9-6.8
			c0.9-1.6,1.9-4.1,1.9-5c0-1.6-1.2-3.3-3.6-4.7l-4.2-2.2L105.4,108.7 M100.5,113.6l-4.2,24h-6.6l2.9-24H100.5 M105.9,105.3
			l-1.1,0.2l-9.4,1.9l-9.1,1.8l3.4,1.8l-0.3,2.2l-2.9,24.1l-0.4,3.6h3.7h6.6h2.7l0.1-0.6l0.2,0.6h2.2h8.2h5.5l-2.6-4.8l-3.8-7
			l1.3-1.4c3.5-3.8,5.2-7.3,5.2-10.8c0-2.3-0.8-4.5-2.5-6.5c-1.4-1.6-3.4-3.1-6-4.5L105.9,105.3L105.9,105.3z"/>
	</g>
	<g>
		<path fill="#942B20" d="M131.2,110.6L131.2,110.6 M131.2,110.6l-0.9,5.6l-6.3,0.2l-1.1,6h6.3l-0.8,4.4l-6.5,0.3l-1,5.7l6.4,0.3
			l-0.8,4.5h-13c0-0.2-0.1-0.5-0.1-0.9c0-4.3,0.7-12.8,2.5-18.6l5.9-1.5v-0.1l-7.1,0.2l1.5-6.1L131.2,110.6 M135,107.4h-3.8h-14.7
			h-2.5l-0.6,2.5l-1.5,6.1l-1,4.2l1.5,0c-1.4,5.9-1.9,12.9-1.9,16.6c0,0.6,0,1.1,0.1,1.5l0.5,2.6h2.7h13h2.7l0.5-2.7l0.8-4.5
			l0.6-3.6l-1.4-0.1l1.4-0.1l0.4-2.6l0.8-4.4l0.6-3.6h0l0.4-2.6l0.9-5.6L135,107.4L135,107.4z"/>
	</g>
	<g>
		<path fill="#942B20" d="M148.4,109.7l6.8,0.9l-4.6,27l-8.2,0.7l-1.7-18.9h-0.1l-2.7,18.2h-5.8l2.1-25.4h10.3l1.5,19.7h0.1
			L148.4,109.7 M145.5,106l-0.3,2.9h-0.6h-10.3h-3l-0.2,3l-2.1,25.4l-0.3,3.5h3.5h5.8h1.4l0.1,1l3.2-0.3l8.2-0.7l2.5-0.2l0.4-2.5
			l4.5-27l0.6-3.3l-3.3-0.5l-6.8-0.9L145.5,106L145.5,106z"/>
	</g>
	<g>
		<path fill="#942B20" d="M176.9,109.7L176.9,109.7 M176.9,109.7l-2.5,13.9h-7.1l2-10.7h-0.1c-2.8,5.5-4.8,9.9-4.8,14
			c0,3.9,4.2,8.1,8.1,10.8h-9.9c-5-4.6-6.5-7-6.5-10.8c0-4.2,2-8.7,5.5-14.6h7.8l0.5-2.5L176.9,109.7 M180.8,106.4h-3.9h-7h-2.7
			l-0.5,2.5h-5.1h-1.9l-1,1.6c-4.2,7.1-5.9,11.8-5.9,16.3c0,5.3,2.5,8.6,7.5,13.2l0.9,0.8h1.3h9.9h10.7l-8.9-6c-3.9-2.6-6.7-6-6.7-8
			h6.8h2.7l0.5-2.7l2.5-13.9L180.8,106.4L180.8,106.4z"/>
	</g>
	<g>
		<path fill="#942B20" d="M200.2,109.7L200.2,109.7 M200.2,109.7l-4.9,27.9h-6.7l1.2-9.8l-4.7,0.6l-1.4,9.2h-6.6l2.3-25.4h8.1
			l-1.9,12.3h4.5l1.8-14.8L200.2,109.7 M204.1,106.4h-3.9h-8.1h-2.9l-0.3,2.5h-1.3h-8.1h-3l-0.3,2.9l-2.3,25.4l-0.3,3.6h3.6h6.6h2.8
			h2.1h6.7h2.7l0.5-2.7l4.9-27.9L204.1,106.4L204.1,106.4z"/>
	</g>
</g>
<g>
	<g>
		<path fill="#E6E7E8" d="M60.8,112.2h7.6l-2.1,21.2h0.1l5.5-21.2h6l0.3,21.2h0.1l3.3-23.7h7.8l-6,27.9h-9.3l-0.1-18h-0.1l-4.7,18
			h-9.6L60.8,112.2z"/>
	</g>
	<g>
		<path fill="#E6E7E8" d="M92.7,113.6h7.8l-4.2,24h-6.6L92.7,113.6z M105.4,108.7c4.4,2.3,6.8,5,6.8,8.1c0,2.8-1.6,5.7-4.4,8.6
			l-2.8,3.1l4.9,9h-8.2l-3.4-8.3l3.9-6.8c0.9-1.6,1.9-4.1,1.9-5c0-1.6-1.2-3.3-3.6-4.7l-4.2-2.2L105.4,108.7z"/>
	</g>
	<g>
		<path fill="#E6E7E8" d="M126.6,137.6h-13c0-0.2-0.1-0.5-0.1-0.9c0-4.3,0.7-12.8,2.5-18.6l5.9-1.5v-0.1l-7.1,0.2l1.5-6.1h14.7
			l-0.9,5.6l-6.3,0.2l-1.1,6h6.3l-0.8,4.4l-6.5,0.3l-1,5.7l6.4,0.3L126.6,137.6z"/>
	</g>
	<g>
		<path fill="#E6E7E8" d="M134.3,112.2h10.3l1.5,19.7h0.1l2.2-22.1l6.8,0.9l-4.6,27l-8.2,0.7l-1.7-18.9h-0.1l-2.7,18.2h-5.8
			L134.3,112.2z"/>
	</g>
	<g>
		<path fill="#E6E7E8" d="M169.3,112.9L169.3,112.9c-2.9,5.5-4.9,9.9-4.9,14c0,3.9,4.2,8.1,8.1,10.8h-9.9c-5-4.6-6.5-7-6.5-10.8
			c0-4.2,2-8.7,5.5-14.6h7.8l0.5-2.5h7l-2.5,13.9h-7.1L169.3,112.9z"/>
	</g>
	<g>
		<path fill="#E6E7E8" d="M179.6,112.2h8.1l-1.9,12.3h4.5l1.8-14.8h8.1l-4.9,27.9h-6.7l1.2-9.8l-4.7,0.6l-1.4,9.2h-6.6L179.6,112.2z
			"/>
	</g>
</g>
<g>
	<path fill="#2E2E2F" d="M71.9,156.7l-0.5,1.8h-2.9l3.2-10.6h4.3l3.2,10.6h-2.9l-0.5-1.8H71.9z M73.8,150.1L73.8,150.1l-1.3,4.6h2.6
		L73.8,150.1z"/>
	<path fill="#2E2E2F" d="M91.3,148v7c0,2.8-1.3,3.6-4.4,3.6c-4.2,0-4.7-1.1-4.7-3.6v-7H85v7c0,1.2,0.7,1.2,1.9,1.2s1.6-0.1,1.6-1.3
		V148H91.3z"/>
	<path fill="#2E2E2F" d="M100.3,158.6h-2.8v-8.1h-2.7V148h8.4v2.4h-2.8V158.6z"/>
	<path fill="#2E2E2F" d="M106.4,154.8v-3c0-3.2,2-3.9,4.9-3.9s4.9,0.6,4.9,3.9v3c0,3.2-2,3.9-4.9,3.9
		C108.5,158.6,106.4,158,106.4,154.8z M113.3,154.4v-2.4c0-1.6-0.5-1.7-2-1.7c-1.5,0-2,0.2-2,1.7v2.4c0,1.6,0.5,1.7,2,1.7
		C112.8,156.2,113.3,156,113.3,154.4z"/>
	<path fill="#2E2E2F" d="M122.8,158.6H120V148h4.5l2,6.6h0.1l1.9-6.6h4.6v10.6h-2.8l0.3-8.1h-0.1l-2.7,8.1h-2.4l-2.7-8.1h-0.1
		L122.8,158.6z"/>
	<path fill="#2E2E2F" d="M136.9,154.8v-3c0-3.2,2-3.9,4.9-3.9c2.9,0,4.9,0.6,4.9,3.9v3c0,3.2-2,3.9-4.9,3.9
		C138.9,158.6,136.9,158,136.9,154.8z M143.7,154.4v-2.4c0-1.6-0.5-1.7-2-1.7c-1.5,0-1.9,0.2-2,1.7v2.4c0,1.6,0.5,1.7,2,1.7
		C143.2,156.2,143.7,156,143.7,154.4z"/>
	<path fill="#2E2E2F" d="M155.4,158.6h-2.8v-8.1h-2.7V148h8.4v2.4h-2.8L155.4,158.6L155.4,158.6z"/>
	<path fill="#2E2E2F" d="M164.6,158.6h-2.8V148h2.8V158.6z"/>
	<path fill="#2E2E2F" d="M175.6,148h2.9l-3.1,10.6H171l-3-10.6h2.9l2.3,8.1h0.1L175.6,148z"/>
	<path fill="#2E2E2F" d="M184.7,152.2h4.5v1.9h-4.5v2.1h4.9v2.3h-7.7V148h7.6v2.3h-4.8V152.2z"/>
</g>
</svg>
