<?xml version="1.0" encoding="utf-8"?>
<!-- Generator: Adobe Illustrator 18.1.1, SVG Export Plug-In . SVG Version: 6.00 Build 0)  -->
<svg version="1.1" id="Layer_1" xmlns="http://www.w3.org/2000/svg" xmlns:xlink="http://www.w3.org/1999/xlink" x="0px" y="0px"
	 viewBox="45 66.8 170 93.1" enable-background="new 45 66.8 170 93.1" xml:space="preserve">
<g>
	<path fill="#61584C" d="M58,126.4L58,126.4c1.3-0.6,2.9-2.2,2.9-4.3c0-3.9-3-5.5-6-5.5h-9.1c-0.6,0-0.8,0.2-0.8,0.8v1.1
		c0,0.6,0.3,0.8,0.9,0.8c0.9,0,1.3,0.3,1.3,1v14c0,0.8-0.3,1-1.3,1c-0.7,0-0.9,0.2-0.9,0.8v1.1c0,0.5,0.2,0.8,0.8,0.8h8.8
		c3.9,0,7.5-1.5,7.5-6C62.1,128.1,59.6,127,58,126.4z M50.7,119.3H54c1.8,0,3.4,1.3,3.4,2.9c0,1.9-1.3,3.2-3.6,3.2h-3.1V119.3z
		 M54.2,135.2h-3.5V128H54c2.8,0,4.6,1.4,4.6,3.6C58.6,133.4,56.6,135.2,54.2,135.2z"/>
	<path fill="#61584C" d="M89.1,116.6h-6.2c-0.7,0-0.8,0.2-0.8,0.8v1.1c0,0.6,0.3,0.8,0.9,0.8c0.9,0,1.3,0.3,1.3,1v10
		c0,3.4-1.4,5.3-4.6,5.3c-2.8,0-4.6-2.3-4.6-5.3v-10c0-0.8,0.3-1,1.3-1c0.9,0,1.2-0.2,1.2-0.9v-1.1c0-0.4-0.3-0.6-1-0.6h-6.8
		c-0.6,0-0.8,0.1-0.8,0.6v1.2c0,0.6,0.3,0.8,1.4,0.8c0.8,0,1.2,0.3,1.2,1v11c0,5,4.1,7,8.1,7c4.7,0,7.9-2.5,7.9-7v-11
		c0-0.8,0.4-1,1.4-1c0.7,0,0.9-0.2,0.9-0.8v-1.1C89.9,116.8,89.7,116.6,89.1,116.6z"/>
	<path fill="#61584C" d="M113.2,133.2c-3.1,0-2.2,2.4-6.1,2.4c-4.5,0-6.2-5-6.2-8.1c0-3.8,1.5-8.5,5.9-8.5c2.8,0,2.4,2,5.5,2
		c1,0,1.3-0.1,1.3-0.5c0-0.6-0.3-1.6-0.4-2.5c-0.3-1.2-2.4-1.6-5.7-1.6c-7,0-10.5,5.9-10.5,11.2c0,6.9,4.4,10.8,9.7,10.8
		c4.3,0,6.5-0.9,6.9-1.8c0.5-1.1,0.8-1.9,0.8-2.5C114.4,133.4,114.1,133.2,113.2,133.2z"/>
	<path fill="#61584C" d="M132.6,125.3l3.9-4.6c1.2-1.4,2.4-1.8,2.6-1.8c0.3,0,0.4-0.2,0.4-0.6v-1.1c0-0.4-0.2-0.6-0.6-0.6h-6
		c-1.1,0-1.3,0.2-1.3,0.7v1.1c0,0.4,0.3,0.6,0.6,0.6c0.5,0,0.8,0.3,0.8,0.8c0,0.3-0.1,0.5-0.3,0.7l-5.3,6.2v-6.5
		c0-0.8,0.3-0.9,1.1-0.9c0.9,0,1.1-0.3,1.1-1v-0.9c0-0.4-0.2-0.6-0.8-0.6h-6.1c-0.7,0-1,0.2-1,0.7v1c0,0.6,0.2,0.8,1,0.8
		c0.9,0,1.1,0.3,1.1,0.9V134c0,1.1-0.3,1.3-1.1,1.3c-0.8,0-1.1,0.2-1.1,1.1v0.7c0,0.5,0.2,0.7,1,0.7h6.5c0.5,0,0.8-0.2,0.8-0.7v-0.9
		c0-0.8-0.3-0.9-1.1-0.9c-1,0-1.4-0.5-1.4-1.3v-3.2l2.4-2.9l7.1,9.6c0.8,1,1,1.3,1.3,1.3c0.3,0,1.8-0.9,1.8-1.3
		c0-0.3-0.2-0.5-0.6-1.2L132.6,125.3z"/>
	<path fill="#61584C" d="M163,133.3c-2.5,0-0.8,1.8-5.4,1.8h-4.6v-7h4c2.4,0,1.5,1,3.6,1c1.4,0,1.6-0.1,1.6-0.4
		c0-0.5-0.5-1.7-1.1-3.4c-0.3-0.7-0.4-0.8-1.3-0.8c-2.2,0-1,0.9-2.8,0.9h-3.9v-6.1h3.8c3.3,0,2.4,1.7,5,1.7c0.9,0,1.3-0.4,1.3-0.8
		c0-0.3-0.5-1.7-0.9-2.9c-0.2-0.4-0.4-0.6-0.8-0.6h-13.3c-0.6,0-0.8,0.2-0.8,0.8v1.1c0,0.6,0.3,0.8,0.9,0.8c1.1,0,1.4,0.3,1.4,1v14
		c0,0.8-0.3,1-1.4,1c-0.7,0-0.9,0.2-0.9,0.8v1.1c0,0.5,0.2,0.8,0.8,0.8h12.8c1.9,0,2.3-0.2,2.5-0.9c0.6-1.5,1.2-2.6,1.2-3
		C164.5,133.5,164.3,133.3,163,133.3z"/>
	<path fill="#61584C" d="M189.6,116.6h-6.3c-0.6,0-0.8,0.2-0.8,0.8v1c0,0.4,0.3,0.8,1,0.8c0.5,0,1,0.3,1,0.7c0,0.4-0.1,0.7-0.3,1.1
		l-3.1,6.6H181l-3.2-6.6c-0.2-0.5-0.4-0.8-0.4-1.1c0-0.5,0.3-0.7,1-0.7s1-0.2,1-0.8v-1.1c0-0.5-0.2-0.7-0.9-0.7h-6.8
		c-0.7,0-0.9,0.2-0.9,0.7v1.1c0,0.5,0.4,0.8,1.1,0.8c0.7,0,1.2,0.4,1.7,1.3l5.7,10.4v0.1l-1.3,2.8c-0.4,0.8-0.7,1.3-0.7,2.2v1.1
		c0,0.6,0.3,0.8,0.9,0.8h5.3c0.7,0,1-0.2,1-0.8v-0.9c0-0.6-0.3-0.8-1.1-0.8c-1,0-1.8-0.3-1.8-1.1c0-0.7,0.4-1.4,0.7-2.1l5.8-11.7
		c0.3-0.7,1-1.3,1.7-1.3c0.6,0,0.8-0.2,0.8-0.6v-1.3C190.5,116.8,190.3,116.6,189.6,116.6z"/>
	<path fill="#61584C" d="M213.4,133.3c-2.5,0-0.8,1.8-5.4,1.8h-4.6v-7h4c2.4,0,1.5,1,3.6,1c1.4,0,1.6-0.1,1.6-0.4
		c0-0.5-0.5-1.7-1.1-3.4c-0.3-0.7-0.4-0.8-1.3-0.8c-2.2,0-1,0.9-2.8,0.9h-3.9v-6.1h3.8c3.3,0,2.4,1.7,5,1.7c0.9,0,1.3-0.4,1.3-0.8
		c0-0.3-0.5-1.7-0.9-2.9c-0.2-0.4-0.4-0.6-0.8-0.6h-13.3c-0.6,0-0.8,0.2-0.8,0.8v1.1c0,0.6,0.3,0.8,0.9,0.8c1.1,0,1.4,0.3,1.4,1v14
		c0,0.8-0.3,1-1.4,1c-0.7,0-0.9,0.2-0.9,0.8v1.1c0,0.5,0.2,0.8,0.8,0.8h12.7c1.9,0,2.3-0.2,2.5-0.9c0.6-1.5,1.2-2.6,1.2-3
		C215,133.5,214.8,133.3,213.4,133.3z"/>
</g>
<g>
	<path fill="#61584C" d="M60.8,151.3c0-0.6,0.5-1.1,1.1-1.1h3.4c1.1,0,1.9,0.3,2.5,0.8c0.4,0.4,0.7,1,0.7,1.6v0
		c0,1.1-0.6,1.7-1.3,2.1c1.1,0.4,1.8,1.1,1.8,2.3v0c0,1.8-1.4,2.6-3.6,2.6h-3.5c-0.6,0-1.1-0.5-1.1-1.1V151.3z M64.8,154.1
		c0.9,0,1.5-0.3,1.5-1v0c0-0.6-0.5-1-1.4-1h-2.1v2H64.8z M65.3,157.9c0.9,0,1.5-0.3,1.5-1v0c0-0.7-0.5-1-1.6-1h-2.4v2.1H65.3z"/>
	<path fill="#61584C" d="M71.3,158.7v-7.5c0-0.6,0.5-1.1,1.1-1.1h5.3c0.5,0,0.9,0.4,0.9,0.9c0,0.5-0.4,0.9-0.9,0.9h-4.3v1.9H77
		c0.5,0,0.9,0.4,0.9,0.9c0,0.5-0.4,0.9-0.9,0.9h-3.6v2h4.3c0.5,0,0.9,0.4,0.9,0.9c0,0.5-0.4,0.9-0.9,0.9h-5.4
		C71.8,159.8,71.3,159.3,71.3,158.7z"/>
	<path fill="#61584C" d="M81.1,151.3c0-0.6,0.5-1.1,1.1-1.1h2.7c3,0,5.1,2.1,5.1,4.7v0c0,2.7-2.1,4.8-5.1,4.8h-2.7
		c-0.6,0-1.1-0.5-1.1-1.1V151.3z M84.8,157.9c1.7,0,2.9-1.2,2.9-2.9v0c0-1.7-1.2-2.9-2.9-2.9h-1.6v5.8H84.8z"/>
	<path fill="#61584C" d="M103.4,159.6l-0.8-0.8c-0.8,0.7-1.7,1.1-2.8,1.1c-1.8,0-3.2-1.1-3.2-2.8v0c0-1.2,0.7-2.1,1.9-2.6
		c-0.5-0.7-0.7-1.3-0.7-1.9v0c0-1.3,1.1-2.5,2.9-2.5c1.6,0,2.7,1.1,2.7,2.4v0c0,1.3-0.8,2-2,2.5l1.3,1.2c0.2-0.3,0.4-0.7,0.6-1
		c0.1-0.2,0.4-0.5,0.8-0.5c0.5,0,0.9,0.4,0.9,0.9c0,0.2,0,0.3-0.1,0.4c-0.3,0.5-0.6,1-0.9,1.4l0.9,0.9c0.2,0.2,0.3,0.4,0.3,0.7
		c0,0.5-0.4,0.9-0.9,0.9C103.8,159.9,103.6,159.8,103.4,159.6z M101.4,157.6l-1.8-1.8c-0.7,0.3-0.9,0.8-0.9,1.3v0
		c0,0.7,0.6,1.1,1.3,1.1C100.4,158.2,100.9,158,101.4,157.6z M101.4,152.6L101.4,152.6c0-0.6-0.4-0.9-0.9-0.9c-0.6,0-0.9,0.4-0.9,1
		v0c0,0.4,0.2,0.7,0.6,1.2C101,153.6,101.4,153.2,101.4,152.6z"/>
	<path fill="#61584C" d="M112.1,151.3c0-0.6,0.5-1.1,1.1-1.1h3.4c1.1,0,2,0.3,2.5,0.8c0.4,0.4,0.7,1,0.7,1.6v0
		c0,1.1-0.6,1.7-1.3,2.1c1.1,0.4,1.8,1.1,1.8,2.3v0c0,1.8-1.4,2.6-3.6,2.6h-3.5c-0.6,0-1.1-0.5-1.1-1.1V151.3z M116.1,154.1
		c0.9,0,1.5-0.3,1.5-1v0c0-0.6-0.5-1-1.4-1h-2.1v2H116.1z M116.7,157.9c0.9,0,1.5-0.3,1.5-1v0c0-0.7-0.5-1-1.6-1h-2.4v2.1H116.7z"/>
	<path fill="#61584C" d="M122.7,151.3c0-0.6,0.5-1.1,1.1-1.1h3.3c1.2,0,2.2,0.3,2.8,1c0.5,0.5,0.8,1.3,0.8,2.2v0
		c0,1.5-0.8,2.4-1.9,2.9l1.5,1.8c0.2,0.3,0.3,0.5,0.3,0.8c0,0.6-0.5,1-1,1c-0.5,0-0.8-0.2-1-0.5l-2.1-2.6h-1.7v2.1
		c0,0.6-0.5,1.1-1.1,1.1s-1.1-0.5-1.1-1.1V151.3z M126.9,154.9c1,0,1.6-0.5,1.6-1.3v0c0-0.9-0.6-1.4-1.6-1.4h-2.1v2.8L126.9,154.9
		L126.9,154.9z"/>
	<path fill="#61584C" d="M133.2,158.7v-7.5c0-0.6,0.5-1.1,1.1-1.1h5.3c0.5,0,0.9,0.4,0.9,0.9c0,0.5-0.4,0.9-0.9,0.9h-4.3v1.9h3.6
		c0.5,0,0.9,0.4,0.9,0.9c0,0.5-0.4,0.9-0.9,0.9h-3.6v2h4.3c0.5,0,0.9,0.4,0.9,0.9c0,0.5-0.4,0.9-0.9,0.9h-5.4
		C133.6,159.8,133.2,159.3,133.2,158.7z"/>
	<path fill="#61584C" d="M142.4,158.4l3.3-7.5c0.2-0.5,0.6-0.8,1.2-0.8h0.1c0.6,0,1,0.3,1.2,0.8l3.3,7.5c0.1,0.2,0.1,0.3,0.1,0.4
		c0,0.6-0.4,1-1,1c-0.5,0-0.8-0.3-1-0.7l-0.6-1.5h-4.2l-0.7,1.6c-0.2,0.4-0.5,0.7-1,0.7c-0.5,0-1-0.4-1-1
		C142.3,158.7,142.3,158.6,142.4,158.4z M148.3,155.8l-1.3-3.2l-1.3,3.2H148.3z"/>
	<path fill="#61584C" d="M153.7,151.2c0-0.6,0.5-1.1,1.1-1.1c0.6,0,1.1,0.5,1.1,1.1v3.2l3.9-3.9c0.3-0.3,0.5-0.4,0.9-0.4
		c0.6,0,1,0.5,1,1c0,0.3-0.2,0.6-0.4,0.8l-2.7,2.5l2.9,3.7c0.2,0.2,0.3,0.4,0.3,0.7c0,0.6-0.5,1-1.1,1c-0.4,0-0.7-0.2-0.9-0.5
		l-2.8-3.6l-1.2,1.1v1.9c0,0.6-0.5,1.1-1.1,1.1c-0.6,0-1.1-0.5-1.1-1.1L153.7,151.2L153.7,151.2z"/>
	<path fill="#61584C" d="M163.9,151.3c0-0.6,0.5-1.1,1.1-1.1h5.4c0.5,0,1,0.4,1,1c0,0.5-0.4,1-1,1H166v2h3.7c0.5,0,1,0.4,1,1
		c0,0.5-0.4,1-1,1H166v2.8c0,0.6-0.5,1.1-1.1,1.1c-0.6,0-1.1-0.5-1.1-1.1L163.9,151.3L163.9,151.3z"/>
	<path fill="#61584C" d="M172,158.4l3.3-7.5c0.2-0.5,0.6-0.8,1.2-0.8h0.1c0.6,0,1,0.3,1.2,0.8l3.3,7.5c0.1,0.2,0.1,0.3,0.1,0.4
		c0,0.6-0.4,1-1,1c-0.5,0-0.8-0.3-1-0.7l-0.7-1.5h-4.2l-0.7,1.6c-0.2,0.4-0.5,0.7-1,0.7c-0.5,0-1-0.4-1-1
		C171.9,158.7,171.9,158.6,172,158.4z M177.9,155.8l-1.3-3.2l-1.3,3.2H177.9z"/>
	<path fill="#61584C" d="M183.4,158.8c-0.2-0.2-0.4-0.5-0.4-0.8c0-0.5,0.4-1,1-1c0.3,0,0.5,0.1,0.6,0.2c0.7,0.5,1.5,0.9,2.4,0.9
		c0.9,0,1.4-0.3,1.4-0.9v0c0-0.5-0.3-0.8-1.9-1.2c-1.9-0.5-3.2-1-3.2-2.9v0c0-1.7,1.4-2.9,3.3-2.9c1.2,0,2.2,0.3,3,0.8
		c0.2,0.1,0.5,0.4,0.5,0.8c0,0.5-0.4,1-1,1c-0.2,0-0.4-0.1-0.5-0.2c-0.7-0.4-1.3-0.7-2-0.7c-0.8,0-1.2,0.4-1.2,0.8v0
		c0,0.6,0.4,0.8,2.1,1.3c1.9,0.5,3,1.2,3,2.9v0c0,1.9-1.5,3-3.5,3C185.7,159.9,184.4,159.5,183.4,158.8z"/>
	<path fill="#61584C" d="M195,152.2h-2c-0.5,0-1-0.4-1-1c0-0.5,0.4-1,1-1h6.2c0.5,0,1,0.4,1,1c0,0.5-0.4,1-1,1h-2v6.7
		c0,0.6-0.5,1.1-1.1,1.1c-0.6,0-1.1-0.5-1.1-1.1V152.2L195,152.2z"/>
</g>
<g>
	<path fill="#61584C" d="M160.6,76.6H99.5c-1,0-1.8-0.8-1.8-1.8s0.8-1.8,1.8-1.8h61.2c1,0,1.8,0.8,1.8,1.8
		C162.4,75.8,161.6,76.6,160.6,76.6z"/>
</g>
<g>
	<path fill="#61584C" d="M87.4,82.9c-0.3,0-0.6-0.1-0.8-0.2l-11.3-6.3c-0.6-0.3-0.9-0.9-0.9-1.5c0-0.6,0.3-1.2,0.9-1.5L86.6,67
		c0.8-0.5,1.9-0.2,2.4,0.6l3.8,6.3c0.3,0.6,0.3,1.3,0,1.8l-3.8,6.3C88.6,82.6,88,82.9,87.4,82.9z M79.7,74.9l7.1,4l2.4-4l-2.4-4
		L79.7,74.9z"/>
</g>
<g>
	<path fill="#61584C" d="M183.8,82.4C183.8,82.4,183.8,82.4,183.8,82.4h-10.1c-0.5,0-1.1-0.3-1.4-0.7l-4.5-5.8
		c-0.5-0.6-0.5-1.5,0-2.1l4.5-5.8c0.3-0.4,0.8-0.7,1.4-0.7h10.1c0.7,0,1.3,0.4,1.6,1c0.3,0.6,0.2,1.3-0.2,1.8l-3.7,4.7l3.6,4.7
		c0.3,0.3,0.4,0.7,0.4,1.2C185.6,81.6,184.8,82.4,183.8,82.4z M174.5,78.9h5.7l-2.3-3c-0.5-0.6-0.5-1.5,0-2.1l2.3-3h-5.7l-3.2,4.1
		L174.5,78.9z"/>
</g>
<g>
	
		<path fill="#61584C" stroke="#000000" stroke-width="16.2072" stroke-linecap="round" stroke-linejoin="round" stroke-miterlimit="10" d="
		M107.4,110.9"/>
</g>
<g>
	
		<path fill="#61584C" stroke="#000000" stroke-width="16.2072" stroke-linecap="round" stroke-linejoin="round" stroke-miterlimit="10" d="
		M122.7,93"/>
</g>
<g>
	<path fill="#61584C" d="M153.2,105.1c-0.2,0-0.4,0-0.6-0.1l-46.2-16.1c-0.9-0.3-1.4-1.3-1.1-2.2c0.3-0.9,1.3-1.4,2.2-1.1l46.2,16.1
		c0.9,0.3,1.4,1.3,1.1,2.2C154.6,104.6,153.9,105.1,153.2,105.1z"/>
</g>
<g>
	<path fill="#61584C" d="M106.9,105.1c-0.7,0-1.4-0.5-1.7-1.2c-0.3-0.9,0.2-1.9,1.1-2.2l46.2-16.1c0.9-0.3,1.9,0.2,2.2,1.1
		s-0.2,1.9-1.1,2.2L107.5,105C107.3,105.1,107.1,105.1,106.9,105.1z"/>
</g>
<g>
	<path fill="#61584C" d="M130.1,88.5c-1,0-1.8-0.8-1.8-1.8v-4.5c0-1,0.8-1.8,1.8-1.8c1,0,1.8,0.8,1.8,1.8v4.5
		C131.8,87.7,131,88.5,130.1,88.5z"/>
</g>
</svg>
