<?xml version="1.0" encoding="utf-8"?>
<!-- Generator: Adobe Illustrator 18.1.1, SVG Export Plug-In . SVG Version: 6.00 Build 0)  -->
<svg version="1.0" id="Layer_1" xmlns="http://www.w3.org/2000/svg" xmlns:xlink="http://www.w3.org/1999/xlink" x="0px" y="0px"
	 viewBox="0 0 260 80.8" enable-background="new 0 0 260 80.8" xml:space="preserve">
<g>
	<path fill="#1B3659" d="M141.4,58.8c-0.2-0.5-0.4-0.7-0.9-0.8c-0.1,0-0.1-0.1-0.1-0.2c0-0.1,0.1-0.2,0.1-0.2h2.5
		c0.1,0,0.2,0.1,0.2,0.2c0,0.1-0.1,0.2-0.1,0.2c-0.3,0-0.5,0.1-0.5,0.4c0,0.1,0,0.2,0.1,0.4l1.2,4.7c0,0,0,0,0,0c0,0,0,0,0,0
		l1.5-5.4c0.1-0.2,0.3-0.3,0.6-0.3c0.2,0,0.4,0,0.4,0.1l1.4,5.6c0,0,0,0,0,0c0,0,0,0,0,0l1.5-4.7c0-0.1,0.1-0.2,0.1-0.3
		c0-0.3-0.2-0.4-0.7-0.4c-0.1,0-0.2-0.1-0.2-0.2c0-0.1,0.1-0.2,0.2-0.2h2.1c0.1,0,0.2,0.1,0.2,0.1s0,0.2-0.1,0.2
		c-0.5,0.1-0.7,0.3-0.8,0.7l-1.9,5.4c-0.1,0.2-0.4,0.3-0.7,0.3c-0.3,0-0.5-0.1-0.5-0.3l-1.3-4.9c0-0.1,0-0.1,0-0.1c0,0,0,0,0,0.1
		l-1.4,4.8c-0.1,0.2-0.4,0.3-0.7,0.3c-0.3,0-0.5-0.1-0.5-0.3L141.4,58.8z"/>
	<path fill="#1B3659" d="M152.6,63.1c0,0.5,0.1,0.9,0.7,1c0.1,0,0.1,0.1,0.1,0.2c0,0.1-0.1,0.2-0.2,0.2h-2.4c-0.1,0-0.2-0.1-0.2-0.1
		s0-0.1,0.1-0.2c0.7-0.1,0.7-0.5,0.7-1.1l0.1-4c0-0.5-0.1-0.9-0.7-1c-0.1,0-0.1-0.1-0.1-0.2c0-0.1,0.1-0.2,0.1-0.2h2.4
		c0.1,0,0.1,0.1,0.1,0.2c0,0.1-0.1,0.1-0.1,0.2c-0.6,0.1-0.7,0.5-0.7,1L152.6,63.1z"/>
	<path fill="#1B3659" d="M159.1,62.1c0.4,0.6,0.5,0.9,0.5,0.9s0-0.2,0-1l0.1-3.2c0-0.5-0.2-0.8-0.7-0.9c-0.1,0-0.2-0.1-0.2-0.2
		c0-0.1,0.1-0.2,0.2-0.2h2c0.1,0,0.2,0.1,0.2,0.2c0,0.1-0.1,0.1-0.1,0.2c-0.5,0.1-0.6,0.4-0.7,0.9l-0.2,5.4c0,0.1-0.1,0.2-0.3,0.2
		c-0.5,0-0.8-0.4-1.3-1.2l-2.4-3.7c-0.2-0.4-0.4-0.7-0.4-0.7s0,0.1,0,0.7l-0.1,3.6c0,0.5,0.2,0.9,0.7,0.9c0.1,0,0.1,0.1,0.1,0.2
		c0,0.1-0.1,0.1-0.2,0.1h-2c-0.1,0-0.2-0.1-0.2-0.1c0-0.1,0.1-0.1,0.1-0.2c0.6-0.1,0.7-0.5,0.7-1l0.1-4.1c0-0.5-0.1-0.9-0.7-1
		c-0.1,0-0.1-0.1-0.1-0.2c0-0.1,0.1-0.2,0.1-0.2h1.6c0.1,0,0.2,0,0.3,0.1L159.1,62.1z"/>
	<path fill="#1B3659" d="M165,57.7c0.6,0,1.3-0.1,1.7-0.1c0.3,0,0.3,0.1,0.3,0.3l-0.1,1.2c0,0.1-0.1,0.2-0.2,0.2s-0.1-0.1-0.2-0.2
		c-0.2-0.8-0.6-1.1-1.2-1.1c-0.1,0-1.5,0-1.6,0c-0.1,0-0.1,0-0.1,0.1l-0.1,2.2c0,0.1,0.1,0.2,0.2,0.2c0.1,0,0.9,0,0.9,0
		c0.5,0,1-0.1,1.4-0.2c0.1,0,0.1,0,0.2,0c0.1,0,0.1,0,0.1,0.1l-0.1,0.6c0,0.1-0.1,0.2-0.2,0.2c-0.3,0-0.8-0.1-1.4-0.1
		c-0.1,0-0.8,0-0.9,0c-0.2,0-0.3,0.1-0.3,0.3l-0.1,2c0,0.4,0.3,0.5,0.9,0.5c0.1,0,0.8,0,0.8,0c0.6,0,1.2-0.2,1.5-1.1
		c0-0.1,0.1-0.2,0.2-0.2c0.1,0,0.1,0.1,0.1,0.2l-0.1,1.3c0,0.2-0.2,0.3-0.4,0.3c-0.2,0-1-0.1-1.7-0.1h-3.2c-0.1,0-0.2-0.1-0.2-0.1
		s0-0.1,0.1-0.2c0.6-0.1,0.7-0.5,0.7-1.1l0.1-4.1c0-0.5-0.1-0.9-0.7-0.9c-0.1,0-0.1-0.1-0.1-0.2c0-0.1,0.1-0.2,0.1-0.2H165z"/>
	<path fill="#1B3659" d="M173.4,59.5c0,1.1-1.1,1.8-2.1,1.9c0,0,0,0,0,0c0,0,0,0,0,0.1c0.5,0.6,1.1,1.1,1.7,1.6
		c0.5,0.4,1,0.9,1.5,1.1c0.1,0,0.1,0.1,0.1,0.1c0,0.1-0.1,0.1-0.1,0.1c-0.2,0.1-0.5,0.1-0.7,0.1c-0.6,0-1.2-0.2-1.6-0.6
		c-0.6-0.6-1.1-1.4-1.6-2.1c-0.2-0.3-0.3-0.4-0.7-0.4l-0.1,1.7c0,0.7,0.3,0.9,1,1c0.1,0,0.2,0.1,0.2,0.2s-0.1,0.1-0.2,0.1h-2.8
		c-0.1,0-0.1-0.1-0.1-0.1s0.1-0.1,0.1-0.2c0.6-0.1,0.7-0.5,0.7-1.1l0.1-4c0-0.5-0.1-0.9-0.7-1c-0.1,0-0.1-0.1-0.1-0.2
		c0-0.1,0.1-0.2,0.2-0.2h1c0.5,0,1.2-0.1,1.8-0.1C172.1,57.6,173.4,58,173.4,59.5z M172.2,59.7c0-1.2-1.1-1.6-2.2-1.6
		c-0.1,0-0.2,0-0.2,0.2l-0.1,2.5c0,0.2,0.1,0.3,0.8,0.3C171.5,61,172.2,60.7,172.2,59.7z"/>
	<path fill="#1B3659" d="M177.7,63.1c0,0.6,0.1,0.9,0.7,1c0.1,0,0.1,0.1,0.1,0.2c0,0.1-0.1,0.1-0.2,0.1h-2.5c-0.1,0-0.2-0.1-0.2-0.1
		c0-0.1,0.1-0.1,0.1-0.2c0.7-0.1,0.7-0.5,0.8-1l0-1.1c0-0.2,0-0.4-0.2-0.7l-1.4-2.5c-0.2-0.4-0.5-0.7-1-0.8c-0.1,0-0.1-0.1-0.1-0.2
		c0-0.1,0.1-0.2,0.1-0.2h2.5c0.1,0,0.2,0.1,0.2,0.2c0,0.1-0.1,0.2-0.1,0.2c-0.2,0-0.5,0.1-0.5,0.3c0,0.1,0.1,0.2,0.1,0.4l1.2,2.2h0
		l1.5-2.2c0.1-0.1,0.1-0.2,0.1-0.3c0-0.4-0.4-0.4-0.7-0.4c-0.1,0-0.2-0.1-0.2-0.2c0-0.1,0.1-0.2,0.2-0.2h2.1c0.1,0,0.1,0.1,0.1,0.2
		c0,0.1,0,0.1-0.1,0.2c-0.4,0.1-0.6,0.3-0.9,0.8l-1.5,2.2c-0.2,0.4-0.3,0.6-0.3,1L177.7,63.1z"/>
	<path fill="#1B3659" d="M183.7,61.2c-0.1-0.3-0.2-0.6-0.2-0.9c0-1,0.9-1.6,1.9-1.6c0.7,0,1.1,0.1,1.1,0.5v0.4c0,0.2,0,0.3-0.1,0.3
		c-0.2,0-1-0.5-1.6-0.5c-0.4,0-0.7,0.2-0.7,0.6c0,0.9,1.4,2.4,2.3,3.2c0.2-0.3,0.4-0.6,0.4-1c0-0.6-0.5-1-1-1.1
		c-0.1,0-0.1,0-0.1-0.1c0-0.1,0.1-0.1,0.1-0.1c0.2-0.1,0.5-0.2,0.8-0.2c0.6,0,1.2,0.2,1.2,0.9c0,0.7-0.5,1.3-1,1.8
		c0.4,0.3,0.8,0.5,1.2,0.7c0.1,0,0.1,0.1,0.1,0.1c0,0,0,0.1-0.1,0.1c-0.3,0.1-0.5,0.2-0.8,0.2c-0.5,0-0.9-0.1-1.3-0.4
		c-0.5,0.2-1,0.4-1.6,0.4c-1.1,0-1.7-0.6-1.7-1.4C182.6,62.5,183,61.7,183.7,61.2z M184.9,63.9c0.2,0,0.4,0,0.6-0.1
		c-0.6-0.6-1.3-1.4-1.7-2.3c-0.2,0.3-0.3,0.7-0.3,1C183.5,63.4,184.1,63.9,184.9,63.9z"/>
	<path fill="#1B3659" d="M193.4,64.2l-2-5.5c-0.2-0.5-0.4-0.7-0.9-0.8c-0.1,0-0.1-0.1-0.1-0.2c0-0.1,0.1-0.2,0.1-0.2h2.6
		c0.1,0,0.2,0.1,0.2,0.2c0,0.1-0.1,0.2-0.1,0.2c-0.3,0-0.5,0.1-0.5,0.4c0,0.1,0,0.2,0.1,0.3l1.3,3.6c0.1,0.3,0.3,0.8,0.3,1.1
		c0,0,0,0,0,0c0,0,0,0,0,0c0.1-0.3,0.2-0.5,0.3-0.8c0.5-1.1,1.2-2.9,1.7-4c0-0.1,0.1-0.2,0.1-0.3c0-0.3-0.4-0.4-0.7-0.4
		c-0.1,0-0.1-0.1-0.1-0.2c0-0.1,0.1-0.2,0.2-0.2h2.1c0.1,0,0.2,0.1,0.2,0.2c0,0.1,0,0.1-0.1,0.2c-0.5,0.1-0.7,0.3-0.9,0.8l-2.4,5.4
		c-0.1,0.2-0.4,0.3-0.6,0.3C193.6,64.5,193.5,64.4,193.4,64.2z"/>
	<path fill="#1B3659" d="M199.5,63.1c0,0.5,0.1,0.9,0.7,1c0.1,0,0.1,0.1,0.1,0.2c0,0.1-0.1,0.2-0.2,0.2h-2.4c-0.1,0-0.2-0.1-0.2-0.1
		s0-0.1,0.1-0.2c0.7-0.1,0.7-0.5,0.7-1.1l0.1-4c0-0.5-0.1-0.9-0.7-1c-0.1,0-0.1-0.1-0.1-0.2c0-0.1,0.1-0.2,0.1-0.2h2.4
		c0.1,0,0.1,0.1,0.1,0.2c0,0.1-0.1,0.1-0.1,0.2c-0.6,0.1-0.7,0.5-0.7,1L199.5,63.1z"/>
	<path fill="#1B3659" d="M206,62.1c0.4,0.6,0.5,0.9,0.5,0.9s0-0.2,0-1l0.1-3.2c0-0.5-0.2-0.8-0.7-0.9c-0.1,0-0.2-0.1-0.2-0.2
		c0-0.1,0.1-0.2,0.2-0.2h2c0.1,0,0.2,0.1,0.2,0.2c0,0.1-0.1,0.1-0.1,0.2c-0.5,0.1-0.6,0.4-0.7,0.9l-0.2,5.4c0,0.1-0.1,0.2-0.3,0.2
		c-0.5,0-0.8-0.4-1.3-1.2l-2.4-3.7c-0.2-0.4-0.4-0.7-0.4-0.7s0,0.1,0,0.7l-0.1,3.6c0,0.5,0.2,0.9,0.7,0.9c0.1,0,0.1,0.1,0.1,0.2
		c0,0.1-0.1,0.1-0.2,0.1h-2c-0.1,0-0.2-0.1-0.2-0.1c0-0.1,0.1-0.1,0.1-0.2c0.6-0.1,0.7-0.5,0.7-1l0.1-4.1c0-0.5-0.1-0.9-0.7-1
		c-0.1,0-0.1-0.1-0.1-0.2c0-0.1,0.1-0.2,0.1-0.2h1.6c0.1,0,0.2,0,0.3,0.1L206,62.1z"/>
	<path fill="#1B3659" d="M211.5,63.1c0,0.6,0.1,0.9,0.7,1c0.1,0,0.1,0.1,0.1,0.2c0,0.1-0.1,0.1-0.2,0.1h-2.5c-0.1,0-0.2-0.1-0.2-0.1
		c0-0.1,0.1-0.1,0.1-0.2c0.7-0.1,0.7-0.5,0.8-1l0-1.1c0-0.2,0-0.4-0.2-0.7l-1.4-2.5c-0.2-0.4-0.5-0.7-1-0.8c-0.1,0-0.1-0.1-0.1-0.2
		c0-0.1,0.1-0.2,0.1-0.2h2.5c0.1,0,0.2,0.1,0.2,0.2c0,0.1-0.1,0.2-0.1,0.2c-0.2,0-0.5,0.1-0.5,0.3c0,0.1,0.1,0.2,0.1,0.4l1.2,2.2h0
		l1.5-2.2c0.1-0.1,0.1-0.2,0.1-0.3c0-0.4-0.4-0.4-0.7-0.4c-0.1,0-0.2-0.1-0.2-0.2c0-0.1,0.1-0.2,0.2-0.2h2.1c0.1,0,0.1,0.1,0.1,0.2
		c0,0.1,0,0.1-0.1,0.2c-0.4,0.1-0.6,0.3-0.9,0.8l-1.5,2.2c-0.2,0.4-0.3,0.6-0.3,1L211.5,63.1z"/>
	<path fill="#1B3659" d="M217.6,57.8l2,5.5c0.2,0.5,0.4,0.7,0.9,0.8c0.1,0,0.1,0.1,0.1,0.2s-0.1,0.2-0.2,0.2H218
		c-0.1,0-0.1-0.1-0.1-0.2s0.1-0.2,0.1-0.2c0.2,0,0.5-0.1,0.5-0.4c0-0.1,0-0.2-0.1-0.3l-0.4-1.2c0-0.1,0-0.1-0.1-0.1H216
		c-0.3,0-0.7,0-0.8,0.4l-0.4,0.9c0,0.1-0.1,0.2-0.1,0.3c0,0.4,0.4,0.4,0.7,0.4c0.1,0,0.1,0.1,0.1,0.2c0,0.1-0.1,0.2-0.1,0.2h-2.1
		c-0.1,0-0.2-0.1-0.2-0.2c0-0.1,0-0.1,0.1-0.2c0.5-0.1,0.7-0.3,0.9-0.8l2.4-5.3c0.1-0.2,0.4-0.4,0.7-0.4
		C217.4,57.6,217.6,57.7,217.6,57.8z M215.6,61.5C215.5,61.6,215.5,61.6,215.6,61.5C215.5,61.6,215.6,61.6,215.6,61.5l2,0.1
		c0.1,0,0.2,0,0.2-0.1c0,0,0-0.1,0-0.1l-0.6-1.5c-0.1-0.3-0.3-0.7-0.4-1.1c0,0,0,0,0,0c0,0,0,0,0,0c-0.1,0.3-0.2,0.5-0.3,0.8
		L215.6,61.5z"/>
	<path fill="#1B3659" d="M226.4,59.5c0,1.1-1.1,1.8-2.1,1.9c0,0,0,0,0,0c0,0,0,0,0,0.1c0.5,0.6,1.1,1.1,1.7,1.6
		c0.5,0.4,1,0.9,1.5,1.1c0.1,0,0.1,0.1,0.1,0.1c0,0.1-0.1,0.1-0.1,0.1c-0.2,0.1-0.5,0.1-0.7,0.1c-0.6,0-1.2-0.2-1.6-0.6
		c-0.6-0.6-1.1-1.4-1.6-2.1c-0.2-0.3-0.3-0.4-0.7-0.4l-0.1,1.7c0,0.7,0.3,0.9,1,1c0.1,0,0.2,0.1,0.2,0.2s-0.1,0.1-0.2,0.1H221
		c-0.1,0-0.1-0.1-0.1-0.1s0.1-0.1,0.1-0.2c0.6-0.1,0.7-0.5,0.7-1.1l0.1-4c0-0.5-0.1-0.9-0.7-1c-0.1,0-0.1-0.1-0.1-0.2
		c0-0.1,0.1-0.2,0.2-0.2h1c0.5,0,1.2-0.1,1.8-0.1C225.2,57.6,226.4,58,226.4,59.5z M225.3,59.7c0-1.2-1.1-1.6-2.2-1.6
		c-0.1,0-0.2,0-0.2,0.2l-0.1,2.5c0,0.2,0.1,0.3,0.8,0.3C224.5,61,225.3,60.7,225.3,59.7z"/>
	<path fill="#1B3659" d="M234.4,60.9c0,2-1.4,3.6-3.9,3.6c-0.5,0-0.9-0.1-1.4-0.1h-1.2c-0.1,0-0.1-0.1-0.1-0.1s0-0.1,0.1-0.2
		c0.4-0.1,0.7-0.3,0.7-0.8l0.2-4.6c0-0.4-0.2-0.7-0.7-0.7c-0.1,0-0.1-0.1-0.1-0.2c0-0.1,0.1-0.2,0.2-0.2h1c0.6,0,1.2-0.1,1.8-0.1
		C232.9,57.6,234.4,58.9,234.4,60.9z M229.8,63.8c0.3,0.1,0.6,0.2,1,0.2c0.7,0,1.3-0.2,1.8-0.8c0.4-0.5,0.7-1.2,0.7-1.9
		c0-0.9-0.4-1.8-1-2.4c-0.7-0.6-1.5-0.8-2.2-0.8c-0.2,0-0.2,0-0.2,0.2l-0.2,5.3C229.6,63.6,229.7,63.7,229.8,63.8z"/>
</g>
<g>
	<path fill="#1B3659" d="M76.8,13.1c10.6,0,17.5,10.7,17.5,26.2c0,15.7-7.1,26.4-18.6,26.4c-10.8,0-17.6-10.6-17.6-26
		C58.1,24.1,65,13.1,76.8,13.1z M77.8,62.3c1.5,0,3.1-0.4,4.8-1.3c3.3-3.6,5.6-9.2,5.6-19.3c0-16.9-5-24.9-13.4-24.9
		c-1.8,0-3.5,0.6-5,1.5c-3.4,3.8-5.3,9.3-5.3,19.3C64.3,55.2,70,62.3,77.8,62.3z"/>
	<path fill="#1B3659" d="M97.1,29.1h5.1v-1.3c0-8.5,3.4-16.2,11.1-16.2c2,0,3.9,0.5,5.8,1.4l0.4,7.7h-3.6l-1.5-5.7
		c-1-0.4-2-0.6-3-0.6c-0.6,0-1.1,0.1-1.6,0.1c-2,2.6-2.2,5.7-2.4,13.2v1.3h7.5v3h-7.5v29.7c1.4,0.7,2.4,1,3.9,1.3v2h-13v-2
		c1.5-0.2,2.6-0.6,3.9-1.3V32.1h-5.1V29.1z"/>
	<path fill="#1B3659" d="M116.7,29.1h5.1v-1.3c0-8.5,3.4-16.2,11.1-16.2c2,0,3.9,0.5,5.8,1.4l0.4,7.7h-3.6l-1.5-5.7
		c-1-0.4-2-0.6-3-0.6c-0.6,0-1.1,0.1-1.6,0.1c-2,2.6-2.2,5.7-2.4,13.2v1.3h7.5v3h-7.5v29.7c1.4,0.7,2.4,1,3.9,1.3v2h-13v-2
		c1.5-0.2,2.6-0.6,3.9-1.3V32.1h-5.1V29.1z"/>
</g>
<g>
	<path fill="#1B3659" d="M142.4,40.5v7.2c0,0.9,0.2,1.4,1,1.4c0.4,0,0.6-0.1,0.9-0.4l0.3,0.5c-0.4,0.4-0.8,0.9-1.7,0.9
		c-1.1,0-1.9-0.8-1.9-2.4v-7.2h-1.3v-0.9h1.3v-3l1.5-0.4v3.4h1.9v0.9H142.4z"/>
	<path fill="#1B3659" d="M146.2,38.4c0-0.5,0-2.1-0.1-2.4l-1.4-0.2v-0.7l2.9-0.3c0,1,0,2.3,0,3.6v2.2c0.9-0.8,1.6-1.3,2.5-1.3
		c1.5,0,2.5,1.2,2.5,3.5v6.2c0.4,0.2,0.7,0.3,1.1,0.4v0.6h-3.6v-0.6c0.4-0.1,0.7-0.1,1-0.3v-6.1c0-1.8-0.7-2.3-1.6-2.3
		c-0.7,0-1.2,0.3-2,0.8v7.6c0.4,0.2,0.6,0.3,1,0.3v0.6h-3.6v-0.6c0.4-0.1,0.7-0.2,1.1-0.4V38.4z"/>
	<path fill="#1B3659" d="M161.3,48.1c-0.7,1.2-1.6,1.9-3.1,1.9c-2.3,0-3.7-2.1-3.7-5.3c0-3,1.5-5.5,3.8-5.5c1.7,0,3,1.6,3,4.3
		c-0.1,0.3-0.3,0.5-0.5,0.7H156v0.2c0,3.1,1.4,4.4,2.6,4.4c1.1,0,1.7-0.4,2.2-1.2L161.3,48.1z M156,43.6c1.6,0,4-0.1,4-0.2
		c0-2.1-0.9-3.2-2-3.2c-0.2,0-0.4,0-0.6,0.1C156.5,41,156.1,42.1,156,43.6z"/>
</g>
<path fill="#83A63E" d="M40.6,13.4c-0.7,2.5-2.8,4.1-2.8,4.1c-0.8,0.6-10.8,7.4-11.5,19.2c-0.2,6.2,2.2,10.5,2.8,11.8
	c1,1.7,2.4,1.7,2.4,1.7s9.5,0.5,14.4-8.9c5.4-10.2,3.7-23.2-6.3-32.6C39.6,8.7,41.1,11.3,40.6,13.4L40.6,13.4z M40.6,13.4"/>
<path fill="#667432" d="M35.2,52.6c-9.6-0.1-13.1,7.3-13.1,7.3s-0.6,1.1,0.4,2.5c0.8,1,3.2,4.5,8.3,6.8c9.8,4.2,19.3-0.5,20.2-0.9
	c0,0,2.1-1,4.4-0.5c1.9,0.4,3.4,2.6,3.4,2.6c-2.4-7.9-7.9-13.5-14.6-16.1C41.3,53.2,38.3,52.6,35.2,52.6L35.2,52.6z M35.2,52.6"/>
<path fill="#61808C" d="M16.4,32.5c0.1,1.7-1,3.1-1,3.1C15,36.2,10,42.4,11.9,50c1.1,4,3.4,6.2,4.1,6.9c0.9,0.9,1.8,0.6,1.8,0.6
	s6.1-1.5,7.4-8.4c1.4-7.5-2.2-15.4-10.3-19.3C14.9,29.7,16.3,31.1,16.4,32.5L16.4,32.5z M16.4,32.5"/>
<g>
	<g>
		<path fill="#1B3659" d="M160.4,14c-1.1-0.6-2.3-0.9-3.5-1.1v-1.7h11.9v1.7c-1.2,0.2-2.4,0.5-3.5,1.1l8.2,29.7L182,14
			c-1.1-0.6-2.3-0.9-3.5-1.1v-1.7h10.1v1.7c-1.1,0.2-2.4,0.5-3.5,1.1l-10.7,36.6h-3.2L160.4,14z"/>
	</g>
	<g>
		<path fill="#1B3659" d="M189.5,34.3c0-1.2,0-4.8-0.1-5.6l-3.2-0.4v-1.6l6.6-0.6c0.1,2.3,0.1,5.4,0.1,8.2v13.8
			c0.9,0.5,1.6,0.7,2.5,0.8v1.3H187v-1.3c0.9-0.1,1.7-0.4,2.5-0.8V34.3z M190.8,20c-1.4,0-2.4-1.2-2.4-2.6c0-1.5,1.1-2.6,2.4-2.6
			c1.3,0,2.4,1.2,2.4,2.6C193.2,18.8,192.1,20,190.8,20z"/>
		<path fill="#1B3659" d="M199.4,34.3c0-1.2,0-4.8-0.1-5.6l-3.1-0.4v-1.6l6.3-0.6c0.1,0.8,0.2,1.9,0.2,3c2.1-2,3.8-3.1,6-3.1
			c3.5,0,5.8,2.7,5.8,8v14.2c0.9,0.5,1.6,0.7,2.5,0.8v1.3h-8.3v-1.3c0.9-0.1,1.6-0.3,2.3-0.7v-14c0-4.2-1.7-5.4-3.6-5.4
			c-1.7,0-2.9,0.6-4.5,1.8v17.5c0.8,0.5,1.4,0.6,2.3,0.7v1.3h-8.3v-1.3c0.9-0.1,1.7-0.4,2.5-0.8V34.3z"/>
		<path fill="#1B3659" d="M233.6,46.3c-1.5,2.8-3.8,4.3-7,4.3c-5.2,0-8.6-4.7-8.6-12.1c0-6.9,3.4-12.6,8.7-12.6
			c3.8,0,6.8,3.8,6.9,9.8c-0.2,0.6-0.6,1.2-1.1,1.7h-11v0.4c0,7.2,3.1,10.2,6.1,10.2c2.4,0,3.8-1,5-2.7L233.6,46.3z M221.5,35.8
			c3.7,0,9.1-0.1,9.1-0.5c0-4.9-2-7.4-4.7-7.4c-0.5,0-0.9,0.1-1.4,0.2C222.6,29.8,221.8,32.4,221.5,35.8z"/>
	</g>
</g>
</svg>
