<?xml version="1.0" encoding="utf-8"?>
<!-- Generator: Adobe Illustrator 18.0.0, SVG Export Plug-In . SVG Version: 6.00 Build 0)  -->
<!DOCTYPE svg PUBLIC "-//W3C//DTD SVG 1.1//EN" "http://www.w3.org/Graphics/SVG/1.1/DTD/svg11.dtd">
<svg version="1.1" id="Layer_1" xmlns="http://www.w3.org/2000/svg" xmlns:xlink="http://www.w3.org/1999/xlink" x="0px" y="0px"
	 viewBox="0 0 1012.8 447.2" style="enable-background:new 0 0 1012.8 447.2;" xml:space="preserve">
<style type="text/css">
	.st0{fill:#655B4F;}
	.st1{fill:#9A7745;}
	.st2{fill:#373D42;stroke:#373D42;stroke-width:1.5;stroke-linecap:round;stroke-linejoin:round;stroke-miterlimit:10;}
	.st3{fill:#373D42;}
	.st4{fill:#006C87;}
</style>
<path class="st0" d="M380.1,80c1.5,1.5,1.5,3.9,0,5.4l-14.8,14.8c-2.6,2.6-2.7,7-0.1,9.6c1.3,1.2,2.9,1.8,4.5,1.8
	c1.7,0,3.3-0.6,4.6-1.9l22.3-22.3c1.3-1.3,1.9-2.9,1.9-4.6c0-1.3-0.4-2.5-1.1-3.6c-0.2-0.4-0.5-0.7-0.8-1L374.5,56
	c-2.5-2.5-6.7-2.8-9.3-0.3c-2.7,2.5-2.7,6.8-0.1,9.4L380.1,80z"/>
<path class="st0" d="M616.4,86.9l22.3,22.3c1.3,1.3,2.9,1.9,4.6,1.9c1.6,0,3.2-0.6,4.5-1.8c2.7-2.5,2.5-6.9-0.1-9.6L632.9,85
	c-1.5-1.5-1.5-3.9,0-5.4l14.8-14.8c2.5-2.5,2.8-6.7,0.3-9.3c-2.5-2.7-6.8-2.7-9.4-0.1l-22.3,22.3c-1.3,1.3-1.9,2.9-1.9,4.6
	c0,1.3,0.4,2.5,1.1,3.6C615.8,86.2,616,86.6,616.4,86.9z"/>
<path class="st0" d="M311.7,95.5c1.7,1.7,4.5,1.7,6.3,0l9.6-9.6c1.7-1.7,1.7-4.5,0-6.3L318,70c-1.7-1.7-4.5-1.7-6.3,0l-9.6,9.6
	c-1.7,1.7-1.7,4.5,0,6.3L311.7,95.5z"/>
<path class="st0" d="M50.4,195c-14,0-25.4,5-33.8,13.3C3.8,221.1,2.9,232.7,2.9,263.7c0,31,0.9,42.6,13.7,55.4
	c8.3,8.3,19.7,13.3,33.8,13.3c14,0,25.4-5,33.8-13.3c12.8-12.8,13.7-24.4,13.7-55.4c0-31-0.9-42.6-13.7-55.4
	C75.8,200.1,64.4,195,50.4,195z M73.7,309.8c-6.2,6.4-14.1,9.7-23.3,9.7c-9.2,0-17.2-3.3-23.3-9.7c-8.4-8.6-9.5-18.3-9.5-46.1
	c0-27.8,1-37.5,9.5-46.1c6.2-6.4,14.1-9.7,23.3-9.7c9.2,0,17.2,3.3,23.3,9.7c8.4,8.6,9.5,18.3,9.5,46.1
	C83.2,291.5,82.2,301.2,73.7,309.8z"/>
<path class="st0" d="M256,271.6h28.3v0.1c2.7,0,4.1-0.2,5.2-0.6c0.4-0.2,0.8-0.3,1.2-0.6c1.7-1.1,2.8-3,2.8-5.3s-1-4.2-2.8-5.3
	c-1.4-0.9-2.7-1.1-6.3-1.1h-34.8c-2.1,0-4.2,0.8-5.8,2.3l-8.3,7.8c-0.8,0.7-2,0.2-2-0.9v-56.6c0-1.2,1-2.3,2.3-2.3h58.8
	c3.6,0,4.8-0.3,6.3-1.1c1.7-1.1,2.8-3,2.8-5.3c0-2.3-1-4.2-2.8-5.3c-1.4-0.9-2.7-1.1-6.3-1.1h-66.8c-2.3,0-4.8,0-6.8,2
	c-2,2-2,4.6-2,6.8v117.2c0,3.8,0.2,5,1.3,6.8c1.1,1.8,3.3,3,6,3c2.7,0,4.8-1.2,6-3c1.1-1.8,1.3-3,1.3-6.8V294c0-2.6,1.1-5.1,3-6.9
	l13.7-13.1C251.7,272.5,253.8,271.6,256,271.6z"/>
<path class="st0" d="M406.1,197.3c-1.4-0.9-2.7-1.1-6.3-1.1h-76.1c-3.6,0-4.8,0.3-6.3,1.1c-1.7,1.1-2.8,3-2.8,5.3
	c0,2.3,1,4.2,2.8,5.3c1.4,0.9,2.7,1.1,6.3,1.1h28.5c1.2,0,2.3,1,2.3,2.3v43.8c0,1.2-1,2.3-2.3,2.3h-10.8c-3.7,0-6.9,2.9-7,6.6
	c-0.1,3.8,3,7,6.8,7h11.1c1.2,0,2.3,1,2.3,2.3v49.1c0,3.8,0.2,5,1.3,6.8c1.1,1.8,3.3,3,6,3s4.8-1.2,6-3c1.1-1.8,1.3-3,1.3-6.8v-49.1
	c0-1.2,1-2.3,2.3-2.3h10.8c3.7,0,6.9-2.9,7-6.6c0.1-3.8-3-7-6.8-7h-11.1c-1.2,0-2.3-1-2.3-2.3v-43.8c0-1.2,1-2.3,2.3-2.3h28.5
	c3.6,0,4.8-0.3,6.3-1.1c1.7-1.1,2.8-3,2.8-5.3C408.9,200.3,407.8,198.4,406.1,197.3z"/>
<path class="st0" d="M631.2,324.8c0-2.3-1-4.2-2.8-5.3c-1.4-0.9-2.7-1.1-6.3-1.1h-58.8c-1.2,0-2.3-1-2.3-2.3v-24.4
	c0-2.6,1.1-5.1,3-6.9l13.4-12.9c1.6-1.5,3.6-2.3,5.8-2.3h28.5c3.6,0,4.8-0.3,6.3-1.1c1.7-1.1,2.8-3,2.8-5.3c0-2.3-1-4.2-2.8-5.3
	c-1.4-0.9-2.7-1.1-6.3-1.1h-34.8c-2.1,0-4.2,0.8-5.7,2.3l-8.1,7.6c-0.8,0.7-2,0.2-2-0.9v-54.3c0-1.2,1-2.3,2.3-2.3h58.8
	c3.6,0,4.8-0.3,6.3-1.1c1.7-1.1,2.8-3,2.8-5.3c0-2.3-1-4.2-2.8-5.3c-1.4-0.9-2.7-1.1-6.3-1.1h-66.8c-2.3,0-4.8,0-6.8,2
	c-2,2-2,4.6-2,6.8v117.5c0,2.3,0,4.8,2,6.8s4.6,2,6.8,2h66.8c3.6,0,4.8-0.3,6.3-1.1C630.2,329,631.2,327.1,631.2,324.8z"/>
<path class="st0" d="M739.5,200.3c-0.7-2.8-3.8-4.9-6.8-4.9c-1.4,0-2.9,0.5-4,1.4c-1.4,1.2-2.1,2.5-3.1,5.6l-32.8,100.4
	c-0.4,1.1-1.9,1.1-2.3,0l-12.3-37.5c-0.7-2.2-0.7-4.6,0-6.8l18-54.5c1.1-3.5-0.7-7.2-4.2-8.3c-3.5-1.1-7.2,0.7-8.3,4.2l-12.4,37.5
	c-0.4,1.1-1.9,1.1-2.3,0l-11.5-35c-1-3.1-1.7-4.4-3.1-5.6c-1-0.9-2.6-1.4-4-1.4c-3,0-6.2,2.1-6.8,4.9c-0.4,1.8-0.2,3.3,0.9,6.5
	l39.1,117.4c0.9,2.7,1.9,4.8,3,5.9c1.5,1.5,2.9,2,4.9,2c1.9,0,3.3-0.5,4.9-2c1.1-1,2.2-3.2,3-5.9l39.1-117.4
	C739.7,203.7,739.9,202.1,739.5,200.3z"/>
<path class="st0" d="M890.7,195.4c-2.7,0-4.8,1.2-6,3c-1.1,1.8-1.3,3-1.3,6.8v94.1c0,1.3-1.7,1.8-2.4,0.7l-23.2-34.3
	c-0.5-0.8-0.4-1.8,0.2-2.5l9.4-9.4c2.6-2.6,2.6-6.9,0-9.6c-2.6-2.6-6.9-2.6-9.6,0l-7,7c-0.9,0.9-2.3,0.7-3-0.3L814,201.2
	c-2.6-3.7-4.7-5.8-8.3-5.8c-2.2,0-4.2,0.9-5.5,2.3c-1.6,1.6-2.3,3.8-2.3,7.3v117.2c0,3.8,0.2,5,1.3,6.8c1.1,1.8,3.3,3,6,3
	c2.7,0,4.8-1.2,6-3c1.1-1.8,1.3-3,1.3-6.8v-94.1c0-1.3,1.7-1.8,2.4-0.7l23.2,34.3c0.5,0.8,0.4,1.8-0.2,2.5l-9.4,9.4
	c-2.6,2.6-2.6,6.9,0,9.6c1.3,1.3,3.1,2,4.8,2s3.5-0.7,4.8-2l7-7c0.9-0.9,2.3-0.7,3,0.3l33.8,49.9c2.5,3.7,4.7,5.8,8.3,5.8
	c2.2,0,4.1-0.9,5.5-2.3c1.6-1.6,2.3-3.8,2.3-7.3V205.3c0-3.8-0.2-5-1.3-6.8C895.6,196.6,893.4,195.4,890.7,195.4z"/>
<path class="st0" d="M200,196.9c-1.4-0.9-2.7-1.1-6.3-1.1H127c-2.3,0-4.8,0-6.8,2c-2,2-2,4.6-2,6.8v117.2c0,3.8,0.2,5,1.3,6.8
	c1.1,1.8,3.3,3,6,3c2.7,0,4.8-1.2,6-3c1.1-1.8,1.3-3,1.3-6.8v-28.1c0-2.6,1.1-5.1,3-6.9l13.7-13.1c1.6-1.5,3.7-2.3,5.8-2.3h28.3v0.1
	c2.7,0,4.1-0.2,5.2-0.6c0.4-0.2,0.8-0.3,1.2-0.6c1.7-1.1,2.8-3,2.8-5.3c0-2.3-1-4.2-2.8-5.3c-1.4-0.9-2.7-1.1-6.3-1.1h-34.8
	c-2.1,0-4.2,0.8-5.8,2.3l-8.3,7.8c-0.8,0.7-2,0.2-2-0.9v-56.6c0-1.2,1-2.3,2.3-2.3h58.8c3.6,0,4.8-0.3,6.3-1.1
	c1.7-1.1,2.8-3,2.8-5.3C202.8,200,201.7,198.1,200,196.9z"/>
<path class="st0" d="M1007.3,319.5c-1.4-0.9-2.7-1.1-6.3-1.1h-58.8c-1.2,0-2.3-1-2.3-2.3v-24.4c0-2.6,1.1-5.1,3-6.9l13.4-12.9
	c1.6-1.5,3.6-2.3,5.8-2.3h28.5c3.6,0,4.8-0.3,6.3-1.1c1.7-1.1,2.8-3,2.8-5.3c0-2.3-1-4.2-2.8-5.3c-1.4-0.9-2.7-1.1-6.3-1.1h-34.8
	c-2.1,0-4.2,0.8-5.7,2.3l-8.1,7.6c-0.8,0.7-2,0.2-2-0.9v-54.3c0-1.2,1-2.3,2.3-2.3h58.8c3.6,0,4.8-0.3,6.3-1.1
	c1.7-1.1,2.8-3,2.8-5.3c0-2.3-1-4.2-2.8-5.3c-1.4-0.9-2.7-1.1-6.3-1.1h-66.8c-2.3,0-4.8,0-6.8,2c-2,2-2,4.6-2,6.8v117.5
	c0,2.3,0,4.8,2,6.8c2,2,4.6,2,6.8,2h66.8c3.6,0,4.8-0.3,6.3-1.1c1.7-1.1,2.8-3,2.8-5.3C1010.1,322.5,1009,320.6,1007.3,319.5z"/>
<path class="st0" d="M522,257.3l-1.2,0.6c-0.7,0.3-1.6-0.2-1.6-1v-51.6c0-3.8-0.2-5-1.3-6.8c-1.1-1.8-3.3-3-6-3c-2.7,0-4.8,1.2-6,3
	c-1.1,1.8-1.3,3-1.3,6.8v57.9c0,1.4-0.8,2.6-2,3.2l-27.7,12.9c-1.4,0.6-2.9,0.6-4.3,0l-27.7-12.9c-1.2-0.6-2-1.8-2-3.2v-57.9
	c0-3.8-0.2-5-1.3-6.8c-1.1-1.8-3.3-3-6-3c-2.7,0-4.8,1.2-6,3c-1.1,1.8-1.3,3-1.3,6.8v51.6c0,0.8-0.8,1.4-1.6,1l-1.2-0.6
	c-3.4-1.6-7.5-0.3-9.1,3c-1.7,3.4-0.3,7.6,3.2,9.2l6.7,3.1c1.2,0.6,2,1.8,2,3.2v46.4c0,3.8,0.2,5,1.3,6.8c1.1,1.8,3.3,3,6,3
	c2.7,0,4.8-1.2,6-3c1.1-1.8,1.3-3,1.3-6.8v-39.7c0-1,1-1.7,2-1.3l27.1,12.6c0,0,0,0,0.1,0c0.1,0,0.1,0.1,0.2,0.1
	c0.2,0.1,0.4,0.2,0.6,0.2c0.1,0,0.2,0,0.2,0.1c0.2,0.1,0.4,0.1,0.6,0.1c0.1,0,0.2,0,0.2,0c0.3,0,0.6,0.1,0.9,0.1l0,0c0,0,0,0,0,0
	c0.3,0,0.6,0,0.9-0.1c0.1,0,0.2,0,0.2,0c0.2,0,0.4-0.1,0.6-0.1c0.1,0,0.2,0,0.2-0.1c0.2-0.1,0.4-0.1,0.6-0.2c0.1,0,0.1,0,0.2-0.1
	c0,0,0,0,0.1,0l27.1-12.6c0.9-0.4,2,0.2,2,1.3v39.7c0,3.8,0.2,5,1.3,6.8c1.1,1.8,3.3,3,6,3c2.7,0,4.8-1.2,6-3c1.1-1.8,1.3-3,1.3-6.8
	v-46.4c0-1.4,0.8-2.6,2-3.2l6.7-3.1c3.4-1.6,4.9-5.7,3.2-9.2C529.5,257,525.4,255.7,522,257.3z"/>
<path class="st0" d="M695,95c1.7,1.7,4.5,1.7,6.3,0l9.6-9.6c1.7-1.7,1.7-4.5,0-6.3l-9.6-9.6c-1.7-1.7-4.5-1.7-6.3,0l-9.6,9.6
	c-1.7,1.7-1.7,4.5,0,6.3L695,95z"/>
<path class="st0" d="M53.5,251c-1.7-1.7-4.5-1.7-6.3,0l-9.6,9.6c-1.7,1.7-1.7,4.5,0,6.3l9.6,9.6c1.7,1.7,4.5,1.7,6.3,0l9.6-9.6
	c1.7-1.7,1.7-4.5,0-6.3L53.5,251z"/>
<path class="st0" d="M773.2,257.3c-1.2,0-2.3-1-2.3-2.3v-49.8c0-3.8-0.2-5-1.3-6.8c-1.1-1.8-3.3-3-6-3c-2.7,0-4.8,1.2-6,3
	c-1.1,1.8-1.3,3-1.3,6.8v49.8c0,1.2-1,2.3-2.3,2.3h0c-3.7,0-6.9,2.9-7,6.6c-0.1,3.8,3,7,6.8,7h0.3c1.2,0,2.3,1,2.3,2.3v49.1
	c0,3.8,0.2,5,1.3,6.8c1.1,1.8,3.3,3,6,3c2.7,0,4.8-1.2,6-3c1.1-1.8,1.3-3,1.3-6.8v-49.1c0-1.2,1-2.3,2.3-2.3h0.3
	c4,0,7.2-3.5,6.7-7.6C779.8,259.8,776.7,257.3,773.2,257.3z"/>
<path class="st0" d="M437.5,65.7c1.1,1.1,1.5,2.6,1.2,4.1c-0.9,4-1.4,8.2-1.4,12.4c0,23.3,15.4,46.9,44.7,46.9h14.3
	c1.6,0,2.9,1.3,2.9,2.9v22.2c0,3.8,0.2,5,1.3,6.8c1.1,1.8,3.3,3,6,3c2.7,0,4.8-1.2,6-3c1.1-1.8,1.3-3,1.3-6.8v-22.2
	c0-1.6,1.3-2.9,2.9-2.9H531c13.8,0,25.4-5.2,33.6-14.9c7.1-8.5,11.1-19.9,11.1-32c0-4.2-0.5-8.3-1.5-12.4c-0.4-1.5,0.1-3,1.2-4.1
	l15.5-15.5c2.7-2.7,2.6-7.1-0.1-9.7c-2.7-2.5-7-2.3-9.6,0.3l-11.7,11.7c-0.9,0.9-2.5,0.8-3.3-0.2c-7.5-10.1-19.3-17-35.2-17h-14.3
	c-1.6,0-2.9-1.3-2.9-2.9V20.7c0-1.6,1.3-3,3-3h27.8c3.6,0,4.8-0.3,6.3-1.1c1.7-1.1,2.8-3,2.8-5.3c0-2.3-1-4.2-2.8-5.3
	c-1.4-0.9-2.7-1.1-6.3-1.1h-76.1c-3.6,0-4.8,0.3-6.3,1.1c-1.7,1.1-2.8,3-2.8,5.3c0,2.3,1,4.2,2.8,5.3c1.4,0.9,2.7,1.1,6.3,1.1h27.8
	c1.6,0,3,1.3,3,3v11.8c0,1.6-1.3,2.9-2.9,2.9h-14.3c-13.8,0-25.4,5.2-33.6,14.9c-0.5,0.7-1.1,1.3-1.6,2c-0.8,1.1-2.3,1.2-3.3,0.3
	l-11.6-11.6c-2.6-2.6-6.9-2.9-9.6-0.3c-2.8,2.6-2.8,7-0.1,9.7L437.5,65.7z M563.1,80.7c0,0.5,0,1,0,1.6c0,9-3,17.7-8.1,23.8
	c-5.7,6.8-14,10.4-24,10.4h-4c-0.8,0-1.3-1-0.7-1.6L561.2,80C561.9,79.3,563,79.7,563.1,80.7z M513.8,50.9c0-1.6,1.3-2.9,2.9-2.9
	H531c12.2,0,20.7,5.4,25.9,13c1,1.4,0.8,3.4-0.4,4.6l-40.6,40.6c-0.8,0.8-2.1,0.2-2.1-0.9V50.9z M456,61c0.6-0.9,1.2-1.8,1.9-2.6
	c5.7-6.8,14-10.4,24-10.4h14.3c1.6,0,2.9,1.3,2.9,2.9v54.5c0,1.1-1.3,1.6-2.1,0.9l-40.6-40.6C455.2,64.4,455,62.4,456,61z
	 M449.9,80.7c0-0.9,1.2-1.4,1.9-0.7l34.9,34.9c0.6,0.6,0.2,1.6-0.7,1.6h-4c-22.1,0-32.1-17.8-32.1-34.3
	C449.8,81.7,449.8,81.2,449.9,80.7z"/>
<g>
	<path class="st0" d="M266.3,439.1c-0.6,2.2-1.3,4.1-2.9,5.4c-1.1,0.9-2.6,1.4-4.3,1.4s-3.1-0.5-4.3-1.4c-1.6-1.3-2.4-3.2-2.9-5.4
		l-12.1-48.5c-0.7-2.9-0.8-3.8-0.5-5.3c0.5-2.3,3.1-4.1,5.9-4.1c1.6,0,3.1,0.6,4,1.7c1,1.1,1.3,2.2,2,4.9l8.5,34.1l10.2-35.4
		c0.5-1.7,1.1-2.9,2-3.8c1-1,2.3-1.4,4.1-1.4c1.8,0,3.1,0.4,4.1,1.4c0.9,0.9,1.5,2.1,2,3.8l10.2,35.4l8.5-34.1c0.7-2.7,1-3.7,2-4.9
		c0.9-1,2.3-1.7,4-1.7c2.8,0,5.3,1.8,5.9,4.1c0.3,1.5,0.2,2.4-0.5,5.3L300,439.1c-0.5,2.2-1.3,4.1-2.9,5.4c-1.1,0.9-2.6,1.4-4.3,1.4
		c-1.7,0-3.1-0.5-4.3-1.4c-1.6-1.3-2.3-3.2-2.9-5.4l-9.7-33.2L266.3,439.1z"/>
	<path class="st0" d="M377.4,437.4c0,2.9-0.1,4-0.9,5.5c-0.9,1.8-3,3-5.4,3c-2.5,0-4.5-1.2-5.4-3c-0.8-1.5-0.9-2.6-0.9-5.5v-47.8
		c0-2.9,0.1-4,0.9-5.5c0.9-1.8,3-3,5.4-3c2.5,0,4.5,1.2,5.4,3c0.8,1.5,0.9,2.6,0.9,5.5V437.4z"/>
	<path class="st0" d="M482.5,438.1c0,2.6-0.3,4.4-1.7,5.9c-1.3,1.3-2.8,1.9-4.7,1.9c-2.9,0-4.7-1.8-7.3-5.7l-22.8-33.6v30.9
		c0,2.9-0.1,4-0.9,5.5c-0.9,1.8-3,3-5.4,3c-2.5,0-4.5-1.2-5.4-3c-0.8-1.5-0.9-2.6-0.9-5.5V389c0-2.6,0.3-4.4,1.7-5.9
		c1.3-1.3,2.8-1.9,4.7-1.9c2.9,0,4.7,1.8,7.4,5.7l22.7,33.6v-30.9c0-2.9,0.1-4,0.9-5.5c0.9-1.8,3-3,5.4-3c2.5,0,4.5,1.2,5.4,3
		c0.8,1.5,0.9,2.6,0.9,5.5V438.1z"/>
	<path class="st0" d="M540.2,443.8c-1.8-1.8-1.8-4-1.8-5.9v-48.7c0-1.8,0-4.1,1.8-5.9c1.8-1.8,4-1.8,5.9-1.8h27.4
		c2.7,0,3.7,0.1,4.9,0.7c1.6,0.8,2.7,2.7,2.7,4.9c0,2.2-1.1,4-2.7,4.9c-1.2,0.6-2.2,0.7-4.9,0.7h-22.5v15h18.1
		c2.7,0,3.7,0.1,4.9,0.7c1.6,0.8,2.7,2.7,2.7,4.9c0,2.2-1.1,4-2.7,4.9c-1.2,0.6-2.2,0.7-4.9,0.7h-18.1v15.5h22.5
		c2.7,0,3.7,0.1,4.9,0.7c1.6,0.8,2.7,2.7,2.7,4.9c0,2.2-1.1,4-2.7,4.9c-1.2,0.6-2.2,0.7-4.9,0.7h-27.4
		C544.3,445.5,542,445.5,540.2,443.8z"/>
	<path class="st0" d="M646.5,437.4c0,2.9-0.1,4-0.9,5.5c-0.9,1.8-3,3-5.4,3c-2.5,0-4.5-1.2-5.4-3c-0.8-1.5-0.9-2.6-0.9-5.5v-48.2
		c0-1.8,0-4.1,1.8-5.9c1.8-1.8,4-1.8,5.9-1.8H659c13.1,0,20.8,8.8,20.8,19.5c0,7.6-4.2,13.9-11.6,16.9l9.6,16.7c1.4,2.5,1.9,3.5,2,5
		c0.1,2-1,4-3.1,5.2c-1.1,0.6-2.2,1-3.3,1c-3.4,0-4.7-2.3-6.3-5.1l-11.9-20.7h-8.8V437.4z M658.3,409.5c5.5,0,9-3.4,9-8.4
		c0-5-3.5-8.4-9-8.4h-11.9v16.8H658.3z"/>
	<path class="st0" d="M746,442.9c-0.8-1.5-0.9-2.6-0.9-5.5v-17l-14.5-28.8c-1.3-2.6-1.7-3.5-1.6-4.9c0-1.8,1.2-3.7,3.3-4.8
		c1-0.5,2-0.7,2.9-0.7c1.1,0,2.1,0.4,2.9,0.9c1.2,0.9,1.7,1.7,3,4.3l10.3,20.8l10.3-20.8c1.3-2.6,1.8-3.4,3-4.3
		c0.8-0.6,1.8-0.9,2.9-0.9c0.9,0,1.9,0.2,2.9,0.7c2.1,1,3.2,2.9,3.3,4.8c0,1.4-0.4,2.4-1.6,4.9l-14.5,28.8v17c0,2.9-0.1,4-0.9,5.5
		c-0.9,1.8-3,3-5.4,3C749,445.9,747,444.7,746,442.9z"/>
</g>
</svg>
