<?xml version="1.0" encoding="utf-8"?>
<!-- Generator: Adobe Illustrator 19.2.1, SVG Export Plug-In . SVG Version: 6.00 Build 0)  -->
<svg version="1.1" id="Layer_1" xmlns="http://www.w3.org/2000/svg" xmlns:xlink="http://www.w3.org/1999/xlink" x="0px" y="0px"
	 viewBox="0 0 300 300" style="enable-background:new 0 0 300 300;" xml:space="preserve">
<style type="text/css">
	.st0{fill:none;stroke:#000000;stroke-width:7.6244;stroke-miterlimit:10;}
	.st1{fill:#6C0B1C;}
	.st2{fill:none;stroke:#6C0B1C;stroke-width:7.6244;stroke-miterlimit:10;}
</style>
<g>
	<g>
		<path d="M47.5,185.5h16.3V82.2H47.5V73h43.1v9.3H74.4v45.2h72.5V82.2h-16.3V73h43.1v9.3h-16.3v103.3h16.3v9.3h-43.1v-9.3h16.3
			v-48.7H74.4v48.7h16.3v9.3H47.5V185.5z"/>
	</g>
	<g>
		<path d="M170.3,127.4h59.8V82.2h-16.3V73h43.1v9.3h-16.3v103.3h16.3v9.3h-43.1v-9.3h16.3v-48.7h-59.8"/>
	</g>
</g>
<g>
	<path d="M47.7,210.2c0-0.3,0.2-0.5,0.5-0.5h3.2c0.3,0,0.5,0.2,0.5,0.5v6.8h7.7v-6.8c0-0.3,0.2-0.5,0.5-0.5h3.2
		c0.3,0,0.5,0.2,0.5,0.5V228c0,0.3-0.2,0.5-0.5,0.5h-3.2c-0.3,0-0.5-0.2-0.5-0.5V221h-7.7v7.1c0,0.3-0.2,0.5-0.5,0.5h-3.2
		c-0.3,0-0.5-0.2-0.5-0.5V210.2z"/>
	<path d="M79.4,209.5c5.4,0,9.7,4.3,9.7,9.7c0,5.4-4.3,9.7-9.7,9.7s-9.7-4.3-9.7-9.7C69.8,213.8,74,209.5,79.4,209.5z M79.4,224.5
		c3,0,5.4-2.4,5.4-5.3c0-3-2.4-5.4-5.4-5.4c-2.9,0-5.4,2.4-5.4,5.4C74.1,222.1,76.5,224.5,79.4,224.5z"/>
	<path d="M95,210.2c0-0.3,0.2-0.5,0.5-0.5h6.5c3.3,0,6,2.7,6,5.9c0,3.3-2.7,6-6,6h-2.8v6.3c0,0.3-0.2,0.5-0.5,0.5h-3.2
		c-0.3,0-0.5-0.2-0.5-0.5V210.2z M101.8,217.8c1.2,0,2.1-0.9,2.1-2.1c0-1.1-1-2-2.1-2h-2.6v4.1H101.8z"/>
	<path d="M113.5,210.2c0-0.3,0.2-0.5,0.5-0.5h6.5c3.3,0,6,2.7,6,5.9c0,3.3-2.7,6-6,6h-2.8v6.3c0,0.3-0.2,0.5-0.5,0.5H114
		c-0.3,0-0.5-0.2-0.5-0.5V210.2z M120.2,217.8c1.2,0,2.1-0.9,2.1-2.1c0-1.1-1-2-2.1-2h-2.6v4.1H120.2z"/>
	<path d="M130.9,226l1.3-2.2c0.2-0.4,0.7-0.3,0.9-0.2c0.1,0.1,2,1.5,3.8,1.5c1.1,0,1.9-0.7,1.9-1.6c0-1.1-0.9-2-2.8-2.7
		c-2.3-0.9-5.2-2.7-5.2-5.9c0-2.7,2.1-5.3,6.2-5.3c2.8,0,4.9,1.4,5.8,2c0.3,0.2,0.3,0.7,0.2,0.9l-1.4,2.1c-0.2,0.3-0.7,0.5-0.9,0.4
		c-0.2-0.1-2.2-1.6-3.8-1.6c-1,0-1.7,0.6-1.7,1.4c0,1,0.8,1.7,2.9,2.6c2.1,0.8,5.4,2.5,5.4,6.1c0,2.8-2.4,5.6-6.3,5.6
		c-3.5,0-5.4-1.5-6-2.1C130.8,226.5,130.7,226.4,130.9,226z"/>
	<path d="M158,210.2c0-0.3,0.2-0.5,0.5-0.5h3.2c0.3,0,0.5,0.2,0.5,0.5v6.8h7.7v-6.8c0-0.3,0.2-0.5,0.5-0.5h3.2
		c0.3,0,0.5,0.2,0.5,0.5V228c0,0.3-0.2,0.5-0.5,0.5h-3.2c-0.3,0-0.5-0.2-0.5-0.5V221h-7.7v7.1c0,0.3-0.2,0.5-0.5,0.5h-3.2
		c-0.3,0-0.5-0.2-0.5-0.5V210.2z"/>
	<path d="M189.7,209.5c5.4,0,9.7,4.3,9.7,9.7c0,5.4-4.3,9.7-9.7,9.7c-5.4,0-9.7-4.3-9.7-9.7C180.1,213.8,184.4,209.5,189.7,209.5z
		 M189.7,224.5c3,0,5.4-2.4,5.4-5.3c0-3-2.4-5.4-5.4-5.4c-2.9,0-5.4,2.4-5.4,5.4C184.4,222.1,186.8,224.5,189.7,224.5z"/>
	<path d="M205.1,210.2c0-0.3,0.2-0.5,0.5-0.5h3.3c0.3,0,0.5,0.2,0.5,0.5v10.9c0,1.9,1.4,3.4,3.3,3.4c1.9,0,3.4-1.5,3.4-3.4v-10.9
		c0-0.3,0.2-0.5,0.5-0.5h3.3c0.3,0,0.5,0.2,0.5,0.5v11.1c0,4.1-3.4,7.5-7.7,7.5c-4.2,0-7.6-3.4-7.6-7.5V210.2z"/>
	<path d="M226.3,226l1.3-2.2c0.2-0.4,0.7-0.3,0.9-0.2c0.1,0.1,2,1.5,3.8,1.5c1.1,0,1.9-0.7,1.9-1.6c0-1.1-0.9-2-2.8-2.7
		c-2.3-0.9-5.2-2.7-5.2-5.9c0-2.7,2.1-5.3,6.2-5.3c2.8,0,4.9,1.4,5.8,2c0.3,0.2,0.3,0.7,0.2,0.9l-1.4,2.1c-0.2,0.3-0.7,0.5-0.9,0.4
		c-0.2-0.1-2.2-1.6-3.8-1.6c-1,0-1.7,0.6-1.7,1.4c0,1,0.8,1.7,2.9,2.6c2.1,0.8,5.4,2.5,5.4,6.1c0,2.8-2.4,5.6-6.3,5.6
		c-3.5,0-5.4-1.5-6-2.1C226.2,226.5,226.1,226.4,226.3,226z"/>
	<path d="M244.8,210.2c0-0.3,0.2-0.5,0.5-0.5h11.1c0.3,0,0.5,0.2,0.5,0.5v2.9c0,0.3-0.2,0.5-0.5,0.5H249v3.3h6.1
		c0.3,0,0.5,0.2,0.5,0.5v2.9c0,0.3-0.2,0.5-0.5,0.5H249v3.6h7.4c0.3,0,0.5,0.2,0.5,0.5v2.9c0,0.3-0.2,0.5-0.5,0.5h-11.1
		c-0.3,0-0.5-0.2-0.5-0.5V210.2z"/>
</g>
</svg>
