<?xml version="1.0" encoding="utf-8"?>
<!-- Generator: Adobe Illustrator 18.1.1, SVG Export Plug-In . SVG Version: 6.00 Build 0)  -->
<svg version="1.1" id="Layer_1" xmlns="http://www.w3.org/2000/svg" xmlns:xlink="http://www.w3.org/1999/xlink" x="0px" y="0px"
	 viewBox="50.6 100.8 158.8 49.7" enable-background="new 50.6 100.8 158.8 49.7" xml:space="preserve">
<g>
	<path fill="#D3D1C1" d="M72.5,128.2l-7.7-16.8L57,128.2h-6.4l12.9-26.9l2.3-0.4l13.1,27.3H72.5z"/>
	<path fill="#D3D1C1" d="M104.4,129.4L95.5,118L87,128.9l-2.5-0.4v-27.1h21.8l0.5,2.2l-7.8,9.9l9.3,11.9L104.4,129.4z M90.1,107v9.9
		l7.7-9.9H90.1z"/>
	<path fill="#D3D1C1" d="M127.1,128.7c-7.7,0-14-6.3-14-13.9c0-7.7,6.3-13.9,14-13.9c7.7,0,14,6.2,14,13.9
		C141.2,122.5,134.8,128.7,127.1,128.7z M127.1,106.5c-4.6,0-8.1,3.7-8.1,8.3c0,4.6,3.6,8.3,8.1,8.3c4.6,0,8.2-3.7,8.2-8.3
		C135.3,110.2,131.7,106.5,127.1,106.5z"/>
	<path fill="#D3D1C1" d="M148.5,128.2v-26.8h5.8v26.8L148.5,128.2L148.5,128.2z M159.1,128.2v-26.8h5.8v26.8L159.1,128.2
		L159.1,128.2z M169.7,128.2v-26.8h5.8v26.8L169.7,128.2L169.7,128.2z"/>
	<path fill="#D3D1C1" d="M203,128.2l-7.7-16.8l-7.8,16.8h-6.4l12.9-26.9l2.3-0.4l13.1,27.3H203z"/>
</g>
<g>
	<path fill="#D3D1C1" d="M84.4,140.9c1.9,0,3.9,1,4.3,3.3h-1.9c-0.4-1.1-1.3-1.5-2.4-1.5c-1.7,0-2.8,1.2-2.8,3
		c0,1.6,1.1,2.9,2.8,2.9c1.2,0,2.1-0.5,2.4-1.7h1.9c-0.4,2.5-2.4,3.5-4.4,3.5c-2.5,0-4.8-1.7-4.8-4.8
		C79.6,142.6,81.9,140.9,84.4,140.9z"/>
	<path fill="#D3D1C1" d="M95.7,150.5c-2.5,0-4.8-1.7-4.8-4.9s2.3-4.9,4.8-4.9c2.4,0,4.8,1.7,4.8,4.9
		C100.5,148.5,98.5,150.5,95.7,150.5z M95.7,148.7c1.5,0,2.8-1,2.8-3c0-2-1.3-3-2.8-3c-1.5,0-2.8,1-2.8,3
		C92.9,147.7,94.2,148.7,95.7,148.7z"/>
	<path fill="#D3D1C1" d="M108.7,147.1h-3.4v3.3h-2V141h5.8v1.8h-3.8v2.5h3.4L108.7,147.1L108.7,147.1z"/>
	<path fill="#D3D1C1" d="M117.1,147.1h-3.4v3.3h-2V141h5.8v1.8h-3.8v2.5h3.4L117.1,147.1L117.1,147.1z"/>
	<path fill="#D3D1C1" d="M125.9,142.7h-3.7v1.9h3.5v1.8h-3.5v2.1h3.8v1.8h-5.9V141h5.8L125.9,142.7L125.9,142.7z"/>
	<path fill="#D3D1C1" d="M134.8,142.7h-3.7v1.9h3.5v1.8h-3.5v2.1h3.8v1.8H129V141h5.8L134.8,142.7L134.8,142.7z"/>
	<path fill="#D3D1C1" d="M142.3,144.7h1.8V143h1.6v1.7h1.8v1.5h-1.8v1.7h-1.6v-1.7h-1.8V144.7z"/>
	<path fill="#D3D1C1" d="M154.3,142.7V141h7v1.8h-2.5v7.6h-1.9v-7.6H154.3z"/>
	<path fill="#D3D1C1" d="M169.4,142.7h-3.7v1.9h3.5v1.8h-3.5v2.1h3.8v1.8h-5.9V141h5.8V142.7z"/>
	<path fill="#D3D1C1" d="M174.4,148.8l-0.7,1.6h-2.1v-0.3l4.3-9.2h0.9l4.3,9.2v0.3H179l-0.7-1.6H174.4z M175,147.1h2.6l-1.3-3.1
		L175,147.1z"/>
</g>
</svg>
