<?xml version="1.0" encoding="utf-8"?>
<!-- Generator: Adobe Illustrator 19.2.1, SVG Export Plug-In . SVG Version: 6.00 Build 0)  -->
<svg version="1.1" id="Layer_1" xmlns="http://www.w3.org/2000/svg" xmlns:xlink="http://www.w3.org/1999/xlink" x="0px" y="0px"
	 viewBox="0 0 792 612" style="enable-background:new 0 0 792 612;" xml:space="preserve">
<style type="text/css">
	.st0{fill:#F8A076;}
	.st1{fill:#334051;}
	.st2{fill:#FFFFFF;}
</style>
<g>
	<path class="st0" d="M227.9,237.2c0,2-1.6,3.6-3.6,3.6h-154c-2,0-3.6-1.6-3.6-3.6V82c0-2,1.6-3.6,3.6-3.6h154c2,0,3.6,1.6,3.6,3.6
		V237.2z"/>
</g>
<g>
	<path class="st1" d="M265.2,140.7c-5.4,0-9.7-2-12.8-5.9h-0.7c0.4,3.9,0.7,6.1,0.7,6.7v18.8h-12.6V93.5h10.3l1.8,6h0.6
		c3-4.6,7.3-6.9,13.1-6.9c5.5,0,9.7,2.1,12.8,6.4c3.1,4.2,4.6,10.1,4.6,17.6c0,5-0.7,9.3-2.2,12.9c-1.4,3.7-3.5,6.4-6.2,8.3
		C272,139.8,268.8,140.7,265.2,140.7z M261.5,102.8c-3.1,0-5.4,1-6.8,2.9c-1.4,1.9-2.2,5.1-2.2,9.5v1.4c0,5,0.7,8.6,2.2,10.7
		c1.5,2.2,3.8,3.2,7,3.2c5.7,0,8.5-4.7,8.5-14c0-4.6-0.7-8-2.1-10.3C266.7,103.9,264.5,102.8,261.5,102.8z"/>
	<path class="st1" d="M313.6,140.7c-7.4,0-13.3-2.1-17.5-6.2c-4.2-4.1-6.3-10-6.3-17.5c0-7.8,1.9-13.8,5.8-18
		c3.9-4.2,9.2-6.4,16.1-6.4c6.5,0,11.6,1.9,15.3,5.6s5.5,8.9,5.5,15.5v6.1h-29.8c0.1,3.6,1.2,6.4,3.2,8.4c2,2,4.8,3,8.4,3
		c2.8,0,5.4-0.3,7.9-0.9s5.1-1.5,7.8-2.8v9.8c-2.2,1.1-4.6,1.9-7.1,2.5C320.2,140.5,317.2,140.7,313.6,140.7z M311.8,101.6
		c-2.7,0-4.8,0.9-6.3,2.6c-1.5,1.7-2.4,4.1-2.6,7.2h17.7c-0.1-3.1-0.9-5.5-2.4-7.2C316.6,102.5,314.4,101.6,311.8,101.6z"/>
	<path class="st1" d="M361.3,130.7c2.2,0,4.9-0.5,7.9-1.5v9.4c-3.1,1.4-7,2.1-11.6,2.1c-5,0-8.7-1.3-11-3.8
		c-2.3-2.6-3.5-6.4-3.5-11.5V103h-6v-5.4l7-4.2l3.6-9.8h8.1v9.9h13v9.5h-13v22.4c0,1.8,0.5,3.1,1.5,4
		C358.3,130.2,359.7,130.7,361.3,130.7z"/>
	<path class="st1" d="M410.1,126.1c0,4.8-1.6,8.4-4.9,10.9c-3.3,2.5-8.2,3.7-14.8,3.7c-3.4,0-6.2-0.2-8.6-0.7
		c-2.4-0.5-4.6-1.1-6.7-2v-10.5c2.3,1.1,5,2,7.9,2.8s5.5,1.1,7.8,1.1c4.6,0,6.9-1.3,6.9-4c0-1-0.3-1.8-0.9-2.4
		c-0.6-0.6-1.7-1.3-3.1-2.1c-1.5-0.8-3.5-1.7-6-2.8c-3.6-1.5-6.2-2.9-7.8-4.2c-1.7-1.3-2.9-2.7-3.6-4.4s-1.1-3.7-1.1-6.1
		c0-4.1,1.6-7.3,4.8-9.6c3.2-2.3,7.7-3.4,13.6-3.4c5.6,0,11,1.2,16.3,3.7l-3.8,9.1c-2.3-1-4.5-1.8-6.5-2.4c-2-0.6-4.1-1-6.2-1
		c-3.7,0-5.6,1-5.6,3c0,1.1,0.6,2.1,1.8,2.9s3.8,2.1,7.9,3.7c3.6,1.5,6.3,2.8,7.9,4.1c1.7,1.3,2.9,2.7,3.7,4.4
		C409.7,121.9,410.1,123.8,410.1,126.1z"/>
	<path class="st1" d="M267.1,191h-10.9v36.9h-12.6V191h-7v-6.1l7-3.4v-3.4c0-5.3,1.3-9.1,3.9-11.6c2.6-2.4,6.7-3.7,12.5-3.7
		c4.4,0,8.2,0.7,11.6,2l-3.2,9.3c-2.5-0.8-4.9-1.2-7-1.2c-1.8,0-3.1,0.5-3.9,1.6c-0.8,1.1-1.2,2.4-1.2,4.1v2.9h10.9V191z
		 M273.8,169.5c0-4.1,2.3-6.2,6.9-6.2s6.9,2.1,6.9,6.2c0,2-0.6,3.5-1.7,4.6s-2.9,1.6-5.2,1.6C276.1,175.7,273.8,173.7,273.8,169.5z
		 M287,227.9h-12.6v-46.4H287V227.9z"/>
	<path class="st1" d="M325.1,180.6c1.7,0,3.1,0.1,4.3,0.4l-1,11.9c-1-0.3-2.3-0.4-3.7-0.4c-4,0-7.2,1-9.4,3.1
		c-2.2,2.1-3.4,5-3.4,8.7v23.6h-12.6v-46.4h9.6l1.9,7.8h0.6c1.4-2.6,3.4-4.7,5.8-6.3C319.6,181.4,322.3,180.6,325.1,180.6z"/>
	<path class="st1" d="M369.2,214.1c0,4.8-1.6,8.4-4.9,10.9c-3.3,2.5-8.2,3.7-14.8,3.7c-3.4,0-6.2-0.2-8.6-0.7
		c-2.4-0.5-4.6-1.1-6.7-2v-10.5c2.3,1.1,5,2,7.9,2.8s5.5,1.1,7.8,1.1c4.6,0,6.9-1.3,6.9-4c0-1-0.3-1.8-0.9-2.4
		c-0.6-0.6-1.7-1.3-3.1-2.1c-1.5-0.8-3.5-1.7-6-2.8c-3.6-1.5-6.2-2.9-7.8-4.2c-1.7-1.3-2.9-2.7-3.6-4.4s-1.1-3.7-1.1-6.1
		c0-4.1,1.6-7.3,4.8-9.6c3.2-2.3,7.7-3.4,13.6-3.4c5.6,0,11,1.2,16.3,3.7l-3.8,9.1c-2.3-1-4.5-1.8-6.5-2.4c-2-0.6-4.1-1-6.2-1
		c-3.7,0-5.6,1-5.6,3c0,1.1,0.6,2.1,1.8,2.9s3.8,2.1,7.9,3.7c3.6,1.5,6.3,2.8,7.9,4.1c1.7,1.3,2.9,2.7,3.7,4.4
		C368.8,209.9,369.2,211.8,369.2,214.1z"/>
	<path class="st1" d="M397.7,218.7c2.2,0,4.9-0.5,7.9-1.5v9.4c-3.1,1.4-7,2.1-11.6,2.1c-5,0-8.7-1.3-11-3.8
		c-2.3-2.6-3.5-6.4-3.5-11.5V191h-6v-5.4l7-4.2l3.6-9.8h8.1v9.9h13v9.5h-13v22.4c0,1.8,0.5,3.1,1.5,4
		C394.7,218.2,396.1,218.7,397.7,218.7z"/>
</g>
<g>
	<path class="st2" d="M148.3,212.9c-90,2-93.5-111.1,5.1-106.9c1.7,0.1,3,1.5,2.9,3.2l-1.5,31l-13.5,18.3l10.9,32.7l-0.9,18.7
		C151.1,211.6,149.9,212.8,148.3,212.9z"/>
	<path class="st1" d="M134,146.2c0,1.8-0.6,3.5-1.6,4.8c0,0-3.1-2-5.1-2c-2.2,0-5.5,1.5-5.5,1.5c-0.8-1.2-1.3-2.7-1.3-4.3
		c0-4.1,3-7.3,6.7-7.3S134,142.1,134,146.2z"/>
	<path class="st1" d="M181.1,146.2c0,1.8-0.6,3.5-1.6,4.8c0,0-3.1-2-5.1-2c-2.2,0-5.5,1.5-5.5,1.5c-0.8-1.2-1.3-2.7-1.3-4.3
		c0-4.1,3-7.3,6.7-7.3C178.1,138.8,181.1,142.1,181.1,146.2z"/>
	<path class="st1" d="M196.3,192.1c-0.8-1.2-2.4-1.5-3.6-0.7c-0.5,0.4-1.1,0.8-1.7,1.2c-8,5.6-18,12.6-26.9,7.1
		c-9.2-5.7-13.4-18-16.3-29.2c-0.6-2.4-1.1-4.8-1.5-7.2c-0.3-1.4-0.5-2.8-0.8-4.1c0-0.1,0-0.4,0-0.6c0-0.1,0-0.2,0-0.3
		c0.1-0.1,0.1-0.1,0.2-0.2c0.2-0.2,0.4-0.4,0.5-0.6l33.8-45.5c0.6-0.8,0.7-1.7,0.3-2.5c-0.4-0.9-1.3-1.5-2.3-1.6
		c-1-0.1-2,0.3-2.6,1.1l-15.5,20.9c-2.1,2.8-4.2,5.6-6.4,8.3c-4.3,5.5-8.7,11.2-12.5,17.1c-1.2,1.9-1.2,2.9-0.8,4.9
		c0.7,4.4,1.6,8.9,2.9,13.3c2.9,10.6,7.5,23.6,17.6,30.4c3.5,2.3,7,3.3,10.4,3.3c8.5,0,16.7-5.7,23.7-10.5l0.8-0.6
		C196.9,195.2,197.2,193.4,196.3,192.1z"/>
	<path class="st1" d="M208.7,130c-0.6,10.4-15.6,10.4-16.2,0c-0.2-3.1-5.1-3.2-4.9,0c0.4,7,5.7,13,13,13c7.3,0,12.6-6,13-13
		C213.8,126.9,208.8,126.9,208.7,130L208.7,130z"/>
</g>
<g>
	<path class="st1" d="M544.2,233.4c-2.7,0-4.8-1-6.3-2.9h-0.3c0.2,1.9,0.3,3,0.3,3.3v9.3h-6.2v-33h5.1l0.9,3h0.3
		c1.5-2.3,3.6-3.4,6.5-3.4c2.7,0,4.8,1,6.3,3.1s2.3,5,2.3,8.7c0,2.4-0.4,4.6-1.1,6.4s-1.7,3.2-3.1,4.1S546,233.4,544.2,233.4z
		 M542.4,214.6c-1.5,0-2.7,0.5-3.4,1.4c-0.7,1-1.1,2.5-1.1,4.7v0.7c0,2.5,0.4,4.2,1.1,5.3c0.7,1.1,1.9,1.6,3.5,1.6
		c2.8,0,4.2-2.3,4.2-6.9c0-2.3-0.3-3.9-1-5.1C544.9,215.2,543.9,214.6,542.4,214.6z"/>
	<path class="st1" d="M568.1,233.4c-3.7,0-6.6-1-8.6-3.1s-3.1-4.9-3.1-8.7c0-3.8,1-6.8,2.9-8.9c1.9-2.1,4.6-3.1,7.9-3.1
		c3.2,0,5.7,0.9,7.5,2.8c1.8,1.8,2.7,4.4,2.7,7.6v3h-14.7c0.1,1.8,0.6,3.2,1.6,4.2c1,1,2.4,1.5,4.1,1.5c1.4,0,2.7-0.1,3.9-0.4
		c1.2-0.3,2.5-0.7,3.8-1.4v4.8c-1.1,0.5-2.3,1-3.5,1.2C571.4,233.2,569.9,233.4,568.1,233.4z M567.2,214.1c-1.3,0-2.4,0.4-3.1,1.3
		c-0.8,0.8-1.2,2-1.3,3.6h8.8c0-1.5-0.4-2.7-1.2-3.6C569.6,214.5,568.6,214.1,567.2,214.1z"/>
	<path class="st1" d="M591.7,228.4c1.1,0,2.4-0.2,3.9-0.7v4.7c-1.6,0.7-3.5,1-5.7,1c-2.5,0-4.3-0.6-5.5-1.9
		c-1.1-1.3-1.7-3.2-1.7-5.7v-11.1h-3v-2.6l3.4-2.1l1.8-4.8h4v4.9h6.4v4.7H589v11.1c0,0.9,0.2,1.5,0.7,2
		C590.2,228.2,590.9,228.4,591.7,228.4z"/>
	<path class="st1" d="M615.8,226.2c0,2.4-0.8,4.1-2.4,5.4s-4.1,1.8-7.3,1.8c-1.7,0-3.1-0.1-4.3-0.3c-1.2-0.2-2.3-0.6-3.3-1v-5.2
		c1.2,0.5,2.5,1,3.9,1.4c1.5,0.4,2.7,0.6,3.8,0.6c2.3,0,3.4-0.7,3.4-2c0-0.5-0.2-0.9-0.5-1.2c-0.3-0.3-0.8-0.7-1.6-1
		c-0.7-0.4-1.7-0.8-2.9-1.4c-1.8-0.7-3-1.4-3.9-2.1s-1.4-1.3-1.8-2.2s-0.6-1.8-0.6-3c0-2,0.8-3.6,2.4-4.7c1.6-1.1,3.8-1.7,6.7-1.7
		c2.8,0,5.4,0.6,8,1.8l-1.9,4.5c-1.1-0.5-2.2-0.9-3.2-1.2s-2-0.5-3-0.5c-1.8,0-2.8,0.5-2.8,1.5c0,0.6,0.3,1,0.9,1.5
		c0.6,0.4,1.9,1,3.9,1.8c1.8,0.7,3.1,1.4,3.9,2c0.8,0.6,1.4,1.4,1.8,2.2S615.8,225,615.8,226.2z"/>
	<path class="st1" d="M643.3,214.7h-5.4V233h-6.2v-18.2h-3.4v-3l3.4-1.7v-1.7c0-2.6,0.6-4.5,1.9-5.7s3.3-1.8,6.2-1.8
		c2.2,0,4.1,0.3,5.7,1l-1.6,4.6c-1.3-0.4-2.4-0.6-3.5-0.6c-0.9,0-1.5,0.3-1.9,0.8c-0.4,0.5-0.6,1.2-0.6,2v1.4h5.4V214.7z
		 M646.7,204.1c0-2,1.1-3.1,3.4-3.1c2.3,0,3.4,1,3.4,3.1c0,1-0.3,1.7-0.8,2.3c-0.6,0.5-1.4,0.8-2.5,0.8
		C647.8,207.2,646.7,206.2,646.7,204.1z M653.2,233h-6.2V210h6.2V233z"/>
	<path class="st1" d="M672,209.6c0.8,0,1.5,0.1,2.1,0.2l-0.5,5.9c-0.5-0.1-1.1-0.2-1.8-0.2c-2,0-3.5,0.5-4.7,1.5
		c-1.1,1-1.7,2.5-1.7,4.3V233h-6.2V210h4.7l0.9,3.9h0.3c0.7-1.3,1.7-2.3,2.9-3.1C669.3,210,670.6,209.6,672,209.6z"/>
	<path class="st1" d="M693.8,226.2c0,2.4-0.8,4.1-2.4,5.4s-4.1,1.8-7.3,1.8c-1.7,0-3.1-0.1-4.3-0.3c-1.2-0.2-2.3-0.6-3.3-1v-5.2
		c1.2,0.5,2.5,1,3.9,1.4c1.5,0.4,2.7,0.6,3.8,0.6c2.3,0,3.4-0.7,3.4-2c0-0.5-0.2-0.9-0.5-1.2c-0.3-0.3-0.8-0.7-1.6-1
		c-0.7-0.4-1.7-0.8-2.9-1.4c-1.8-0.7-3-1.4-3.9-2.1s-1.4-1.3-1.8-2.2s-0.6-1.8-0.6-3c0-2,0.8-3.6,2.4-4.7c1.6-1.1,3.8-1.7,6.7-1.7
		c2.8,0,5.4,0.6,8,1.8l-1.9,4.5c-1.1-0.5-2.2-0.9-3.2-1.2s-2-0.5-3-0.5c-1.8,0-2.8,0.5-2.8,1.5c0,0.6,0.3,1,0.9,1.5
		c0.6,0.4,1.9,1,3.9,1.8c1.8,0.7,3.1,1.4,3.9,2c0.8,0.6,1.4,1.4,1.8,2.2S693.8,225,693.8,226.2z"/>
	<path class="st1" d="M707.9,228.4c1.1,0,2.4-0.2,3.9-0.7v4.7c-1.6,0.7-3.5,1-5.7,1c-2.5,0-4.3-0.6-5.5-1.9
		c-1.1-1.3-1.7-3.2-1.7-5.7v-11.1h-3v-2.6l3.4-2.1l1.8-4.8h4v4.9h6.4v4.7h-6.4v11.1c0,0.9,0.2,1.5,0.7,2
		C706.4,228.2,707.1,228.4,707.9,228.4z"/>
</g>
<g>
	<path class="st0" d="M614.4,190.6c-90,2-93.5-111.1,5.1-106.9c1.7,0.1,3,1.5,2.9,3.2l-1.5,31l-13.5,18.3l10.9,32.7l-0.9,18.7
		C617.3,189.3,616,190.6,614.4,190.6z"/>
	<path class="st1" d="M600.1,123.9c0,1.8-0.6,3.5-1.6,4.8c0,0-3.1-2-5.1-2c-2.2,0-5.5,1.5-5.5,1.5c-0.8-1.2-1.3-2.7-1.3-4.3
		c0-4.1,3-7.3,6.7-7.3S600.1,119.8,600.1,123.9z"/>
	<path class="st1" d="M647.2,123.9c0,1.8-0.6,3.5-1.6,4.8c0,0-3.1-2-5.1-2c-2.2,0-5.5,1.5-5.5,1.5c-0.8-1.2-1.3-2.7-1.3-4.3
		c0-4.1,3-7.3,6.7-7.3S647.2,119.8,647.2,123.9z"/>
	<path class="st1" d="M662.5,169.9c-0.8-1.2-2.4-1.5-3.6-0.7c-0.5,0.4-1.1,0.8-1.7,1.2c-8,5.6-18,12.6-26.9,7.1
		c-9.2-5.7-13.4-18-16.3-29.2c-0.6-2.4-1.1-4.8-1.5-7.2c-0.3-1.4-0.5-2.8-0.8-4.1c0-0.1,0-0.4,0-0.6c0-0.1,0-0.2,0-0.3
		c0.1-0.1,0.1-0.1,0.2-0.2c0.2-0.2,0.4-0.4,0.5-0.6l33.8-45.5c0.6-0.8,0.7-1.7,0.3-2.5c-0.4-0.9-1.3-1.5-2.3-1.6
		c-1-0.1-2,0.3-2.6,1.1l-15.5,20.9c-2.1,2.8-4.2,5.6-6.4,8.3c-4.3,5.5-8.7,11.2-12.5,17.1c-1.2,1.9-1.2,2.9-0.8,4.9
		c0.7,4.4,1.6,8.9,2.9,13.3c2.9,10.6,7.5,23.6,17.6,30.4c3.5,2.3,7,3.3,10.4,3.3c8.5,0,16.7-5.7,23.7-10.5l0.8-0.6
		C663.1,172.9,663.4,171.2,662.5,169.9z"/>
	<path class="st1" d="M674.8,107.8c-0.6,10.4-15.6,10.4-16.2,0c-0.2-3.1-5.1-3.2-4.9,0c0.4,7,5.7,13,13,13c7.3,0,12.6-6,13-13
		C679.9,104.6,675,104.6,674.8,107.8L674.8,107.8z"/>
</g>
<g>
	<path class="st0" d="M351.7,515.5c0,2-1.6,3.6-3.6,3.6H97.5c-2,0-3.6-1.6-3.6-3.6V404.2c0-2,1.6-3.6,3.6-3.6h250.6
		c2,0,3.6,1.6,3.6,3.6V515.5z"/>
</g>
<g>
	<path class="st2" d="M161.7,507.4c-78.9,1.8-81.9-97.4,4.5-93.7c1.5,0.1,2.6,1.3,2.5,2.8l-1.4,27.2l-11.8,16.1l9.6,28.7l-0.8,16.4
		C164.2,506.3,163.1,507.4,161.7,507.4z"/>
	<g>
		<path class="st1" d="M149.2,449c0,1.6-0.5,3.1-1.4,4.2c0,0-2.7-1.8-4.5-1.8c-2,0-4.8,1.3-4.8,1.3c-0.7-1.1-1.1-2.4-1.1-3.8
			c0-3.6,2.6-6.4,5.9-6.4C146.6,442.5,149.2,445.4,149.2,449z"/>
		<path class="st1" d="M189.6,449c0,1.6-0.5,3.1-1.4,4.2c0,0-2.7-1.8-4.5-1.8c-2,0-4.8,1.3-4.8,1.3c-0.7-1.1-1.1-2.4-1.1-3.8
			c0-3.6,2.6-6.4,5.9-6.4C187,442.5,189.6,445.4,189.6,449z"/>
		<path class="st1" d="M203,489.3c-0.7-1.1-2.1-1.3-3.2-0.6c-0.5,0.3-1,0.7-1.5,1c-7,4.9-15.8,11-23.6,6.2
			c-8.1-5-11.8-15.8-14.3-25.6c-0.5-2.1-0.9-4.2-1.3-6.3c-0.2-1.2-0.5-2.4-0.7-3.6c0-0.1,0-0.4,0-0.5c0-0.1,0-0.2,0-0.3
			c0.1-0.1,0.1-0.1,0.2-0.2c0.2-0.2,0.3-0.4,0.4-0.5l29.6-39.9c0.5-0.7,0.6-1.5,0.3-2.2c-0.3-0.8-1.1-1.3-2-1.4
			c-0.9-0.1-1.7,0.3-2.2,1L171,434.6c-1.8,2.4-3.7,4.9-5.6,7.2c-3.8,4.8-7.7,9.8-11,15c-1.1,1.7-1,2.5-0.7,4.3
			c0.6,3.8,1.4,7.8,2.5,11.7c2.5,9.3,6.6,20.7,15.4,26.6c3,2.1,6.1,2.9,9.2,2.9c7.4,0,14.6-5,20.8-9.2l0.7-0.5
			C203.5,491.9,203.8,490.4,203,489.3z"/>
		<path class="st1" d="M213.8,434.8c-0.5,9.1-13.7,9.1-14.2,0c-0.1-2.8-4.5-2.8-4.3,0c0.3,6.2,5,11.4,11.4,11.4
			c6.4,0,11.1-5.2,11.4-11.4C218.3,432,213.9,432,213.8,434.8L213.8,434.8z"/>
	</g>
</g>
<g>
	<path class="st2" d="M241.3,448.6c-3.3,0-5.9-1.2-7.8-3.6h-0.4c0.3,2.3,0.4,3.7,0.4,4.1v11.4h-7.7V420h6.2l1.1,3.7h0.4
		c1.8-2.8,4.4-4.2,8-4.2c3.3,0,5.9,1.3,7.8,3.9c1.9,2.6,2.8,6.1,2.8,10.7c0,3-0.4,5.6-1.3,7.8s-2.1,3.9-3.8,5.1
		C245.4,448,243.5,448.6,241.3,448.6z M239,425.6c-1.9,0-3.3,0.6-4.1,1.8c-0.9,1.2-1.3,3.1-1.4,5.8v0.8c0,3,0.4,5.2,1.3,6.5
		c0.9,1.3,2.3,2,4.3,2c3.4,0,5.1-2.8,5.1-8.5c0-2.8-0.4-4.8-1.3-6.2C242.2,426.3,240.8,425.6,239,425.6z"/>
	<path class="st2" d="M270.6,448.6c-4.5,0-8.1-1.3-10.6-3.8s-3.8-6-3.8-10.6c0-4.7,1.2-8.4,3.5-10.9c2.4-2.6,5.6-3.9,9.8-3.9
		c4,0,7.1,1.1,9.3,3.4c2.2,2.3,3.3,5.4,3.3,9.4v3.7H264c0.1,2.2,0.7,3.9,1.9,5.1c1.2,1.2,2.9,1.8,5.1,1.8c1.7,0,3.3-0.2,4.8-0.5
		c1.5-0.4,3.1-0.9,4.7-1.7v5.9c-1.3,0.7-2.8,1.2-4.3,1.5C274.7,448.5,272.8,448.6,270.6,448.6z M269.5,424.9c-1.6,0-2.9,0.5-3.8,1.5
		c-0.9,1-1.4,2.5-1.6,4.4h10.7c0-1.9-0.5-3.4-1.5-4.4S271.2,424.9,269.5,424.9z"/>
	<path class="st2" d="M299.6,442.5c1.3,0,2.9-0.3,4.8-0.9v5.7c-1.9,0.9-4.3,1.3-7,1.3c-3.1,0-5.3-0.8-6.7-2.3s-2.1-3.9-2.1-7v-13.6
		h-3.7v-3.2l4.2-2.6l2.2-5.9h4.9v6h7.9v5.8h-7.9v13.6c0,1.1,0.3,1.9,0.9,2.4S298.6,442.5,299.6,442.5z"/>
	<path class="st2" d="M329.2,439.8c0,2.9-1,5.1-3,6.6s-5,2.3-9,2.3c-2,0-3.8-0.1-5.2-0.4c-1.4-0.3-2.8-0.7-4-1.2v-6.3
		c1.4,0.7,3,1.2,4.8,1.7c1.8,0.5,3.4,0.7,4.7,0.7c2.8,0,4.2-0.8,4.2-2.4c0-0.6-0.2-1.1-0.6-1.5c-0.4-0.4-1-0.8-1.9-1.3
		c-0.9-0.5-2.1-1-3.6-1.7c-2.2-0.9-3.7-1.7-4.8-2.5c-1-0.8-1.7-1.7-2.2-2.7c-0.5-1-0.7-2.2-0.7-3.7c0-2.5,1-4.4,2.9-5.8
		s4.7-2.1,8.2-2.1c3.4,0,6.7,0.7,9.9,2.2l-2.3,5.5c-1.4-0.6-2.7-1.1-3.9-1.5c-1.2-0.4-2.5-0.6-3.7-0.6c-2.3,0-3.4,0.6-3.4,1.8
		c0,0.7,0.4,1.3,1.1,1.8c0.7,0.5,2.3,1.3,4.8,2.2c2.2,0.9,3.8,1.7,4.8,2.5c1,0.8,1.8,1.7,2.3,2.7
		C328.9,437.2,329.2,438.4,329.2,439.8z"/>
	<path class="st2" d="M241.4,482.2h-6.6v22.4h-7.7v-22.4h-4.2v-3.7l4.2-2.1v-2.1c0-3.2,0.8-5.5,2.4-7c1.6-1.5,4.1-2.2,7.6-2.2
		c2.6,0,5,0.4,7.1,1.2l-2,5.6c-1.5-0.5-3-0.7-4.3-0.7c-1.1,0-1.9,0.3-2.4,1c-0.5,0.6-0.7,1.5-0.7,2.5v1.8h6.6V482.2z M245.5,469.2
		c0-2.5,1.4-3.8,4.2-3.8s4.2,1.2,4.2,3.8c0,1.2-0.3,2.1-1,2.8s-1.7,1-3.1,1C246.9,472.9,245.5,471.7,245.5,469.2z M253.5,504.6h-7.7
		v-28.2h7.7V504.6z"/>
	<path class="st2" d="M276.6,475.9c1,0,1.9,0.1,2.6,0.2l-0.6,7.2c-0.6-0.2-1.4-0.3-2.3-0.3c-2.4,0-4.3,0.6-5.7,1.9
		c-1.4,1.3-2,3-2,5.3v14.3h-7.7v-28.2h5.8l1.1,4.7h0.4c0.9-1.6,2-2.8,3.5-3.8C273.3,476.4,274.9,475.9,276.6,475.9z"/>
	<path class="st2" d="M303.4,496.2c0,2.9-1,5.1-3,6.6s-5,2.3-9,2.3c-2,0-3.8-0.1-5.2-0.4c-1.4-0.3-2.8-0.7-4-1.2v-6.3
		c1.4,0.7,3,1.2,4.8,1.7c1.8,0.5,3.4,0.7,4.7,0.7c2.8,0,4.2-0.8,4.2-2.4c0-0.6-0.2-1.1-0.6-1.5c-0.4-0.4-1-0.8-1.9-1.3
		c-0.9-0.5-2.1-1-3.6-1.7c-2.2-0.9-3.7-1.7-4.8-2.5c-1-0.8-1.7-1.7-2.2-2.7c-0.5-1-0.7-2.2-0.7-3.7c0-2.5,1-4.4,2.9-5.8
		s4.7-2.1,8.2-2.1c3.4,0,6.7,0.7,9.9,2.2l-2.3,5.5c-1.4-0.6-2.7-1.1-3.9-1.5c-1.2-0.4-2.5-0.6-3.7-0.6c-2.3,0-3.4,0.6-3.4,1.8
		c0,0.7,0.4,1.3,1.1,1.8c0.7,0.5,2.3,1.3,4.8,2.2c2.2,0.9,3.8,1.7,4.8,2.5c1,0.8,1.8,1.7,2.3,2.7
		C303.1,493.6,303.4,494.8,303.4,496.2z"/>
	<path class="st2" d="M320.7,499c1.3,0,2.9-0.3,4.8-0.9v5.7c-1.9,0.9-4.3,1.3-7,1.3c-3.1,0-5.3-0.8-6.7-2.3s-2.1-3.9-2.1-7v-13.6
		H306V479l4.2-2.6l2.2-5.9h4.9v6h7.9v5.8h-7.9v13.6c0,1.1,0.3,1.9,0.9,2.4S319.6,499,320.7,499z"/>
</g>
<circle class="st0" cx="605.1" cy="452.2" r="86.8"/>
<g>
	<path class="st2" d="M605.7,506.6c-90,2-93.5-111.1,5.1-106.9c1.7,0.1,3,1.5,2.9,3.2l-1.5,31l-13.5,18.3l10.9,32.7l-0.9,18.7
		C608.6,505.3,607.3,506.6,605.7,506.6z"/>
	<path class="st1" d="M591.4,439.9c0,1.8-0.6,3.5-1.6,4.8c0,0-3.1-2-5.1-2c-2.2,0-5.5,1.5-5.5,1.5c-0.8-1.2-1.3-2.7-1.3-4.3
		c0-4.1,3-7.3,6.7-7.3C588.4,432.6,591.4,435.9,591.4,439.9z"/>
	<path class="st1" d="M638.5,439.9c0,1.8-0.6,3.5-1.6,4.8c0,0-3.1-2-5.1-2c-2.2,0-5.5,1.5-5.5,1.5c-0.8-1.2-1.3-2.7-1.3-4.3
		c0-4.1,3-7.3,6.7-7.3C635.5,432.6,638.5,435.9,638.5,439.9z"/>
	<path class="st1" d="M653.8,485.9c-0.8-1.2-2.4-1.5-3.6-0.7c-0.5,0.4-1.1,0.8-1.7,1.2c-8,5.6-18,12.6-26.9,7.1
		c-9.2-5.7-13.4-18-16.3-29.2c-0.6-2.4-1.1-4.8-1.5-7.2c-0.3-1.4-0.5-2.8-0.8-4.1c0-0.1,0-0.4,0-0.6c0-0.1,0-0.2,0-0.3
		c0.1-0.1,0.1-0.1,0.2-0.2c0.2-0.2,0.4-0.4,0.5-0.6l33.8-45.5c0.6-0.8,0.7-1.7,0.3-2.5c-0.4-0.9-1.3-1.5-2.3-1.6
		c-1-0.1-2,0.3-2.6,1.1l-15.5,20.9c-2.1,2.8-4.2,5.6-6.4,8.3c-4.3,5.5-8.7,11.2-12.5,17.1c-1.2,1.9-1.2,2.9-0.8,4.9
		c0.7,4.4,1.6,8.9,2.9,13.3c2.9,10.6,7.5,23.6,17.6,30.4c3.5,2.3,7,3.3,10.4,3.3c8.5,0,16.7-5.7,23.7-10.5l0.8-0.6
		C654.4,488.9,654.7,487.2,653.8,485.9z"/>
	<path class="st1" d="M666.1,423.8c-0.6,10.4-15.6,10.4-16.2,0c-0.2-3.1-5.1-3.2-4.9,0c0.4,7,5.7,13,13,13c7.3,0,12.6-6,13-13
		C671.2,420.6,666.3,420.6,666.1,423.8L666.1,423.8z"/>
</g>
</svg>
