<?xml version="1.0" encoding="utf-8"?>
<!-- Generator: Adobe Illustrator 18.1.1, SVG Export Plug-In . SVG Version: 6.00 Build 0)  -->
<svg version="1.1" id="Layer_1" xmlns="http://www.w3.org/2000/svg" xmlns:xlink="http://www.w3.org/1999/xlink" x="0px" y="0px"
	 viewBox="21.3 88.9 225.7 62.6" enable-background="new 21.3 88.9 225.7 62.6" xml:space="preserve">
<g>
	<polygon fill="#7A5D46" points="132.7,116.9 134.9,122.3 140.6,122.7 136.2,126.4 137.6,132.1 132.7,129 127.7,132.1 129.1,126.4 
		124.7,122.7 130.5,122.3 	"/>
</g>
<g>
	<path fill="#7A5D46" d="M66.8,147.8v3.5h-1.8v-8.7h7v1.5h-5.2v2.3H71v1.4H66.8z"/>
	<path fill="#7A5D46" d="M78.5,151.3l-0.8-1.9h-3.7l-0.7,1.9h-1.9l3.5-8.7h1.9l3.5,8.7H78.5z M75.9,144.5l-1.3,3.4h2.6L75.9,144.5z"
		/>
	<path fill="#7A5D46" d="M88.4,151.3v-4.9l-2.2,4.9h-1.1l-2.2-4.9v4.9h-1.8v-8.7h1.6l2.9,6.1l2.9-6.1h1.6v8.7H88.4z"/>
	<path fill="#7A5D46" d="M92,151.3v-8.7h1.8v8.7H92z"/>
	<path fill="#7A5D46" d="M95.6,151.3v-8.7h1.8v7.2h4.9v1.5L95.6,151.3L95.6,151.3z"/>
	<path fill="#7A5D46" d="M104.4,151.3v-3.2l-3.7-5.5h2.1l2.5,3.8l2.5-3.8h2.1l-3.7,5.5v3.2L104.4,151.3L104.4,151.3z"/>
	<path fill="#7A5D46" d="M122.2,150.9c0,0-0.6,0.5-1.6,0.5c-1.2,0-1.6-0.4-2.1-1.4l-0.8-1.7c-0.1,0-0.3,0-0.4,0h-1.5v2.9H114v-8.7
		h3.5c2.3,0,3.5,1,3.5,2.9c0,1.2-0.5,2.1-1.6,2.5l0.8,1.5c0.2,0.4,0.4,0.5,0.8,0.5c0.4,0,0.8-0.2,0.8-0.2L122.2,150.9z M117.3,146.8
		c1.3,0,1.9-0.5,1.9-1.4c0-0.9-0.5-1.3-1.6-1.3h-1.9v2.8L117.3,146.8L117.3,146.8z"/>
	<path fill="#7A5D46" d="M123,151.3v-8.7h7v1.5h-5.2v2.1h4.2v1.4h-4.2v2.1h5.2v1.5L123,151.3L123,151.3z"/>
	<path fill="#7A5D46" d="M137.9,144.8c0,0-1.1-0.8-3.1-0.8c-1.3,0-1.9,0.4-1.9,1c0,0.7,0.9,1,2.1,1.2c2.4,0.4,3.6,1,3.6,2.7
		c0,1.5-1.3,2.6-3.8,2.6c-2.9,0-4-1.3-4-1.3l0.8-1.4c0,0,1.1,1.1,3.2,1.1c1.2,0,1.9-0.4,1.9-1c0-0.6-0.4-0.8-2-1.1
		c-2-0.3-3.6-0.8-3.6-2.7c0-1.4,1.2-2.7,3.7-2.7c2.3,0,3.7,0.9,3.7,0.9L137.9,144.8z"/>
	<path fill="#7A5D46" d="M142.7,151.3v-7.2h-3.4v-1.5h8.7v1.5h-3.5v7.2L142.7,151.3L142.7,151.3z"/>
	<path fill="#7A5D46" d="M153.9,151.3l-0.8-1.9h-3.7l-0.7,1.9h-1.9l3.5-8.7h1.9l3.5,8.7H153.9z M151.3,144.5l-1.3,3.4h2.6
		L151.3,144.5z"/>
	<path fill="#7A5D46" d="M162,142.5h1.8v5c0,2.8-1.2,3.9-3.8,3.9c-2.6,0-3.8-1-3.8-3.9v-5h1.8v5.1c0,1.6,0.6,2.3,2.1,2.3
		c1.5,0,2.1-0.6,2.1-2.3L162,142.5L162,142.5z"/>
	<path fill="#7A5D46" d="M173.8,150.9c0,0-0.6,0.5-1.6,0.5c-1.2,0-1.6-0.4-2.1-1.4l-0.8-1.7c-0.1,0-0.3,0-0.4,0h-1.5v2.9h-1.8v-8.7
		h3.5c2.3,0,3.5,1,3.5,2.9c0,1.2-0.5,2.1-1.6,2.5l0.8,1.5c0.2,0.4,0.4,0.5,0.8,0.5c0.4,0,0.8-0.2,0.8-0.2L173.8,150.9z M168.9,146.8
		c1.3,0,1.9-0.5,1.9-1.4c0-0.9-0.5-1.3-1.6-1.3h-1.9v2.8L168.9,146.8L168.9,146.8z"/>
	<path fill="#7A5D46" d="M181.2,151.3l-0.8-1.9h-3.7l-0.7,1.9h-1.9l3.5-8.7h1.9l3.5,8.7H181.2z M178.6,144.5l-1.3,3.4h2.6
		L178.6,144.5z"/>
	<path fill="#7A5D46" d="M190.2,151.3l-4.5-5.6v5.6h-1.8v-8.7h1.4l4.5,5.8v-5.8h1.8v8.7H190.2z"/>
	<path fill="#7A5D46" d="M196,151.3v-7.2h-3.4v-1.5h8.7v1.5h-3.5v7.2L196,151.3L196,151.3z"/>
</g>
<g>
	<path d="M133.9,54.1"/>
</g>
<g>
	<path fill="#7A5D46" d="M150.1,92.8c-0.3-0.1-0.6-0.2-1.1-0.2c-0.1,0-0.2,0-0.2,0c-0.4,0-1.5,0.1-1.5,0.9c0,0.5,0.5,0.8,1.5,1.3
		c0.3-0.4,0.8-0.8,1.5-0.9c-0.1-0.3-0.2-0.7-0.1-1C150.1,92.8,150.1,92.8,150.1,92.8z"/>
	<path fill="#7A5D46" d="M169.9,97.2c-0.2-0.2-0.2-0.5-0.2-0.8l0.2-1.5c-0.4,0-0.8-0.1-1.2-0.2l-0.5,3.6l-0.7,5.7
		c0.4,0,0.7,0.1,1.1,0.2c0.2,0,0.3,0.1,0.4,0.2C169.4,102,169.7,99.6,169.9,97.2C170,97.3,170,97.3,169.9,97.2z"/>
	<path fill="#7A5D46" d="M148,99.8c-0.2-0.1-0.3-0.1-0.4-0.2c0.7,0.4,1.5,0.8,2.4,1.2C149.6,100.5,149,100.2,148,99.8
		C148,99.8,148,99.8,148,99.8z"/>
	<path fill="#7A5D46" d="M148.7,106.1c0.6,0,1.2-0.1,1.7-0.2c-1-0.1-2-0.4-2.5-0.8c0.2-0.3,0.3-0.6,0.3-1c0-0.2,0-0.3-0.1-0.5
		c-1-0.1-1.9-0.4-2.5-0.8c0.1-0.1,0.1-0.2,0.2-0.3c-0.7,0.2-1.2,0.9-1.2,1.8c0,0.3,0,0.6,0.2,0.9c1,0.5,2.1,0.8,3.4,0.9
		C148.3,106.1,148.5,106.1,148.7,106.1z"/>
	<path fill="#7A5D46" d="M149.3,91.6c1,0.1,1.6,0.3,2.1,0.6c-0.1,0.2-0.2,0.4-0.2,0.8c0,0.3,0,0.6,0.2,0.9h0
		c1.1,0.1,1.8,0.3,2.3,0.7c0,0.1-0.1,0.2-0.1,0.2c0.7-0.2,1.3-0.7,1.3-1.6c0-0.3,0-0.6-0.1-0.9c-0.9-0.4-2-0.7-3.2-0.8
		C150.8,91.3,150,91.4,149.3,91.6z"/>
	<path fill="#7A5D46" d="M173.6,97c0.2-1,0.3-2,0.5-3.1c-4.2-0.6-8.5-1.1-12.8-1.5c-0.1,1-0.2,2-0.3,3c0.1,0,0.2,0,0.3,0
		c0.1-0.9,0.2-1.7,0.3-2.6c1.1,0.1,2.2,0.2,3.2,0.4c-0.1,0.7-0.2,1.3-0.2,2c0.8,0.1,1.7,0.2,2.5,0.3c-0.5,3.8-0.9,7.6-1.3,11.4
		c-0.7-0.1-1.4-0.2-2.1-0.2c0,0.2,0,0.3-0.1,0.5c1.5,0.2,3,0.4,4.5,0.6c0.1-0.8,0.2-1.7,0.3-2.5c-0.7-0.1-1.4-0.2-2.1-0.3
		c0.5-3.8,1-7.6,1.5-11.4c1.1,0.1,2.2,0.3,3.2,0.4c-0.1,0.7-0.2,1.3-0.3,1.9c0.8,0.1,1.7,0.2,2.6,0.3c0,0.2-0.1,0.4-0.1,0.7
		C173.4,97,173.5,97,173.6,97z"/>
	<path fill="#7A5D46" d="M118,94.3c0.2,0,0.5,0,0.7,0c0-0.9-0.1-1.7-0.1-2.6c1.1,0,2.2-0.1,3.3-0.1c0,0.8,0.1,1.6,0.1,2.4
		c0.7,0,1.5-0.1,2.2-0.1c0.1,3.8,0.3,7.6,0.4,11.4c-0.7,0-1.4,0-2.1,0.1c0,0,0,0.1,0,0.2c1.6-0.1,3.2-0.1,4.9-0.1c0-0.8,0-1.7,0-2.5
		c-0.7,0-1.4,0-2.1,0c-0.1-3.8-0.2-7.6-0.3-11.4c1.1,0,2.2,0,3.3-0.1c0,0.8,0,1.6,0,2.3c0.8,0,1.5,0,2.3,0c0,0.1,0,0.2,0,0.3
		c0.2,0,0.4,0,0.6,0c0-0.9,0-1.8,0-2.7c-4.4,0-8.8,0.2-13.2,0.5C117.9,92.5,117.9,93.4,118,94.3z"/>
	<path fill="#7A5D46" d="M148.5,95.8c-1.3-0.6-2.3-1.2-2.3-2.3c-0.5,0.7-0.7,1.4-0.8,2.3c0,0.7,0.1,1.3,0.3,1.9
		c0.8,0.4,1.7,0.8,2.6,1.2c1.6,0.6,2.9,1.4,3,2.6c1.3,0.6,2.3,1.2,2.3,2.3c0.3-0.6,0.6-1.3,0.7-2.1c0.1-0.8,0-1.5-0.3-2.1
		c-0.7-0.4-1.6-0.8-2.5-1.1C150,97.7,148.5,97.1,148.5,95.8z"/>
	<path fill="#7A5D46" d="M162.5,94.2l-0.1,1.3c-0.1,0.5-0.5,0.9-1,0.9c0,0-0.1,0-0.1,0c-0.1,0-0.2,0-0.3,0c0,0.3-0.1,0.7-0.1,1
		c0.8,0.1,1.7,0.2,2.5,0.3l0.4-3.2l0-0.3c-0.4,0-0.8-0.1-1.2-0.1L162.5,94.2z"/>
	<path fill="#7A5D46" d="M91.5,100.7c0,0.1-0.1,0.2-0.2,0.3c-1.6-1.9-3.2-3.9-4.8-5.8c-1.4,0.2-2.8,0.5-4.1,0.7
		c0.1,0.8,0.2,1.7,0.3,2.5c0.7-0.1,1.3-0.2,1.9-0.3c0.5,3.7,1,7.4,1.5,11.2c0.9-0.2,1.9-0.3,2.8-0.5c-0.1-0.8-0.2-1.7-0.3-2.5
		c-0.7,0.1-1.3,0.2-1.9,0.3c-0.4-2.8-0.7-5.6-1.1-8.4c0.8,0.9,1.6,1.8,2.3,2.8c0-0.2,0-0.3-0.1-0.5c1.4,1.7,2.9,3.3,4.2,5h0
		c0.3-0.9,0.7-1.8,1.1-2.6C92.7,102.1,92.1,101.4,91.5,100.7z"/>
	<path fill="#7A5D46" d="M87.6,105.4c0.3,0,0.6-0.1,0.9-0.2c-0.1-0.8-0.2-1.6-0.3-2.4c-0.4-0.5-0.7-0.9-1.1-1.3
		C87.3,102.8,87.5,104.1,87.6,105.4z"/>
	<path fill="#7A5D46" d="M71.7,109.6C71.7,109.6,71.7,109.7,71.7,109.6C71.7,109.6,71.7,109.6,71.7,109.6
		C71.7,109.6,71.7,109.6,71.7,109.6z"/>
	<path fill="#7A5D46" d="M127.1,92.4c-0.4,0-0.8,0-1.2,0l0.2,9.4c0.4,0,0.7,0,1.1,0h0c0,0,0.1,0,0.1,0c-0.1-2.5-0.1-5.1-0.2-7.6
		c0-0.1,0-0.2,0-0.2L127.1,92.4z"/>
	<path fill="#7A5D46" d="M78.1,108.2c-0.5,0.1-1.1,0.2-1.6,0.3c-0.9-3.6-1.9-7.2-2.8-10.8c-0.3,0.1-0.6,0.1-0.9,0.2
		c-0.4,1.2-0.8,2.4-1.2,3.6c0.4,1.5,0.8,3,1.2,4.6c0.3-0.9,0.6-1.9,0.9-2.8c0.7,2.7,1.4,5.3,2.1,8c1-0.2,1.9-0.4,2.9-0.6
		C78.5,109.8,78.3,109,78.1,108.2z"/>
	<path fill="#7A5D46" d="M113.2,92c0,0.3-0.1,0.5-0.3,0.8c-0.2,0.2-0.4,0.3-0.7,0.3c-0.4,0-0.7,0-1.1,0.1l0.7,9.3c0.3,0,0.7,0,1-0.1
		h0c-0.2-2.6-0.4-5.2-0.6-7.9c0.7-0.1,1.4-0.1,2.1-0.2c-0.1-0.8-0.1-1.7-0.2-2.5C113.8,91.9,113.5,92,113.2,92L113.2,92z"/>
	<path fill="#7A5D46" d="M95.4,105.3c0,0.1,0,0.2,0,0.3c0-0.1,0.1-0.2,0.1-0.3C95.5,105.3,95.4,105.3,95.4,105.3z"/>
	<path fill="#7A5D46" d="M100.3,104.7c-0.6-3.7-1.3-7.5-1.9-11.2c-0.2,0-0.4,0-0.6,0.1c-0.6,1.3-1.1,2.6-1.7,3.9
		c0.3,1.6,0.5,3.1,0.8,4.7c0.5-1,0.9-2.1,1.4-3.1c0.5,2.8,1,5.5,1.4,8.3c1-0.1,1.9-0.2,2.9-0.3c0,0,0-0.1,0-0.2
		c-0.1-0.8-0.3-1.6-0.4-2.3C101.5,104.5,100.9,104.6,100.3,104.7z"/>
	<path fill="#7A5D46" d="M221.7,107.1c-1-0.3-2-0.7-3-1l-0.7,2.2c0.6,0.2,1.2,0.4,1.7,0.6c0.2-0.6,0.4-1.2,0.6-1.8
		c0.4,0.1,0.9,0.3,1.3,0.4L221.7,107.1L221.7,107.1z"/>
	<path fill="#7A5D46" d="M232.8,114.2l1.1-2.7c-0.4-0.2-0.8-0.3-1.1-0.5l-0.4,1l-0.2,0.4c-0.1,0.3-0.3,0.5-0.5,0.6
		c-0.1,0.1-0.3,0.1-0.4,0.1c-0.1,0-0.2,0-0.3,0c0,0.1-0.1,0.2-0.1,0.3C231.4,113.6,232.1,113.9,232.8,114.2z"/>
	<path fill="#7A5D46" d="M67.3,105.7C67.3,105.7,67.3,105.7,67.3,105.7c-1-1-2.1-2.1-3.1-3.1c-0.7-0.7-1.4-1.4-2.1-2.1
		c-1.4,0.4-2.8,0.7-4.1,1.1c0.2,0.8,0.4,1.6,0.5,2.5c0.6-0.2,1.1-0.3,1.7-0.5c0.8,3.6,1.6,7.2,2.4,10.8c0.9-0.3,1.9-0.5,2.8-0.7
		c-0.2-0.8-0.4-1.6-0.5-2.5c-0.6,0.2-1.1,0.3-1.7,0.4c-0.6-2.8-1.2-5.5-1.8-8.3c1.9,1.8,3.7,3.6,5.5,5.4c0.5,0.5,0.9,0.9,1.4,1.4
		c0.1,0,0.2-0.1,0.4-0.1c0.2-0.8,0.5-1.6,0.8-2.4C68.6,107,68,106.4,67.3,105.7z"/>
	<path fill="#7A5D46" d="M227.5,111.4c-0.1-0.2-0.1-0.4,0-0.7l1.3-3.4c-0.5-0.2-1.1-0.4-1.6-0.6l-0.5,1.4l-0.6,1.7
		c-0.1,0.3-0.3,0.5-0.5,0.6c-0.2,0.1-0.3,0.1-0.5,0.1c-0.1,0-0.2,0-0.3-0.1l0,0c0,0.1-0.1,0.2-0.1,0.3c0.9,0.3,1.8,0.6,2.8,1
		C227.3,111.7,227.4,111.5,227.5,111.4z"/>
	<path fill="#7A5D46" d="M235.7,123.5c-0.7-0.3-1.3-0.5-2-0.8c-0.2,0.4-0.3,0.8-0.5,1.2c-0.7-0.3-1.3-0.5-2-0.8
		c-0.2,0.4-0.3,0.8-0.4,1.1c1.3,0.5,2.6,1,3.9,1.6C235.1,125,235.4,124.2,235.7,123.5z"/>
	<path fill="#7A5D46" d="M222.2,112.3l-0.3,0.9c-0.1,0.3-0.3,0.5-0.5,0.6c-0.2,0.1-0.3,0.1-0.5,0.1c-0.1,0-0.2,0-0.3-0.1
		c-1.3-0.5-2.7-0.9-4-1.3l-0.8,2.4c0.6,0.2,1.2,0.4,1.7,0.6c0.2-0.7,0.4-1.4,0.6-2c0.7,0.2,1.3,0.4,1.9,0.6c0.1,0,0.2,0,0.3,0
		c0.9,0.3,1.8,0.6,2.7,0.9c0,0,0,0,0,0c0,0,0.1,0,0.1,0c0.3-0.8,0.5-1.5,0.8-2.3C223.4,112.8,222.8,112.6,222.2,112.3z"/>
	<path fill="#7A5D46" d="M221.5,119.5c-1.6-0.5-3.2-1.1-4.7-1.6c0.2-0.5,0.3-0.9,0.5-1.4c-0.9-0.3-1.8-0.6-2.7-0.9
		c0.5-1.5,1-2.9,1.4-4.4c1.7,0.5,3.3,1.1,5,1.7c0.1-0.3,0.2-0.6,0.3-0.9c-0.8-0.3-1.5-0.5-2.3-0.8c0.2-0.5,0.3-0.9,0.5-1.4
		c-0.9-0.3-1.8-0.6-2.7-0.9c0.5-1.4,0.9-2.8,1.3-4.2c1.7,0.5,3.4,1.1,5,1.7c-0.2,0.5-0.3,0.9-0.5,1.4c0.9,0.3,1.8,0.6,2.8,0.9
		c-0.1,0.2-0.2,0.5-0.3,0.7c0,0,0,0,0,0c0.4-1,0.7-2.1,1.1-3.1c-3.3-1.1-6.7-2.2-10-3.2c-0.2,0.8-0.5,1.6-0.7,2.4
		c0.6,0.2,1.3,0.4,1.9,0.6c-1.1,3.6-2.2,7.2-3.4,10.9c-0.6-0.2-1.2-0.4-1.9-0.6c-0.1,0.3-0.2,0.7-0.3,1c3.1,1,6.2,2,9.3,3.1
		C221.3,120.2,221.4,119.9,221.5,119.5z"/>
	<path fill="#7A5D46" d="M239.2,115.3l0.6-1.4c-0.4-0.2-0.8-0.3-1.1-0.5l-3.5,8.7c0.3,0.2,0.7,0.3,1,0.4c0.3,0.1,0.5,0.3,0.6,0.6
		c0,0,0,0.1,0,0.1c0.9-2.2,1.8-4.5,2.7-6.7C239.1,116.2,239,115.7,239.2,115.3z"/>
	<path fill="#7A5D46" d="M232.5,108.7c-0.1,0.3-0.3,0.7-0.4,1c1,0.4,2.1,0.8,3.1,1.2c-0.2,0.4-0.3,0.8-0.5,1.2
		c0.9,0.3,1.8,0.7,2.8,1.1c-1.2,3.1-2.4,6.1-3.6,9.2c1.4-3.4,2.8-6.9,4.2-10.3c1,0.4,2.1,0.8,3.1,1.3c-0.2,0.4-0.3,0.8-0.5,1.1
		c0.9,0.4,1.8,0.7,2.7,1.1c0.3-0.7,0.7-1.5,1-2.2C240.4,111.7,236.4,110.1,232.5,108.7z"/>
	<path fill="#7A5D46" d="M209.8,102.2l-0.6,2.2c-0.1,0.5-0.5,0.8-1,0.8c-0.1,0-0.2,0-0.3,0c0,0,0,0-0.1,0c0,0.2-0.1,0.3-0.2,0.5
		c0.9,0.3,1.9,0.5,2.8,0.8c0.4-1.5,0.8-3,1.3-4.5c-0.6-0.2-1.1-0.3-1.7-0.5L209.8,102.2z"/>
	<path fill="#7A5D46" d="M191.6,100.3c-0.4,2-1.8,3.5-3.8,4.2c0.4,1.1,0.8,2.2,1.1,3.3c0.2,0,0.3,0.1,0.5,0.1
		c-0.2-0.6-0.4-1.2-0.6-1.8c2-0.3,3.7-1.6,4.1-3.7c0.4-1.6-0.1-3-1.2-4.1C191.8,98.9,191.8,99.6,191.6,100.3z"/>
	<path fill="#7A5D46" d="M190,109.5c-0.1-0.2-0.1-0.3-0.2-0.5c-0.5-0.1-1.1-0.2-1.6-0.3c-0.5-1.6-1.1-3.2-1.6-4.8
		c-0.3,0-0.7,0-1-0.1c-0.9-0.2-1.3-0.3-1.6-0.3c0.1-0.6,0.2-1.2,0.3-1.8c-0.3,0-0.6,0-1-0.1c-0.9-0.2-1.3-0.3-1.6-0.3
		c0.3-1.7,0.6-3.4,1-5.2c0.5,0.1,1.1,0.2,1.6,0.3c2.1,0.4,3.4,1.3,3.4,2.6c1.7,0.6,2.5,1.6,2.2,2.9v0c0.4-0.5,0.6-1.1,0.8-1.8
		c0.2-1.1,0.1-2-0.3-2.8c-0.9-0.5-2-0.9-3.3-1.1c-2.3-0.4-4.6-0.8-6.8-1.2c-0.1,0.8-0.3,1.6-0.4,2.5c0.7,0.1,1.3,0.2,2,0.3
		c-0.7,3.7-1.3,7.5-1.9,11.2c-0.6-0.1-1.3-0.2-1.9-0.3c0,0.2-0.1,0.4-0.1,0.7c1.4,0.2,2.8,0.5,4.2,0.8c0.2-0.8,0.3-1.6,0.5-2.5
		c-0.7-0.1-1.4-0.3-2.1-0.4c0.2-1.2,0.4-2.4,0.7-3.6c0.3,0.1,0.8,0.2,1.4,0.3c0.3,0.1,0.7,0.1,1,0.2c0.2,0.7,0.4,1.3,0.7,2
		c0.2,0,0.4,0.1,0.6,0.1c0.3,0.1,0.7,0.1,1,0.2c0.5,1.6,1,3.2,1.5,4.9c0.7,0.2,1.4,0.3,2.1,0.5C189.7,110.8,189.8,110.2,190,109.5z"
		/>
	<path fill="#7A5D46" d="M182.8,104.9c-0.2,0-0.3,0-0.5-0.1l-0.1,0c-0.1,0-0.2,0-0.3,0l-0.3,1.6c0.4,0.1,0.7,0.1,1.1,0.2
		c0.2,0,0.4,0.1,0.5,0.2c0-0.1,0-0.2,0-0.3C183.1,105.9,183,105.4,182.8,104.9z"/>
	<path fill="#7A5D46" d="M205.5,107.4l-0.2,0.8c-0.1,0.3-0.2,0.5-0.5,0.6c-0.2,0.1-0.3,0.1-0.5,0.1c-0.1,0-0.2,0-0.3,0
		c-1.3-0.4-2.7-0.7-4.1-1.1l-0.3,1.2l-0.3,1.3c0.6,0.2,1.1,0.3,1.7,0.4c0.2-0.6,0.3-1.3,0.5-1.9c0.6,0.1,1.1,0.3,1.7,0.4
		c0.1-0.1,0.3-0.1,0.4-0.1c0.1,0,0.2,0,0.3,0c0.9,0.2,1.8,0.5,2.7,0.8c0,0,0,0,0,0c0.2-0.7,0.4-1.4,0.6-2.1
		C206.7,107.7,206.1,107.5,205.5,107.4z"/>
	<path fill="#7A5D46" d="M205.9,112.4c0,0.1-0.1,0.3-0.1,0.4C205.8,112.7,205.8,112.6,205.9,112.4L205.9,112.4z"/>
	<path fill="#7A5D46" d="M205.3,114.6c-1.6-0.4-3.3-0.9-4.9-1.3c0.1-0.5,0.3-1.1,0.4-1.6c-0.9-0.2-1.8-0.5-2.7-0.7
		c0.4-1.5,0.8-3,1.1-4.5c1.7,0.4,3.4,0.9,5.1,1.3c0.1-0.3,0.1-0.5,0.2-0.8c-0.8-0.2-1.6-0.4-2.4-0.6c0.1-0.5,0.3-1.1,0.4-1.6
		c-0.9-0.2-1.8-0.5-2.7-0.7c0.4-1.4,0.7-2.8,1.1-4.2c1.7,0.4,3.4,0.9,5.1,1.3c-0.2,0.5-0.3,1-0.4,1.6c0.9,0.2,1.8,0.5,2.7,0.7
		c0,0.2-0.1,0.4-0.2,0.6c0,0,0.1,0,0.1,0c0.3-1,0.6-2,0.8-3c-3.4-0.9-6.8-1.8-10.2-2.6c-0.2,0.8-0.4,1.6-0.6,2.4
		c0.6,0.2,1.3,0.3,2,0.5c-0.9,3.7-1.8,7.4-2.7,11.1c-0.6-0.2-1.3-0.3-1.9-0.5c-0.1,0.3-0.1,0.5-0.2,0.8c3.2,0.8,6.4,1.6,9.6,2.5
		C205.1,115.1,205.2,114.9,205.3,114.6z"/>
	<path fill="#7A5D46" d="M204.7,102c-1-0.3-2-0.5-3.1-0.8l-0.1,0.4l-0.5,1.8c0.6,0.2,1.1,0.3,1.7,0.4c0.1-0.5,0.3-1.1,0.4-1.6
		c0.5,0.1,0.9,0.2,1.4,0.3L204.7,102L204.7,102z"/>
	<path fill="#7A5D46" d="M183.9,97.3c-0.2,0-0.4-0.1-0.6-0.1l-0.3,1.5l-0.3,1.6c0.2,0,0.4,0.1,0.7,0.1c0.3,0.1,0.6,0.1,1,0.1
		c0.2-0.8,0.3-1.6,0.4-2.3c0.5,0.1,1.1,0.2,1.6,0.3h0c0,0,0-0.1-0.1-0.1C186,97.9,185.2,97.5,183.9,97.3z"/>
	<path fill="#7A5D46" d="M30,119.5c-0.3,0-0.6,0-1.1,0c0,0,0,0,0,0c-0.8,0-1.5,0.1-2.2,0.1s-1.3,0-2-0.2c0.3,0.4,0.7,0.7,1.1,0.8
		c0.1,0,0.2,0,0.3,0c0.6,0,1.2,0.2,1.6,0.5c1,0.1,2.1,0,3.3,0c0.2,0,0.5,0,0.7,0c0.1-0.2,0.1-0.4,0-0.7
		C31.7,119.9,31.6,119.5,30,119.5z"/>
	<path fill="#7A5D46" d="M132,91.2v0.2v2.5c0,0.3-0.1,0.5-0.3,0.7s-0.5,0.3-0.7,0.3c-0.2,0-0.4,0-0.6,0c0,0.4,0,0.8,0,1.3
		c1,0,1.9,0,2.8,0c0-1.7,0-3.4,0-5C132.9,91.2,132.4,91.2,132,91.2z"/>
	<path fill="#7A5D46" d="M120.8,93.9C120.9,93.9,120.9,93.9,120.8,93.9v-1.3c-0.4,0-0.8,0-1.2,0l0.1,1.6c0,0.3-0.1,0.5-0.3,0.8
		c-0.2,0.2-0.4,0.3-0.7,0.3c-0.2,0-0.5,0-0.7,0c0,0.5,0,0.9,0.1,1.4c1-0.1,1.9-0.1,2.8-0.2C120.9,95.7,120.9,94.8,120.8,93.9z"/>
	<path fill="#7A5D46" d="M155.9,92.9c0,0.1,0,0.2,0,0.2c-0.1,1.5-1.1,2.5-2.4,2.6c0.2,0.6,0.8,1.2,1.7,1.3c1,0.1,1.8-0.5,1.9-1.7
		C157.3,94.4,156.8,93.6,155.9,92.9z"/>
	<path fill="#7A5D46" d="M155.4,100.5c0,0.4,0,0.8,0,1.2c-0.3,3.3-2.9,5.4-6.7,5.4c-0.2,0-0.4,0-0.7,0c-0.7,0-1.5-0.2-2.1-0.4
		c1.1,0.9,2.7,1.5,4.5,1.6c3.4,0.2,6-1.3,6.3-4.4C156.8,102.4,156.3,101.3,155.4,100.5z"/>
	<path fill="#7A5D46" d="M128.3,105.1v0.2c0,0.3-0.1,0.5-0.3,0.7c-0.2,0.2-0.5,0.3-0.7,0.3c-1.6,0-3.2,0.1-4.9,0.1
		c0,0.5,0,0.9,0.1,1.3c2.4-0.1,4.7-0.2,7.1-0.2c0-0.8,0-1.7,0-2.5C129.1,105.1,128.7,105.1,128.3,105.1z"/>
	<path fill="#7A5D46" d="M94.5,106.6l-0.2-1.2c0-0.3,0-0.5,0.2-0.8c0.2-0.2,0.4-0.4,0.7-0.4c0.3,0,0.5-0.1,0.8-0.1
		c0-0.1,0.1-0.2,0.1-0.3c-0.2-1.2-0.4-2.4-0.6-3.6c-0.8,1.9-1.6,3.7-2.3,5.6c-0.1,0.2-0.2,0.3-0.3,0.4c0.4,0.5,0.8,1,1.3,1.5
		c0.1,0,0.3,0,0.4-0.1c0-0.1,0.1-0.2,0.1-0.3L94.5,106.6z"/>
	<path fill="#7A5D46" d="M114.1,105.8L114.1,105.8c0,0.3-0.1,0.6-0.3,0.8c-0.2,0.2-0.4,0.3-0.7,0.3c-1.6,0.1-3.2,0.2-4.9,0.4
		c0,0.5,0.1,1,0.1,1.5c2.3-0.2,4.6-0.4,6.9-0.6c-0.1-0.8-0.1-1.7-0.2-2.5C114.9,105.8,114.5,105.8,114.1,105.8z"/>
	<path fill="#7A5D46" d="M103.6,106.8c0.1,0.6-0.3,1.1-0.9,1.1c-1.6,0.2-3.2,0.4-4.9,0.6c0.1,0.5,0.1,1,0.2,1.5
		c2.3-0.3,4.6-0.6,6.8-0.8c-0.1-0.8-0.2-1.7-0.3-2.5C104.3,106.7,103.9,106.8,103.6,106.8z"/>
	<path fill="#7A5D46" d="M245.3,113.7l-0.5,1.2l-1,2.3c-0.2,0.4-0.5,0.6-1,0.6c-0.1,0-0.2,0-0.3-0.1c0,0.1,0,0.1-0.1,0.2
		c0.9,0.4,1.8,0.8,2.7,1.1c0.7-1.5,1.3-3.1,2-4.6C246.5,114.2,245.9,114,245.3,113.7z"/>
	<path fill="#7A5D46" d="M235.7,126.2c-0.1,0.3-0.3,0.5-0.6,0.6c-0.1,0-0.3,0.1-0.4,0.1c-0.1,0-0.3,0-0.4-0.1
		c-1.3-0.5-2.6-1.1-3.9-1.6c0,0.1-0.1,0.2-0.1,0.2c2.2,0.9,4.5,1.8,6.7,2.7c0.3-0.8,0.7-1.6,1-2.3c-0.6-0.3-1.2-0.5-1.8-0.7
		L235.7,126.2z"/>
	<path fill="#7A5D46" d="M222.4,120.2l-0.2,0.7c-0.1,0.3-0.3,0.5-0.5,0.6c-0.2,0.1-0.3,0.1-0.5,0.1c-0.1,0-0.2,0-0.3-0.1
		c-3.1-1.1-6.2-2.1-9.3-3.1c0,0.2-0.1,0.3-0.1,0.5c4.1,1.2,8.1,2.5,12.1,3.9c0.5-1.5,1-2.9,1.6-4.4c-0.6-0.2-1.2-0.4-1.8-0.6
		L222.4,120.2z"/>
	<path fill="#7A5D46" d="M90.2,108.7c0,0.2,0,0.5-0.2,0.7c-0.2,0.2-0.4,0.4-0.7,0.4c-1.6,0.3-3.3,0.5-4.9,0.8
		c0.1,0.5,0.2,1.1,0.3,1.6c2.3-0.4,4.5-0.8,6.8-1.2c-0.1-0.8-0.3-1.6-0.4-2.5C90.8,108.6,90.5,108.6,90.2,108.7z"/>
	<path fill="#7A5D46" d="M206.9,112.7l-0.2,0.8l-0.6,2.2c-0.1,0.3-0.3,0.5-0.5,0.6c-0.2,0.1-0.3,0.1-0.5,0.1c-0.1,0-0.2,0-0.3,0
		c-3.1-0.9-6.3-1.7-9.5-2.5c0,0.2-0.1,0.4-0.2,0.6c4.1,1,8.2,2,12.2,3.2c0.4-1.5,0.8-3,1.3-4.5C208,113.1,207.5,112.9,206.9,112.7z"
		/>
	<path fill="#7A5D46" d="M191.8,112l0.2-0.8c-0.4-0.1-0.8-0.2-1.3-0.3l-0.2,0.8c-0.1,0.3-0.2,0.5-0.5,0.7c-0.2,0.1-0.4,0.2-0.6,0.2
		c-0.1,0-0.2,0-0.2,0c-0.5-0.1-1-0.2-1.5-0.3c0.1,0.3,0.2,0.5,0.2,0.8c1.3,0.3,2.5,0.5,3.8,0.8c0.1-0.3,0.1-0.6,0.2-0.9
		C191.8,112.7,191.7,112.4,191.8,112z"/>
	<path fill="#7A5D46" d="M176.5,95.2c0-0.1,0-0.2,0-0.3l0.1-0.6c-0.5-0.1-1-0.2-1.5-0.2l-0.1,0.6l-0.4,2.5c-0.1,0.5-0.5,0.9-1,0.9
		c0,0-0.1,0-0.2,0c-0.1,0-0.2,0-0.3,0c0,0.3-0.1,0.6-0.1,0.9c0.9,0.1,1.9,0.3,2.8,0.4C176.1,97.9,176.3,96.6,176.5,95.2z"/>
	<path fill="#7A5D46" d="M169.2,107.9c-0.1,0.5-0.5,0.9-1,0.9c0,0-0.1,0-0.2,0c-1.5-0.2-3-0.4-4.5-0.6c0,0.3-0.1,0.7-0.1,1
		c2.3,0.3,4.7,0.5,7,0.9c0.1-0.8,0.2-1.7,0.3-2.5c-0.5-0.1-1-0.1-1.5-0.2L169.2,107.9z"/>
	<path fill="#7A5D46" d="M184.3,109.7c-0.4-0.1-0.7-0.1-1.1-0.2l-0.1,0.7c0,0.3-0.2,0.5-0.4,0.7c-0.2,0.1-0.4,0.2-0.6,0.2
		c-0.1,0-0.1,0-0.2,0c-1.4-0.3-2.8-0.5-4.2-0.8c0,0.3-0.1,0.5-0.1,0.8c2.3,0.4,4.6,0.8,6.8,1.2c0.1-0.5,0.2-1,0.3-1.5
		C184.5,110.5,184.4,110.1,184.3,109.7z"/>
	<path fill="#7A5D46" d="M100.7,94.2c-0.4,0-0.7,0.1-1.1,0.1c0.5,3.1,1,6.1,1.6,9.2c0.3,0,0.5-0.1,0.8-0.1c-0.4-2.6-0.9-5.1-1.3-7.7
		c0.7-0.1,1.5-0.2,2.2-0.3c-0.1-0.8-0.2-1.7-0.3-2.5c-0.3,0-0.7,0.1-1,0.1C101.7,93.6,101.3,94.1,100.7,94.2z"/>
	<path fill="#7A5D46" d="M31.6,113.8c-0.2,0.1-0.4,0.1-0.6,0.2c0,0.1,0,0.2,0.1,0.3c0,0.1,0.1,0.2,0.2,0.3c0.8,0,1.6,0.2,2.3,0.5
		c0.9-0.4,1.3-1.3,1-2.3c-0.2-0.5-0.6-1-1.1-1.3C33.3,112.5,32.7,113.4,31.6,113.8z"/>
	<path fill="#7A5D46" d="M30.8,118c-1.9,0.1-3.5,0.1-4-1.1c-0.2-0.4-0.2-0.8-0.1-1.1c-1-0.1-1.9-0.3-2.2-1.1c0-0.1-0.1-0.2-0.1-0.3
		c-0.8,1.3-1,2.7-0.4,4c0.8,0.3,1.7,0.4,2.7,0.4c0.7,0,1.4,0,2.1-0.1c0.4,0,0.8,0,1.1,0c1.3,0,2.4,0.3,2.8,1.2
		c0.2,0.4,0.2,0.7,0.1,1.1c1,0.1,1.8,0.4,2.2,1.2c0,0.1,0.1,0.3,0.1,0.4c0.7-1.2,0.8-2.5,0.3-4c0,0,0-0.1-0.1-0.1
		C34.2,117.8,32.6,117.8,30.8,118z"/>
	<path fill="#7A5D46" d="M27.2,114.7c0,0,0.1,0,0.2,0c0.3-0.3,0.7-0.6,1.3-0.8c0.2-0.1,0.3-0.1,0.5-0.2c-0.6-0.3-1-0.8-1.3-1.4
		c0,0,0-0.1,0-0.1c-0.3,0-0.6,0.2-1.1,0.3c-0.6,0.3-1.1,0.6-1.3,1c-0.1,0.2-0.1,0.4,0,0.6C25.5,114.3,25.7,114.7,27.2,114.7z"/>
	<path fill="#7A5D46" d="M48.1,119.1c-1.2-0.1-2.2-0.9-2.8-2.4c-1.1-0.3-1.9-1.2-2.4-2.6c-0.8-2.3-1.6-4.6-2.4-7
		c-1,0.3-1.9,0.7-2.9,1c0.3,0.8,0.6,1.6,0.8,2.4c0.4-0.2,0.9-0.3,1.3-0.5c0.9,2.5,1.8,5,2.7,7.5c0.2,0.5,0.4,1,0.7,1.4
		c0.8,0.4,1.6,0.6,2.6,0.6C46.4,119.5,47.3,119.4,48.1,119.1z"/>
	<path fill="#7A5D46" d="M80,110.6c0,0.5-0.3,1-0.8,1c-1.7,0.3-3.4,0.7-5.1,1.1c0.1,0.5,0.3,1.1,0.4,1.6c2.3-0.5,4.5-1,6.8-1.5
		c-0.2-0.8-0.3-1.6-0.5-2.5C80.5,110.5,80.3,110.5,80,110.6z"/>
	<path fill="#7A5D46" d="M112.9,103.5c-0.7,0-1.4,0.1-2.1,0.2c-0.3-3.8-0.6-7.6-0.9-11.3c0.7-0.1,1.4-0.1,2.1-0.2c0,0,0,0,0-0.1
		c-1.8,0.1-3.5,0.3-5.3,0.5v0c0,0,0.1,0,0.1,0c0.1,0.8,0.2,1.6,0.2,2.5c0.7-0.1,1.4-0.1,2.1-0.2c0.3,3.8,0.7,7.5,1,11.3
		c-0.7,0.1-1.4,0.1-2.1,0.2c0,0,0,0,0,0c1.6-0.2,3.3-0.3,4.9-0.4C113.1,105.1,113,104.3,112.9,103.5z"/>
	<path fill="#7A5D46" d="M63.9,110.4c0.2-0.1,0.5-0.1,0.7-0.2c-0.2-0.9-0.4-1.8-0.6-2.7c-0.3-0.3-0.6-0.6-0.9-0.9
		C63.4,107.9,63.7,109.2,63.9,110.4z"/>
	<path fill="#7A5D46" d="M76,98.1c-0.4,0.1-0.7,0.2-1.1,0.2c0.8,3,1.6,6,2.4,9c0.2,0,0.4-0.1,0.6-0.1c-0.6-2.5-1.3-4.9-1.9-7.4
		c0.7-0.2,1.5-0.3,2.2-0.5c-0.2-0.8-0.3-1.6-0.5-2.5c-0.2,0-0.5,0.1-0.7,0.2C76.8,97.6,76.5,98,76,98.1z"/>
	<path fill="#7A5D46" d="M42.7,107.1c-0.3,0.1-0.7,0.2-1,0.3l1,2.9l1.2,3.4c0.2,0.7,0.5,1.2,0.9,1.6c-0.7-2.1-1.4-4.2-2.2-6.3
		c0.7-0.2,1.4-0.5,2-0.7c-0.3-0.8-0.5-1.6-0.8-2.4c-0.2,0-0.3,0.1-0.5,0.2C43.4,106.5,43.2,106.9,42.7,107.1z"/>
	<path fill="#7A5D46" d="M28.7,111.3c0,0.2,0,0.4,0.1,0.7c0.2,0.6,0.8,1,1.6,1c0.3,0,0.5,0,0.8-0.2c0.8-0.3,1.2-0.9,1.2-1.7
		C31.4,110.8,30.1,110.9,28.7,111.3z"/>
	<path fill="#7A5D46" d="M52.5,105.9c0.6-0.2,1.2-0.4,1.9-0.6c-0.2-0.8-0.5-1.6-0.7-2.4c-0.2,0-0.3,0.1-0.5,0.2c0,0.4-0.3,0.8-0.7,1
		c-0.3,0.1-0.6,0.2-0.9,0.3l1,3.3l1,3.2c1.3,4.4-0.5,7.8-4.9,9.3c-1,0.3-2,0.5-3,0.5c-0.5,0-1,0-1.4-0.2c1.6,1.5,3.9,1.7,6.3,0.9
		c3.5-1.2,5.4-3.9,4.2-8C54,110.9,53.3,108.4,52.5,105.9z"/>
	<path fill="#7A5D46" d="M70.8,110.7l-0.2-0.8c-0.1-0.6,0.2-1.1,0.8-1.2c0.2,0,0.4-0.1,0.6-0.2c0.1-0.2,0.1-0.4,0.2-0.6
		c-0.3-1.1-0.6-2.2-0.9-3.3c-0.6,1.9-1.3,3.9-1.8,5.8c-0.1,0.3-0.3,0.5-0.5,0.6c0.5,0.5,1,1,1.4,1.5c0.1,0,0.3-0.1,0.4-0.1
		c0.1-0.3,0.2-0.5,0.2-0.8L70.8,110.7z"/>
	<path fill="#7A5D46" d="M66.8,113.6c0,0.5-0.3,0.9-0.8,1c-1.7,0.4-3.4,0.9-5.1,1.4c0.2,0.6,0.3,1.1,0.5,1.7
		c2.2-0.6,4.4-1.2,6.7-1.8c-0.2-0.8-0.4-1.6-0.6-2.4C67.2,113.5,67,113.6,66.8,113.6z"/>
	<path fill="#7A5D46" d="M30.3,125.6c0,0-0.1,0-0.1,0c0-0.3,0-0.7-0.2-1c-0.3-0.7-1.3-1.2-2.4-0.8c-0.8,0.3-1.2,1-1.1,1.8
		c0.5,0.2,1.1,0.2,1.7,0.2C28.9,125.9,29.6,125.8,30.3,125.6z"/>
	<path fill="#7A5D46" d="M36.7,119.1c0.6,2.9-1.2,5.6-4.7,7c-1.2,0.5-2.5,0.8-3.7,0.8c-0.4,0-0.8,0-1.2-0.1c1.1,1.5,4,1.8,6.9,0.7
		c3.2-1.3,5-3.9,3.9-6.8C37.5,120,37.2,119.5,36.7,119.1z"/>
	<path fill="#7A5D46" d="M52.5,111.1c-0.7-2.4-1.5-4.8-2.2-7.2c-1,0.3-1.9,0.6-2.8,0.9c0.3,0.8,0.5,1.6,0.8,2.4
		c0.5-0.2,1-0.3,1.4-0.5c0.8,2.5,1.6,5,2.4,7.5c0.2,0.7,0.3,1.3,0.3,1.8C53,114.7,53.1,113.1,52.5,111.1z"/>
</g>
<g>
	<path fill="#52718B" d="M92.8,129.2V123h5v1.1h-3.7v1.5h3v1h-3v1.5h3.7v1.1L92.8,129.2L92.8,129.2z"/>
	<path fill="#52718B" d="M103.5,124.6c0,0-0.8-0.6-2.2-0.6c-1,0-1.3,0.3-1.3,0.7c0,0.5,0.7,0.7,1.5,0.8c1.7,0.3,2.6,0.7,2.6,2
		c0,1.1-0.9,1.9-2.7,1.9c-2.1,0-2.9-0.9-2.9-0.9l0.6-1c0,0,0.8,0.8,2.3,0.8c0.9,0,1.4-0.3,1.4-0.7c0-0.4-0.3-0.6-1.5-0.8
		c-1.4-0.3-2.6-0.6-2.6-1.9c0-1,0.9-1.9,2.6-1.9c1.7,0,2.7,0.6,2.7,0.6L103.5,124.6z"/>
	<path fill="#52718B" d="M107,129.2v-5.2h-2.5V123h6.2v1.1h-2.5v5.2H107z"/>
	<path fill="#52718B" d="M156,129.2v-4.8l-1.8,1.1l-0.6-1l2.6-1.5h1.2v6.3L156,129.2L156,129.2z"/>
	<path fill="#52718B" d="M159.1,127.8c0,0,0.5,0.4,1.3,0.4c1.1,0,1.8-0.7,1.9-1.7c-0.3,0.2-0.8,0.4-1.5,0.4c-1.5,0-2.4-0.7-2.4-2.1
		c0-1.2,1-2,2.4-2c2.1,0,2.9,1.5,2.9,3.3c0,1.9-1.1,3.2-3.1,3.2c-1.2,0-1.9-0.5-1.9-0.5L159.1,127.8z M160.7,124
		c-0.6,0-1.1,0.4-1.1,1c0,0.6,0.4,1,1.1,1c0.6,0,1.1-0.2,1.5-0.4C162.1,124.6,161.5,124,160.7,124z"/>
	<path fill="#52718B" d="M168.8,124.4c0,0-0.5-0.4-1.3-0.4c-1.1,0-1.8,0.7-1.9,1.7c0.3-0.2,0.8-0.5,1.5-0.5c1.5,0,2.4,0.7,2.4,2.1
		c0,1.2-1,2-2.4,2c-2.1,0-2.9-1.5-2.9-3.3c0-1.9,1.1-3.2,3.1-3.2c1.2,0,1.9,0.5,1.9,0.5L168.8,124.4z M167.1,128.2
		c0.6,0,1.1-0.4,1.1-1c0-0.6-0.4-1-1.1-1c-0.6,0-1.1,0.2-1.5,0.4C165.8,127.7,166.2,128.2,167.1,128.2z"/>
	<path fill="#52718B" d="M171,129.2l2.3-5.2H170V123h4.8v1l-2.3,5.3H171z"/>
</g>
<g>
	<path fill="#52718B" d="M173.6,97c0.3-1.7,0.5-3.3,0.8-5c-5.1-0.8-10.2-1.4-15.4-1.9c-0.2,1.7-0.3,3.3-0.5,5c1,0.1,1.9,0.2,2.8,0.3
		c0.1-0.9,0.2-1.7,0.3-2.6c1.1,0.1,2.2,0.2,3.2,0.4c-0.5,3.8-0.9,7.6-1.3,11.4c-0.7-0.1-1.4-0.2-2.1-0.2c-0.1,0.8-0.2,1.7-0.3,2.5
		c2.3,0.3,4.7,0.5,7,0.9c0.1-0.8,0.2-1.7,0.3-2.5c-0.7-0.1-1.4-0.2-2.1-0.3c0.5-3.8,1-7.6,1.5-11.4c1.1,0.1,2.2,0.3,3.2,0.4
		c-0.1,0.9-0.2,1.7-0.4,2.6C171.7,96.7,172.6,96.9,173.6,97z"/>
	<path fill="#52718B" d="M185.7,110.7c1.3,0.3,2.5,0.5,3.8,0.8c0.2-0.8,0.4-1.6,0.5-2.5c-0.6-0.1-1.3-0.3-1.9-0.4
		c-0.5-1.6-1.1-3.3-1.7-4.9c2-0.3,3.7-1.6,4.1-3.7c0.7-3.3-1.8-5.5-5.9-6.2c-2.3-0.4-4.6-0.8-6.8-1.2c-0.1,0.8-0.3,1.6-0.4,2.5
		c0.7,0.1,1.3,0.2,2,0.3c-0.6,3.7-1.3,7.5-1.9,11.2c-0.6-0.1-1.3-0.2-1.9-0.3c-0.1,0.8-0.3,1.6-0.4,2.5c2.3,0.4,4.6,0.8,6.8,1.2
		c0.2-0.8,0.3-1.6,0.5-2.5c-0.7-0.1-1.4-0.3-2.1-0.4c0.2-1.2,0.4-2.4,0.7-3.6c0.3,0.1,0.8,0.2,1.4,0.3c0.3,0.1,0.7,0.1,1,0.2
		C184.3,106.2,185,108.5,185.7,110.7z M181.6,101.1c0.3-1.7,0.6-3.4,1-5.2c0.5,0.1,1.1,0.2,1.6,0.3c2.4,0.5,3.7,1.6,3.4,3.2
		c-0.3,1.4-1.5,2.1-3.1,2.1c-0.4,0-0.8,0-1.2-0.1C182.3,101.3,181.9,101.2,181.6,101.1z"/>
	<path fill="#52718B" d="M226.6,105.1c-4.2-1.5-8.5-2.9-12.8-4.2c-0.2,0.8-0.5,1.6-0.7,2.4c0.7,0.2,1.3,0.4,2,0.6
		c-1.1,3.6-2.2,7.2-3.4,10.9c-0.6-0.2-1.2-0.4-1.9-0.6c-0.2,0.8-0.5,1.6-0.7,2.4c4.1,1.2,8.1,2.5,12.1,3.9c0.5-1.5,1-2.9,1.6-4.4
		c-0.9-0.3-1.8-0.6-2.7-0.9c-0.2,0.7-0.5,1.4-0.7,2.1c-1.6-0.5-3.2-1.1-4.9-1.6c0.5-1.5,1-2.9,1.4-4.4c1.7,0.5,3.3,1.1,5,1.7
		c0.3-0.8,0.5-1.5,0.8-2.3c-1.7-0.6-3.4-1.1-5-1.7c0.5-1.4,0.9-2.8,1.3-4.2c1.7,0.5,3.4,1.1,5,1.7c-0.2,0.7-0.5,1.4-0.7,2.1
		c0.9,0.3,1.8,0.6,2.8,1C225.6,108,226.1,106.6,226.6,105.1z"/>
	<path fill="#52718B" d="M148.1,106.1c0.2,0,0.4,0,0.6,0c3.1,0,5.5-1.5,5.7-4.5c0.3-3-2-4.2-5-5.5c-1.7-0.7-3.1-1.4-3.1-2.7
		c0.1-1.1,1-1.9,2.6-1.9c0.1,0,0.2,0,0.3,0c1.1,0.1,1.8,0.3,2.3,0.7c-0.1,0.2-0.2,0.4-0.2,0.8c-0.1,0.8,0.6,1.7,1.8,1.8
		c0.1,0,0.1,0,0.2,0c0.9,0,1.7-0.6,1.8-1.7c0.2-2-2.3-3.7-5.6-3.9c-0.2,0-0.4,0-0.5,0c-3.3,0-5.5,1.9-5.5,4.4
		c-0.1,3,2.1,4.1,5.2,5.4c1.7,0.7,3.1,1.4,3,2.8c-0.1,1.3-1.2,2-2.8,2c-0.1,0-0.2,0-0.4,0c-1.1-0.1-2-0.4-2.6-0.8
		c0.2-0.3,0.3-0.6,0.3-1c0-0.8-0.7-1.6-1.8-1.7c0,0-0.1,0-0.1,0c-1,0-1.7,0.7-1.8,1.9C142.2,104,144.8,105.9,148.1,106.1z"/>
	<path fill="#52718B" d="M230.2,106.4c-0.6,1.6-1.2,3.1-1.7,4.7c0.9,0.3,1.8,0.7,2.7,1c0.3-0.8,0.6-1.6,0.9-2.4
		c1,0.4,2.1,0.8,3.1,1.2c-1.4,3.6-2.8,7.1-4.2,10.6c-0.7-0.3-1.3-0.5-2-0.8c-0.3,0.8-0.6,1.6-0.9,2.3c2.2,0.9,4.5,1.8,6.7,2.7
		c0.3-0.8,0.6-1.6,1-2.3c-0.7-0.3-1.3-0.5-2-0.8c1.4-3.5,2.9-7.1,4.3-10.6c1,0.4,2.1,0.8,3.1,1.3c-0.3,0.8-0.7,1.6-1,2.4
		c0.9,0.4,1.8,0.8,2.7,1.1c0.7-1.5,1.3-3.1,2-4.6C240,110.1,235.1,108.2,230.2,106.4z"/>
	<path fill="#52718B" d="M208.2,104.2c0.4-1.5,0.8-3,1.3-4.5c-4.3-1.2-8.6-2.3-13-3.4c-0.2,0.8-0.4,1.6-0.6,2.4
		c0.6,0.2,1.3,0.3,2,0.5c-0.9,3.7-1.8,7.4-2.7,11.1c-0.6-0.2-1.3-0.3-1.9-0.5c-0.2,0.8-0.4,1.6-0.6,2.4c4.1,1,8.2,2,12.2,3.2
		c0.4-1.5,0.8-3,1.3-4.5c-0.9-0.3-1.8-0.5-2.7-0.8c-0.2,0.7-0.4,1.4-0.6,2.1c-1.6-0.5-3.3-0.9-4.9-1.3c0.4-1.5,0.8-3,1.1-4.5
		c1.7,0.4,3.4,0.9,5.1,1.3c0.2-0.8,0.4-1.5,0.6-2.3c-1.7-0.5-3.4-0.9-5.1-1.3c0.4-1.4,0.7-2.8,1.1-4.2c1.7,0.4,3.4,0.9,5.1,1.3
		c-0.2,0.7-0.4,1.4-0.6,2.1C206.4,103.6,207.3,103.9,208.2,104.2z"/>
	<path fill="#52718B" d="M79,110.6c-0.2-0.8-0.3-1.6-0.5-2.5c-0.7,0.1-1.3,0.3-2,0.4c-1-3.7-1.9-7.3-2.9-11c0.7-0.2,1.5-0.3,2.2-0.5
		c-0.2-0.8-0.3-1.6-0.5-2.5c-1.6,0.3-3.2,0.7-4.8,1c-1.1,3.4-2.2,6.7-3.2,10.1c-2.4-2.5-4.9-5-7.5-7.5c-1.6,0.4-3.2,0.8-4.7,1.3
		c0.2,0.8,0.5,1.6,0.7,2.4c0.7-0.2,1.4-0.4,2.1-0.6c0.8,3.7,1.6,7.4,2.5,11.1c-0.7,0.2-1.3,0.4-2,0.5c0.2,0.8,0.5,1.6,0.7,2.4
		c2.2-0.6,4.4-1.2,6.7-1.8c-0.2-0.8-0.4-1.6-0.6-2.4c-0.7,0.2-1.3,0.3-2,0.5c-0.6-2.8-1.2-5.5-1.8-8.3c2.3,2.2,4.6,4.5,6.8,6.8
		c0.1,0,0.3-0.1,0.4-0.1c0.9-3.1,1.9-6.1,2.9-9.1c0.7,2.7,1.5,5.5,2.2,8.2c-0.7,0.2-1.3,0.3-2,0.5c0.2,0.8,0.4,1.6,0.6,2.4
		C74.5,111.6,76.7,111.1,79,110.6z"/>
	<path fill="#52718B" d="M28.3,125.9c1,0,2.2-0.2,3.3-0.7c3.2-1.3,5-3.9,3.9-6.8c-0.9-2.3-2.7-2.8-5.2-2.8c-0.6,0-1.2,0-1.8,0.1
		c-0.5,0-0.9,0-1.3,0c-1.3,0-2.3-0.2-2.7-1.1c-0.5-1.1,0.2-2.3,1.8-2.9c0.8-0.3,1.5-0.5,2-0.5c0.2,0,0.3,0,0.4,0
		c0,0.2,0,0.4,0.1,0.8c0.2,0.6,0.8,1,1.6,1c0.3,0,0.5,0,0.8-0.2c1-0.4,1.5-1.3,1-2.4c-0.4-1.2-1.8-1.8-3.5-1.8c-1,0-2.2,0.2-3.3,0.7
		c-3.4,1.4-4.8,4.2-3.7,6.6c0.9,2.2,2.7,2.6,5,2.6c0.7,0,1.4,0,2.1-0.1c0.4,0,0.8,0,1.1,0c1.3,0,2.4,0.3,2.8,1.2
		c0.5,1.3-0.3,2.5-2.1,3.2c-0.8,0.3-1.5,0.5-2.1,0.5c-0.2,0-0.5,0-0.7-0.1c0-0.3,0-0.7-0.2-1c-0.2-0.5-0.8-0.9-1.5-0.9
		c-0.3,0-0.6,0.1-0.8,0.2c-1,0.4-1.4,1.4-0.9,2.5C25,125.2,26.5,125.9,28.3,125.9z"/>
	<path fill="#52718B" d="M40.1,115.2c1.1,3,3.1,4.3,5.5,4.3c0.8,0,1.7-0.2,2.6-0.5c3.5-1.2,5.4-3.9,4.2-8c-0.8-2.5-1.5-5-2.3-7.5
		c0.6-0.2,1.2-0.4,1.9-0.6c-0.2-0.8-0.5-1.6-0.7-2.4c-2.3,0.7-4.6,1.4-6.8,2.1c0.3,0.8,0.5,1.6,0.8,2.4c0.7-0.2,1.4-0.4,2-0.7
		c0.8,2.5,1.6,5,2.4,7.5c0.8,2.4-0.1,4-2.2,4.7c-0.5,0.2-0.9,0.2-1.3,0.2c-1.5,0-2.6-0.9-3.2-2.8c-0.8-2.4-1.7-4.9-2.5-7.3
		c0.7-0.2,1.4-0.5,2-0.7c-0.3-0.8-0.5-1.6-0.8-2.4c-2.3,0.8-4.6,1.6-6.8,2.4c0.3,0.8,0.6,1.6,0.9,2.4c0.6-0.2,1.2-0.5,1.8-0.7
		C38.4,110.3,39.2,112.7,40.1,115.2z"/>
	<path fill="#52718B" d="M113.1,106c-0.1-0.8-0.1-1.7-0.2-2.5c-0.7,0-1.4,0.1-2.1,0.2c-0.3-3.8-0.6-7.6-0.9-11.3
		c0.7-0.1,1.4-0.1,2.1-0.2c-0.1-0.8-0.1-1.7-0.2-2.5c-2.4,0.2-4.9,0.4-7.4,0.6c0.1,0.8,0.2,1.7,0.2,2.5c0.7-0.1,1.4-0.1,2.1-0.2
		c0.3,3.8,0.7,7.5,1,11.3c-0.7,0.1-1.4,0.1-2.1,0.2c0.1,0.8,0.2,1.7,0.2,2.5C108.5,106.3,110.8,106.1,113.1,106z"/>
	<path fill="#52718B" d="M115.5,89.4c0.1,1.7,0.2,3.4,0.3,5c1-0.1,1.9-0.1,2.8-0.2c0-0.9-0.1-1.7-0.1-2.6c1.1,0,2.2-0.1,3.3-0.1
		c0.1,3.8,0.3,7.6,0.4,11.4c-0.7,0-1.4,0-2.1,0.1c0,0.8,0.1,1.7,0.1,2.5c2.4-0.1,4.7-0.2,7.1-0.2c0-0.8,0-1.7,0-2.5
		c-0.7,0-1.4,0-2.1,0c-0.1-3.8-0.2-7.6-0.3-11.4c1.1,0,2.2,0,3.3-0.1c0,0.9,0,1.7,0,2.6c1,0,1.9,0,2.8,0c0-1.7,0-3.4,0-5
		C125.8,88.9,120.7,89.1,115.5,89.4z"/>
	<path fill="#52718B" d="M102.6,106.9c-0.1-0.8-0.2-1.7-0.3-2.5c-0.7,0.1-1.3,0.2-2,0.2c-0.6-3.7-1.3-7.5-1.9-11.2
		c0.7-0.1,1.5-0.2,2.2-0.3c-0.1-0.8-0.2-1.7-0.3-2.5c-1.6,0.2-3.2,0.4-4.8,0.6c-1.4,3.2-2.8,6.5-4.1,9.8c-2.2-2.8-4.5-5.5-6.8-8.2
		c-1.6,0.3-3.2,0.6-4.8,0.9c0.2,0.8,0.3,1.6,0.5,2.5c0.7-0.1,1.5-0.3,2.2-0.4c0.5,3.8,1,7.5,1.5,11.3c-0.7,0.1-1.3,0.2-2,0.4
		c0.2,0.8,0.3,1.6,0.5,2.5c2.3-0.4,4.5-0.8,6.8-1.2c-0.1-0.8-0.3-1.6-0.4-2.5c-0.7,0.1-1.3,0.2-2,0.3c-0.4-2.8-0.7-5.6-1.1-8.4
		c2.1,2.4,4.2,4.9,6.2,7.3c0.1,0,0.3,0,0.4-0.1c1.2-2.9,2.4-5.9,3.7-8.8c0.5,2.8,1,5.6,1.4,8.3c-0.7,0.1-1.3,0.2-2,0.3
		c0.1,0.8,0.2,1.7,0.3,2.5C98,107.5,100.3,107.2,102.6,106.9z"/>
</g>
</svg>
