<?xml version="1.0" encoding="utf-8"?>
<!-- Generator: Adobe Illustrator 18.1.1, SVG Export Plug-In . SVG Version: 6.00 Build 0)  -->
<svg version="1.1" id="Layer_1" xmlns="http://www.w3.org/2000/svg" xmlns:xlink="http://www.w3.org/1999/xlink" x="0px" y="0px"
	 viewBox="51.5 82.9 163.9 73.4" enable-background="new 51.5 82.9 163.9 73.4" xml:space="preserve">
<g>
	<path fill="#445463" d="M101.7,125.3c0-4.5-2-7.7-5.5-7.7c-2.6,0-2.9,1-4.5,1c-0.7,0-1.1-0.4-1.1-1.1s0.6-1.2,1.4-1.2
		c0.6,0,1.1,0.3,2,0.3c6.6,0,9.9-5.6,9.9-11.6c0-3.2-0.9-5.3-3.1-6.4c-7.4,5.1-11.1,14.7-15.6,22.5c-6.2,10.7-15.7,20-25.4,20
		c-5,0-8.2-2-8.2-5c0-1.8,0.8-3.2,2.7-3.2c1.4,0,2.3,0.9,2.3,2.1c0,1.2-0.9,2.1-0.9,2.8c0,1.5,1.8,2.5,4.4,2.5
		c9.6,0,14.9-8.5,21.1-20c4.6-8.4,10.7-16.9,18.8-22.2c-4-1.8-7.8-2-11.5-2c-17.4,0-32.2,11.7-32.2,22.3c0,3.1,2,5.3,5.7,5.3
		c3.5,0,11.1-4,16.3-12.2c4.6-7.2,4.6-11.1,5.1-11.1c0.3,0,0.5,0.1,0.5,0.3c0,5.3-6.6,24-21.7,24c-3.9,0-6.6-2.5-6.6-6.1
		c0-11,15.1-23.3,33.2-23.3c4.2,0,9,0.6,12.2,2.2c2-1.2,4.1-2.2,4.7-2.2c0.1,0,0.3,0.2,0.3,0.5c0,0.4-3.4,1.4-4,2
		c3.3,1.8,5.9,4.9,5.9,8.8c0,4.7-4.9,9-10.4,10.3v0.1c4.7,1,8.3,4.3,8.3,9.6c0,8.4-8.3,14.4-15.8,14.4c-4.7,0-7.3-2.5-7.3-6.3
		c0-6,6.1-9.8,6.9-9.8c0.2,0,0.3,0.1,0.3,0.3c0,0.5-1.2,0.4-3.3,2.5c-2.3,2.4-3.1,4.2-3.1,7c0,3.6,2.3,5.5,6.6,5.5
		C96.4,140.3,101.7,131.7,101.7,125.3z"/>
	<path fill="#445463" d="M132.4,123c-1.8,2.2-9.4,13.8-9.4,16.1c0,0.5,0.3,0.9,1.1,0.9c2,0,5.5-3.4,9.2-7.8c0.8-0.9,0.8-1,1-1
		c0.3,0,0.4,0.3,0.4,0.4c0,0.1-2.1,2.5-3.6,4.1c-3,3.1-5.5,5.1-7.2,5.1c-1.8,0-2.9-0.9-2.9-4.5c0-0.5,0.1-0.8,0.1-1.2
		c-2,1.9-5.6,5.7-8.1,5.7c-3.3,0-4.1-3-4.1-5.9c0-1,0.1-2,0.3-3.1c-0.1,0-0.3,0.2-0.4,0.2c-0.1,0-0.3-0.2-0.3-0.3
		c0-0.3,0.2-0.3,1-1.4c3.5-4.3,8.8-7.6,13.3-7.6c1.9,0,2.8,1.4,2.8,3.2c0,0.7-0.1,1.4-0.2,1.8l0.1,0.1c2.3-3.7,2.2-4.5,3.6-4.6
		L132.4,123z M113.1,139.9c3.8,0,11.9-9.4,11.9-14.2c0-1.3-0.6-2.3-2-2.3c-5.3,0-11.4,9.7-11.4,14.4
		C111.6,139.1,112.1,139.9,113.1,139.9z"/>
	<path fill="#445463" d="M135.2,140.7c6.6-10.6,10-14.6,10-16.4c0-0.5-0.5-0.9-1.1-0.9c-0.9,0-2.5,0.7-5.1,3.4
		c-4,4.1-4.6,5.2-4.8,5.2c-0.2,0-0.3-0.1-0.3-0.3c0-0.3,2.2-2.7,3.8-4.5c2.8-3,4.8-4.5,6.6-4.5c1.6,0,2.5,1.5,2.5,3.1
		c0,2.6-2.8,7-4.1,8.8l0.1,0.1c3.4-4,6.6-6.2,7.2-7.9c0.6-1.9,2-4,4.3-4c1.1,0,1.6,0.3,1.6,1c0,2.5-7.3,4.5-7.3,9
		c0,1.3,1,2.2,2.1,2.2c1,0,2.1-0.5,2.9-1.3c1.4-1.4,2-2.5,2.2-2.5c0.2,0,0.4,0.1,0.4,0.3s-1,1.4-1.6,2.1c-1.3,1.5-2.7,2-4,2
		c-1.4,0-2.9-1-2.9-2.5c0-1.5,0.5-2.6,1.3-3.6l-0.1-0.1c-3.4,3.1-6.5,6.9-9.8,11.1L135.2,140.7z"/>
	<path fill="#445463" d="M179.7,101.6c-15.9,26.5-20.8,34.4-20.8,36.7c0,1,0.3,1.7,1.5,1.7c4.9,0,11.1-5.7,11.1-13.7
		c0-2.4,0.3-3.6,2-3.6c1.1,0,1.6,1.2,1.6,2.5c0,3.9-3.6,8.6-4.8,10.1c0.2,0.1,0.4,0.1,0.6,0.1c2,0,4.2-1.2,5.6-2.8
		c1.2-1.3,1.1-1.4,1.3-1.4s0.3,0.1,0.3,0.3c0,0.3-0.4,0.6-1,1.4c-1.9,2.1-4.5,3.2-6.8,3.2c-0.4,0-0.7-0.1-0.7-0.1
		c-1.6,1.5-5.3,4.7-9,4.7c-2.7,0.1-3.8-2-3.8-4.6c0-4.6,6.2-10.7,6.2-11.5c0-0.1-0.1-0.1-0.1-0.1c-0.2,0-1.1,1.2-3.3,3.6
		c-3.5,3.8-3.5,4.2-3.8,4.2c-0.2,0-0.3-0.1-0.3-0.3c0-0.4,5.3-6.2,6.2-7.3c2.2-2.5,8.7-13.1,14.1-22.6L179.7,101.6z"/>
	<path fill="#445463" d="M188.1,119.7c-0.3,0-0.3-0.1-0.3-0.3c0-0.3,0.2-0.4,1.1-1c2.5-1.8,4.2-3.6,4.2-5.3c0.1-4.3,0.8-5.3,2.5-5.3
		c1,0,1.4,0.9,1.4,1.8C197,113,189.2,119.7,188.1,119.7z"/>
	<path fill="#445463" d="M204.3,134.7c-3.5,4-6.6,6-10.2,6c-1.5,0-2.1-0.1-2.9-0.7c-0.5-0.4-1-1.5-1-2.2c0-1.1,0.5-1.8,1.6-1.8
		c0.7,0,1.4,0.5,1.4,1c0,1.3-0.9,0.8-0.9,1.9c0,0.6,0.3,1,1.1,1c3.1,0,6.6-7.1,6.6-10.7c0-3.1,0-5.8,0.4-6.1l-0.1-0.1
		c-0.8,0.5-6,6.6-7.5,8.4c-0.3,0.3-0.4,0.5-0.6,0.5s-0.3-0.1-0.3-0.3c0-0.5,1-1.3,2.9-3.6c1.5-1.9,5.3-5.9,5.7-6.1
		c0.1-0.1,0.7-2,2.1-2c0.8,0,1.1,0.4,1.1,1c0,1.2-1.4,1.6-2.6,2c-0.1,0.7-0.3,0.8-0.3,1.5c0,4.8,1.4,6.2,1.4,8.9
		c0,1.6-0.8,2.9-1.8,3.9l0.1,0.1c2.1-1.5,3.6-3.2,4.7-4.6c1.4-1.5,1.4-1.8,1.6-1.8c0.2,0,0.3,0.1,0.3,0.4
		C206.9,131.6,205.6,133.2,204.3,134.7z"/>
</g>
<g>
	<path fill="#445463" d="M78.2,150.2c0,1-0.5,1.5-1.1,1.8c0.9,0.3,1.6,0.8,1.6,1.9c0,1.4-1.2,2.2-2.9,2.2H72v-7.9h3.5
		C77.2,148.1,78.2,148.9,78.2,150.2z M76.8,150.4c0-0.7-0.5-1-1.4-1h-2v2.1h1.9C76.2,151.5,76.8,151.1,76.8,150.4z M77.2,153.7
		c0-0.7-0.5-1.1-1.6-1.1h-2.2v2.2h2.3C76.7,154.8,77.2,154.4,77.2,153.7z"/>
	<path fill="#445463" d="M85.8,156l-1.9-2.8h-1.7v2.8h-1.4v-7.9h3.5c1.8,0,2.9,1,2.9,2.5c0,1.3-0.8,2.1-1.9,2.4l2.1,3L85.8,156
		L85.8,156z M84.1,149.4h-2v2.6h2c1,0,1.6-0.5,1.6-1.3C85.8,149.9,85.2,149.4,84.1,149.4z"/>
	<path fill="#445463" d="M90.8,148.1v7.9h-1.4v-7.9H90.8z"/>
	<path fill="#445463" d="M96.3,156h-2.9v-7.9h2.9c2.5,0,4.2,1.7,4.2,3.9C100.5,154.3,98.8,156,96.3,156z M96.3,149.4h-1.6v5.4h1.6
		c1.6,0,2.7-1.1,2.7-2.7C99,150.5,98,149.4,96.3,149.4z"/>
	<path fill="#445463" d="M109.6,156h-1.5l-0.8-1.9h-3.7l-0.8,1.9h-1.4l3.5-8h1.3L109.6,156z M105.5,149.7l-1.3,3.2h2.7L105.5,149.7z
		"/>
	<path fill="#445463" d="M111.4,148.1h1.4v6.6h4.1v1.3h-5.5V148.1z"/>
	<path fill="#445463" d="M129,150.2c0,1-0.5,1.5-1.1,1.8c0.9,0.3,1.6,0.8,1.6,1.9c0,1.4-1.2,2.2-2.9,2.2h-3.6v-7.9h3.5
		C128,148.1,129,148.9,129,150.2z M127.6,150.4c0-0.7-0.5-1-1.4-1h-2v2.1h1.9C127,151.5,127.6,151.1,127.6,150.4z M128.1,153.7
		c0-0.7-0.5-1.1-1.6-1.1h-2.2v2.2h2.3C127.5,154.8,128.1,154.4,128.1,153.7z"/>
	<path fill="#445463" d="M135.2,156.2c-2.4,0-4.1-1.8-4.1-4.1c0-2.2,1.7-4.1,4.1-4.1c2.4,0,4.1,1.8,4.1,4.1
		C139.3,154.3,137.6,156.2,135.2,156.2z M135.2,149.3c-1.6,0-2.7,1.3-2.7,2.8c0,1.5,1.1,2.8,2.7,2.8c1.6,0,2.7-1.3,2.7-2.8
		C137.9,150.6,136.7,149.3,135.2,149.3z"/>
	<path fill="#445463" d="M148.1,152.6c0,2.4-1.3,3.5-3.4,3.5c-2.1,0-3.4-1.2-3.4-3.5v-4.5h1.4v4.5c0,1.5,0.8,2.3,2,2.3s2-0.7,2-2.2
		v-4.6h1.4L148.1,152.6L148.1,152.6z"/>
	<path fill="#445463" d="M153.7,156h-1.4v-6.6h-2.5v-1.3h6.4v1.3h-2.5L153.7,156L153.7,156z"/>
	<path fill="#445463" d="M159.4,148.1v7.9H158v-7.9H159.4z"/>
	<path fill="#445463" d="M169.9,155.3l-0.9,1l-1-0.8c-0.7,0.5-1.5,0.7-2.4,0.7c-2.4,0-4.1-1.8-4.1-4.1c0-2.2,1.7-4.1,4.1-4.1
		c2.4,0,4.1,1.8,4.1,4.1c0,0.9-0.3,1.8-0.8,2.4L169.9,155.3z M165.7,153.4l0.9-1l1.4,1.2c0.3-0.4,0.4-0.9,0.4-1.5
		c0-1.5-1.1-2.8-2.7-2.8c-1.6,0-2.7,1.3-2.7,2.8c0,1.5,1.1,2.8,2.7,2.8c0.5,0,1-0.2,1.3-0.4L165.7,153.4z"/>
	<path fill="#445463" d="M178.7,152.6c0,2.4-1.3,3.5-3.4,3.5c-2.1,0-3.4-1.2-3.4-3.5v-4.5h1.4v4.5c0,1.5,0.8,2.3,2,2.3
		c1.2,0,2-0.7,2-2.2v-4.6h1.4L178.7,152.6L178.7,152.6z"/>
	<path fill="#445463" d="M187,149.4h-4.5v2.1h4v1.2h-4v2.1h4.5v1.2h-5.9v-7.9h5.9V149.4z"/>
</g>
<g>
	<path fill="#445463" d="M199.3,102.2c-3.5,0-8.1-0.6-8.9-0.7c-0.6,9.1-9.3,14.6-22.8,14.6c-4.2,0-7.8-0.4-11-1.2
		c-2.1,0.1-3,0.2-4.3,0.2c-6.4,0-11.9-1.7-15.8-5c-4.7,3.1-8.4,5.6-14.4,5.6c-5,0-9.8-3.6-9.8-8.8c0-8,8.6-13.7,19.8-13.8
		c2.1-6,7.3-10.1,13.1-10.1c3,0,5.5,0.9,7.6,2.7c0.9-0.4,3.1-0.9,5-0.9c4.6,0,8.6,2.3,11.1,6.2c1.9-0.6,4.6-1.1,7.4-1.1
		c8.2,0,13.6,4.5,14,11.1c1.1,0.1,5,0.7,9.6,0.7c5.8,0,11.7-1.5,15.1-4c0.3,0,0.3,0.2,0.2,0.4C211.1,101,205.2,102.2,199.3,102.2z
		 M131.3,98.2c0-1.9,0.3-3.4,0.6-4.6c-10.3,0-19.1,5.4-19.1,13.3c0,4.7,4.3,8.3,9.1,8.3c5.7,0,9.5-2.4,14.1-5.4
		C132.7,106.1,131.3,102.6,131.3,98.2z M143,99.2c0-1.6,0.4-3.8,1-5c-1.9-0.3-7.6-0.7-9.7-0.7c-0.4,1.5-0.5,3.2-0.5,4.8
		c0,4.1,1.1,7.3,3.6,10.6l6.8-4.4C143.6,103.5,143,101,143,99.2z M145.4,83.4c-5.1,0-9.4,3.8-11,9.6c1.3,0,7,0.4,9.8,0.7
		c1.5-3.3,4.4-6.5,8.1-7.8C150.7,84.5,148.6,83.4,145.4,83.4z M144.3,105l-6.6,4.3c3.7,3.9,9.6,5.3,14.9,5.3c1,0,2.1-0.1,2.8-0.1
		C150.9,113.3,146.3,109,144.3,105z M144.5,94.2c-0.5,1.2-1,2.9-1,4.8c0,2,0.4,4,1.1,5.1c2.7-1.7,8.9-5.5,13.1-7.9
		C154.4,95.6,146.9,94.4,144.5,94.2z M158,85.2c-1.9,0-3.7,0.4-4.8,0.9c0.9,1,1.6,2.4,1.8,3.1c0,0.1-0.1,0.2-0.3,0.1
		c-0.3-0.7-1.2-2.3-1.9-3.1c-3.1,0.9-6.3,3.6-8,7.5c3.9,0.5,9.9,1.5,13.8,2.1c3.2-1.9,7.3-3.7,10-4.7
		C166.4,87.7,162.5,85.2,158,85.2z M158.6,96.4c-2.3,1.1-9.3,5.3-13.8,8.2c2.1,4.3,6.4,8.4,11.7,9.7c8-1.4,14.2-8.6,14.2-15.8
		C167.3,98,162.2,97,158.6,96.4z M171.2,98.6c0,7.6-6.7,14.5-13.8,15.9c3.1,0.6,5.2,0.8,8.3,0.8c10.7,0,21.7-5.5,23.1-14.1
		C183.2,100.5,176.8,99.5,171.2,98.6z M168.8,91.6c-2.1,0.6-6.4,2.6-9.5,4.4c3.9,0.7,7.3,1.4,11.4,2
		C170.7,95.4,169.6,92.5,168.8,91.6z M176.3,90.3c-3.4,0-6.3,0.8-7,1.1c0.6,0.9,1.9,3.8,1.9,6.7c6,0.9,12.4,2,17.6,2.6
		C188.8,93.4,183,90.3,176.3,90.3z"/>
</g>
</svg>
