<?xml version="1.0" encoding="utf-8"?>
<!-- Generator: Adobe Illustrator 19.2.1, SVG Export Plug-In . SVG Version: 6.00 Build 0)  -->
<svg version="1.1" id="Layer_1" xmlns="http://www.w3.org/2000/svg" xmlns:xlink="http://www.w3.org/1999/xlink" x="0px" y="0px"
	 viewBox="0 0 960 560" style="enable-background:new 0 0 960 560;" xml:space="preserve">
<style type="text/css">
	.st0{fill:#97C9AB;}
	.st1{fill:none;stroke:#FFFFFF;stroke-width:7.5122;stroke-linecap:round;stroke-linejoin:round;stroke-miterlimit:10;}
</style>
<circle class="st0" cx="480" cy="274.9" r="93.2"/>
<path class="st1" d="M493.4,278.9c-12.9,21.2-34.8,39.6-55.1,37.3c-21.8-2.5-24.5-22.7-14.6-42.3c12.3-24.3,45.8-29.6,44-1.7
	 M490.2,283.1c3.5-4.8,15.4-25,19.3-37c4-12.5,5.7-29.8-3.3-29.8c-10,0-13.3,20.9-15.2,33.8c-2.2,14.9-3.6,35.3-4.2,38.1
	c-2.3,11.7-3.7,28.6-8.4,35 M493.2,279.4c-1.6,8.8,22.5,4.5,21-6.2c-1.2-8.8-12.1-13-20.5,5.1 M492.4,284.7
	c0,15.4,12.2,29.9,21.9,30.4c20.4,1.1,22.5-14.8,22.5-16.7"/>
</svg>
