<?xml version="1.0" encoding="UTF-8" standalone="no"?>
<svg width="119px" height="262px" viewBox="0 0 119 262" version="1.1" xmlns="http://www.w3.org/2000/svg" xmlns:xlink="http://www.w3.org/1999/xlink">
    <!-- Generator: Sketch 39.1 (31720) - http://www.bohemiancoding.com/sketch -->
    <title>Artboard</title>
    <desc>Created with Sketch.</desc>
    <defs>
        <rect id="path-1" x="11.5746691" y="1.94656127" width="99.2728422" height="99.274625" rx="49.6364211"></rect>
        <mask id="mask-2" maskContentUnits="userSpaceOnUse" maskUnits="objectBoundingBox" x="-3" y="-3" width="105.272842" height="105.274625">
            <rect x="8.57466905" y="-1.05343873" width="105.272842" height="105.274625" fill="white"></rect>
            <use xlink:href="#path-1" fill="black"></use>
        </mask>
        <rect id="path-3" x="10.6101133" y="0" width="99.2728422" height="99.274625" rx="49.6364211"></rect>
        <mask id="mask-4" maskContentUnits="userSpaceOnUse" maskUnits="objectBoundingBox" x="-3" y="-3" width="105.272842" height="105.274625">
            <rect x="7.6101133" y="-3" width="105.272842" height="105.274625" fill="white"></rect>
            <use xlink:href="#path-3" fill="black"></use>
        </mask>
        <rect id="path-5" x="11.5746691" y="1.94656127" width="99.2728422" height="99.274625" rx="49.6364211"></rect>
        <mask id="mask-6" maskContentUnits="userSpaceOnUse" maskUnits="objectBoundingBox" x="-3" y="-3" width="105.272842" height="105.274625">
            <rect x="8.57466905" y="-1.05343873" width="105.272842" height="105.274625" fill="white"></rect>
            <use xlink:href="#path-5" fill="black"></use>
        </mask>
        <rect id="path-7" x="10.6101133" y="0" width="99.2728422" height="99.274625" rx="49.6364211"></rect>
        <mask id="mask-8" maskContentUnits="userSpaceOnUse" maskUnits="objectBoundingBox" x="-3" y="-3" width="105.272842" height="105.274625">
            <rect x="7.6101133" y="-3" width="105.272842" height="105.274625" fill="white"></rect>
            <use xlink:href="#path-7" fill="black"></use>
        </mask>
    </defs>
    <g id="Page-1" stroke="none" stroke-width="1" fill="none" fill-rule="evenodd">
        <g id="Artboard">
            <g id="Group-7-Copy-2" transform="translate(-1.000000, 8.000000)">
                <g id="Group-Copy-5">
                    <g id="Rectangle-1-Copy">
                        <use fill="#FFFFFF" fill-rule="evenodd" xlink:href="#path-1"></use>
                        <use stroke="#01414F" mask="url(#mask-2)" stroke-width="6" xlink:href="#path-1"></use>
                    </g>
                    <g id="Rectangle-1">
                        <use fill="#FFFFFF" fill-rule="evenodd" xlink:href="#path-3"></use>
                        <use stroke="#006277" mask="url(#mask-4)" stroke-width="6" xlink:href="#path-3"></use>
                    </g>
                    <g id="Assignments" transform="translate(44.000000, 19.000000)">
                        <g id="Capa_1">
                            <g id="Group">
                                <path d="M28.1197895,15.8481762 C27.9424168,15.8481762 27.78616,15.9166104 27.6500168,16.0537667 L26.3419832,17.3685533 C26.2197263,17.4919653 26.1583116,17.6424342 26.1583116,17.8206799 L26.1583116,23.038737 C26.1583116,23.9429181 25.8388547,24.7164194 25.19808,25.360464 C24.5578063,26.0041489 23.7879032,26.3260273 22.8886568,26.3260273 L5.88565053,26.3260273 C4.98633263,26.3260273 4.21650105,26.0041489 3.57622737,25.360464 C2.93581053,24.7164913 2.61578105,23.9429901 2.61578105,23.038737 L2.61578105,5.94550372 C2.61578105,5.04153846 2.93581053,4.26767742 3.57622737,3.62377667 C4.21650105,2.98001985 4.98633263,2.6582134 5.88565053,2.6582134 L22.8888,2.6582134 C23.1885726,2.6582134 23.4950737,2.69930273 23.8083747,2.78155335 C23.8901895,2.80875434 23.9514611,2.82264268 23.9918316,2.82264268 C24.1692042,2.82264268 24.3259621,2.75435236 24.4621053,2.61741191 L25.4634947,1.61068734 C25.6268379,1.44654591 25.6883958,1.24779156 25.6471663,1.01514392 C25.6062947,0.795952854 25.4835368,0.638359801 25.2791789,0.542580645 C24.54392,0.20062531 23.7465305,0.0288560794 22.8882274,0.0288560794 L5.88565053,0.0288560794 C4.26438737,0.0288560794 2.87804632,0.607560794 1.72677053,1.76497022 C0.575637895,2.92252357 0,4.31603474 0,5.94600744 L0,23.0396725 C0,24.6693573 0.575637895,26.0630124 1.72684211,27.2204218 C2.87811789,28.3781191 4.26445895,28.9568238 5.88572211,28.9568238 L22.8886568,28.9568238 C24.5097053,28.9568238 25.8961895,28.3781191 27.0474653,27.2204218 C28.1988126,26.0630124 28.7749516,24.6694293 28.7749516,23.0396725 L28.7749516,16.5058933 C28.7748084,16.2184839 28.6378779,16.0200174 28.36552,15.910206 C28.28392,15.8688288 28.2021768,15.8481762 28.1197895,15.8481762 Z" id="Shape" fill="#5C5C5C"></path>
                                <path d="M31.2471453,1.8570794 C30.9201726,1.52843672 30.5316421,1.3640794 30.0819116,1.3640794 C29.6327537,1.3640794 29.2439368,1.52843672 28.9172505,1.8570794 L15.6947579,15.1499454 L10.3203242,9.74651861 C9.99328,9.41766005 9.60489263,9.25351861 9.15544842,9.25351861 C8.70593263,9.25351861 8.31768842,9.41766005 7.99057263,9.74651861 L5.74263579,12.0064318 C5.41566316,12.3351464 5.25203368,12.725603 5.25203368,13.1777295 C5.25203368,13.6296402 5.41566316,14.0199529 5.74263579,14.3488114 L14.5301684,23.1831613 C14.8572126,23.5120918 15.2456,23.6761613 15.6950442,23.6761613 C16.1444884,23.6761613 16.5328042,23.5121638 16.85992,23.1831613 L33.4951537,6.45937221 C33.8219116,6.13072953 33.9857558,5.74020099 33.9857558,5.28829032 C33.9857558,4.83637965 33.8223411,4.44592308 33.4953684,4.1172804 L31.2471453,1.8570794 Z" id="Shape" fill="#222222"></path>
                            </g>
                        </g>
                    </g>
                </g>
                <path d="M9.58979741,60.5275777 L110.806644,60.5275777 C110.806644,60.5275777 103.732764,99.7696613 61.6107024,102.332331 C19.488641,104.895 9.58979741,60.5275777 9.58979741,60.5275777 Z" id="Path-9-Copy-5" fill="#006277"></path>
            </g>
            <g id="Group-7-Copy-3" transform="translate(-1.000000, 154.000000)">
                <g id="Group-Copy-5">
                    <use id="Rectangle-1-Copy" stroke="#01414F" mask="url(#mask-6)" stroke-width="6" xlink:href="#path-5"></use>
                    <g id="Rectangle-1">
                        <use fill="#FFFFFF" fill-rule="evenodd" xlink:href="#path-7"></use>
                        <use stroke="#00404E" mask="url(#mask-8)" stroke-width="6" xlink:href="#path-7"></use>
                    </g>
                    <g id="Assignments" transform="translate(44.000000, 19.000000)">
                        <g id="Capa_1">
                            <g id="Group">
                                <path d="M28.1197895,15.8481762 C27.9424168,15.8481762 27.78616,15.9166104 27.6500168,16.0537667 L26.3419832,17.3685533 C26.2197263,17.4919653 26.1583116,17.6424342 26.1583116,17.8206799 L26.1583116,23.038737 C26.1583116,23.9429181 25.8388547,24.7164194 25.19808,25.360464 C24.5578063,26.0041489 23.7879032,26.3260273 22.8886568,26.3260273 L5.88565053,26.3260273 C4.98633263,26.3260273 4.21650105,26.0041489 3.57622737,25.360464 C2.93581053,24.7164913 2.61578105,23.9429901 2.61578105,23.038737 L2.61578105,5.94550372 C2.61578105,5.04153846 2.93581053,4.26767742 3.57622737,3.62377667 C4.21650105,2.98001985 4.98633263,2.6582134 5.88565053,2.6582134 L22.8888,2.6582134 C23.1885726,2.6582134 23.4950737,2.69930273 23.8083747,2.78155335 C23.8901895,2.80875434 23.9514611,2.82264268 23.9918316,2.82264268 C24.1692042,2.82264268 24.3259621,2.75435236 24.4621053,2.61741191 L25.4634947,1.61068734 C25.6268379,1.44654591 25.6883958,1.24779156 25.6471663,1.01514392 C25.6062947,0.795952854 25.4835368,0.638359801 25.2791789,0.542580645 C24.54392,0.20062531 23.7465305,0.0288560794 22.8882274,0.0288560794 L5.88565053,0.0288560794 C4.26438737,0.0288560794 2.87804632,0.607560794 1.72677053,1.76497022 C0.575637895,2.92252357 0,4.31603474 0,5.94600744 L0,23.0396725 C0,24.6693573 0.575637895,26.0630124 1.72684211,27.2204218 C2.87811789,28.3781191 4.26445895,28.9568238 5.88572211,28.9568238 L22.8886568,28.9568238 C24.5097053,28.9568238 25.8961895,28.3781191 27.0474653,27.2204218 C28.1988126,26.0630124 28.7749516,24.6694293 28.7749516,23.0396725 L28.7749516,16.5058933 C28.7748084,16.2184839 28.6378779,16.0200174 28.36552,15.910206 C28.28392,15.8688288 28.2021768,15.8481762 28.1197895,15.8481762 Z" id="Shape" fill="#F06374"></path>
                                <path d="M31.2471453,1.8570794 C30.9201726,1.52843672 30.5316421,1.3640794 30.0819116,1.3640794 C29.6327537,1.3640794 29.2439368,1.52843672 28.9172505,1.8570794 L15.6947579,15.1499454 L10.3203242,9.74651861 C9.99328,9.41766005 9.60489263,9.25351861 9.15544842,9.25351861 C8.70593263,9.25351861 8.31768842,9.41766005 7.99057263,9.74651861 L5.74263579,12.0064318 C5.41566316,12.3351464 5.25203368,12.725603 5.25203368,13.1777295 C5.25203368,13.6296402 5.41566316,14.0199529 5.74263579,14.3488114 L14.5301684,23.1831613 C14.8572126,23.5120918 15.2456,23.6761613 15.6950442,23.6761613 C16.1444884,23.6761613 16.5328042,23.5121638 16.85992,23.1831613 L33.4951537,6.45937221 C33.8219116,6.13072953 33.9857558,5.74020099 33.9857558,5.28829032 C33.9857558,4.83637965 33.8223411,4.44592308 33.4953684,4.1172804 L31.2471453,1.8570794 Z" id="Shape" fill="#222222"></path>
                            </g>
                        </g>
                    </g>
                </g>
                <path d="M9.58979741,60.5275777 L110.806644,60.5275777 C110.806644,60.5275777 103.732764,99.7696613 61.6107024,102.332331 C19.488641,104.895 9.58979741,60.5275777 9.58979741,60.5275777 Z" id="Path-9-Copy-5" fill="#00404E"></path>
            </g>
        </g>
    </g>
</svg>