<?xml version="1.0" encoding="UTF-8" standalone="no"?>
<svg width="119px" height="262px" viewBox="0 0 119 262" version="1.1" xmlns="http://www.w3.org/2000/svg" xmlns:xlink="http://www.w3.org/1999/xlink">
    <!-- Generator: Sketch 39.1 (31720) - http://www.bohemiancoding.com/sketch -->
    <title>Artboard</title>
    <desc>Created with Sketch.</desc>
    <defs>
        <rect id="path-1" x="11.5746691" y="1.94656127" width="99.2728422" height="99.274625" rx="49.6364211"></rect>
        <mask id="mask-2" maskContentUnits="userSpaceOnUse" maskUnits="objectBoundingBox" x="-3" y="-3" width="105.272842" height="105.274625">
            <rect x="8.57466905" y="-1.05343873" width="105.272842" height="105.274625" fill="white"></rect>
            <use xlink:href="#path-1" fill="black"></use>
        </mask>
        <rect id="path-3" x="10.6101133" y="0" width="99.2728422" height="99.274625" rx="49.6364211"></rect>
        <mask id="mask-4" maskContentUnits="userSpaceOnUse" maskUnits="objectBoundingBox" x="-3" y="-3" width="105.272842" height="105.274625">
            <rect x="7.6101133" y="-3" width="105.272842" height="105.274625" fill="white"></rect>
            <use xlink:href="#path-3" fill="black"></use>
        </mask>
        <rect id="path-5" x="11.5746691" y="1.94656127" width="99.2728422" height="99.274625" rx="49.6364211"></rect>
        <mask id="mask-6" maskContentUnits="userSpaceOnUse" maskUnits="objectBoundingBox" x="-3" y="-3" width="105.272842" height="105.274625">
            <rect x="8.57466905" y="-1.05343873" width="105.272842" height="105.274625" fill="white"></rect>
            <use xlink:href="#path-5" fill="black"></use>
        </mask>
        <rect id="path-7" x="10.6101133" y="0" width="99.2728422" height="99.274625" rx="49.6364211"></rect>
        <mask id="mask-8" maskContentUnits="userSpaceOnUse" maskUnits="objectBoundingBox" x="-3" y="-3" width="105.272842" height="105.274625">
            <rect x="7.6101133" y="-3" width="105.272842" height="105.274625" fill="white"></rect>
            <use xlink:href="#path-7" fill="black"></use>
        </mask>
    </defs>
    <g id="Page-1" stroke="none" stroke-width="1" fill="none" fill-rule="evenodd">
        <g id="Artboard">
            <g id="Group-7-Copy-2" transform="translate(-1.000000, 8.000000)">
                <g id="Group-Copy-5">
                    <g id="Rectangle-1-Copy">
                        <use fill="#FFFFFF" fill-rule="evenodd" xlink:href="#path-1"></use>
                        <use stroke="#01414F" mask="url(#mask-2)" stroke-width="6" xlink:href="#path-1"></use>
                    </g>
                    <g id="Rectangle-1">
                        <use fill="#FFFFFF" fill-rule="evenodd" xlink:href="#path-3"></use>
                        <use stroke="#006277" mask="url(#mask-4)" stroke-width="6" xlink:href="#path-3"></use>
                    </g>
                    <g id="Calendar" transform="translate(45.000000, 14.000000)">
                        <g id="Capa_1" fill="#222222">
                            <path d="M28.5785483,4.85376562 L26.1987773,4.85376562 L26.1987773,3.03357031 C26.1987773,2.19950781 25.907208,1.48530859 25.3246555,0.891238281 C24.7417773,0.297167969 24.0417374,0 23.2233634,0 L22.0336408,0 C21.2153319,0 20.5150315,0.297167969 19.9324139,0.891304687 C19.3496008,1.48530859 19.058292,2.19957422 19.058292,3.03363672 L19.058292,4.85383203 L11.9185231,4.85383203 L11.9185231,3.03363672 C11.9185231,2.19957422 11.627084,1.485375 11.0444013,0.891304688 C10.4618487,0.297167969 9.76148319,0 8.94317437,0 L7.7532563,0 C6.93514286,0 6.23471218,0.297167969 5.65202941,0.891304687 C5.06947689,1.48530859 4.77797269,2.19957422 4.77797269,3.03363672 L4.77797269,4.85383203 L2.39813655,4.85383203 C1.75338866,4.85383203 1.19564916,5.09402344 0.724592437,5.57433984 C0.253535714,6.05458984 0.0179747899,6.62355859 0.0179747899,7.28078125 L0.0179747899,31.5491445 C0.0179747899,32.2059023 0.253535714,32.7747383 0.724592437,33.2553203 C1.19558403,33.7355039 1.75332353,33.9757617 2.39813655,33.9757617 L28.5780924,33.9757617 C29.222645,33.9757617 29.7809706,33.7355703 30.2514412,33.2553203 C30.722563,32.7749375 30.9581891,32.2058359 30.9581891,31.5491445 L30.9581891,7.28071484 C30.9581239,6.62329297 30.7227584,6.05458984 30.2518971,5.57427344 C29.7813613,5.09395703 29.2231008,4.85376562 28.5785483,4.85376562 Z M7.75306092,31.5488125 L2.39813655,31.5488125 L2.39813655,26.0882266 L7.75306092,26.0882266 L7.75306092,31.5488125 L7.75306092,31.5488125 Z M7.75306092,24.8751172 L2.39813655,24.8751172 L2.39813655,18.808375 L7.75306092,18.808375 L7.75306092,24.8751172 L7.75306092,24.8751172 Z M7.75306092,17.5944023 L2.39813655,17.5944023 L2.39813655,12.1342812 L7.75306092,12.1342812 L7.75306092,17.5944023 L7.75306092,17.5944023 Z M7.33495168,8.92055078 C7.21713866,8.80042187 7.15832983,8.65851172 7.15832983,8.49402344 L7.15832983,3.03383594 C7.15832983,2.86954687 7.21713866,2.72723828 7.33495168,2.60730859 C7.45276471,2.48717969 7.59193908,2.42721484 7.7532563,2.42721484 L8.94317437,2.42721484 C9.10429622,2.42721484 9.24386134,2.48717969 9.36147899,2.60730859 C9.47929202,2.72730469 9.53823109,2.86954687 9.53823109,3.03383594 L9.53823109,8.49402344 C9.53823109,8.65857812 9.47903151,8.80048828 9.36147899,8.92055078 C9.24379622,9.04067969 9.1044916,9.10064453 8.94317437,9.10064453 L7.7532563,9.10064453 C7.59213445,9.10071094 7.45276471,9.04067969 7.33495168,8.92055078 L7.33495168,8.92055078 Z M14.8932206,31.5488125 L8.94297899,31.5488125 L8.94297899,26.0882266 L14.8932206,26.0882266 L14.8932206,31.5488125 L14.8932206,31.5488125 Z M14.8932206,24.8751172 L8.94297899,24.8751172 L8.94297899,18.808375 L14.8932206,18.808375 L14.8932206,24.8751172 L14.8932206,24.8751172 Z M14.8932206,17.5944023 L8.94297899,17.5944023 L8.94297899,12.1342812 L14.8932206,12.1342812 L14.8932206,17.5944023 L14.8932206,17.5944023 Z M22.0336408,31.5488125 L16.0834643,31.5488125 L16.0834643,26.0882266 L22.0336408,26.0882266 L22.0336408,31.5488125 L22.0336408,31.5488125 Z M22.0336408,24.8751172 L16.0834643,24.8751172 L16.0834643,18.808375 L22.0336408,18.808375 L22.0336408,24.8751172 L22.0336408,24.8751172 Z M22.0336408,17.5944023 L16.0834643,17.5944023 L16.0834643,12.1342812 L22.0336408,12.1342812 L22.0336408,17.5944023 L22.0336408,17.5944023 Z M21.6150756,8.92055078 C21.4973929,8.80042187 21.4387794,8.65851172 21.4387794,8.49402344 L21.4387794,3.03383594 C21.4387794,2.86954687 21.4973929,2.72723828 21.6150756,2.60730859 C21.7328235,2.48717969 21.8722584,2.42721484 22.0336408,2.42721484 L23.2233634,2.42721484 C23.3847458,2.42721484 23.5240504,2.48717969 23.6419286,2.60730859 C23.7596765,2.72730469 23.8182248,2.86954687 23.8182248,3.03383594 L23.8182248,8.49402344 C23.8182248,8.65857812 23.759416,8.80048828 23.6419286,8.92055078 C23.5242458,9.04067969 23.3847458,9.10064453 23.2233634,9.10064453 L22.0336408,9.10064453 C21.8723235,9.10071094 21.7323676,9.04067969 21.6150756,8.92055078 L21.6150756,8.92055078 Z M28.5780924,31.5488125 L23.2229076,31.5488125 L23.2229076,26.0882266 L28.5780924,26.0882266 L28.5780924,31.5488125 L28.5780924,31.5488125 Z M28.5780924,24.8751172 L23.2229076,24.8751172 L23.2229076,18.808375 L28.5780924,18.808375 L28.5780924,24.8751172 L28.5780924,24.8751172 Z M28.5780924,17.5944023 L23.2229076,17.5944023 L23.2229076,12.1342812 L28.5780924,12.1342812 L28.5780924,17.5944023 L28.5780924,17.5944023 Z" id="Shape"></path>
                        </g>
                        <polygon id="Rectangle" fill="#5C5C5C" points="8.93652344 19.8978271 8.93652344 19.746582 8.93652344 18.7338257 14.9748535 18.7338257 14.9748535 24.9025269 13.3572998 24.9025269 12.1696167 24.9025269 8.93652344 24.9025269"></polygon>
                    </g>
                </g>
                <path d="M9.58979741,60.5275777 L110.806644,60.5275777 C110.806644,60.5275777 103.732764,99.7696613 61.6107024,102.332331 C19.488641,104.895 9.58979741,60.5275777 9.58979741,60.5275777 Z" id="Path-9-Copy-5" fill="#006277"></path>
            </g>
            <g id="Group-7-Copy-3" transform="translate(-1.000000, 154.000000)">
                <g id="Group-Copy-5">
                    <use id="Rectangle-1-Copy" stroke="#01414F" mask="url(#mask-6)" stroke-width="6" xlink:href="#path-5"></use>
                    <g id="Rectangle-1">
                        <use fill="#FFFFFF" fill-rule="evenodd" xlink:href="#path-7"></use>
                        <use stroke="#00404E" mask="url(#mask-8)" stroke-width="6" xlink:href="#path-7"></use>
                    </g>
                    <g id="Calendar" transform="translate(45.000000, 14.000000)">
                        <g id="Capa_1" fill="#222222">
                            <path d="M28.5785483,4.85376562 L26.1987773,4.85376562 L26.1987773,3.03357031 C26.1987773,2.19950781 25.907208,1.48530859 25.3246555,0.891238281 C24.7417773,0.297167969 24.0417374,0 23.2233634,0 L22.0336408,0 C21.2153319,0 20.5150315,0.297167969 19.9324139,0.891304687 C19.3496008,1.48530859 19.058292,2.19957422 19.058292,3.03363672 L19.058292,4.85383203 L11.9185231,4.85383203 L11.9185231,3.03363672 C11.9185231,2.19957422 11.627084,1.485375 11.0444013,0.891304688 C10.4618487,0.297167969 9.76148319,0 8.94317437,0 L7.7532563,0 C6.93514286,0 6.23471218,0.297167969 5.65202941,0.891304687 C5.06947689,1.48530859 4.77797269,2.19957422 4.77797269,3.03363672 L4.77797269,4.85383203 L2.39813655,4.85383203 C1.75338866,4.85383203 1.19564916,5.09402344 0.724592437,5.57433984 C0.253535714,6.05458984 0.0179747899,6.62355859 0.0179747899,7.28078125 L0.0179747899,31.5491445 C0.0179747899,32.2059023 0.253535714,32.7747383 0.724592437,33.2553203 C1.19558403,33.7355039 1.75332353,33.9757617 2.39813655,33.9757617 L28.5780924,33.9757617 C29.222645,33.9757617 29.7809706,33.7355703 30.2514412,33.2553203 C30.722563,32.7749375 30.9581891,32.2058359 30.9581891,31.5491445 L30.9581891,7.28071484 C30.9581239,6.62329297 30.7227584,6.05458984 30.2518971,5.57427344 C29.7813613,5.09395703 29.2231008,4.85376562 28.5785483,4.85376562 Z M7.75306092,31.5488125 L2.39813655,31.5488125 L2.39813655,26.0882266 L7.75306092,26.0882266 L7.75306092,31.5488125 L7.75306092,31.5488125 Z M7.75306092,24.8751172 L2.39813655,24.8751172 L2.39813655,18.808375 L7.75306092,18.808375 L7.75306092,24.8751172 L7.75306092,24.8751172 Z M7.75306092,17.5944023 L2.39813655,17.5944023 L2.39813655,12.1342812 L7.75306092,12.1342812 L7.75306092,17.5944023 L7.75306092,17.5944023 Z M7.33495168,8.92055078 C7.21713866,8.80042187 7.15832983,8.65851172 7.15832983,8.49402344 L7.15832983,3.03383594 C7.15832983,2.86954687 7.21713866,2.72723828 7.33495168,2.60730859 C7.45276471,2.48717969 7.59193908,2.42721484 7.7532563,2.42721484 L8.94317437,2.42721484 C9.10429622,2.42721484 9.24386134,2.48717969 9.36147899,2.60730859 C9.47929202,2.72730469 9.53823109,2.86954687 9.53823109,3.03383594 L9.53823109,8.49402344 C9.53823109,8.65857812 9.47903151,8.80048828 9.36147899,8.92055078 C9.24379622,9.04067969 9.1044916,9.10064453 8.94317437,9.10064453 L7.7532563,9.10064453 C7.59213445,9.10071094 7.45276471,9.04067969 7.33495168,8.92055078 L7.33495168,8.92055078 Z M14.8932206,31.5488125 L8.94297899,31.5488125 L8.94297899,26.0882266 L14.8932206,26.0882266 L14.8932206,31.5488125 L14.8932206,31.5488125 Z M14.8932206,24.8751172 L8.94297899,24.8751172 L8.94297899,18.808375 L14.8932206,18.808375 L14.8932206,24.8751172 L14.8932206,24.8751172 Z M14.8932206,17.5944023 L8.94297899,17.5944023 L8.94297899,12.1342812 L14.8932206,12.1342812 L14.8932206,17.5944023 L14.8932206,17.5944023 Z M22.0336408,31.5488125 L16.0834643,31.5488125 L16.0834643,26.0882266 L22.0336408,26.0882266 L22.0336408,31.5488125 L22.0336408,31.5488125 Z M22.0336408,24.8751172 L16.0834643,24.8751172 L16.0834643,18.808375 L22.0336408,18.808375 L22.0336408,24.8751172 L22.0336408,24.8751172 Z M22.0336408,17.5944023 L16.0834643,17.5944023 L16.0834643,12.1342812 L22.0336408,12.1342812 L22.0336408,17.5944023 L22.0336408,17.5944023 Z M21.6150756,8.92055078 C21.4973929,8.80042187 21.4387794,8.65851172 21.4387794,8.49402344 L21.4387794,3.03383594 C21.4387794,2.86954687 21.4973929,2.72723828 21.6150756,2.60730859 C21.7328235,2.48717969 21.8722584,2.42721484 22.0336408,2.42721484 L23.2233634,2.42721484 C23.3847458,2.42721484 23.5240504,2.48717969 23.6419286,2.60730859 C23.7596765,2.72730469 23.8182248,2.86954687 23.8182248,3.03383594 L23.8182248,8.49402344 C23.8182248,8.65857812 23.759416,8.80048828 23.6419286,8.92055078 C23.5242458,9.04067969 23.3847458,9.10064453 23.2233634,9.10064453 L22.0336408,9.10064453 C21.8723235,9.10071094 21.7323676,9.04067969 21.6150756,8.92055078 L21.6150756,8.92055078 Z M28.5780924,31.5488125 L23.2229076,31.5488125 L23.2229076,26.0882266 L28.5780924,26.0882266 L28.5780924,31.5488125 L28.5780924,31.5488125 Z M28.5780924,24.8751172 L23.2229076,24.8751172 L23.2229076,18.808375 L28.5780924,18.808375 L28.5780924,24.8751172 L28.5780924,24.8751172 Z M28.5780924,17.5944023 L23.2229076,17.5944023 L23.2229076,12.1342812 L28.5780924,12.1342812 L28.5780924,17.5944023 L28.5780924,17.5944023 Z" id="Shape"></path>
                        </g>
                        <polygon id="Rectangle" fill="#F06374" points="8.93652344 19.8978271 8.93652344 19.746582 8.93652344 18.7338257 14.9748535 18.7338257 14.9748535 24.9025269 13.3572998 24.9025269 12.1696167 24.9025269 8.93652344 24.9025269"></polygon>
                    </g>
                </g>
                <path d="M9.58979741,60.5275777 L110.806644,60.5275777 C110.806644,60.5275777 103.732764,99.7696613 61.6107024,102.332331 C19.488641,104.895 9.58979741,60.5275777 9.58979741,60.5275777 Z" id="Path-9-Copy-5" fill="#00404E"></path>
            </g>
        </g>
    </g>
</svg>