<svg baseProfile="tiny" xmlns="http://www.w3.org/2000/svg" viewBox="0 0 250 250"><path fill="#37474F" d="M20.8 203.1v-166.6c0-11.5 9.4-20.8 20.8-20.8h114.6c11.5 0 20.8 9.4 20.8 20.8v166.7c0 11.5-9.4 20.8-20.8 20.8h-114.5c-11.5 0-20.9-9.4-20.9-20.9z"/><path fill="#BBDEFB" d="M156.2 31.2h-114.5c-3.1 0-5.2 2.1-5.2 5.2v151c0 3.1 2.1 5.2 5.2 5.2h114.6c3.1 0 5.2-2.1 5.2-5.2v-151c0-3.1-2.1-5.2-5.3-5.2z"/><path fill="#78909C" d="M78.1 203.1h31.2v10.4h-31.2z"/><path fill="#1A758A" d="M125 213.5v-125c0-11.5 9.4-20.8 20.8-20.8h62.5c11.5 0 20.8 9.4 20.8 20.8v125c0 11.5-9.4 20.8-20.8 20.8h-62.5c-11.4.1-20.8-9.3-20.8-20.8z"/><path fill="#FFF3E0" d="M208.3 83.3h-62.5c-3.1 0-5.2 2.1-5.2 5.2v114.6c0 3.1 2.1 5.2 5.2 5.2h62.5c3.1 0 5.2-2.1 5.2-5.2v-114.6c0-3.1-2-5.2-5.2-5.2z"/><circle fill="#0D383F" cx="177.1" cy="221.4" r="7.8"/></svg>