<?xml version="1.0" encoding="UTF-8" standalone="no"?>
<svg width="119px" height="262px" viewBox="0 0 119 262" version="1.1" xmlns="http://www.w3.org/2000/svg" xmlns:xlink="http://www.w3.org/1999/xlink">
    <!-- Generator: Sketch 39.1 (31720) - http://www.bohemiancoding.com/sketch -->
    <title>Artboard</title>
    <desc>Created with Sketch.</desc>
    <defs>
        <rect id="path-1" x="11.5746691" y="1.94656127" width="99.2728422" height="99.274625" rx="49.6364211"></rect>
        <mask id="mask-2" maskContentUnits="userSpaceOnUse" maskUnits="objectBoundingBox" x="-3" y="-3" width="105.272842" height="105.274625">
            <rect x="8.57466905" y="-1.05343873" width="105.272842" height="105.274625" fill="white"></rect>
            <use xlink:href="#path-1" fill="black"></use>
        </mask>
        <rect id="path-3" x="10.6101133" y="0" width="99.2728422" height="99.274625" rx="49.6364211"></rect>
        <mask id="mask-4" maskContentUnits="userSpaceOnUse" maskUnits="objectBoundingBox" x="-3" y="-3" width="105.272842" height="105.274625">
            <rect x="7.6101133" y="-3" width="105.272842" height="105.274625" fill="white"></rect>
            <use xlink:href="#path-3" fill="black"></use>
        </mask>
        <rect id="path-5" x="11.5746691" y="1.94656127" width="99.2728422" height="99.274625" rx="49.6364211"></rect>
        <mask id="mask-6" maskContentUnits="userSpaceOnUse" maskUnits="objectBoundingBox" x="-3" y="-3" width="105.272842" height="105.274625">
            <rect x="8.57466905" y="-1.05343873" width="105.272842" height="105.274625" fill="white"></rect>
            <use xlink:href="#path-5" fill="black"></use>
        </mask>
        <rect id="path-7" x="10.6101133" y="0" width="99.2728422" height="99.274625" rx="49.6364211"></rect>
        <mask id="mask-8" maskContentUnits="userSpaceOnUse" maskUnits="objectBoundingBox" x="-3" y="-3" width="105.272842" height="105.274625">
            <rect x="7.6101133" y="-3" width="105.272842" height="105.274625" fill="white"></rect>
            <use xlink:href="#path-7" fill="black"></use>
        </mask>
    </defs>
    <g id="Page-1" stroke="none" stroke-width="1" fill="none" fill-rule="evenodd">
        <g id="Artboard">
            <g id="Group-7-Copy-2" transform="translate(-1.000000, 8.000000)">
                <g id="Group-Copy-5">
                    <g id="Rectangle-1-Copy">
                        <use fill="#FFFFFF" fill-rule="evenodd" xlink:href="#path-1"></use>
                        <use stroke="#01414F" mask="url(#mask-2)" stroke-width="6" xlink:href="#path-1"></use>
                    </g>
                    <g id="Rectangle-1">
                        <use fill="#FFFFFF" fill-rule="evenodd" xlink:href="#path-3"></use>
                        <use stroke="#006277" mask="url(#mask-4)" stroke-width="6" xlink:href="#path-3"></use>
                    </g>
                    <g id="Groups" transform="translate(40.000000, 21.000000)">
                        <g id="user-shape">
                            <g id="user-shape-copy" transform="translate(15.652174, 0.000000)" fill="#5C5C5C">
                                <g id="Capa_1">
                                    <g id="Group">
                                        <path d="M11.8598583,12.7811552 C13.6436248,12.7811552 15.1661108,12.1568653 16.4277289,10.9088101 C17.6894649,9.66075495 18.3204507,8.15470658 18.3204507,6.39043187 C18.3204507,4.6264486 17.6894649,3.12034195 16.4277289,1.87199532 C15.1656984,0.623998441 13.6431534,0 11.8598583,0 C10.0765631,0 8.55378245,0.623998441 7.29216436,1.87199532 C6.03031056,3.12034195 5.39938366,4.62639031 5.39938366,6.39043187 C5.39938366,8.15470658 6.03031056,9.66075495 7.29216436,10.9088101 C8.55413601,12.1568653 10.0765042,12.7811552 11.8598583,12.7811552 L11.8598583,12.7811552 Z" id="Shape"></path>
                                        <path d="M23.6447619,19.5293734 C23.6053989,18.9692612 23.5267909,18.3644403 23.4092324,17.7153187 C23.2914381,17.0661971 23.1426485,16.4645821 22.9631581,15.9095995 C22.7836678,15.3550249 22.5424813,14.8140902 22.2396576,14.2870287 C21.9369517,13.7600254 21.5892849,13.3107815 21.1964803,12.9389472 C20.8036757,12.5672295 20.324308,12.2706481 19.7583182,12.0487949 C19.1916213,11.8270001 18.5662924,11.7158986 17.8820959,11.7158986 C17.7812725,11.7158986 17.545684,11.8351607 17.1755072,12.0737432 C16.805684,12.3123257 16.3878356,12.5786544 15.9223746,12.8727877 C15.4569724,13.1663963 14.8509715,13.4328998 14.1054324,13.6710743 C13.3595397,13.9096568 12.6109954,14.0289772 11.859269,14.0289772 C11.1078372,14.0289772 10.359234,13.9096568 9.61345915,13.6710743 C8.86774327,13.4328998 8.2619191,13.1663963 7.79645803,12.8727877 C7.3310559,12.5786544 6.91332537,12.312384 6.54326644,12.0737432 C6.17303074,11.8351607 5.93761905,11.7158986 5.83667781,11.7158986 C5.15254021,11.7158986 4.52721134,11.8270001 3.96086797,12.0487949 C3.39440675,12.2706481 2.91498009,12.5674627 2.52235229,12.9389472 C2.12984233,13.3107815 1.78211658,13.7600254 1.47941073,14.2870287 C1.17670489,14.8140902 0.935577321,15.3552581 0.756086957,15.9095995 C0.576655518,16.4645821 0.427983755,17.0661971 0.310248447,17.7153187 C0.192395286,18.3644403 0.11390508,18.9688531 0.0746010511,19.5293734 C0.0353559484,20.0898936 0.0157923236,20.6640538 0.0157923236,21.252087 C0.0157923236,22.583206 0.425273133,23.634706 1.24394012,24.4058294 C2.06278388,25.1766613 3.15080427,25.5620189 4.50788342,25.5620189 L19.2120099,25.5620189 C20.5689712,25.5620189 21.6568737,25.1766613 22.4758353,24.4058294 C23.2949737,23.634706 23.7041599,22.5833809 23.7041599,21.252087 C23.704042,20.6640538 23.6844784,20.0898936 23.6447619,19.5293734 L23.6447619,19.5293734 Z" id="Shape"></path>
                                    </g>
                                </g>
                            </g>
                            <g id="Capa_1" transform="translate(0.000000, 0.866667)" fill="#222222">
                                <g id="Group">
                                    <path d="M11.4362919,12.3551167 C13.1563525,12.3551167 14.624464,11.7516364 15.8410243,10.5451831 C17.0576983,9.33872978 17.6661489,7.88288303 17.6661489,6.17741747 C17.6661489,4.47223365 17.0576983,3.01633055 15.8410243,1.80959548 C14.6240663,0.603198493 13.1558979,0 11.4362919,0 C9.71668589,0 8.24829022,0.603198493 7.03172992,1.80959548 C5.81494232,3.01633055 5.20654853,4.4721773 5.20654853,6.17741747 C5.20654853,7.88288303 5.81494232,9.33872978 7.03172992,10.5451831 C8.24863115,11.7516364 9.71662907,12.3551167 11.4362919,12.3551167 L11.4362919,12.3551167 Z" id="Shape"></path>
                                    <path d="M22.5731883,17.124808 C22.4596011,16.4973238 22.3161253,15.9157627 22.1430454,15.3792795 C21.9699654,14.8431907 21.7373927,14.3202872 21.4453841,13.8107944 C21.1534892,13.3013579 20.818239,12.8670888 20.4394632,12.507649 C20.0606873,12.1483219 19.5984399,11.8616265 19.052664,11.6471684 C18.5062062,11.4327667 17.9032105,11.3253687 17.2434496,11.3253687 C17.146227,11.3253687 16.9190525,11.4406554 16.5620963,11.6712851 C16.205481,11.9019149 15.8025558,12.1593659 15.3537183,12.4436947 C14.9049377,12.7275164 14.3205797,12.9851365 13.601667,13.2153718 C12.8824133,13.4460016 12.1606027,13.5613446 11.4357237,13.5613446 C10.7111288,13.5613446 9.98926131,13.4460016 9.27012132,13.2153718 C8.55103815,12.9851365 7.96685056,12.7275164 7.5180131,12.4436947 C7.06923248,12.1593659 6.66642089,11.9019712 6.30957836,11.6712851 C5.95256535,11.4406554 5.72556122,11.3253687 5.62822504,11.3253687 C4.96852092,11.3253687 4.36552522,11.4327667 3.8194084,11.6471684 C3.27317794,11.8616265 2.81087366,12.1485473 2.43226828,12.507649 C2.05377653,12.8670888 1.71846956,13.3013579 1.42657464,13.8107944 C1.13467971,14.3202872 0.902163845,14.8434161 0.729083851,15.3792795 C0.556060678,15.9157627 0.412698621,16.4973238 0.299168146,17.124808 C0.185524026,17.7522923 0.109837042,18.336558 0.0719367279,18.8783942 C0.034093236,19.4202305 0.0152283121,19.975252 0.0152283121,20.5436841 C0.0152283121,21.8304325 0.410084806,22.8468825 1.19951369,23.5923017 C1.98911303,24.3374392 3.03827554,24.7099516 4.34688758,24.7099516 L18.5258667,24.7099516 C19.8343651,24.7099516 20.8834139,24.3374392 21.6731269,23.5923017 C22.4630104,22.8468825 22.8575828,21.8306015 22.8575828,20.5436841 C22.8574691,19.975252 22.8386042,19.4202305 22.8003061,18.8783942 C22.762349,18.3369525 22.6865484,17.7522923 22.5731883,17.124808 Z" id="Shape"></path>
                                </g>
                            </g>
                        </g>
                    </g>
                </g>
                <path d="M9.58979741,60.5275777 L110.806644,60.5275777 C110.806644,60.5275777 103.732764,99.7696613 61.6107024,102.332331 C19.488641,104.895 9.58979741,60.5275777 9.58979741,60.5275777 Z" id="Path-9-Copy-5" fill="#006277"></path>
            </g>
            <g id="Group-7-Copy-3" transform="translate(-1.000000, 154.000000)">
                <g id="Group-Copy-5">
                    <use id="Rectangle-1-Copy" stroke="#01414F" mask="url(#mask-6)" stroke-width="6" xlink:href="#path-5"></use>
                    <g id="Rectangle-1">
                        <use fill="#FFFFFF" fill-rule="evenodd" xlink:href="#path-7"></use>
                        <use stroke="#00404E" mask="url(#mask-8)" stroke-width="6" xlink:href="#path-7"></use>
                    </g>
                    <g id="Groups" transform="translate(40.000000, 21.000000)">
                        <g id="user-shape">
                            <g id="user-shape-copy" transform="translate(15.652174, 0.000000)" fill="#F06374">
                                <g id="Capa_1">
                                    <g id="Group">
                                        <path d="M11.8598583,12.7811552 C13.6436248,12.7811552 15.1661108,12.1568653 16.4277289,10.9088101 C17.6894649,9.66075495 18.3204507,8.15470658 18.3204507,6.39043187 C18.3204507,4.6264486 17.6894649,3.12034195 16.4277289,1.87199532 C15.1656984,0.623998441 13.6431534,0 11.8598583,0 C10.0765631,0 8.55378245,0.623998441 7.29216436,1.87199532 C6.03031056,3.12034195 5.39938366,4.62639031 5.39938366,6.39043187 C5.39938366,8.15470658 6.03031056,9.66075495 7.29216436,10.9088101 C8.55413601,12.1568653 10.0765042,12.7811552 11.8598583,12.7811552 L11.8598583,12.7811552 Z" id="Shape"></path>
                                        <path d="M23.6447619,19.5293734 C23.6053989,18.9692612 23.5267909,18.3644403 23.4092324,17.7153187 C23.2914381,17.0661971 23.1426485,16.4645821 22.9631581,15.9095995 C22.7836678,15.3550249 22.5424813,14.8140902 22.2396576,14.2870287 C21.9369517,13.7600254 21.5892849,13.3107815 21.1964803,12.9389472 C20.8036757,12.5672295 20.324308,12.2706481 19.7583182,12.0487949 C19.1916213,11.8270001 18.5662924,11.7158986 17.8820959,11.7158986 C17.7812725,11.7158986 17.545684,11.8351607 17.1755072,12.0737432 C16.805684,12.3123257 16.3878356,12.5786544 15.9223746,12.8727877 C15.4569724,13.1663963 14.8509715,13.4328998 14.1054324,13.6710743 C13.3595397,13.9096568 12.6109954,14.0289772 11.859269,14.0289772 C11.1078372,14.0289772 10.359234,13.9096568 9.61345915,13.6710743 C8.86774327,13.4328998 8.2619191,13.1663963 7.79645803,12.8727877 C7.3310559,12.5786544 6.91332537,12.312384 6.54326644,12.0737432 C6.17303074,11.8351607 5.93761905,11.7158986 5.83667781,11.7158986 C5.15254021,11.7158986 4.52721134,11.8270001 3.96086797,12.0487949 C3.39440675,12.2706481 2.91498009,12.5674627 2.52235229,12.9389472 C2.12984233,13.3107815 1.78211658,13.7600254 1.47941073,14.2870287 C1.17670489,14.8140902 0.935577321,15.3552581 0.756086957,15.9095995 C0.576655518,16.4645821 0.427983755,17.0661971 0.310248447,17.7153187 C0.192395286,18.3644403 0.11390508,18.9688531 0.0746010511,19.5293734 C0.0353559484,20.0898936 0.0157923236,20.6640538 0.0157923236,21.252087 C0.0157923236,22.583206 0.425273133,23.634706 1.24394012,24.4058294 C2.06278388,25.1766613 3.15080427,25.5620189 4.50788342,25.5620189 L19.2120099,25.5620189 C20.5689712,25.5620189 21.6568737,25.1766613 22.4758353,24.4058294 C23.2949737,23.634706 23.7041599,22.5833809 23.7041599,21.252087 C23.704042,20.6640538 23.6844784,20.0898936 23.6447619,19.5293734 L23.6447619,19.5293734 Z" id="Shape"></path>
                                    </g>
                                </g>
                            </g>
                            <g id="Capa_1" transform="translate(0.000000, 0.866667)" fill="#222222">
                                <g id="Group">
                                    <path d="M11.4362919,12.3551167 C13.1563525,12.3551167 14.624464,11.7516364 15.8410243,10.5451831 C17.0576983,9.33872978 17.6661489,7.88288303 17.6661489,6.17741747 C17.6661489,4.47223365 17.0576983,3.01633055 15.8410243,1.80959548 C14.6240663,0.603198493 13.1558979,0 11.4362919,0 C9.71668589,0 8.24829022,0.603198493 7.03172992,1.80959548 C5.81494232,3.01633055 5.20654853,4.4721773 5.20654853,6.17741747 C5.20654853,7.88288303 5.81494232,9.33872978 7.03172992,10.5451831 C8.24863115,11.7516364 9.71662907,12.3551167 11.4362919,12.3551167 L11.4362919,12.3551167 Z" id="Shape"></path>
                                    <path d="M22.5731883,17.124808 C22.4596011,16.4973238 22.3161253,15.9157627 22.1430454,15.3792795 C21.9699654,14.8431907 21.7373927,14.3202872 21.4453841,13.8107944 C21.1534892,13.3013579 20.818239,12.8670888 20.4394632,12.507649 C20.0606873,12.1483219 19.5984399,11.8616265 19.052664,11.6471684 C18.5062062,11.4327667 17.9032105,11.3253687 17.2434496,11.3253687 C17.146227,11.3253687 16.9190525,11.4406554 16.5620963,11.6712851 C16.205481,11.9019149 15.8025558,12.1593659 15.3537183,12.4436947 C14.9049377,12.7275164 14.3205797,12.9851365 13.601667,13.2153718 C12.8824133,13.4460016 12.1606027,13.5613446 11.4357237,13.5613446 C10.7111288,13.5613446 9.98926131,13.4460016 9.27012132,13.2153718 C8.55103815,12.9851365 7.96685056,12.7275164 7.5180131,12.4436947 C7.06923248,12.1593659 6.66642089,11.9019712 6.30957836,11.6712851 C5.95256535,11.4406554 5.72556122,11.3253687 5.62822504,11.3253687 C4.96852092,11.3253687 4.36552522,11.4327667 3.8194084,11.6471684 C3.27317794,11.8616265 2.81087366,12.1485473 2.43226828,12.507649 C2.05377653,12.8670888 1.71846956,13.3013579 1.42657464,13.8107944 C1.13467971,14.3202872 0.902163845,14.8434161 0.729083851,15.3792795 C0.556060678,15.9157627 0.412698621,16.4973238 0.299168146,17.124808 C0.185524026,17.7522923 0.109837042,18.336558 0.0719367279,18.8783942 C0.034093236,19.4202305 0.0152283121,19.975252 0.0152283121,20.5436841 C0.0152283121,21.8304325 0.410084806,22.8468825 1.19951369,23.5923017 C1.98911303,24.3374392 3.03827554,24.7099516 4.34688758,24.7099516 L18.5258667,24.7099516 C19.8343651,24.7099516 20.8834139,24.3374392 21.6731269,23.5923017 C22.4630104,22.8468825 22.8575828,21.8306015 22.8575828,20.5436841 C22.8574691,19.975252 22.8386042,19.4202305 22.8003061,18.8783942 C22.762349,18.3369525 22.6865484,17.7522923 22.5731883,17.124808 Z" id="Shape"></path>
                                </g>
                            </g>
                        </g>
                    </g>
                </g>
                <path d="M9.58979741,60.5275777 L110.806644,60.5275777 C110.806644,60.5275777 103.732764,99.7696613 61.6107024,102.332331 C19.488641,104.895 9.58979741,60.5275777 9.58979741,60.5275777 Z" id="Path-9-Copy-5" fill="#00404E"></path>
            </g>
        </g>
    </g>
</svg>