<?xml version="1.0" encoding="UTF-8" standalone="no"?>
<svg width="110px" height="110px" viewBox="0 0 110 110" version="1.1" xmlns="http://www.w3.org/2000/svg" xmlns:xlink="http://www.w3.org/1999/xlink">
    <!-- Generator: Sketch 39 (31667) - http://www.bohemiancoding.com/sketch -->
    <title>Group</title>
    <desc>Created with Sketch.</desc>
    <defs>
        <rect id="path-1" x="12" y="2" width="102.920792" height="102" rx="51"></rect>
        <mask id="mask-2" maskContentUnits="userSpaceOnUse" maskUnits="objectBoundingBox" x="-3" y="-3" width="108.920792" height="108">
            <rect x="9" y="-1" width="108.920792" height="108" fill="white"></rect>
            <use xlink:href="#path-1" fill="black"></use>
        </mask>
        <rect id="path-3" x="11" y="0" width="102.920792" height="102" rx="51"></rect>
        <mask id="mask-4" maskContentUnits="userSpaceOnUse" maskUnits="objectBoundingBox" x="-3" y="-3" width="108.920792" height="108">
            <rect x="8" y="-3" width="108.920792" height="108" fill="white"></rect>
            <use xlink:href="#path-3" fill="black"></use>
        </mask>
    </defs>
    <g id="Page-1" stroke="none" stroke-width="1" fill="none" fill-rule="evenodd">
        <g id="Artboard-1" transform="translate(-39.000000, -294.000000)">
            <g id="Group" transform="translate(31.000000, 297.000000)">
                <g id="Rectangle-1-Copy">
                    <use fill="#F5F5F5" fill-rule="evenodd" xlink:href="#path-1"></use>
                    <use stroke="#01414F" mask="url(#mask-2)" stroke-width="6" xlink:href="#path-1"></use>
                </g>
                <g id="Rectangle-1">
                    <use fill="#F5F5F5" fill-rule="evenodd" xlink:href="#path-3"></use>
                    <use stroke="#006277" mask="url(#mask-4)" stroke-width="6" xlink:href="#path-3"></use>
                </g>
                <g id="Group-4" transform="translate(49.000000, 17.000000)" opacity="0.687616604">
                    <g id="Group-3">
                        <g id="Group-2">
                            <g id="file">
                                <g id="Capa_1">
                                    <g id="Group">
                                        <path d="M27.4612568,8.40264692 L20.4031639,1.50343508 C19.6487678,0.766355353 18.6531011,0.287025057 17.4166393,0.0661412301 L17.4166393,11.321303 L28.931541,11.321303 C28.7053251,10.1121731 28.2148607,9.13941686 27.4612568,8.40264692 L27.4612568,8.40264692 Z" id="Shape" fill="#5C5C5C"></path>
                                        <path d="M16.6929071,14.1514351 C16.0893743,14.1514351 15.5765656,13.9451891 15.1544016,13.5323872 C14.7320792,13.1198178 14.5211557,12.6185695 14.5211557,12.0287973 L14.5211557,0 L2.21485519,0 C1.61171858,0 1.09890984,0.206246014 0.676666667,0.619047836 C0.254344262,1.03161731 0.0432622951,1.5328656 0.0432622951,2.12263781 L0.0432622951,31.8411936 C0.0432622951,32.4311207 0.254344262,32.932369 0.676666667,33.3450159 C1.09898907,33.7574305 1.61171858,33.9639089 2.21493443,33.9639089 L26.8279317,33.9639089 C27.4309891,33.9639089 27.9434809,33.7574305 28.3656448,33.3450159 C28.7878087,32.9320592 28.9990492,32.4311207 28.9990492,31.8411936 L28.9990492,14.1514351 L16.6929071,14.1514351 L16.6929071,14.1514351 Z" id="Shape" fill="#000000"></path>
                                    </g>
                                </g>
                            </g>
                        </g>
                    </g>
                </g>
                <path d="M10,63 L115.546387,63 C115.546387,63 108.169922,102.538574 64.2460938,105.120605 C20.3222656,107.702637 10,63 10,63 Z" id="Path-9" fill="#006277"></path>
            </g>
        </g>
    </g>
</svg>