<?xml version="1.0" encoding="UTF-8" standalone="no"?>
<svg width="162px" height="48px" viewBox="0 0 162 48" version="1.1" xmlns="http://www.w3.org/2000/svg" xmlns:xlink="http://www.w3.org/1999/xlink" xmlns:sketch="http://www.bohemiancoding.com/sketch/ns">
    <!-- Generator: Sketch 3.3 (11970) - http://www.bohemiancoding.com/sketch -->
    <title>Kent-State-Logo-White</title>
    <desc>Created with Sketch.</desc>
    <defs></defs>
    <g id="Page-1" stroke="none" stroke-width="1" fill="none" fill-rule="evenodd" sketch:type="MSPage">
        <g id="Adventurous" sketch:type="MSArtboardGroup" transform="translate(-49.000000, -514.000000)">
            <g id="Kent-State-Logo-White" sketch:type="MSLayerGroup" transform="translate(50.000000, 514.332817)">
                <path d="M12.4378916,42.351244 C12.4378916,40.9276728 12.4378916,40.6717903 12.4172107,40.3798681 C12.3995271,40.0702264 12.3281931,39.921262 12.0281707,39.8590934 L11.7158597,39.8320635 L11.644226,39.7756012 C11.644226,39.7215415 11.6891844,39.7041223 11.7901909,39.7041223 C12.1999118,39.7041223 12.7564968,39.7311521 12.8368225,39.7311521 C12.9192462,39.7311521 13.4662401,39.7041223 13.7395872,39.7041223 C13.8405937,39.7041223 13.8855521,39.7218419 13.8855521,39.7756012 L13.8139184,39.8320635 C13.7491783,39.8320635 13.6952282,39.8407731 13.5855297,39.8590934 C13.3385582,39.8942321 13.2672242,40.0615168 13.2465434,40.3798681 C13.2288597,40.6720907 13.2288597,40.9276728 13.2288597,42.351244 L13.2288597,43.6318574 C13.2288597,44.945207 13.5198905,45.5113319 13.9119277,45.8867462 C14.3609123,46.306009 14.7712326,46.3895011 15.2879545,46.3895011 C15.8436404,46.3895011 16.3906342,46.1243084 16.7206289,45.7320755 C17.1399409,45.2107 17.2499392,44.4334422 17.2499392,43.4955069 L17.2499392,42.3515443 C17.2499392,40.9279731 17.2499392,40.6720907 17.2322555,40.3801685 C17.2109752,40.0705267 17.1402407,39.9215623 16.8393191,39.8593937 L16.5276075,39.8323639 L16.4559738,39.7759015 C16.4559738,39.7218419 16.5009322,39.7044226 16.6019387,39.7044226 C17.0116596,39.7044226 17.5142946,39.7314525 17.5673455,39.7314525 C17.6329847,39.7314525 18.0612884,39.7044226 18.3346355,39.7044226 C18.4326448,39.7044226 18.4797013,39.7221422 18.4797013,39.7759015 L18.4050703,39.8323639 C18.3430278,39.8323639 18.2863802,39.8323639 18.1796789,39.8593937 C17.9327074,39.9038427 17.8583762,40.0618171 17.8406925,40.3801685 C17.8230089,40.672391 17.8230089,40.9279731 17.8230089,42.3515443 L17.8230089,43.328823 C17.8230089,44.3172139 17.7133104,45.4128231 16.9849843,46.0594368 C16.3282919,46.6459842 15.6443248,46.7357833 15.1063226,46.7357833 C14.7976082,46.7357833 13.8762607,46.6994432 13.22856,46.0864666 C12.7825727,45.6569926 12.4375919,45.0199895 12.4375919,43.6862174 L12.4375919,42.351244 L12.4378916,42.351244 Z" id="Shape" stroke="#EEB211" stroke-width="0.5248" fill="#EEB211" sketch:type="MSShapeGroup"></path>
                <path d="M28.8974621,45.3650704 C28.9151457,46.1152985 29.0071606,46.3510587 29.2505354,46.4249402 C29.4258731,46.4699899 29.6254884,46.4789999 29.7082119,46.4789999 L29.7798456,46.5357625 C29.7798456,46.5892215 29.7267947,46.6066408 29.616197,46.6066408 C29.0964779,46.6066408 28.7341132,46.5796109 28.6504906,46.5796109 C28.5671677,46.5796109 28.1871193,46.6066408 27.7764992,46.6066408 L27.6314335,46.5357625 L27.702168,46.4789999 C27.776799,46.4789999 27.9401478,46.4702903 28.0765216,46.4249402 C28.3058095,46.3627716 28.3507679,46.0975789 28.3507679,45.264159 L28.3594599,40.031784 C28.3594599,39.6767921 28.3861352,39.5758808 28.4604664,39.5758808 L28.7781724,39.8675026 C28.9151457,40.0224737 30.2734889,41.4934973 31.6758913,43.0005607 C32.5795551,43.968529 33.5722366,45.0824585 33.8632673,45.38279 L33.765258,40.7435696 C33.7535688,40.1504149 33.6906271,39.9509948 33.408588,39.8765126 C33.2449395,39.8407731 33.0339347,39.8320635 32.9626007,39.8320635 L32.8879698,39.7668916 C32.8879698,39.7128319 32.9626007,39.7041223 33.069302,39.7041223 C33.479922,39.7041223 33.9199149,39.7311521 34.0179242,39.7311521 C34.1189308,39.7311521 34.4189532,39.7041223 34.7933068,39.7041223 C34.8943134,39.7041223 34.9569554,39.7128319 34.9569554,39.7668916 L34.8589461,39.8320635 C34.8109904,39.8320635 34.7489479,39.8320635 34.6386499,39.8590934 C34.3386275,39.921262 34.300263,40.1242861 34.300263,40.6720907 L34.2816802,46.023397 C34.2816802,46.6252613 34.2639966,46.672113 34.201954,46.672113 C34.1276227,46.672113 34.0176245,46.5712017 33.5356705,46.0861663 C33.4346639,45.9969679 32.1212792,44.6532848 31.155273,43.6144382 C30.1005489,42.4704756 29.0689034,41.3214073 28.777573,40.9907424 L28.8974621,45.3650704 L28.8974621,45.3650704 Z" id="Shape" stroke="#EEB211" stroke-width="0.5248" fill="#EEB211" sketch:type="MSShapeGroup"></path>
                <path d="M46.1677824,43.9598194 C46.1677824,44.8349854 46.1677824,45.5587842 46.2151385,45.9402052 C46.2424133,46.2053979 46.2954642,46.4078213 46.5688113,46.4435608 C46.6970926,46.4612803 46.8991057,46.4793002 46.9794314,46.4793002 L47.0540623,46.5360629 C47.0540623,46.5799113 47.0061067,46.6069411 46.9080974,46.6069411 C46.4060619,46.6069411 45.832093,46.5799113 45.7847368,46.5799113 C45.7397784,46.5799113 45.1664089,46.6069411 44.8927621,46.6069411 C44.7917555,46.6069411 44.7467971,46.5892215 44.7467971,46.5360629 L44.8184309,46.4793002 L45.0917779,46.4435608 C45.2761074,46.4078213 45.3210658,46.2053979 45.3564331,45.9402052 C45.4034895,45.5587842 45.4034895,44.8349854 45.4034895,43.9598194 L45.4034895,42.3515443 C45.4034895,40.9279731 45.4034895,40.6720907 45.3828087,40.3801685 C45.365125,40.0705267 45.2761074,39.9125524 45.0740943,39.8681033 C44.9730878,39.8410735 44.8564956,39.8323639 44.7917555,39.8323639 L44.7204216,39.7759015 C44.7204216,39.7218419 44.76538,39.7044226 44.8663865,39.7044226 C45.1664089,39.7044226 45.7397784,39.7314525 45.7847368,39.7314525 C45.8317932,39.7314525 46.4060619,39.7044226 46.6785098,39.7044226 C46.7801158,39.7044226 46.8244747,39.7221422 46.8244747,39.7759015 L46.7498438,39.8323639 C46.6872017,39.8323639 46.6341508,39.8410735 46.5244523,39.8593937 C46.2774809,39.9038427 46.2031496,40.0618171 46.185466,40.3801685 C46.1677824,40.672391 46.1677824,40.9279731 46.1677824,42.3515443 L46.1677824,43.9598194 L46.1677824,43.9598194 Z" id="Shape" stroke="#EEB211" stroke-width="0.5248" fill="#EEB211" sketch:type="MSShapeGroup"></path>
                <path d="M59.5120353,45.4936123 C60.0413456,44.2694612 61.2624157,41.0823435 61.4614316,40.4243172 C61.50639,40.2876664 61.545354,40.1591245 61.545354,40.078936 L61.4260643,39.867803 C61.3163658,39.8320635 61.179992,39.8320635 61.0780863,39.8320635 L60.980077,39.7756012 C60.980077,39.7215415 61.0340271,39.7041223 61.179992,39.7041223 C61.5456537,39.7041223 61.9643663,39.7311521 62.0740648,39.7311521 C62.1280148,39.7311521 62.5200521,39.7041223 62.7844075,39.7041223 C62.8824168,39.7041223 62.9393641,39.7218419 62.9393641,39.7668916 L62.8296656,39.8320635 C62.7670236,39.8320635 62.5650105,39.8320635 62.39267,39.9422852 C62.2733803,40.022774 62.1370065,40.1774447 61.890035,40.7997316 C61.7890285,41.0562146 61.3343492,42.1518239 60.8706782,43.274463 C60.3149924,44.6088358 59.9052715,45.5945237 59.6936673,46.0414169 C59.4377041,46.5892215 59.4023368,46.735483 59.310322,46.735483 C59.2006235,46.735483 59.1553653,46.6069411 58.9830248,46.1693581 L56.7512898,40.5702783 C56.5492767,40.0612164 56.4123034,39.9603051 56.0945974,39.8675026 C55.9573244,39.8317632 55.8026675,39.8317632 55.7466193,39.8317632 L55.6752853,39.7665913 C55.6752853,39.7125316 55.764303,39.703822 55.9102679,39.703822 C56.3493616,39.703822 56.8669827,39.7308518 56.9766812,39.7308518 C57.0689958,39.7308518 57.4793161,39.703822 57.8242969,39.703822 C57.9903433,39.703822 58.0703692,39.7215415 58.0703692,39.7665913 L57.9813516,39.8317632 C57.8803451,39.8317632 57.7175957,39.8404728 57.6342728,39.8762122 C57.5332662,39.9206613 57.5149831,39.9951435 57.5149831,40.0609161 C57.5149831,40.1771444 57.6249814,40.4597563 57.7619546,40.8171508 L59.5120353,45.4936123 L59.5120353,45.4936123 Z" id="Shape" stroke="#EEB211" stroke-width="0.5248" fill="#EEB211" sketch:type="MSShapeGroup"></path>
                <path d="M72.4171946,42.351244 C72.4171946,40.9276728 72.4171946,40.6717903 72.3986118,40.3798681 C72.3809281,40.0702264 72.3071963,39.921262 72.0065745,39.8590934 L71.6978601,39.8320635 L71.6235289,39.7756012 C71.6235289,39.7215415 71.6702857,39.7041223 71.7691941,39.7041223 C72.178915,39.7041223 72.7552817,39.7311521 72.7999404,39.7311521 C72.8628822,39.7311521 74.6789019,39.7311521 74.8866097,39.7218419 C75.0589502,39.7131323 75.2070132,39.6954127 75.278647,39.6773928 L75.407228,39.6293398 L75.4425953,39.7131323 C75.4425953,39.7759015 75.3976369,39.8855225 75.3712613,40.1420056 C75.3622696,40.234808 75.3445859,40.6360509 75.3233056,40.7438699 L75.261263,40.8447813 L75.1869318,40.72585 C75.1869318,40.6630807 75.1782399,40.5087104 75.1329817,40.3984887 C75.0709391,40.2525276 74.9789243,40.1420056 74.485281,40.0882463 C74.3309239,40.0705267 73.3385421,40.0618171 73.2375355,40.0618171 L73.1835854,40.1510156 L73.1835854,42.6731993 L73.2375355,42.7629985 C73.3562257,42.7629985 74.4762893,42.7629985 74.6878936,42.7446782 C74.9048928,42.7269587 75.0319752,42.7089388 75.1155978,42.616737 L75.2525711,42.4978058 L75.2966303,42.572288 C75.2966303,42.625747 75.2525711,42.7810183 75.2261955,43.0843531 C75.2076127,43.2660537 75.1869318,43.6030256 75.1869318,43.6678972 L75.1242898,43.8402875 L75.05925,43.7576963 C75.05925,43.6678972 75.05925,43.5759958 75.0232832,43.4567642 C74.987916,43.328823 74.9045931,43.1735516 74.5509203,43.1381125 C74.3042485,43.110482 73.4002849,43.0930628 73.2462275,43.0930628 L73.1835854,43.155832 L73.1835854,43.9601197 C73.1835854,44.2697615 73.1748935,45.3299316 73.1835854,45.5203418 C73.209961,46.1516386 73.347234,46.2711705 74.238909,46.2711705 C74.4759896,46.2711705 74.8779177,46.2711705 75.1152981,46.1696585 C75.3532779,46.0687471 75.4599792,45.8870465 75.5256184,45.5116322 C75.5433021,45.4131235 75.5609857,45.3743807 75.6059441,45.3743807 L75.662292,45.5116322 C75.662292,45.5861144 75.5879608,46.2056982 75.5436018,46.3985111 C75.4809598,46.6342713 75.4075277,46.6342713 75.050558,46.6342713 C73.673632,46.6342713 73.0648953,46.5802116 72.8002401,46.5802116 C72.7825565,46.5802116 72.6281993,46.5895219 72.4348782,46.5895219 C72.253546,46.5982315 72.0419418,46.6072414 71.905568,46.6072414 C71.8075586,46.6072414 71.7605022,46.5895219 71.7605022,46.5363632 L71.834234,46.4796006 L72.107581,46.4438611 C72.2886135,46.4081217 72.3368689,46.2056982 72.3722362,45.9405055 C72.4171946,45.5590846 72.4171946,44.8352857 72.4171946,43.9601197 L72.4171946,42.351244 L72.4171946,42.351244 Z" id="Shape" stroke="#EEB211" stroke-width="0.5248" fill="#EEB211" sketch:type="MSShapeGroup"></path>
                <path d="M100.508702,46.4880098 C100.380421,46.4252406 100.371729,46.3895011 100.371729,46.1426286 C100.371729,45.6867254 100.407996,45.3209217 100.416687,45.1746603 C100.425379,45.0737489 100.443063,45.0286992 100.487422,45.0286992 L100.553061,45.1272079 C100.553061,45.2103997 100.553061,45.3389416 100.579437,45.4668828 C100.71641,46.1426286 101.317054,46.3985111 101.928788,46.3985111 C102.80278,46.3985111 103.230784,45.7678149 103.230784,45.1836702 C103.230784,44.5523734 102.969725,44.1892727 102.184752,43.539956 L101.774431,43.2002811 C100.809024,42.408307 100.589028,41.8394792 100.589028,41.2198953 C100.589028,40.2432173 101.317354,39.5761811 102.475782,39.5761811 C102.832752,39.5761811 103.097407,39.6113199 103.323398,39.6683829 C103.495439,39.7041223 103.56977,39.7128319 103.641404,39.7128319 L103.733419,39.7756012 C103.733419,39.8230536 103.698351,40.1239857 103.698351,40.7435696 C103.698351,40.8919333 103.679768,40.9547026 103.632712,40.9547026 L103.561378,40.8357713 C103.552686,40.7255497 103.495739,40.4813802 103.442688,40.3798681 C103.388738,40.2783561 103.142965,39.8942321 102.304041,39.8942321 C101.673425,39.8942321 101.180681,40.2879667 101.180681,40.9547026 C101.180681,41.4760781 101.436644,41.7860201 102.295349,42.4884955 L102.551312,42.6909189 C103.62432,43.5396557 103.880283,44.1051799 103.880283,44.8349854 C103.880283,45.2103997 103.734018,45.9044658 103.104001,46.351359 C102.714661,46.6252613 102.221318,46.735483 101.727674,46.735483 C101.299071,46.735483 100.880658,46.672113 100.508702,46.4880098 L100.508702,46.4880098 Z" id="Shape" stroke="#EEB211" stroke-width="0.5248" fill="#EEB211" sketch:type="MSShapeGroup"></path>
                <path d="M115.172335,43.9598194 C115.172335,44.8349854 115.172335,45.5587842 115.217293,45.9402052 C115.243669,46.2053979 115.300316,46.4078213 115.573663,46.4435608 C115.701345,46.4612803 115.900361,46.4793002 115.983384,46.4793002 L116.054718,46.5360629 C116.054718,46.5799113 116.010959,46.6069411 115.909652,46.6069411 C115.407317,46.6069411 114.833648,46.5799113 114.78869,46.5799113 C114.74493,46.5799113 114.167664,46.6069411 113.894317,46.6069411 C113.796607,46.6069411 113.749251,46.5892215 113.749251,46.5360629 L113.823582,46.4793002 L114.09693,46.4435608 C114.278262,46.4078213 114.325918,46.2053979 114.360985,45.9402052 C114.405944,45.5587842 114.405944,44.8349854 114.405944,43.9598194 L114.405944,42.3515443 C114.405944,40.9279731 114.405944,40.6720907 114.38826,40.3801685 C114.369977,40.0705267 114.278262,39.9125524 114.078646,39.8681033 C113.97734,39.8410735 113.859249,39.8323639 113.796607,39.8323639 L113.722876,39.7759015 C113.722876,39.7218419 113.769632,39.7044226 113.867941,39.7044226 C114.167664,39.7044226 114.74493,39.7314525 114.78869,39.7314525 C114.833648,39.7314525 115.407317,39.7044226 115.683661,39.7044226 C115.781371,39.7044226 115.829327,39.7221422 115.829327,39.7759015 L115.754995,39.8323639 C115.692353,39.8323639 115.635706,39.8410735 115.525408,39.8593937 C115.282333,39.9038427 115.208002,40.0618171 115.190618,40.3801685 C115.172035,40.672391 115.172035,40.9279731 115.172035,42.3515443 L115.172035,43.9598194 L115.172335,43.9598194 Z" id="Shape" stroke="#EEB211" stroke-width="0.5248" fill="#EEB211" sketch:type="MSShapeGroup"></path>
                <path d="M128.478523,43.9598194 C128.478523,44.8349854 128.478523,45.5587842 128.523481,45.9402052 C128.552854,46.2053979 128.606504,46.4078213 128.879851,46.4435608 C129.007533,46.4612803 129.206549,46.4793002 129.289572,46.4793002 L129.363904,46.5360629 C129.363904,46.5799113 129.316547,46.6069411 129.215241,46.6069411 C128.716503,46.6069411 128.142833,46.5799113 128.094878,46.5799113 C128.050519,46.5799113 127.47685,46.6069411 127.203203,46.6069411 C127.101896,46.6069411 127.058137,46.5892215 127.058137,46.5360629 L127.128872,46.4793002 L127.402818,46.4435608 C127.587147,46.4078213 127.631207,46.2053979 127.666874,45.9402052 C127.711832,45.5587842 127.711832,44.8349854 127.711832,43.9598194 L127.711832,40.0972562 L126.365478,40.1149758 C125.797503,40.1242861 125.581104,40.1864547 125.435139,40.4071983 C125.333832,40.5621694 125.306857,40.627041 125.279882,40.6898102 L125.187867,40.7826127 L125.143509,40.6988202 L125.342524,39.749172 L125.435139,39.5767818 C125.496582,39.5767818 125.589796,39.6689835 125.836168,39.6864028 C126.100823,39.7134326 126.445504,39.7314525 126.554903,39.7314525 L129.973539,39.7314525 C130.26457,39.7314525 130.475275,39.7044226 130.62094,39.6864028 C130.757314,39.6593729 130.83764,39.6389504 130.876904,39.6389504 L130.921263,39.749172 C130.921263,40.0230743 130.894287,40.6543711 130.894287,40.7558832 L130.828648,40.8721114 C130.78369,40.8721114 130.766006,40.8450816 130.757314,40.7171404 L130.748622,40.6186317 C130.710557,40.3447294 130.50225,40.1335963 129.625262,40.1152761 L128.477923,40.0975566 L128.477923,43.9598194 L128.478523,43.9598194 Z" id="Shape" stroke="#EEB211" stroke-width="0.5248" fill="#EEB211" sketch:type="MSShapeGroup"></path>
                <path d="M141.968741,44.2424313 C141.968741,43.7480857 141.876126,43.5483653 141.758036,43.2834729 C141.695394,43.1381125 140.473724,41.1276935 140.155718,40.6537705 C139.92673,40.3146962 139.698042,40.0876456 139.534093,39.9780246 C139.39772,39.8852222 139.225679,39.8320635 139.141756,39.8320635 L139.049741,39.7668916 L139.168432,39.7041223 C139.340472,39.7041223 140.027737,39.7311521 140.071796,39.7311521 C140.134438,39.7311521 140.482716,39.7041223 140.836388,39.7041223 C140.937095,39.7041223 140.955079,39.7311521 140.955079,39.7668916 L140.817506,39.8500834 L140.699115,40.0137641 C140.699115,40.1239857 140.747071,40.2342074 140.817506,40.3708582 C140.96377,40.6354502 142.330806,42.991851 142.497451,43.2567434 C142.669492,42.8726195 143.826422,40.8712105 144.010152,40.5702783 C144.126144,40.3795678 144.164209,40.2248971 144.164209,40.1056655 C144.164209,39.9777243 144.126144,39.8762122 144.019143,39.8497831 L143.88217,39.7575813 L144.028435,39.7035216 C144.265515,39.7035216 144.557146,39.7305515 144.62788,39.7305515 C144.684528,39.7305515 145.338523,39.7035216 145.51416,39.7035216 L145.632551,39.7575813 L145.51416,39.8314629 C145.412854,39.8314629 145.240813,39.8672023 145.095747,39.9600047 C144.911418,40.0696257 144.812509,40.1771444 144.610496,40.4240169 C144.310774,40.7907216 143.035753,42.9374911 142.868808,43.3282223 C142.732434,43.6585869 142.732434,43.9411989 142.732434,44.242131 L142.732434,45.0280985 C142.732434,45.1740596 142.732434,45.5584839 142.762406,45.9396045 C142.78009,46.2047972 142.860116,46.4072207 143.133463,46.4429601 C143.261145,46.4606797 143.463757,46.4786996 143.543184,46.4786996 L143.617515,46.5354622 C143.617515,46.5793106 143.573756,46.6063404 143.472449,46.6063404 C142.970114,46.6063404 142.396445,46.5793106 142.351486,46.5793106 C142.30473,46.5793106 141.730461,46.6063404 141.457713,46.6063404 C141.355808,46.6063404 141.312048,46.5886209 141.312048,46.5354622 L141.383382,46.4786996 L141.659727,46.4429601 C141.841059,46.4072207 141.921384,46.2047972 141.941766,45.9396045 C141.968741,45.5581836 141.968741,45.1740596 141.968741,45.0280985 L141.968741,44.2424313 L141.968741,44.2424313 Z" id="Shape" stroke="#EEB211" stroke-width="0.5248" fill="#EEB211" sketch:type="MSShapeGroup"></path>
                <path d="M82.9980045,10.0602037 C82.9980045,10.0602037 83.2800435,9.78600102 83.9843918,9.72052876 C84.7921444,9.64574622 85.232437,9.30066535 85.5321597,8.92224768 C85.8330813,8.54713366 85.8213921,8.14529014 86.1537845,7.82333479 C86.4927709,7.49597347 86.7864991,7.29054674 87.1941219,7.24579735 C87.60684,7.20134829 87.922448,7.26051359 88.2491457,7.07010343 C88.5764429,6.87969327 88.5881321,6.87638962 88.5881321,6.87638962 C88.5881321,6.87638962 88.3498526,6.95687846 88.0471327,6.98060465 C87.74741,7.00703382 87.283739,6.88239625 87.0067953,6.88239625 C86.7304509,6.88239625 86.1414959,7.00733415 85.8025095,7.32027955 C85.4641226,7.63562761 85.1368255,8.13928351 84.7978391,8.27593433 C84.4594522,8.41348615 83.9900865,8.54713366 83.746412,8.47265145 C83.3121138,8.33870361 83.1427705,8.24049522 82.7654197,8.28764726 C82.3907663,8.33840328 82.2843648,8.40387554 82.2843648,8.40387554 L86.1777623,3.39494708 L80.9670836,7.13857901 C80.9670836,7.13857901 80.9730781,6.90612244 81.124438,6.57876112 C81.2736999,6.25380246 81.8087049,5.91112424 81.8884311,5.36632293 C81.9570676,4.90140979 81.9960316,4.61279124 81.7373709,4.07940253 C81.5137778,3.60608011 81.538355,3.21024322 81.5938037,2.9153177 C81.6564458,2.58194975 81.8641536,2.23626822 82.0514803,2.05456767 C82.372783,1.74522624 82.4471142,1.56322537 82.5091568,1.3307688 L82.5658044,1.10491952 C82.5658044,1.10491952 82.5541152,1.2001246 82.3158357,1.50075642 C82.0598725,1.82241144 81.9118095,1.73921961 81.5991987,2.03114182 C81.2847896,2.3200607 81.0611965,2.67745517 80.9604897,3.09731858 C80.8417995,3.58866088 81.0653927,3.77937138 80.9997534,4.27972362 C80.9341141,4.75064339 80.8897552,4.84584847 80.633792,5.19693597 C80.4137956,5.49786812 80.2528445,5.56334038 79.9207518,5.7390343 C79.6560966,5.87598545 79.4334027,6.06369263 79.290435,6.40306721 L78.3121402,0.277205958 L77.3850979,6.45322256 C77.3850979,6.45322256 77.046711,5.92614081 77.0341227,5.75044689 C77.016439,5.52399696 77.0017526,4.78247853 76.5824406,4.34759854 C76.2314653,3.98419745 76.0354467,3.88298574 75.4530855,3.66314309 C75.111102,3.53460122 74.7190647,3.13005471 74.5494217,2.77235991 C74.3800784,2.41196214 74.4121487,1.75393586 74.3623947,1.60196813 C74.3120413,1.45030073 74.0857507,1.0932066 74.0857507,1.0932066 C74.0857507,1.0932066 74.2101356,1.40254802 74.1984464,1.70317984 C74.1867572,2.00411198 74.0350976,2.53149407 74.0740615,2.74593074 C74.112426,2.96006709 74.1367036,3.40095371 74.6000748,3.82682375 C75.0637458,4.25569711 75.2540697,4.20524142 75.5421032,4.77106593 C75.8304364,5.33659011 75.7803827,5.625509 75.678477,5.93875473 C75.5777702,6.25410279 75.4647747,6.55503494 75.5657813,6.8199273 C75.6667878,7.08211669 75.6637906,7.13887934 75.6637906,7.13887934 L70.4567085,3.39554774 L74.3120413,8.40147289 C74.3120413,8.40147289 73.8154008,8.35702383 73.5477485,8.11856063 C73.1763921,7.7939023 72.9264234,7.63022164 72.4930244,7.51129038 C72.4930244,7.51129038 72.0857013,7.36502894 71.4973457,7.54102319 C70.9053934,7.71671711 71.0180891,7.7614665 70.6173599,7.82393545 C70.2154318,7.88670473 69.5713278,7.78849633 69.2560195,7.52330364 C68.9440082,7.25811094 68.6856473,7.0259547 68.4593566,6.95177282 C68.2339652,6.87699028 68.052633,6.85656774 68.052633,6.85656774 C68.052633,6.85656774 68.4149977,6.98450896 68.6916417,7.29715403 C68.9739805,7.61880905 69.0423172,7.91643755 69.4433462,8.1401845 C69.8656554,8.3720404 70.2223254,8.4645425 70.5996763,8.44051598 C70.9740299,8.41408681 70.9857191,8.32458803 71.4877545,8.38405366 C71.7590036,8.41408681 72.2844174,8.62221653 72.4186932,8.78019089 C72.7717665,9.20305762 72.9887657,9.61391108 73.1587085,9.77158511 C73.3724107,9.97430886 73.6340686,10.0608043 73.6340686,10.0608043 L67.2233003,11.1296841 C67.2233003,11.1296841 73.2770989,10.7275402 74.0677673,10.6887975 C74.8587355,10.653058 77.021834,10.4830704 78.3388155,10.5013906 C79.6554972,10.5224138 80.4458659,10.5788761 81.3279497,10.6323351 C82.2142297,10.6887975 89.5517405,11.1567139 89.5517405,11.1567139 L82.9980045,10.0602037 L82.9980045,10.0602037 Z" id="Shape" stroke="#EEB211" stroke-width="0.5248" fill="#EEB211" sketch:type="MSShapeGroup"></path>
                <path d="M86.82876,40.1591245 L86.8994945,40.0495035 C86.9915094,40.0224737 87.2354837,39.9954438 87.5088307,39.9954438 C88.4871255,39.9954438 89.0865709,40.6805 89.0865709,41.8208586 C89.0865709,42.515225 88.8494903,43.0092703 88.5308851,43.2297136 C88.32018,43.375074 88.0672141,43.4021039 87.8478171,43.4021039 C87.4461887,43.4021039 87.0277758,43.3369319 86.8908026,43.2567434 L86.82876,43.1465218 L86.82876,40.1591245 L86.82876,40.1591245 Z M86.0974367,43.9598194 C86.0974367,44.8349854 86.0974367,45.5587842 86.0524783,45.9402052 C86.0144135,46.2053979 85.9694551,46.4078213 85.7878231,46.4435608 L85.514476,46.4793002 L85.4407443,46.5360629 C85.4407443,46.5895219 85.4881005,46.6069411 85.58581,46.6069411 C85.8591571,46.6069411 86.4358236,46.5799113 86.4445155,46.5799113 C86.4894739,46.5799113 87.0625437,46.6069411 87.5654783,46.6069411 C87.6661851,46.6069411 87.7105441,46.5799113 87.7105441,46.5360629 L87.6368123,46.4793002 C87.5564866,46.4793002 87.3535744,46.46098 87.226492,46.4435608 C86.9531449,46.4078213 86.8991948,46.2053979 86.8722198,45.9402052 C86.8284603,45.5587842 86.8284603,44.8349854 86.8284603,43.9598194 L86.8284603,43.7393761 L86.8905029,43.6678972 L88.0108662,43.6862174 L88.1295564,43.7396764 C88.3108886,43.9778393 88.7418898,44.5914165 89.1222379,45.0917688 C89.6425565,45.7768249 89.9605622,46.2234178 90.3522998,46.4351515 C90.5905793,46.5630927 90.818968,46.6075418 91.3275973,46.6075418 L91.9755978,46.6075418 C92.1389466,46.6075418 92.1955942,46.5898222 92.1955942,46.5366635 L92.1119716,46.4799009 C92.058621,46.4799009 91.9309391,46.4799009 91.7582988,46.4528711 C91.5293107,46.4171316 91.1372734,46.3162202 90.6436302,45.7954454 C90.1179166,45.2293206 89.4968912,44.4157226 88.7511812,43.4573648 C89.5712225,42.7005295 89.8535612,42.0247837 89.8535612,41.3487375 C89.8535612,40.7174407 89.4519328,40.2705475 89.2235442,40.1068668 C88.7418898,39.759083 88.1295564,39.7050233 87.5564866,39.7050233 C87.2738482,39.7050233 86.5811891,39.7320531 86.4804822,39.7320531 C86.4355238,39.7320531 85.8588574,39.7050233 85.4491365,39.7050233 C85.3508275,39.7050233 85.3034713,39.7227429 85.3034713,39.7765022 L85.3778025,39.8329645 L85.6868166,39.8599943 C85.9865393,39.922163 86.0608705,40.0711274 86.0785541,40.3807691 C86.0971369,40.6729917 86.0971369,40.9285738 86.0971369,42.352145 L86.0971369,43.9598194 L86.0974367,43.9598194 Z" id="Shape" stroke="#EEB211" stroke-width="0.5248" fill="#EEB211" sketch:type="MSShapeGroup"></path>
                <path d="M158.662694,35.5292144 C159.451265,35.5292144 160.088775,34.8862047 160.088775,34.0927289 C160.088775,33.3058604 159.451265,32.6628507 158.662694,32.6628507 C157.870527,32.6628507 157.228521,33.3061607 157.228521,34.0927289 C157.228521,34.886505 157.870527,35.5292144 158.662694,35.5292144 L158.662694,35.5292144 Z M158.662694,35.3403059 C157.96494,35.3403059 157.455711,34.7955046 157.455711,34.0927289 C157.455711,33.3965605 157.96494,32.8520595 158.662694,32.8520595 C159.356852,32.8520595 159.862784,33.3965605 159.862784,34.0927289 C159.862784,34.7955046 159.356852,35.3403059 158.662694,35.3403059 L158.662694,35.3403059 Z M158.892582,34.1566995 C159.17522,34.1491912 159.394317,34.0323623 159.394317,33.7179152 C159.394317,33.4536235 159.25075,33.2941475 158.828141,33.2941475 L158.130387,33.2941475 L158.130387,34.8940133 L158.326405,34.8940133 L158.326405,34.1566995 L158.684574,34.1566995 L159.141052,34.8940133 L159.375734,34.8940133 L158.892582,34.1566995 L158.892582,34.1566995 Z M158.326705,34.0017285 L158.326705,33.4344023 L158.783782,33.4344023 C158.979201,33.4344023 159.183013,33.4650361 159.183013,33.7143112 C159.183013,34.0392699 158.85122,34.0017285 158.625229,34.0017285 L158.326705,34.0017285 L158.326705,34.0017285 Z" id="Shape" stroke="#FFFFFF" stroke-width="0.125" fill="#FFFFFF" sketch:type="MSShapeGroup"></path>
                <g id="Group" transform="translate(0.000000, 12.613922)" stroke="#FFFFFF" stroke-width="0.5248" fill="#FFFFFF" sketch:type="MSShapeGroup">
                    <path d="M2.48140403,9.31988656 C2.48140403,4.85876272 2.48140403,4.05747833 2.42475645,3.14296896 C2.36870831,2.17229761 2.13942046,1.71369144 1.19769181,1.513971 C0.968403965,1.45780902 0.484351844,1.42747554 0.228688402,1.42747554 C0.112695726,1.42747554 0,1.37131355 0,1.25778825 C0,1.08509765 0.142368271,1.02863533 0.457676526,1.02863533 C1.74168847,1.02863533 3.4234324,1.11513079 3.59607266,1.11513079 C3.85173611,1.11513079 5.50710444,1.02863533 6.36281268,1.02863533 C6.67512371,1.02863533 6.81839115,1.08509765 6.81839115,1.25778825 C6.81839115,1.37131355 6.70479626,1.4271752 6.59210053,1.4271752 C6.39008745,1.4271752 6.22074413,1.45750868 5.87876056,1.51367067 C5.10637523,1.65692879 4.88008461,2.14196413 4.82103924,3.14266863 C4.76439165,4.05687766 4.76439165,4.85816206 4.76439165,9.31958623 L4.76439165,11.0347793 L4.88008461,11.0347793 C5.3650359,10.4896777 10.5271595,5.2305731 11.5552083,4.11694396 C12.3548684,3.28592675 13.0948837,2.54410799 13.0948837,2.055769 C13.0948837,1.71339111 12.9525154,1.54370382 12.7265245,1.45750868 C12.5841563,1.40074603 12.4678639,1.34067974 12.4678639,1.2277551 C12.4678639,1.08479731 12.6108316,1.028335 12.8098474,1.028335 C13.3802197,1.028335 14.2661999,1.11483046 14.9501671,1.11483046 C15.0925353,1.11483046 16.9768918,1.028335 17.6902318,1.028335 C18.0049406,1.028335 18.1176363,1.08479731 18.1176363,1.2277551 C18.1176363,1.37101322 18.0615882,1.4271752 17.8323003,1.4271752 C17.4048958,1.4271752 16.8042515,1.57043332 16.2338793,1.82961939 C15.06586,2.34138424 14.4385405,3.05617317 13.1548282,4.28633092 C12.4414883,4.97439034 7.47538325,9.83435439 6.87773624,10.5494437 C7.61775153,11.3771572 13.5528599,17.524342 14.7238764,18.6109413 C17.1192601,20.8421039 17.5208885,21.4163377 18.9742437,21.8692376 C19.7436318,22.1104037 20.5432919,22.2410479 20.7423078,22.2410479 C20.9413236,22.2410479 21.1139639,22.2978106 21.1139639,22.4140389 C21.1139639,22.557297 20.9715956,22.6404888 20.4866443,22.6404888 L19.0302918,22.6404888 C18.2312312,22.6404888 17.6902318,22.6404888 17.0632119,22.5840265 C15.5502119,22.4401677 14.8365722,21.8121746 13.6095075,20.8418036 C12.3257953,19.7813331 6.27769144,13.2353081 4.90675992,11.5498478 L4.76469138,11.5498478 L4.76469138,14.3495379 C4.76469138,17.0954686 4.76469138,19.3524597 4.90675992,20.5555877 C4.99397922,21.3839019 5.16542059,22.0115947 6.022028,22.1284236 C6.42005971,22.1848859 6.87773624,22.2410479 7.13339968,22.2410479 C7.30603994,22.2410479 7.36268753,22.3278437 7.36268753,22.4140389 C7.36268753,22.557297 7.21971981,22.6404888 6.90441156,22.6404888 C5.50770389,22.6404888 3.85233555,22.557297 3.62334743,22.557297 C3.39495875,22.557297 1.74258764,22.6404888 0.885980229,22.6404888 C0.57127142,22.6404888 0.428303704,22.5840265 0.428303704,22.4140389 C0.428303704,22.3278437 0.484951289,22.2410479 0.65759155,22.2410479 C0.913554716,22.2410479 1.25463912,22.1845856 1.51329979,22.1284236 C2.08457121,22.0115947 2.22663976,21.3839019 2.33933548,20.5555877 C2.4823032,19.3524597 2.4823032,17.0954686 2.4823032,14.3495379 L2.4823032,9.31988656 L2.48140403,9.31988656 Z" id="Shape"></path>
                    <path d="M37.5630441,18.7541994 C37.6196916,21.0979863 37.9050276,21.8425081 38.6753149,22.068958 C39.2163143,22.2122161 39.8463314,22.2413483 40.1013954,22.2413483 C40.2443631,22.2413483 40.3306832,22.2981109 40.3306832,22.4143392 C40.3306832,22.5843268 40.158043,22.6407891 39.8160594,22.6407891 C38.1909631,22.6407891 37.0493194,22.5575973 36.7906587,22.5575973 C36.5346956,22.5575973 35.3373035,22.6407891 34.0532915,22.6407891 C33.7679555,22.6407891 33.595615,22.6137593 33.595615,22.4143392 C33.595615,22.2981109 33.6819351,22.2413483 33.8249028,22.2413483 C34.0532915,22.2413483 34.5679154,22.2119158 34.9953199,22.068958 C35.7086599,21.8695379 35.8516276,21.0412237 35.8516276,18.4388514 L35.8780032,2.05606933 C35.8780032,0.942440192 35.9643233,0.626791804 36.1936111,0.626791804 C36.4219998,0.626791804 36.9060519,1.25808858 37.1913879,1.54400415 C37.6196916,2.02964016 41.8700589,6.63041814 46.2654919,11.3480251 C49.0888795,14.379571 52.1976031,17.8670202 53.1129562,18.8112624 L52.7982474,4.28693158 C52.7679754,2.42848037 52.5689595,1.80048724 51.6862763,1.57103398 C51.1725516,1.45810935 50.5152598,1.42777587 50.2868711,1.42777587 C50.0878552,1.42777587 50.0581827,1.3412804 50.0581827,1.22835576 C50.0581827,1.05536483 50.2868711,1.02893566 50.6285549,1.02893566 C51.9125669,1.02893566 53.2825992,1.11543113 53.597308,1.11543113 C53.9096191,1.11543113 54.8516474,1.02893566 56.0229637,1.02893566 C56.3346752,1.02893566 56.5366883,1.05536483 56.5366883,1.22835576 C56.5366883,1.3412804 56.4209954,1.42777587 56.2219795,1.42777587 C56.0796112,1.42777587 55.8799959,1.42777587 55.5389115,1.51427133 C54.5962837,1.71399177 54.4805908,2.3419849 54.4805908,4.05777866 L54.4239432,20.8126714 C54.4239432,22.7005551 54.367895,22.8435129 54.1688792,22.8435129 C53.9395913,22.8435129 53.5976078,22.5278645 52.0852071,21.0114908 C51.7698989,20.7258756 47.6624993,16.5239378 44.6370986,13.2659419 C41.3293592,9.6922976 38.1043432,6.08831981 37.1916877,5.05818283 L37.5630441,18.7541994 L37.5630441,18.7541994 Z" id="Shape"></path>
                    <path d="M66.6064711,14.3498382 C66.6064711,17.095769 66.6064711,19.3527601 66.7488393,20.555888 C66.8357589,21.3842022 67.0075,22.011895 67.8638077,22.128724 C68.2618394,22.1851863 68.889159,22.2413483 69.1478196,22.2413483 C69.3171629,22.2413483 69.3762083,22.3281441 69.3762083,22.4143392 C69.3762083,22.5575973 69.23384,22.6407891 68.9185318,22.6407891 C67.3494836,22.6407891 65.5511475,22.5575973 65.409079,22.5575973 C65.2661112,22.5575973 63.4677752,22.6407891 62.612067,22.6407891 C62.3003554,22.6407891 62.1573877,22.5843268 62.1573877,22.4143392 C62.1573877,22.3281441 62.2140352,22.2413483 62.3866755,22.2413483 C62.6426387,22.2413483 62.9837231,22.1848859 63.2423837,22.128724 C63.812756,22.011895 63.9557237,21.3842022 64.0684194,20.555888 C64.2113872,19.3527601 64.2113872,17.095769 64.2113872,14.3498382 L64.2113872,2.25849275 L59.9876952,2.31495507 C58.2196311,2.34138424 57.5335659,2.54410799 57.0779875,3.2291641 C56.7632787,3.71449977 56.6769585,3.91422021 56.5936356,4.11694396 C56.5073155,4.34279324 56.4212951,4.4025592 56.3082996,4.4025592 C56.2219795,4.4025592 56.1653319,4.31606373 56.1653319,4.14337313 C56.1653319,3.85745756 56.7366033,1.4004457 56.7926515,1.17129278 C56.8492991,0.998301848 56.9619948,0.626191141 57.0779875,0.626191141 C57.2779025,0.626191141 57.5629388,0.912407044 58.3323269,0.971272014 C59.1616595,1.05476417 60.2463559,1.11453013 60.5883394,1.11453013 L71.2875398,1.11453013 C73.1125512,1.11453013 73.8825387,0.82861456 74.1112271,0.82861456 C74.2541948,0.82861456 74.2541948,0.998001516 74.2541948,1.17099245 C74.2541948,2.02873916 74.1681744,4.00011501 74.1681744,4.3157634 C74.1681744,4.57194616 74.0848515,4.68787411 73.9691586,4.68787411 C73.8258911,4.68787411 73.7701427,4.60137864 73.739571,4.19983545 L73.7131954,3.88689005 C73.5972027,3.02944366 72.9429081,2.37111705 70.2028434,2.31465474 L66.6067708,2.25819242 L66.6067708,14.3498382 L66.6064711,14.3498382 Z" id="Shape"></path>
                    <path d="M103.584456,14.3498382 C103.584456,17.095769 103.584456,19.3527601 103.727424,20.555888 C103.811047,21.3842022 103.983387,22.011895 104.839096,22.128724 C105.237127,22.1851863 105.867144,22.2413483 106.122808,22.2413483 C106.295448,22.2413483 106.352395,22.3281441 106.352395,22.4143392 C106.352395,22.5575973 106.208828,22.6407891 105.894719,22.6407891 C104.324771,22.6407891 102.527035,22.5575973 102.384067,22.5575973 C102.241699,22.5575973 100.44636,22.6407891 99.5900523,22.6407891 C99.2756433,22.6407891 99.1335747,22.5843268 99.1335747,22.4143392 C99.1335747,22.3281441 99.1893231,22.2413483 99.3619634,22.2413483 C99.6179266,22.2413483 99.9596104,22.1848859 100.217672,22.128724 C100.788344,22.011895 100.930712,21.3842022 101.043707,20.555888 C101.186675,19.3527601 101.186675,17.095769 101.186675,14.3498382 L101.186675,2.25849275 L97.3646115,2.31495507 C95.5968471,2.34138424 94.909583,2.54410799 94.4552035,3.2291641 C94.1401949,3.71449977 94.0541745,3.91422021 93.9675547,4.11694396 C93.8845315,4.34279324 93.7985111,4.4025592 93.6825184,4.4025592 C93.5994952,4.4025592 93.5395507,4.31606373 93.5395507,4.14337313 C93.5395507,3.85745756 94.1096232,1.4004457 94.1695678,1.17129278 C94.2262153,0.998301848 94.3392108,0.626191141 94.4552035,0.626191141 C94.6542193,0.626191141 94.939855,0.912407044 95.7092431,0.971272014 C96.5358783,1.05476417 97.6205746,1.11453013 97.9625582,1.11453013 L108.263727,1.11453013 C109.176382,1.11453013 109.832475,1.02803466 110.290452,0.971272014 C110.718456,0.885076879 110.97352,0.82861456 111.087114,0.82861456 C111.229483,0.82861456 111.229483,0.998001516 111.229483,1.17099245 C111.229483,2.02873916 111.14646,4.00011501 111.14646,4.3157634 C111.14646,4.57194616 111.060439,4.68787411 110.947444,4.68787411 C110.802378,4.68787411 110.745431,4.60137864 110.718456,4.19983545 L110.688483,3.88689005 C110.576087,3.02944366 109.919395,2.37111705 107.17903,2.31465474 L103.585356,2.25819242 L103.585356,14.3498382 L103.584456,14.3498382 Z" id="Shape"></path>
                    <path d="M133.7992,14.3498382 C133.7992,17.095769 133.7992,19.3527601 133.941568,20.555888 C134.027588,21.3842022 134.197531,22.011895 135.05264,22.128724 C135.454268,22.1851863 136.081888,22.2413483 136.336352,22.2413483 C136.508992,22.2413483 136.56594,22.3281441 136.56594,22.4143392 C136.56594,22.5575973 136.422972,22.6407891 136.108263,22.6407891 C134.539515,22.6407891 132.743876,22.5575973 132.601208,22.5575973 C132.45884,22.5575973 130.660504,22.6407891 129.804796,22.6407891 C129.489188,22.6407891 129.347119,22.5843268 129.347119,22.4143392 C129.347119,22.3281441 129.403467,22.2413483 129.575508,22.2413483 C129.831471,22.2413483 130.176751,22.1848859 130.431815,22.128724 C131.002487,22.011895 131.144856,21.3842022 131.258451,20.555888 C131.400819,19.3527601 131.400819,17.095769 131.400819,14.3498382 L131.400819,2.25849275 L127.180724,2.31495507 C125.409363,2.34138424 124.725695,2.54410799 124.267719,3.2291641 C123.956307,3.71449977 123.869687,3.91422021 123.783667,4.11694396 C123.697646,4.34279324 123.614024,4.4025592 123.49863,4.4025592 C123.412011,4.4025592 123.355663,4.31606373 123.355663,4.14337313 C123.355663,3.85745756 123.925735,1.4004457 123.982683,1.17129278 C124.042327,0.998301848 124.155323,0.626191141 124.267719,0.626191141 C124.469732,0.626191141 124.754768,0.912407044 125.525055,0.971272014 C126.351091,1.05476417 127.436387,1.11453013 127.778371,1.11453013 L138.477571,1.11453013 C139.389627,1.11453013 140.046319,1.02803466 140.504296,0.971272014 C140.9323,0.885076879 141.187963,0.82861456 141.303956,0.82861456 C141.446923,0.82861456 141.446923,0.998001516 141.446923,1.17099245 C141.446923,2.02873916 141.359704,4.00011501 141.359704,4.3157634 C141.359704,4.57194616 141.274283,4.68787411 141.161288,4.68787411 C141.018919,4.68787411 140.959275,4.60137864 140.9323,4.19983545 L140.902927,3.88689005 C140.789332,3.02944366 140.13264,2.37111705 137.392275,2.31465474 L133.799799,2.25819242 L133.799799,14.3498382 L133.7992,14.3498382 Z" id="Shape"></path>
                    <path d="M21.4550483,9.31988656 C21.4550483,4.85876272 21.4550483,4.05747833 21.3954035,3.14296896 C21.3393553,2.17229761 21.1100675,1.71369144 20.1713361,1.513971 C19.9420482,1.45780902 19.4579961,1.42747554 19.1990357,1.42747554 C19.08634,1.42747554 18.970647,1.37131355 18.970647,1.25808858 C18.970647,1.08539798 19.1130153,1.02893566 19.4283236,1.02893566 C20.7123355,1.02893566 22.5106716,1.11543113 22.6527401,1.11543113 C22.851756,1.11543113 30.748849,1.11543113 31.4025442,1.08539798 C31.9462411,1.05536483 32.4042174,0.998902511 32.6296088,0.942440192 C32.7725765,0.912707375 32.8882695,0.799482406 33.0312372,0.799482406 C33.1145601,0.799482406 33.1439329,0.912707375 33.1439329,1.05536483 C33.1439329,1.25808858 33.0009652,1.60046647 32.9155442,2.40175087 C32.8882695,2.68466312 32.8322213,3.94455369 32.7725765,4.28663125 C32.7459012,4.42958903 32.6862564,4.60227964 32.5735607,4.60227964 C32.4042174,4.60227964 32.3442728,4.45932185 32.3442728,4.23016893 C32.3442728,4.03074883 32.3175975,3.5421095 32.175529,3.20003195 C31.9729164,2.74442909 29.4705318,2.40175087 27.9308564,2.22875993 C27.4468043,2.17229761 24.3350835,2.14226446 24.0224727,2.14226446 C23.9067798,2.14226446 23.8498325,2.22875993 23.8498325,2.42818004 L23.8498325,10.3202907 C23.8498325,10.5200112 23.879505,10.6065066 24.0224727,10.6065066 C24.3908319,10.6065066 30.1182325,10.6065066 30.7749249,10.549744 C31.4618893,10.4902784 31.859921,10.433816 32.1155844,10.1479005 C32.3172978,9.91814688 32.4302932,9.77578975 32.5438881,9.77578975 C32.6293091,9.77578975 32.6859567,9.83495506 32.6859567,10.0046423 C32.6859567,10.1773329 32.5438881,10.6626686 32.4605652,11.6072111 C32.4039176,12.1787419 32.3442728,13.2359088 32.3442728,13.4356292 C32.3442728,13.6644818 32.3442728,13.9801302 32.145257,13.9801302 C32.0028887,13.9801302 31.9462411,13.8639019 31.9462411,13.7212444 C31.9462411,13.4353289 31.9462411,13.1494133 31.8305482,12.7770023 C31.7169533,12.3778617 29.241244,11.892526 28.1298723,11.7762978 C27.3604842,11.6928056 24.5340993,11.63334 24.0491481,11.63334 C23.9067798,11.63334 23.8501322,11.7198354 23.8501322,11.8357634 L23.8501322,14.3495379 C23.8501322,15.3229122 23.8207594,18.6376708 23.8501322,19.2392348 C23.9364523,21.2109109 24.3644563,21.583322 27.1608689,21.583322 C27.9014836,21.583322 31.3755691,21.583322 32.1158841,21.2700762 C32.8588967,20.9544279 33.2008802,20.3828971 33.3995964,19.2095019 C33.4592412,18.8965565 33.5152893,18.7803283 33.658257,18.7803283 C33.8276003,18.7803283 33.8276003,19.0100818 33.8276003,19.2095019 C33.8276003,19.4389552 33.6013097,21.3839019 33.4592412,21.9845648 C33.2593262,22.7266839 33.0309375,22.7266839 31.9168683,22.7266839 C27.6104529,22.7266839 23.4787758,22.557297 22.6527401,22.557297 C22.5960925,22.557297 22.1087435,22.5843268 21.5116959,22.5843268 C20.9404245,22.6137593 20.2837321,22.6407891 19.8557281,22.6407891 C19.5410193,22.6407891 19.3980516,22.5843268 19.3980516,22.4143392 C19.3980516,22.3281441 19.4576964,22.2413483 19.6273394,22.2413483 C19.8860001,22.2413483 20.2270845,22.1848859 20.4830477,22.128724 C21.0543191,22.011895 21.1963876,21.3842022 21.3120806,20.555888 C21.4550483,19.3527601 21.4550483,17.095769 21.4550483,14.3498382 L21.4550483,9.31988656 L21.4550483,9.31988656 Z" id="Shape"></path>
                    <path d="M144.26012,9.47425695 C144.26012,5.01643675 144.26012,4.21545269 144.203773,3.30124366 C144.147125,2.32696833 143.918137,1.87136547 142.976109,1.67194536 C142.74712,1.6121794 142.262469,1.5854499 142.007405,1.5854499 C141.890813,1.5854499 141.778417,1.52898758 141.778417,1.41275929 C141.778417,1.24277167 141.921384,1.18360637 142.236093,1.18360637 C143.519805,1.18360637 145.315144,1.26980151 145.458112,1.26980151 C145.657128,1.26980151 153.553621,1.26980151 154.210314,1.24277167 C154.751313,1.21333919 155.20839,1.15627621 155.437978,1.10041455 C155.580346,1.0703814 155.693941,0.95415312 155.83601,0.95415312 C155.92203,0.95415312 155.952002,1.07068173 155.952002,1.21333919 C155.952002,1.41275929 155.809634,1.75543751 155.723014,2.55672191 C155.693641,2.84263748 155.636994,4.0992244 155.580047,4.44430528 C155.550674,4.58756339 155.494626,4.75755101 155.381031,4.75755101 C155.20839,4.75755101 155.152642,4.61399256 155.152642,4.38844362 C155.152642,4.18571987 155.12207,3.70008386 154.980002,3.35770597 C154.780986,2.8990998 152.278302,2.55672191 150.735929,2.38703462 C150.251277,2.32726866 147.142853,2.30053916 146.827245,2.30053916 C146.714849,2.30053916 146.658202,2.38703462 146.658202,2.58645473 L146.658202,10.4752618 C146.658202,10.6779855 146.685177,10.7614777 146.827245,10.7614777 C147.198901,10.7614777 152.926002,10.7614777 153.582695,10.7050154 C154.266362,10.6482527 154.667391,10.5917904 154.923354,10.3058748 C155.12237,10.0767219 155.238962,9.93376411 155.351958,9.93376411 C155.437978,9.93376411 155.494925,9.99022643 155.494925,10.1632174 C155.494925,10.3329047 155.351958,10.8212436 155.265338,11.7624825 C155.20869,12.3340133 155.152942,13.3941835 155.152942,13.5939039 C155.152942,13.8233571 155.152942,14.1357019 154.953926,14.1357019 C154.810958,14.1357019 154.751313,14.0227772 154.751313,13.8798195 C154.751313,13.5939039 154.751313,13.307688 154.638318,12.9355773 C154.525322,12.5367371 152.049613,12.0480977 150.938541,11.9348728 C150.165257,11.8483773 147.341869,11.7922153 146.857817,11.7922153 C146.714849,11.7922153 146.658202,11.8787108 146.658202,11.9916354 L146.658202,14.5081129 C146.658202,15.4787843 146.628229,18.7962458 146.658202,19.3981101 C146.741824,21.3697863 147.169229,21.7415967 149.966241,21.7415967 C150.709253,21.7415967 154.180641,21.7415967 154.923354,21.4259483 C155.666367,21.1139039 156.00805,20.5417724 156.207066,19.368077 C156.263714,19.0524286 156.320062,18.9395039 156.46303,18.9395039 C156.63567,18.9395039 156.63567,19.1686569 156.63567,19.368077 C156.63567,19.5975302 156.407281,21.5421766 156.264014,22.1410375 C156.064998,22.8855593 155.83601,22.8855593 154.724338,22.8855593 C150.415225,22.8855593 146.286545,22.7125684 145.458112,22.7125684 C145.401464,22.7125684 144.917113,22.7426015 144.316468,22.7426015 C143.745796,22.7696313 143.092401,22.7993642 142.663798,22.7993642 C142.34819,22.7993642 142.206121,22.7426015 142.206121,22.5699109 C142.206121,22.4837158 142.262469,22.4005239 142.435109,22.4005239 C142.690473,22.4005239 143.032756,22.340758 143.291417,22.283695 C143.861489,22.17047 144.004457,21.5421766 144.117452,20.7111594 C144.259821,19.5113351 144.259821,17.2537433 144.259821,14.5081129 L144.259821,9.47425695 L144.26012,9.47425695 Z" id="Shape"></path>
                    <path d="M81.7901221,22.3224378 C81.3147619,22.1230177 81.2826916,22.0061887 81.2826916,21.2349375 C81.2826916,19.8059603 81.4160682,18.6619977 81.4517352,18.2066951 C81.484405,17.8907464 81.5530414,17.748089 81.722085,17.748089 C81.9270953,17.748089 81.9597651,17.8345844 81.9597651,18.063437 C81.9597651,18.3199201 81.9597651,18.7217636 82.0604719,19.1209042 C82.5691013,21.2352378 84.8065311,22.0365222 87.0814262,22.0365222 C90.3349158,22.0365222 91.9279419,20.064846 91.9279419,18.2334246 C91.9279419,16.2623491 90.8132732,14.4573569 87.8981705,12.4259148 L86.3707837,11.3687479 C82.7771089,8.88230359 81.9627623,7.11004752 81.9627623,5.16540117 C81.9627623,2.10412237 84.6767512,0.0195215464 88.9828669,0.0195215464 C90.3058427,0.0195215464 90.9241706,0.117729941 91.7711869,0.290420544 C92.4155907,0.403345181 92.6532707,0.397338551 92.9245198,0.397338551 C93.1972674,0.397338551 93.2659039,0.454101201 93.2659039,0.596758656 C93.2659039,0.740016773 93.7025998,1.97558049 93.9702522,3.87547745 C94.0358914,4.32837732 93.9046129,4.53350373 93.7355693,4.53350373 C93.530559,4.53350373 93.4978892,4.39084627 93.4622222,4.16139302 C93.4295525,3.81901513 92.7791543,2.84834378 92.5771412,2.53269539 C92.370932,2.21974999 91.4591756,1.01962538 88.3381634,1.01962538 C85.9994273,1.01962538 84.169021,2.24617916 84.169021,4.33408362 C84.169021,5.96638523 85.1167441,6.93705658 88.3030958,9.13818602 L89.2538162,9.76617915 C93.2545144,12.4253141 94.3362136,14.8585998 94.3362136,17.145624 C94.3362136,18.3190191 93.7925166,20.4931187 91.4531811,21.8926634 C89.9968287,22.7501098 88.1661226,23.092788 86.3351167,23.092788 C84.7393932,23.0930883 83.1817345,22.8936682 81.7901221,22.3224378 L81.7901221,22.3224378 Z" id="Shape"></path>
                    <path d="M113.487593,13.1794464 C113.389884,13.1794464 113.321247,13.1226838 113.389884,12.9800263 L116.284605,5.26030591 C116.450352,4.83173289 116.6143,4.83173289 116.780347,5.26030591 L119.907054,12.9800263 C119.940323,13.092951 119.940323,13.1794464 119.776375,13.1794464 L113.487593,13.1794464 L113.487593,13.1794464 Z M108.874562,19.4957179 C108.283209,20.925596 107.627116,22.011895 106.110819,22.1851863 C105.846164,22.2122161 105.38549,22.2416486 105.154404,22.2416486 C104.990456,22.2416486 104.859477,22.2984112 104.859477,22.4146395 C104.859477,22.5846271 105.055495,22.6410895 105.483499,22.6410895 C107.032466,22.6410895 108.842491,22.5578976 109.204856,22.5578976 C109.56782,22.5578976 110.985508,22.6410895 111.77228,22.6410895 C112.069605,22.6410895 112.269221,22.5846271 112.269221,22.4146395 C112.269221,22.2984112 112.167315,22.2416486 111.938926,22.2416486 L111.608632,22.2416486 C111.050249,22.2416486 110.357589,21.9851655 110.357589,21.413935 C110.357589,20.8985662 110.520938,20.2111074 110.818263,19.4960182 L112.794635,14.436634 C112.860274,14.2933759 112.960981,14.2068804 113.124929,14.2068804 L120.203479,14.2068804 C120.367428,14.2068804 120.433067,14.2636431 120.501404,14.379571 L123.562471,21.413935 C123.762087,21.8698382 123.562471,22.1290243 123.366453,22.1851863 C123.233076,22.2122161 123.134767,22.2713814 123.134767,22.3846064 C123.134767,22.5575973 123.497731,22.5575973 124.124751,22.5846271 C126.394851,22.6410895 128.799825,22.6410895 129.29257,22.6410895 C129.655534,22.6410895 129.952259,22.5846271 129.952259,22.4146395 C129.952259,22.2713814 129.82158,22.2416486 129.622564,22.2416486 C129.29227,22.2416486 128.799526,22.2122161 128.305283,22.0692583 C127.613223,21.8992707 126.659206,21.4403642 125.473203,18.8974575 C123.464162,14.552562 118.293347,2.74472942 117.799104,1.65752945 C117.404669,0.76974959 117.27339,0.627092135 117.074375,0.627092135 C116.878356,0.627092135 116.74468,0.799782738 116.352043,1.74402492 L108.874562,19.4957179 L108.874562,19.4957179 Z" id="Shape"></path>
                </g>
            </g>
        </g>
    </g>
</svg>