<?xml version="1.0" encoding="UTF-8" standalone="no"?>
<svg width="119px" height="262px" viewBox="0 0 119 262" version="1.1" xmlns="http://www.w3.org/2000/svg" xmlns:xlink="http://www.w3.org/1999/xlink">
    <!-- Generator: Sketch 39.1 (31720) - http://www.bohemiancoding.com/sketch -->
    <title>Artboard</title>
    <desc>Created with Sketch.</desc>
    <defs>
        <rect id="path-1" x="11.5746691" y="1.94656127" width="99.2728422" height="99.274625" rx="49.6364211"></rect>
        <mask id="mask-2" maskContentUnits="userSpaceOnUse" maskUnits="objectBoundingBox" x="-3" y="-3" width="105.272842" height="105.274625">
            <rect x="8.57466905" y="-1.05343873" width="105.272842" height="105.274625" fill="white"></rect>
            <use xlink:href="#path-1" fill="black"></use>
        </mask>
        <rect id="path-3" x="10.6101133" y="0" width="99.2728422" height="99.274625" rx="49.6364211"></rect>
        <mask id="mask-4" maskContentUnits="userSpaceOnUse" maskUnits="objectBoundingBox" x="-3" y="-3" width="105.272842" height="105.274625">
            <rect x="7.6101133" y="-3" width="105.272842" height="105.274625" fill="white"></rect>
            <use xlink:href="#path-3" fill="black"></use>
        </mask>
        <rect id="path-5" x="11.5746691" y="1.94656127" width="99.2728422" height="99.274625" rx="49.6364211"></rect>
        <mask id="mask-6" maskContentUnits="userSpaceOnUse" maskUnits="objectBoundingBox" x="-3" y="-3" width="105.272842" height="105.274625">
            <rect x="8.57466905" y="-1.05343873" width="105.272842" height="105.274625" fill="white"></rect>
            <use xlink:href="#path-5" fill="black"></use>
        </mask>
        <rect id="path-7" x="10.6101133" y="0" width="99.2728422" height="99.274625" rx="49.6364211"></rect>
        <mask id="mask-8" maskContentUnits="userSpaceOnUse" maskUnits="objectBoundingBox" x="-3" y="-3" width="105.272842" height="105.274625">
            <rect x="7.6101133" y="-3" width="105.272842" height="105.274625" fill="white"></rect>
            <use xlink:href="#path-7" fill="black"></use>
        </mask>
    </defs>
    <g id="Page-1" stroke="none" stroke-width="1" fill="none" fill-rule="evenodd">
        <g id="Artboard">
            <g id="Group-7-Copy-2" transform="translate(-1.000000, 8.000000)">
                <g id="Group-Copy-5">
                    <g id="Rectangle-1-Copy">
                        <use fill="#FFFFFF" fill-rule="evenodd" xlink:href="#path-1"></use>
                        <use stroke="#01414F" mask="url(#mask-2)" stroke-width="6" xlink:href="#path-1"></use>
                    </g>
                    <g id="Rectangle-1">
                        <use fill="#FFFFFF" fill-rule="evenodd" xlink:href="#path-3"></use>
                        <use stroke="#006277" mask="url(#mask-4)" stroke-width="6" xlink:href="#path-3"></use>
                    </g>
                    <g id="Syllabus" transform="translate(47.263232, 15.545771)">
                        <g id="Group-3">
                            <g id="Group-2">
                                <g id="file">
                                    <g id="Capa_1">
                                        <g id="Group">
                                            <path d="M26.4879133,8.17813355 L19.6799892,1.46326425 C18.952332,0.745878826 17.991956,0.27935593 16.7993197,0.0643739785 L16.7993197,11.018805 L27.9060843,11.018805 C27.6878865,9.84198229 27.2148062,8.89521746 26.4879133,8.17813355 L26.4879133,8.17813355 Z" id="Shape" fill="#5C5C5C"></path>
                                            <path d="M14.6172653,13.1708105 C14.2099118,12.7692646 14.0064643,12.2814093 14.0064643,11.7073955 L14.0064643,0 L2.13635132,0 C1.55459243,0 1.05995981,0.200735252 0.652682727,0.602507272 C0.245329222,1.00405315 0.0417288957,1.49190841 0.0417288957,2.06592228 L0.0417288957,30.9904172 C0.0417288957,31.5645818 0.245329222,32.0524371 0.652682727,32.4540584 C1.06003623,32.8554535 1.55459243,33.0564149 2.13642775,33.0564149 L25.8770359,33.0564149 C26.4587184,33.0564149 26.9530453,32.8554535 27.3602459,32.4540584 C27.7674466,32.0521356 27.9711998,31.5645818 27.9711998,30.9904172 L27.9711998,13.7733177 L16.1012396,13.7733177 C15.5190986,13.7733177 15.024466,13.5725825 14.6172653,13.1708105 Z" id="Shape" fill="#212121"></path>
                                        </g>
                                    </g>
                                </g>
                            </g>
                        </g>
                    </g>
                </g>
                <path d="M9.58979741,60.5275777 L110.806644,60.5275777 C110.806644,60.5275777 103.732764,99.7696613 61.6107024,102.332331 C19.488641,104.895 9.58979741,60.5275777 9.58979741,60.5275777 Z" id="Path-9-Copy-5" fill="#006277"></path>
            </g>
            <g id="Group-7-Copy-3" transform="translate(-1.000000, 154.000000)">
                <g id="Group-Copy-5">
                    <use id="Rectangle-1-Copy" stroke="#01414F" mask="url(#mask-6)" stroke-width="6" xlink:href="#path-5"></use>
                    <g id="Rectangle-1">
                        <use fill="#FFFFFF" fill-rule="evenodd" xlink:href="#path-7"></use>
                        <use stroke="#00404E" mask="url(#mask-8)" stroke-width="6" xlink:href="#path-7"></use>
                    </g>
                    <g id="Syllabus" transform="translate(47.263232, 15.545771)">
                        <g id="Group-3">
                            <g id="Group-2">
                                <g id="file">
                                    <g id="Capa_1">
                                        <g id="Group">
                                            <path d="M19.6799892,1.46326425 C18.952332,0.745878826 17.991956,0.27935593 16.7993197,0.0643739785 L16.7993197,11.018805 L27.9060843,11.018805 C27.6878865,9.84198229 27.2148062,8.89521746 26.4879133,8.17813355 L19.6799892,1.46326425 Z" id="Shape" fill="#F06374"></path>
                                            <path d="M14.6172653,13.1708105 C14.2099118,12.7692646 14.0064643,12.2814093 14.0064643,11.7073955 L14.0064643,0 L2.13635132,0 C1.55459243,0 1.05995981,0.200735252 0.652682727,0.602507272 C0.245329222,1.00405315 0.0417288957,1.49190841 0.0417288957,2.06592228 L0.0417288957,30.9904172 C0.0417288957,31.5645818 0.245329222,32.0524371 0.652682727,32.4540584 C1.06003623,32.8554535 1.55459243,33.0564149 2.13642775,33.0564149 L25.8770359,33.0564149 C26.4587184,33.0564149 26.9530453,32.8554535 27.3602459,32.4540584 C27.7674466,32.0521356 27.9711998,31.5645818 27.9711998,30.9904172 L27.9711998,13.7733177 L16.1012396,13.7733177 C15.5190986,13.7733177 15.024466,13.5725825 14.6172653,13.1708105 Z" id="Shape" fill="#212121"></path>
                                        </g>
                                    </g>
                                </g>
                            </g>
                        </g>
                    </g>
                </g>
                <path d="M9.58979741,60.5275777 L110.806644,60.5275777 C110.806644,60.5275777 103.732764,99.7696613 61.6107024,102.332331 C19.488641,104.895 9.58979741,60.5275777 9.58979741,60.5275777 Z" id="Path-9-Copy-5" fill="#00404E"></path>
            </g>
        </g>
    </g>
</svg>